  0
SECTION
  2
HEADER
  9
$ACADVER
  1
AC1009
  9
$INSBASE
 10
0.0
 20
0.0
 30
0.0
  9
$EXTMIN
 10
0.0
 20
0.0
 30
0.0
  9
$EXTMAX
 10
0.0
 20
0.0
 30
0.0
  0
ENDSEC
  0
SECTION
  2
TABLES
  0
TABLE
  2
VPORT
 70
0
  0
ENDTAB
  0
TABLE
  2
LTYPE
 70
1
  0
LTYPE
  2
CONTINUOUS
 70
0
  3
Solid line
 72
65
 73
0
 40
0.0
  0
ENDTAB
  0
TABLE
  2
LAYER
 70
1
  0
LAYER
  2
0
 70
64
 62
7
  6
continuous
  0
ENDTAB
  0
TABLE
  2
STYLE
 70
1
  0
STYLE
  2
STANDARD
 70
0
 40
0
 41
1.0
 50
0.0
 71
0
 42
1
 3
ARIAL.TTF
 4

  0
ENDTAB
  0
TABLE
  2
VIEW
 70
0
  0
ENDTAB
  0
ENDSEC
  0
SECTION
  2
BLOCKS
  0
BLOCK
  8
0
  2
PAD
 70
0
 10
0.0
 20
0.0
 30
0.0
  3
PAD
  0
LINE
  8
0
 62
12
 10
-24.4
 20
18.27
 30
0.0
 11
-31.0
 21
18.27
 31
0.0
  0
LINE
  8
0
 62
12
 10
-31.0
 20
18.27
 30
0.0
 11
-31.0
 21
1.0
 31
0.0
  0
LINE
  8
0
 62
12
 10
-31.0
 20
1.0
 30
0.0
 11
-30.0
 21
1.0
 31
0.0
  0
LINE
  8
0
 62
12
 10
-30.0
 20
1.0
 30
0.0
 11
-30.0
 21
0.0
 31
0.0
  0
LINE
  8
0
 62
12
 10
-30.0
 20
0.0
 30
0.0
 11
0.0
 21
0.0
 31
0.0
  0
LINE
  8
0
 62
12
 10
0.0
 20
0.0
 30
0.0
 11
30.0
 21
0.0
 31
0.0
  0
LINE
  8
0
 62
12
 10
30.0
 20
0.0
 30
0.0
 11
30.0
 21
1.0
 31
0.0
  0
LINE
  8
0
 62
12
 10
30.0
 20
1.0
 30
0.0
 11
31.0
 21
1.0
 31
0.0
  0
LINE
  8
0
 62
12
 10
31.0
 20
1.0
 30
0.0
 11
31.0
 21
18.27
 31
0.0
  0
LINE
  8
0
 62
12
 10
31.0
 20
18.27
 30
0.0
 11
24.4
 21
18.27
 31
0.0
  0
ARC
  8
0
 62
12
 10
24.4
 20
21.57
 30
0.0
 40
3.3
 50
90.0
 51
-90.0
  0
LINE
  8
0
 62
12
 10
24.4
 20
24.87
 30
0.0
 11
31.0
 21
24.87
 31
0.0
  0
LINE
  8
0
 62
12
 10
31.0
 20
24.87
 30
0.0
 11
31.0
 21
59.13
 31
0.0
  0
LINE
  8
0
 62
12
 10
31.0
 20
59.13
 30
0.0
 11
24.4
 21
59.13
 31
0.0
  0
ARC
  8
0
 62
12
 10
24.4
 20
62.43
 30
0.0
 40
3.3
 50
90.0
 51
-90.0
  0
LINE
  8
0
 62
12
 10
24.4
 20
65.73
 30
0.0
 11
31.0
 21
65.73
 31
0.0
  0
LINE
  8
0
 62
12
 10
31.0
 20
65.73
 30
0.0
 11
31.0
 21
83.0
 31
0.0
  0
LINE
  8
0
 62
12
 10
30.0
 20
83.0
 30
0.0
 11
31.0
 21
83.0
 31
0.0
  0
LINE
  8
0
 62
12
 10
30.0
 20
84.0
 30
0.0
 11
30.0
 21
83.0
 31
0.0
  0
LINE
  8
0
 62
12
 10
30.0
 20
84.0
 30
0.0
 11
3.5527136788e-15
 21
84.0
 31
0.0
  0
LINE
  8
0
 62
12
 10
6.11311850664e-15
 20
84.0
 30
0.0
 11
-30.0
 21
84.0
 31
0.0
  0
LINE
  8
0
 62
12
 10
-30.0
 20
84.0
 30
0.0
 11
-30.0
 21
83.0
 31
0.0
  0
LINE
  8
0
 62
12
 10
-30.0
 20
83.0
 30
0.0
 11
-31.0
 21
83.0
 31
0.0
  0
LINE
  8
0
 62
12
 10
-31.0
 20
83.0
 30
0.0
 11
-31.0
 21
65.73
 31
0.0
  0
LINE
  8
0
 62
12
 10
-31.0
 20
65.73
 30
0.0
 11
-24.4
 21
65.73
 31
0.0
  0
ARC
  8
0
 62
12
 10
-24.4
 20
62.43
 30
0.0
 40
3.3
 50
-90.0
 51
90.0
  0
LINE
  8
0
 62
12
 10
-24.4
 20
59.13
 30
0.0
 11
-31.0
 21
59.13
 31
0.0
  0
LINE
  8
0
 62
12
 10
-31.0
 20
59.13
 30
0.0
 11
-31.0
 21
24.87
 31
0.0
  0
LINE
  8
0
 62
12
 10
-31.0
 20
24.87
 30
0.0
 11
-24.4
 21
24.87
 31
0.0
  0
ARC
  8
0
 62
12
 10
-24.4
 20
21.57
 30
0.0
 40
3.3
 50
-90.0
 51
90.0
  0
ENDBLK
  0
BLOCK
  8
0
  2
SKETCH003
 70
0
 10
0.0
 20
0.0
 30
0.0
  3
SKETCH003
  0
POLYLINE
  8
0
 62
7
 70
1
 66
1
 10
0.0
 20
0.0
 30
0.0
  0
VERTEX
  8
0
 10
-7.48
 20
88.02
  0
VERTEX
  8
0
 10
-1.87
 20
88.02
  0
VERTEX
  8
0
 10
-1.87
 20
68.32
  0
VERTEX
  8
0
 10
-7.48
 20
68.32
  0
SEQEND
  8
0
  0
POLYLINE
  8
0
 62
7
 70
1
 66
1
 10
0.0
 20
0.0
 30
0.0
  0
VERTEX
  8
0
 10
2.17
 20
88.02
  0
VERTEX
  8
0
 10
7.78
 20
88.02
  0
VERTEX
  8
0
 10
7.78
 20
68.32
  0
VERTEX
  8
0
 10
2.17
 20
68.32
  0
SEQEND
  8
0
  0
ENDBLK
  0
BLOCK
  8
0
  2
SKETCH010
 70
0
 10
0.0
 20
0.0
 30
0.0
  3
SKETCH010
  0
POLYLINE
  8
0
 62
7
 70
1
 66
1
 10
0.0
 20
0.0
 30
0.0
  0
VERTEX
  8
0
 10
-23.81
 20
0.0
  0
VERTEX
  8
0
 10
-23.81
 20
3.7
  0
VERTEX
  8
0
 10
-28.61
 20
3.7
  0
VERTEX
  8
0
 10
-28.61
 20
0.0
  0
VERTEX
  8
0
 10
-27.485
 20
0.0
  0
VERTEX
  8
0
 10
-27.485
 20
-0.95
  0
VERTEX
  8
0
 10
-24.935
 20
-0.95
  0
VERTEX
  8
0
 10
-24.935
 20
0.0
  0
SEQEND
  8
0
  0
POLYLINE
  8
0
 62
7
 70
1
 66
1
 10
0.0
 20
0.0
 30
0.0
  0
VERTEX
  8
0
 10
-19.215
 20
-0.95
  0
VERTEX
  8
0
 10
-19.215
 20
0.0
  0
VERTEX
  8
0
 10
-20.34
 20
0.0
  0
VERTEX
  8
0
 10
-20.34
 20
3.7
  0
VERTEX
  8
0
 10
-15.54
 20
3.7
  0
VERTEX
  8
0
 10
-15.54
 20
0.0
  0
VERTEX
  8
0
 10
-16.665
 20
0.0
  0
VERTEX
  8
0
 10
-16.665
 20
-0.95
  0
SEQEND
  8
0
  0
POLYLINE
  8
0
 62
7
 70
1
 66
1
 10
0.0
 20
0.0
 30
0.0
  0
VERTEX
  8
0
 10
-12.07
 20
0.0
  0
VERTEX
  8
0
 10
-12.07
 20
3.7
  0
VERTEX
  8
0
 10
-7.27
 20
3.7
  0
VERTEX
  8
0
 10
-7.27
 20
0.0
  0
VERTEX
  8
0
 10
-8.395
 20
0.0
  0
VERTEX
  8
0
 10
-8.395
 20
-0.95
  0
VERTEX
  8
0
 10
-10.945
 20
-0.95
  0
VERTEX
  8
0
 10
-10.945
 20
0.0
  0
SEQEND
  8
0
  0
ENDBLK
  0
BLOCK
  8
0
  2
PAD001
 70
0
 10
0.0
 20
0.0
 30
0.0
  3
PAD001
  0
LINE
  8
0
 62
0
 10
-24.4
 20
18.27
 30
0.0
 11
-31.0
 21
18.27
 31
0.0
  0
ARC
  8
0
 62
0
 10
-24.4
 20
21.57
 30
0.0
 40
3.3
 50
-90.0
 51
90.0
  0
LINE
  8
0
 62
0
 10
-31.0
 20
18.27
 30
0.0
 11
-31.0
 21
1.0
 31
0.0
  0
LINE
  8
0
 62
0
 10
-31.0
 20
1.0
 30
0.0
 11
-30.0
 21
1.0
 31
0.0
  0
LINE
  8
0
 62
0
 10
-30.0
 20
1.0
 30
0.0
 11
-30.0
 21
0.0
 31
0.0
  0
LINE
  8
0
 62
0
 10
-30.0
 20
0.0
 30
0.0
 11
0.0
 21
0.0
 31
0.0
  0
LINE
  8
0
 62
0
 10
0.0
 20
0.0
 30
0.0
 11
30.0
 21
0.0
 31
0.0
  0
LINE
  8
0
 62
0
 10
30.0
 20
0.0
 30
0.0
 11
30.0
 21
1.0
 31
0.0
  0
LINE
  8
0
 62
0
 10
30.0
 20
1.0
 30
0.0
 11
31.0
 21
1.0
 31
0.0
  0
LINE
  8
0
 62
0
 10
31.0
 20
1.0
 30
0.0
 11
31.0
 21
18.27
 31
0.0
  0
LINE
  8
0
 62
0
 10
31.0
 20
18.27
 30
0.0
 11
24.4
 21
18.27
 31
0.0
  0
ARC
  8
0
 62
0
 10
24.4
 20
21.57
 30
0.0
 40
3.3
 50
90.0
 51
-90.0
  0
LINE
  8
0
 62
0
 10
24.4
 20
24.87
 30
0.0
 11
31.0
 21
24.87
 31
0.0
  0
LINE
  8
0
 62
0
 10
31.0
 20
24.87
 30
0.0
 11
31.0
 21
59.13
 31
0.0
  0
LINE
  8
0
 62
0
 10
31.0
 20
59.13
 30
0.0
 11
24.4
 21
59.13
 31
0.0
  0
ARC
  8
0
 62
0
 10
24.4
 20
62.43
 30
0.0
 40
3.3
 50
90.0
 51
-90.0
  0
LINE
  8
0
 62
0
 10
24.4
 20
65.73
 30
0.0
 11
31.0
 21
65.73
 31
0.0
  0
LINE
  8
0
 62
0
 10
31.0
 20
65.73
 30
0.0
 11
31.0
 21
83.0
 31
0.0
  0
LINE
  8
0
 62
0
 10
30.0
 20
83.0
 30
0.0
 11
31.0
 21
83.0
 31
0.0
  0
LINE
  8
0
 62
0
 10
30.0
 20
84.0
 30
0.0
 11
30.0
 21
83.0
 31
0.0
  0
LINE
  8
0
 62
0
 10
30.0
 20
84.0
 30
0.0
 11
3.5527136788e-15
 21
84.0
 31
0.0
  0
LINE
  8
0
 62
0
 10
6.11311850664e-15
 20
84.0
 30
0.0
 11
-30.0
 21
84.0
 31
0.0
  0
LINE
  8
0
 62
0
 10
-30.0
 20
84.0
 30
0.0
 11
-30.0
 21
83.0
 31
0.0
  0
LINE
  8
0
 62
0
 10
-30.0
 20
83.0
 30
0.0
 11
-31.0
 21
83.0
 31
0.0
  0
LINE
  8
0
 62
0
 10
-31.0
 20
83.0
 30
0.0
 11
-31.0
 21
65.73
 31
0.0
  0
LINE
  8
0
 62
0
 10
-31.0
 20
65.73
 30
0.0
 11
-24.4
 21
65.73
 31
0.0
  0
ARC
  8
0
 62
0
 10
-24.4
 20
62.43
 30
0.0
 40
3.3
 50
-90.0
 51
90.0
  0
LINE
  8
0
 62
0
 10
-24.4
 20
59.13
 30
0.0
 11
-31.0
 21
59.13
 31
0.0
  0
LINE
  8
0
 62
0
 10
-31.0
 20
59.13
 30
0.0
 11
-31.0
 21
24.87
 31
0.0
  0
LINE
  8
0
 62
0
 10
-31.0
 20
24.87
 30
0.0
 11
-24.4
 21
24.87
 31
0.0
  0
LINE
  8
0
 62
0
 10
-27.485
 20
0.0
 30
0.0
 11
-27.485
 21
-0.95
 31
0.0
  0
LINE
  8
0
 62
0
 10
-27.485
 20
-0.95
 30
0.0
 11
-24.935
 21
-0.95
 31
0.0
  0
LINE
  8
0
 62
0
 10
-24.935
 20
-0.95
 30
0.0
 11
-24.935
 21
4.4408920985e-16
 31
0.0
  0
LINE
  8
0
 62
0
 10
-8.395
 20
0.0
 30
0.0
 11
-8.395
 21
-0.95
 31
0.0
  0
LINE
  8
0
 62
0
 10
-8.395
 20
-0.95
 30
0.0
 11
-10.945
 21
-0.95
 31
0.0
  0
LINE
  8
0
 62
0
 10
-10.945
 20
-0.95
 30
0.0
 11
-10.945
 21
4.4408920985e-16
 31
0.0
  0
LINE
  8
0
 62
0
 10
-16.665
 20
-0.95
 30
0.0
 11
-19.215
 21
-0.95
 31
0.0
  0
LINE
  8
0
 62
0
 10
-16.665
 20
0.0
 30
0.0
 11
-16.665
 21
-0.95
 31
0.0
  0
LINE
  8
0
 62
0
 10
-19.215
 20
-0.95
 30
0.0
 11
-19.215
 21
4.4408920985e-16
 31
0.0
  0
ENDBLK
  0
BLOCK
  8
0
  2
PAD002
 70
0
 10
0.0
 20
0.0
 30
0.0
  3
PAD002
  0
LINE
  8
0
 62
0
 10
-24.4
 20
18.27
 30
0.0
 11
-31.0
 21
18.27
 31
0.0
  0
ARC
  8
0
 62
0
 10
-24.4
 20
21.57
 30
0.0
 40
3.3
 50
-90.0
 51
90.0
  0
LINE
  8
0
 62
0
 10
-31.0
 20
18.27
 30
0.0
 11
-31.0
 21
1.0
 31
0.0
  0
LINE
  8
0
 62
0
 10
-31.0
 20
1.0
 30
0.0
 11
-30.0
 21
1.0
 31
0.0
  0
LINE
  8
0
 62
0
 10
-30.0
 20
1.0
 30
0.0
 11
-30.0
 21
0.0
 31
0.0
  0
LINE
  8
0
 62
0
 10
-30.0
 20
0.0
 30
0.0
 11
0.0
 21
0.0
 31
0.0
  0
LINE
  8
0
 62
0
 10
0.0
 20
0.0
 30
0.0
 11
30.0
 21
0.0
 31
0.0
  0
LINE
  8
0
 62
0
 10
30.0
 20
0.0
 30
0.0
 11
30.0
 21
1.0
 31
0.0
  0
LINE
  8
0
 62
0
 10
30.0
 20
1.0
 30
0.0
 11
31.0
 21
1.0
 31
0.0
  0
LINE
  8
0
 62
0
 10
31.0
 20
1.0
 30
0.0
 11
31.0
 21
18.27
 31
0.0
  0
LINE
  8
0
 62
0
 10
31.0
 20
18.27
 30
0.0
 11
24.4
 21
18.27
 31
0.0
  0
ARC
  8
0
 62
0
 10
24.4
 20
21.57
 30
0.0
 40
3.3
 50
90.0
 51
-90.0
  0
LINE
  8
0
 62
0
 10
24.4
 20
24.87
 30
0.0
 11
31.0
 21
24.87
 31
0.0
  0
LINE
  8
0
 62
0
 10
31.0
 20
24.87
 30
0.0
 11
31.0
 21
59.13
 31
0.0
  0
LINE
  8
0
 62
0
 10
31.0
 20
59.13
 30
0.0
 11
24.4
 21
59.13
 31
0.0
  0
ARC
  8
0
 62
0
 10
24.4
 20
62.43
 30
0.0
 40
3.3
 50
90.0
 51
-90.0
  0
LINE
  8
0
 62
0
 10
24.4
 20
65.73
 30
0.0
 11
31.0
 21
65.73
 31
0.0
  0
LINE
  8
0
 62
0
 10
31.0
 20
65.73
 30
0.0
 11
31.0
 21
83.0
 31
0.0
  0
LINE
  8
0
 62
0
 10
30.0
 20
83.0
 30
0.0
 11
31.0
 21
83.0
 31
0.0
  0
LINE
  8
0
 62
0
 10
30.0
 20
84.0
 30
0.0
 11
30.0
 21
83.0
 31
0.0
  0
LINE
  8
0
 62
0
 10
30.0
 20
84.0
 30
0.0
 11
3.5527136788e-15
 21
84.0
 31
0.0
  0
LINE
  8
0
 62
0
 10
6.11311850664e-15
 20
84.0
 30
0.0
 11
-30.0
 21
84.0
 31
0.0
  0
LINE
  8
0
 62
0
 10
-30.0
 20
84.0
 30
0.0
 11
-30.0
 21
83.0
 31
0.0
  0
LINE
  8
0
 62
0
 10
-30.0
 20
83.0
 30
0.0
 11
-31.0
 21
83.0
 31
0.0
  0
LINE
  8
0
 62
0
 10
-31.0
 20
83.0
 30
0.0
 11
-31.0
 21
65.73
 31
0.0
  0
LINE
  8
0
 62
0
 10
-31.0
 20
65.73
 30
0.0
 11
-24.4
 21
65.73
 31
0.0
  0
ARC
  8
0
 62
0
 10
-24.4
 20
62.43
 30
0.0
 40
3.3
 50
-90.0
 51
90.0
  0
LINE
  8
0
 62
0
 10
-24.4
 20
59.13
 30
0.0
 11
-31.0
 21
59.13
 31
0.0
  0
LINE
  8
0
 62
0
 10
-31.0
 20
59.13
 30
0.0
 11
-31.0
 21
24.87
 31
0.0
  0
LINE
  8
0
 62
0
 10
-31.0
 20
24.87
 30
0.0
 11
-24.4
 21
24.87
 31
0.0
  0
LINE
  8
0
 62
0
 10
15.05
 20
1.7763568394e-15
 30
0.0
 11
15.05
 21
-2.8
 31
0.0
  0
LINE
  8
0
 62
0
 10
30.0
 20
-2.8
 30
0.0
 11
30.0
 21
8.881784197e-16
 31
0.0
  0
LINE
  8
0
 62
0
 10
15.05
 20
-2.8
 30
0.0
 11
30.0
 21
-2.8
 31
0.0
  0
ENDBLK
  0
BLOCK
  8
0
  2
PAD003
 70
0
 10
0.0
 20
0.0
 30
0.0
  3
PAD003
  0
LINE
  8
0
 62
0
 10
-24.4
 20
18.27
 30
0.0
 11
-31.0
 21
18.27
 31
0.0
  0
ARC
  8
0
 62
0
 10
-24.4
 20
21.57
 30
0.0
 40
3.3
 50
-90.0
 51
90.0
  0
LINE
  8
0
 62
0
 10
-31.0
 20
18.27
 30
0.0
 11
-31.0
 21
1.0
 31
0.0
  0
LINE
  8
0
 62
0
 10
-31.0
 20
1.0
 30
0.0
 11
-30.0
 21
1.0
 31
0.0
  0
LINE
  8
0
 62
0
 10
-30.0
 20
1.0
 30
0.0
 11
-30.0
 21
0.0
 31
0.0
  0
LINE
  8
0
 62
0
 10
-30.0
 20
0.0
 30
0.0
 11
-29.87
 21
0.0
 31
0.0
  0
LINE
  8
0
 62
0
 10
-23.77
 20
3.3
 30
0.0
 11
-23.77
 21
0.0
 31
0.0
  0
LINE
  8
0
 62
0
 10
-23.77
 20
0.0
 30
0.0
 11
0.0
 21
0.0
 31
0.0
  0
LINE
  8
0
 62
0
 10
0.0
 20
0.0
 30
0.0
 11
30.0
 21
0.0
 31
0.0
  0
LINE
  8
0
 62
0
 10
30.0
 20
0.0
 30
0.0
 11
30.0
 21
1.0
 31
0.0
  0
LINE
  8
0
 62
0
 10
30.0
 20
1.0
 30
0.0
 11
31.0
 21
1.0
 31
0.0
  0
LINE
  8
0
 62
0
 10
31.0
 20
1.0
 30
0.0
 11
31.0
 21
18.27
 31
0.0
  0
LINE
  8
0
 62
0
 10
31.0
 20
18.27
 30
0.0
 11
24.4
 21
18.27
 31
0.0
  0
ARC
  8
0
 62
0
 10
24.4
 20
21.57
 30
0.0
 40
3.3
 50
90.0
 51
-90.0
  0
LINE
  8
0
 62
0
 10
24.4
 20
24.87
 30
0.0
 11
31.0
 21
24.87
 31
0.0
  0
LINE
  8
0
 62
0
 10
31.0
 20
24.87
 30
0.0
 11
31.0
 21
59.13
 31
0.0
  0
LINE
  8
0
 62
0
 10
31.0
 20
59.13
 30
0.0
 11
24.4
 21
59.13
 31
0.0
  0
ARC
  8
0
 62
0
 10
24.4
 20
62.43
 30
0.0
 40
3.3
 50
90.0
 51
-90.0
  0
LINE
  8
0
 62
0
 10
24.4
 20
65.73
 30
0.0
 11
31.0
 21
65.73
 31
0.0
  0
LINE
  8
0
 62
0
 10
31.0
 20
65.73
 30
0.0
 11
31.0
 21
83.0
 31
0.0
  0
LINE
  8
0
 62
0
 10
30.0
 20
83.0
 30
0.0
 11
31.0
 21
83.0
 31
0.0
  0
LINE
  8
0
 62
0
 10
30.0
 20
84.0
 30
0.0
 11
30.0
 21
83.0
 31
0.0
  0
LINE
  8
0
 62
0
 10
30.0
 20
84.0
 30
0.0
 11
3.5527136788e-15
 21
84.0
 31
0.0
  0
LINE
  8
0
 62
0
 10
6.11311850664e-15
 20
84.0
 30
0.0
 11
-30.0
 21
84.0
 31
0.0
  0
LINE
  8
0
 62
0
 10
-30.0
 20
84.0
 30
0.0
 11
-30.0
 21
83.0
 31
0.0
  0
LINE
  8
0
 62
0
 10
-30.0
 20
83.0
 30
0.0
 11
-31.0
 21
83.0
 31
0.0
  0
LINE
  8
0
 62
0
 10
-31.0
 20
83.0
 30
0.0
 11
-31.0
 21
65.73
 31
0.0
  0
LINE
  8
0
 62
0
 10
-31.0
 20
65.73
 30
0.0
 11
-24.4
 21
65.73
 31
0.0
  0
ARC
  8
0
 62
0
 10
-24.4
 20
62.43
 30
0.0
 40
3.3
 50
-90.0
 51
90.0
  0
LINE
  8
0
 62
0
 10
-24.4
 20
59.13
 30
0.0
 11
-31.0
 21
59.13
 31
0.0
  0
LINE
  8
0
 62
0
 10
-31.0
 20
59.13
 30
0.0
 11
-31.0
 21
24.87
 31
0.0
  0
LINE
  8
0
 62
0
 10
-31.0
 20
24.87
 30
0.0
 11
-24.4
 21
24.87
 31
0.0
  0
LINE
  8
0
 62
0
 10
-29.87
 20
-2.8
 30
0.0
 11
-29.87
 21
3.3
 31
0.0
  0
LINE
  8
0
 62
0
 10
-29.87
 20
3.3
 30
0.0
 11
-23.77
 21
3.3
 31
0.0
  0
LINE
  8
0
 62
0
 10
-23.77
 20
3.3
 30
0.0
 11
-23.77
 21
-2.8
 31
0.0
  0
LINE
  8
0
 62
0
 10
-23.77
 20
-2.8
 30
0.0
 11
-29.87
 21
-2.8
 31
0.0
  0
ENDBLK
  0
BLOCK
  8
0
  2
PAD004
 70
0
 10
0.0
 20
0.0
 30
0.0
  3
PAD004
  0
LINE
  8
0
 62
0
 10
-24.4
 20
18.27
 30
0.0
 11
-31.0
 21
18.27
 31
0.0
  0
ARC
  8
0
 62
0
 10
-24.4
 20
21.57
 30
0.0
 40
3.3
 50
-90.0
 51
90.0
  0
LINE
  8
0
 62
0
 10
-31.0
 20
18.27
 30
0.0
 11
-31.0
 21
1.0
 31
0.0
  0
LINE
  8
0
 62
0
 10
-31.0
 20
1.0
 30
0.0
 11
-30.0
 21
1.0
 31
0.0
  0
LINE
  8
0
 62
0
 10
-30.0
 20
1.0
 30
0.0
 11
-30.0
 21
0.0
 31
0.0
  0
LINE
  8
0
 62
0
 10
-30.0
 20
0.0
 30
0.0
 11
-23.1
 21
0.0
 31
0.0
  0
LINE
  8
0
 62
0
 10
-5.73
 20
8.44
 30
0.0
 11
-5.73
 21
0.0
 31
0.0
  0
LINE
  8
0
 62
0
 10
-5.73
 20
0.0
 30
0.0
 11
0.0
 21
0.0
 31
0.0
  0
LINE
  8
0
 62
0
 10
0.0
 20
0.0
 30
0.0
 11
30.0
 21
0.0
 31
0.0
  0
LINE
  8
0
 62
0
 10
30.0
 20
0.0
 30
0.0
 11
30.0
 21
1.0
 31
0.0
  0
LINE
  8
0
 62
0
 10
30.0
 20
1.0
 30
0.0
 11
31.0
 21
1.0
 31
0.0
  0
LINE
  8
0
 62
0
 10
31.0
 20
1.0
 30
0.0
 11
31.0
 21
18.27
 31
0.0
  0
LINE
  8
0
 62
0
 10
31.0
 20
18.27
 30
0.0
 11
24.4
 21
18.27
 31
0.0
  0
ARC
  8
0
 62
0
 10
24.4
 20
21.57
 30
0.0
 40
3.3
 50
90.0
 51
-90.0
  0
LINE
  8
0
 62
0
 10
24.4
 20
24.87
 30
0.0
 11
31.0
 21
24.87
 31
0.0
  0
LINE
  8
0
 62
0
 10
31.0
 20
24.87
 30
0.0
 11
31.0
 21
59.13
 31
0.0
  0
LINE
  8
0
 62
0
 10
31.0
 20
59.13
 30
0.0
 11
24.4
 21
59.13
 31
0.0
  0
ARC
  8
0
 62
0
 10
24.4
 20
62.43
 30
0.0
 40
3.3
 50
90.0
 51
-90.0
  0
LINE
  8
0
 62
0
 10
24.4
 20
65.73
 30
0.0
 11
31.0
 21
65.73
 31
0.0
  0
LINE
  8
0
 62
0
 10
31.0
 20
65.73
 30
0.0
 11
31.0
 21
83.0
 31
0.0
  0
LINE
  8
0
 62
0
 10
30.0
 20
83.0
 30
0.0
 11
31.0
 21
83.0
 31
0.0
  0
LINE
  8
0
 62
0
 10
30.0
 20
84.0
 30
0.0
 11
30.0
 21
83.0
 31
0.0
  0
LINE
  8
0
 62
0
 10
30.0
 20
84.0
 30
0.0
 11
3.5527136788e-15
 21
84.0
 31
0.0
  0
LINE
  8
0
 62
0
 10
6.11311850664e-15
 20
84.0
 30
0.0
 11
-30.0
 21
84.0
 31
0.0
  0
LINE
  8
0
 62
0
 10
-30.0
 20
84.0
 30
0.0
 11
-30.0
 21
83.0
 31
0.0
  0
LINE
  8
0
 62
0
 10
-30.0
 20
83.0
 30
0.0
 11
-31.0
 21
83.0
 31
0.0
  0
LINE
  8
0
 62
0
 10
-31.0
 20
83.0
 30
0.0
 11
-31.0
 21
65.73
 31
0.0
  0
LINE
  8
0
 62
0
 10
-31.0
 20
65.73
 30
0.0
 11
-24.4
 21
65.73
 31
0.0
  0
ARC
  8
0
 62
0
 10
-24.4
 20
62.43
 30
0.0
 40
3.3
 50
-90.0
 51
90.0
  0
LINE
  8
0
 62
0
 10
-24.4
 20
59.13
 30
0.0
 11
-31.0
 21
59.13
 31
0.0
  0
LINE
  8
0
 62
0
 10
-31.0
 20
59.13
 30
0.0
 11
-31.0
 21
24.87
 31
0.0
  0
LINE
  8
0
 62
0
 10
-31.0
 20
24.87
 30
0.0
 11
-24.4
 21
24.87
 31
0.0
  0
LINE
  8
0
 62
0
 10
-23.1
 20
-3.0
 30
0.0
 11
-23.1
 21
8.44
 31
0.0
  0
LINE
  8
0
 62
0
 10
-23.1
 20
8.44
 30
0.0
 11
-5.73
 21
8.44
 31
0.0
  0
LINE
  8
0
 62
0
 10
-5.73
 20
8.44
 30
0.0
 11
-5.73
 21
-3.0
 31
0.0
  0
LINE
  8
0
 62
0
 10
-5.73
 20
-3.0
 30
0.0
 11
-23.1
 21
-3.0
 31
0.0
  0
ENDBLK
  0
BLOCK
  8
0
  2
PAD005
 70
0
 10
0.0
 20
0.0
 30
0.0
  3
PAD005
  0
LINE
  8
0
 62
0
 10
-24.4
 20
18.27
 30
0.0
 11
-31.0
 21
18.27
 31
0.0
  0
ARC
  8
0
 62
0
 10
-24.4
 20
21.57
 30
0.0
 40
3.3
 50
-90.0
 51
90.0
  0
LINE
  8
0
 62
0
 10
-31.0
 20
18.27
 30
0.0
 11
-31.0
 21
1.0
 31
0.0
  0
LINE
  8
0
 62
0
 10
-31.0
 20
1.0
 30
0.0
 11
-30.0
 21
1.0
 31
0.0
  0
LINE
  8
0
 62
0
 10
-30.0
 20
1.0
 30
0.0
 11
-30.0
 21
0.0
 31
0.0
  0
LINE
  8
0
 62
0
 10
-30.0
 20
0.0
 30
0.0
 11
-2.05
 21
0.0
 31
0.0
  0
LINE
  8
0
 62
0
 10
13.0
 20
8.42
 30
0.0
 11
13.0
 21
-1.7763568394e-15
 31
0.0
  0
LINE
  8
0
 62
0
 10
13.0
 20
0.0
 30
0.0
 11
30.0
 21
0.0
 31
0.0
  0
LINE
  8
0
 62
0
 10
30.0
 20
0.0
 30
0.0
 11
30.0
 21
1.0
 31
0.0
  0
LINE
  8
0
 62
0
 10
30.0
 20
1.0
 30
0.0
 11
31.0
 21
1.0
 31
0.0
  0
LINE
  8
0
 62
0
 10
31.0
 20
1.0
 30
0.0
 11
31.0
 21
18.27
 31
0.0
  0
LINE
  8
0
 62
0
 10
31.0
 20
18.27
 30
0.0
 11
24.4
 21
18.27
 31
0.0
  0
ARC
  8
0
 62
0
 10
24.4
 20
21.57
 30
0.0
 40
3.3
 50
90.0
 51
-90.0
  0
LINE
  8
0
 62
0
 10
24.4
 20
24.87
 30
0.0
 11
31.0
 21
24.87
 31
0.0
  0
LINE
  8
0
 62
0
 10
31.0
 20
24.87
 30
0.0
 11
31.0
 21
59.13
 31
0.0
  0
LINE
  8
0
 62
0
 10
31.0
 20
59.13
 30
0.0
 11
24.4
 21
59.13
 31
0.0
  0
ARC
  8
0
 62
0
 10
24.4
 20
62.43
 30
0.0
 40
3.3
 50
90.0
 51
-90.0
  0
LINE
  8
0
 62
0
 10
24.4
 20
65.73
 30
0.0
 11
31.0
 21
65.73
 31
0.0
  0
LINE
  8
0
 62
0
 10
31.0
 20
65.73
 30
0.0
 11
31.0
 21
83.0
 31
0.0
  0
LINE
  8
0
 62
0
 10
30.0
 20
83.0
 30
0.0
 11
31.0
 21
83.0
 31
0.0
  0
LINE
  8
0
 62
0
 10
30.0
 20
84.0
 30
0.0
 11
30.0
 21
83.0
 31
0.0
  0
LINE
  8
0
 62
0
 10
30.0
 20
84.0
 30
0.0
 11
3.5527136788e-15
 21
84.0
 31
0.0
  0
LINE
  8
0
 62
0
 10
6.11311850664e-15
 20
84.0
 30
0.0
 11
-30.0
 21
84.0
 31
0.0
  0
LINE
  8
0
 62
0
 10
-30.0
 20
84.0
 30
0.0
 11
-30.0
 21
83.0
 31
0.0
  0
LINE
  8
0
 62
0
 10
-30.0
 20
83.0
 30
0.0
 11
-31.0
 21
83.0
 31
0.0
  0
LINE
  8
0
 62
0
 10
-31.0
 20
83.0
 30
0.0
 11
-31.0
 21
65.73
 31
0.0
  0
LINE
  8
0
 62
0
 10
-31.0
 20
65.73
 30
0.0
 11
-24.4
 21
65.73
 31
0.0
  0
ARC
  8
0
 62
0
 10
-24.4
 20
62.43
 30
0.0
 40
3.3
 50
-90.0
 51
90.0
  0
LINE
  8
0
 62
0
 10
-24.4
 20
59.13
 30
0.0
 11
-31.0
 21
59.13
 31
0.0
  0
LINE
  8
0
 62
0
 10
-31.0
 20
59.13
 30
0.0
 11
-31.0
 21
24.87
 31
0.0
  0
LINE
  8
0
 62
0
 10
-31.0
 20
24.87
 30
0.0
 11
-24.4
 21
24.87
 31
0.0
  0
LINE
  8
0
 62
0
 10
-2.05
 20
-2.7
 30
0.0
 11
-2.05
 21
8.42
 31
0.0
  0
LINE
  8
0
 62
0
 10
-2.05
 20
8.42
 30
0.0
 11
13.0
 21
8.42
 31
0.0
  0
LINE
  8
0
 62
0
 10
13.0
 20
8.42
 30
0.0
 11
13.0
 21
-2.7
 31
0.0
  0
LINE
  8
0
 62
0
 10
13.0
 20
-2.7
 30
0.0
 11
-2.05
 21
-2.7
 31
0.0
  0
ENDBLK
  0
BLOCK
  8
0
  2
PAD006
 70
0
 10
0.0
 20
0.0
 30
0.0
  3
PAD006
  0
LINE
  8
0
 62
0
 10
-24.4
 20
18.27
 30
0.0
 11
-31.0
 21
18.27
 31
0.0
  0
ARC
  8
0
 62
0
 10
-24.4
 20
21.57
 30
0.0
 40
3.3
 50
-90.0
 51
90.0
  0
LINE
  8
0
 62
0
 10
-31.0
 20
18.27
 30
0.0
 11
-31.0
 21
1.0
 31
0.0
  0
LINE
  8
0
 62
0
 10
-31.0
 20
1.0
 30
0.0
 11
-30.0
 21
1.0
 31
0.0
  0
LINE
  8
0
 62
0
 10
-30.0
 20
1.0
 30
0.0
 11
-30.0
 21
0.0
 31
0.0
  0
LINE
  8
0
 62
0
 10
-30.0
 20
0.0
 30
0.0
 11
0.0
 21
0.0
 31
0.0
  0
LINE
  8
0
 62
0
 10
0.0
 20
0.0
 30
0.0
 11
19.3
 21
0.0
 31
0.0
  0
LINE
  8
0
 62
0
 10
27.07
 20
6.33
 30
0.0
 11
27.07
 21
-1.7763568394e-15
 31
0.0
  0
LINE
  8
0
 62
0
 10
27.07
 20
0.0
 30
0.0
 11
30.0
 21
0.0
 31
0.0
  0
LINE
  8
0
 62
0
 10
30.0
 20
0.0
 30
0.0
 11
30.0
 21
1.0
 31
0.0
  0
LINE
  8
0
 62
0
 10
30.0
 20
1.0
 30
0.0
 11
31.0
 21
1.0
 31
0.0
  0
LINE
  8
0
 62
0
 10
31.0
 20
1.0
 30
0.0
 11
31.0
 21
18.27
 31
0.0
  0
LINE
  8
0
 62
0
 10
31.0
 20
18.27
 30
0.0
 11
24.4
 21
18.27
 31
0.0
  0
ARC
  8
0
 62
0
 10
24.4
 20
21.57
 30
0.0
 40
3.3
 50
90.0
 51
-90.0
  0
LINE
  8
0
 62
0
 10
24.4
 20
24.87
 30
0.0
 11
31.0
 21
24.87
 31
0.0
  0
LINE
  8
0
 62
0
 10
31.0
 20
24.87
 30
0.0
 11
31.0
 21
59.13
 31
0.0
  0
LINE
  8
0
 62
0
 10
31.0
 20
59.13
 30
0.0
 11
24.4
 21
59.13
 31
0.0
  0
ARC
  8
0
 62
0
 10
24.4
 20
62.43
 30
0.0
 40
3.3
 50
90.0
 51
-90.0
  0
LINE
  8
0
 62
0
 10
24.4
 20
65.73
 30
0.0
 11
31.0
 21
65.73
 31
0.0
  0
LINE
  8
0
 62
0
 10
31.0
 20
65.73
 30
0.0
 11
31.0
 21
83.0
 31
0.0
  0
LINE
  8
0
 62
0
 10
30.0
 20
83.0
 30
0.0
 11
31.0
 21
83.0
 31
0.0
  0
LINE
  8
0
 62
0
 10
30.0
 20
84.0
 30
0.0
 11
30.0
 21
83.0
 31
0.0
  0
LINE
  8
0
 62
0
 10
30.0
 20
84.0
 30
0.0
 11
3.5527136788e-15
 21
84.0
 31
0.0
  0
LINE
  8
0
 62
0
 10
6.11311850664e-15
 20
84.0
 30
0.0
 11
-30.0
 21
84.0
 31
0.0
  0
LINE
  8
0
 62
0
 10
-30.0
 20
84.0
 30
0.0
 11
-30.0
 21
83.0
 31
0.0
  0
LINE
  8
0
 62
0
 10
-30.0
 20
83.0
 30
0.0
 11
-31.0
 21
83.0
 31
0.0
  0
LINE
  8
0
 62
0
 10
-31.0
 20
83.0
 30
0.0
 11
-31.0
 21
65.73
 31
0.0
  0
LINE
  8
0
 62
0
 10
-31.0
 20
65.73
 30
0.0
 11
-24.4
 21
65.73
 31
0.0
  0
ARC
  8
0
 62
0
 10
-24.4
 20
62.43
 30
0.0
 40
3.3
 50
-90.0
 51
90.0
  0
LINE
  8
0
 62
0
 10
-24.4
 20
59.13
 30
0.0
 11
-31.0
 21
59.13
 31
0.0
  0
LINE
  8
0
 62
0
 10
-31.0
 20
59.13
 30
0.0
 11
-31.0
 21
24.87
 31
0.0
  0
LINE
  8
0
 62
0
 10
-31.0
 20
24.87
 30
0.0
 11
-24.4
 21
24.87
 31
0.0
  0
LINE
  8
0
 62
0
 10
19.3
 20
-2.7
 30
0.0
 11
19.3
 21
6.33
 31
0.0
  0
LINE
  8
0
 62
0
 10
19.3
 20
6.33
 30
0.0
 11
27.07
 21
6.33
 31
0.0
  0
LINE
  8
0
 62
0
 10
27.07
 20
6.33
 30
0.0
 11
27.07
 21
-2.7
 31
0.0
  0
LINE
  8
0
 62
0
 10
27.07
 20
-2.7
 30
0.0
 11
19.3
 21
-2.7
 31
0.0
  0
ENDBLK
  0
BLOCK
  8
0
  2
PAD007
 70
0
 10
0.0
 20
0.0
 30
0.0
  3
PAD007
  0
LINE
  8
0
 62
0
 10
-24.4
 20
18.27
 30
0.0
 11
-31.0
 21
18.27
 31
0.0
  0
ARC
  8
0
 62
0
 10
-24.4
 20
21.57
 30
0.0
 40
3.3
 50
-90.0
 51
90.0
  0
LINE
  8
0
 62
0
 10
-31.0
 20
18.27
 30
0.0
 11
-31.0
 21
1.0
 31
0.0
  0
LINE
  8
0
 62
0
 10
-31.0
 20
1.0
 30
0.0
 11
-30.0
 21
1.0
 31
0.0
  0
LINE
  8
0
 62
0
 10
-30.0
 20
1.0
 30
0.0
 11
-30.0
 21
0.0
 31
0.0
  0
LINE
  8
0
 62
0
 10
-30.0
 20
0.0
 30
0.0
 11
0.0
 21
0.0
 31
0.0
  0
LINE
  8
0
 62
0
 10
0.0
 20
0.0
 30
0.0
 11
30.0
 21
0.0
 31
0.0
  0
LINE
  8
0
 62
0
 10
30.0
 20
0.0
 30
0.0
 11
30.0
 21
1.0
 31
0.0
  0
LINE
  8
0
 62
0
 10
30.0
 20
1.0
 30
0.0
 11
31.0
 21
1.0
 31
0.0
  0
LINE
  8
0
 62
0
 10
31.0
 20
1.0
 30
0.0
 11
31.0
 21
18.27
 31
0.0
  0
LINE
  8
0
 62
0
 10
31.0
 20
18.27
 30
0.0
 11
24.4
 21
18.27
 31
0.0
  0
ARC
  8
0
 62
0
 10
24.4
 20
21.57
 30
0.0
 40
3.3
 50
90.0
 51
-90.0
  0
LINE
  8
0
 62
0
 10
24.4
 20
24.87
 30
0.0
 11
31.0
 21
24.87
 31
0.0
  0
LINE
  8
0
 62
0
 10
31.0
 20
24.87
 30
0.0
 11
31.0
 21
59.13
 31
0.0
  0
LINE
  8
0
 62
0
 10
31.0
 20
59.13
 30
0.0
 11
24.4
 21
59.13
 31
0.0
  0
ARC
  8
0
 62
0
 10
24.4
 20
62.43
 30
0.0
 40
3.3
 50
90.0
 51
-90.0
  0
LINE
  8
0
 62
0
 10
24.4
 20
65.73
 30
0.0
 11
31.0
 21
65.73
 31
0.0
  0
LINE
  8
0
 62
0
 10
31.0
 20
65.73
 30
0.0
 11
31.0
 21
83.0
 31
0.0
  0
LINE
  8
0
 62
0
 10
30.0
 20
83.0
 30
0.0
 11
31.0
 21
83.0
 31
0.0
  0
LINE
  8
0
 62
0
 10
30.0
 20
84.0
 30
0.0
 11
30.0
 21
83.0
 31
0.0
  0
LINE
  8
0
 62
0
 10
30.0
 20
84.0
 30
0.0
 11
26.925
 21
84.0
 31
0.0
  0
LINE
  8
0
 62
0
 10
26.925
 20
84.0
 30
0.0
 11
26.925
 21
66.91
 31
0.0
  0
LINE
  8
0
 62
0
 10
10.945
 20
84.0
 30
0.0
 11
3.5527136788e-15
 21
84.0
 31
0.0
  0
LINE
  8
0
 62
0
 10
6.11311850664e-15
 20
84.0
 30
0.0
 11
-30.0
 21
84.0
 31
0.0
  0
LINE
  8
0
 62
0
 10
-30.0
 20
84.0
 30
0.0
 11
-30.0
 21
83.0
 31
0.0
  0
LINE
  8
0
 62
0
 10
-30.0
 20
83.0
 30
0.0
 11
-31.0
 21
83.0
 31
0.0
  0
LINE
  8
0
 62
0
 10
-31.0
 20
83.0
 30
0.0
 11
-31.0
 21
65.73
 31
0.0
  0
LINE
  8
0
 62
0
 10
-31.0
 20
65.73
 30
0.0
 11
-24.4
 21
65.73
 31
0.0
  0
ARC
  8
0
 62
0
 10
-24.4
 20
62.43
 30
0.0
 40
3.3
 50
-90.0
 51
90.0
  0
LINE
  8
0
 62
0
 10
-24.4
 20
59.13
 30
0.0
 11
-31.0
 21
59.13
 31
0.0
  0
LINE
  8
0
 62
0
 10
-31.0
 20
59.13
 30
0.0
 11
-31.0
 21
24.87
 31
0.0
  0
LINE
  8
0
 62
0
 10
-31.0
 20
24.87
 30
0.0
 11
-24.4
 21
24.87
 31
0.0
  0
LINE
  8
0
 62
0
 10
26.925
 20
88.02
 30
0.0
 11
26.925
 21
66.91
 31
0.0
  0
LINE
  8
0
 62
0
 10
26.925
 20
66.91
 30
0.0
 11
10.945
 21
66.91
 31
0.0
  0
LINE
  8
0
 62
0
 10
10.945
 20
66.91
 30
0.0
 11
10.945
 21
88.02
 31
0.0
  0
LINE
  8
0
 62
0
 10
10.945
 20
88.02
 30
0.0
 11
26.925
 21
88.02
 31
0.0
  0
ENDBLK
  0
BLOCK
  8
0
  2
PAD008
 70
0
 10
0.0
 20
0.0
 30
0.0
  3
PAD008
  0
LINE
  8
0
 62
0
 10
-24.4
 20
18.27
 30
0.0
 11
-31.0
 21
18.27
 31
0.0
  0
ARC
  8
0
 62
0
 10
-24.4
 20
21.57
 30
0.0
 40
3.3
 50
-90.0
 51
90.0
  0
LINE
  8
0
 62
0
 10
-31.0
 20
18.27
 30
0.0
 11
-31.0
 21
1.0
 31
0.0
  0
LINE
  8
0
 62
0
 10
-31.0
 20
1.0
 30
0.0
 11
-30.0
 21
1.0
 31
0.0
  0
LINE
  8
0
 62
0
 10
-30.0
 20
1.0
 30
0.0
 11
-30.0
 21
0.0
 31
0.0
  0
LINE
  8
0
 62
0
 10
-30.0
 20
0.0
 30
0.0
 11
0.0
 21
0.0
 31
0.0
  0
LINE
  8
0
 62
0
 10
0.0
 20
0.0
 30
0.0
 11
30.0
 21
0.0
 31
0.0
  0
LINE
  8
0
 62
0
 10
30.0
 20
0.0
 30
0.0
 11
30.0
 21
1.0
 31
0.0
  0
LINE
  8
0
 62
0
 10
30.0
 20
1.0
 30
0.0
 11
31.0
 21
1.0
 31
0.0
  0
LINE
  8
0
 62
0
 10
31.0
 20
1.0
 30
0.0
 11
31.0
 21
18.27
 31
0.0
  0
LINE
  8
0
 62
0
 10
31.0
 20
18.27
 30
0.0
 11
24.4
 21
18.27
 31
0.0
  0
ARC
  8
0
 62
0
 10
24.4
 20
21.57
 30
0.0
 40
3.3
 50
90.0
 51
-90.0
  0
LINE
  8
0
 62
0
 10
24.4
 20
24.87
 30
0.0
 11
31.0
 21
24.87
 31
0.0
  0
LINE
  8
0
 62
0
 10
31.0
 20
24.87
 30
0.0
 11
31.0
 21
59.13
 31
0.0
  0
LINE
  8
0
 62
0
 10
31.0
 20
59.13
 30
0.0
 11
24.4
 21
59.13
 31
0.0
  0
ARC
  8
0
 62
0
 10
24.4
 20
62.43
 30
0.0
 40
3.3
 50
90.0
 51
-90.0
  0
LINE
  8
0
 62
0
 10
24.4
 20
65.73
 30
0.0
 11
31.0
 21
65.73
 31
0.0
  0
LINE
  8
0
 62
0
 10
31.0
 20
65.73
 30
0.0
 11
31.0
 21
83.0
 31
0.0
  0
LINE
  8
0
 62
0
 10
30.0
 20
83.0
 30
0.0
 11
31.0
 21
83.0
 31
0.0
  0
LINE
  8
0
 62
0
 10
30.0
 20
84.0
 30
0.0
 11
30.0
 21
83.0
 31
0.0
  0
LINE
  8
0
 62
0
 10
30.0
 20
84.0
 30
0.0
 11
7.78
 21
84.0
 31
0.0
  0
LINE
  8
0
 62
0
 10
7.78
 20
84.0
 30
0.0
 11
7.78
 21
68.32
 31
0.0
  0
LINE
  8
0
 62
0
 10
2.17
 20
84.0
 30
0.0
 11
3.5527136788e-15
 21
84.0
 31
0.0
  0
LINE
  8
0
 62
0
 10
6.11311850664e-15
 20
84.0
 30
0.0
 11
-1.87
 21
84.0
 31
0.0
  0
LINE
  8
0
 62
0
 10
-1.87
 20
84.0
 30
0.0
 11
-1.87
 21
68.32
 31
0.0
  0
LINE
  8
0
 62
0
 10
-7.48
 20
84.0
 30
0.0
 11
-30.0
 21
84.0
 31
0.0
  0
LINE
  8
0
 62
0
 10
-30.0
 20
84.0
 30
0.0
 11
-30.0
 21
83.0
 31
0.0
  0
LINE
  8
0
 62
0
 10
-30.0
 20
83.0
 30
0.0
 11
-31.0
 21
83.0
 31
0.0
  0
LINE
  8
0
 62
0
 10
-31.0
 20
83.0
 30
0.0
 11
-31.0
 21
65.73
 31
0.0
  0
LINE
  8
0
 62
0
 10
-31.0
 20
65.73
 30
0.0
 11
-24.4
 21
65.73
 31
0.0
  0
ARC
  8
0
 62
0
 10
-24.4
 20
62.43
 30
0.0
 40
3.3
 50
-90.0
 51
90.0
  0
LINE
  8
0
 62
0
 10
-24.4
 20
59.13
 30
0.0
 11
-31.0
 21
59.13
 31
0.0
  0
LINE
  8
0
 62
0
 10
-31.0
 20
59.13
 30
0.0
 11
-31.0
 21
24.87
 31
0.0
  0
LINE
  8
0
 62
0
 10
-31.0
 20
24.87
 30
0.0
 11
-24.4
 21
24.87
 31
0.0
  0
LINE
  8
0
 62
0
 10
7.78
 20
88.02
 30
0.0
 11
7.78
 21
68.32
 31
0.0
  0
LINE
  8
0
 62
0
 10
7.78
 20
68.32
 30
0.0
 11
2.17
 21
68.32
 31
0.0
  0
LINE
  8
0
 62
0
 10
2.17
 20
68.32
 30
0.0
 11
2.17
 21
88.02
 31
0.0
  0
LINE
  8
0
 62
0
 10
-1.87
 20
88.02
 30
0.0
 11
-1.87
 21
68.32
 31
0.0
  0
LINE
  8
0
 62
0
 10
-1.87
 20
68.32
 30
0.0
 11
-7.48
 21
68.32
 31
0.0
  0
LINE
  8
0
 62
0
 10
-7.48
 20
68.32
 30
0.0
 11
-7.48
 21
88.02
 31
0.0
  0
LINE
  8
0
 62
0
 10
2.17
 20
88.02
 30
0.0
 11
7.78
 21
88.02
 31
0.0
  0
LINE
  8
0
 62
0
 10
-7.48
 20
88.02
 30
0.0
 11
-1.87
 21
88.02
 31
0.0
  0
ENDBLK
  0
BLOCK
  8
0
  2
PAD009
 70
0
 10
0.0
 20
0.0
 30
0.0
  3
PAD009
  0
LINE
  8
0
 62
0
 10
-24.4
 20
18.27
 30
0.0
 11
-31.0
 21
18.27
 31
0.0
  0
ARC
  8
0
 62
0
 10
-24.4
 20
21.57
 30
0.0
 40
3.3
 50
-90.0
 51
90.0
  0
LINE
  8
0
 62
0
 10
-31.0
 20
18.27
 30
0.0
 11
-31.0
 21
1.0
 31
0.0
  0
LINE
  8
0
 62
0
 10
-31.0
 20
1.0
 30
0.0
 11
-30.0
 21
1.0
 31
0.0
  0
LINE
  8
0
 62
0
 10
-30.0
 20
1.0
 30
0.0
 11
-30.0
 21
0.0
 31
0.0
  0
LINE
  8
0
 62
0
 10
-30.0
 20
0.0
 30
0.0
 11
0.0
 21
0.0
 31
0.0
  0
LINE
  8
0
 62
0
 10
0.0
 20
0.0
 30
0.0
 11
30.0
 21
0.0
 31
0.0
  0
LINE
  8
0
 62
0
 10
30.0
 20
0.0
 30
0.0
 11
30.0
 21
1.0
 31
0.0
  0
LINE
  8
0
 62
0
 10
30.0
 20
1.0
 30
0.0
 11
31.0
 21
1.0
 31
0.0
  0
LINE
  8
0
 62
0
 10
31.0
 20
1.0
 30
0.0
 11
31.0
 21
18.27
 31
0.0
  0
LINE
  8
0
 62
0
 10
31.0
 20
18.27
 30
0.0
 11
24.4
 21
18.27
 31
0.0
  0
ARC
  8
0
 62
0
 10
24.4
 20
21.57
 30
0.0
 40
3.3
 50
90.0
 51
-90.0
  0
LINE
  8
0
 62
0
 10
24.4
 20
24.87
 30
0.0
 11
31.0
 21
24.87
 31
0.0
  0
LINE
  8
0
 62
0
 10
31.0
 20
24.87
 30
0.0
 11
31.0
 21
59.13
 31
0.0
  0
LINE
  8
0
 62
0
 10
31.0
 20
59.13
 30
0.0
 11
24.4
 21
59.13
 31
0.0
  0
ARC
  8
0
 62
0
 10
24.4
 20
62.43
 30
0.0
 40
3.3
 50
90.0
 51
-90.0
  0
LINE
  8
0
 62
0
 10
24.4
 20
65.73
 30
0.0
 11
31.0
 21
65.73
 31
0.0
  0
LINE
  8
0
 62
0
 10
31.0
 20
65.73
 30
0.0
 11
31.0
 21
83.0
 31
0.0
  0
LINE
  8
0
 62
0
 10
30.0
 20
83.0
 30
0.0
 11
31.0
 21
83.0
 31
0.0
  0
LINE
  8
0
 62
0
 10
30.0
 20
84.0
 30
0.0
 11
30.0
 21
83.0
 31
0.0
  0
LINE
  8
0
 62
0
 10
30.0
 20
84.0
 30
0.0
 11
3.5527136788e-15
 21
84.0
 31
0.0
  0
LINE
  8
0
 62
0
 10
6.11311850664e-15
 20
84.0
 30
0.0
 11
-9.43
 21
84.0
 31
0.0
  0
LINE
  8
0
 62
0
 10
-9.43
 20
84.0
 30
0.0
 11
-9.43
 21
82.03
 31
0.0
  0
LINE
  8
0
 62
0
 10
-15.43
 20
84.0
 30
0.0
 11
-30.0
 21
84.0
 31
0.0
  0
LINE
  8
0
 62
0
 10
-30.0
 20
84.0
 30
0.0
 11
-30.0
 21
83.0
 31
0.0
  0
LINE
  8
0
 62
0
 10
-30.0
 20
83.0
 30
0.0
 11
-31.0
 21
83.0
 31
0.0
  0
LINE
  8
0
 62
0
 10
-31.0
 20
83.0
 30
0.0
 11
-31.0
 21
65.73
 31
0.0
  0
LINE
  8
0
 62
0
 10
-31.0
 20
65.73
 30
0.0
 11
-24.4
 21
65.73
 31
0.0
  0
ARC
  8
0
 62
0
 10
-24.4
 20
62.43
 30
0.0
 40
3.3
 50
-90.0
 51
90.0
  0
LINE
  8
0
 62
0
 10
-24.4
 20
59.13
 30
0.0
 11
-31.0
 21
59.13
 31
0.0
  0
LINE
  8
0
 62
0
 10
-31.0
 20
59.13
 30
0.0
 11
-31.0
 21
24.87
 31
0.0
  0
LINE
  8
0
 62
0
 10
-31.0
 20
24.87
 30
0.0
 11
-24.4
 21
24.87
 31
0.0
  0
LINE
  8
0
 62
0
 10
-9.43
 20
88.03
 30
0.0
 11
-9.43
 21
82.03
 31
0.0
  0
LINE
  8
0
 62
0
 10
-9.43
 20
82.03
 30
0.0
 11
-15.43
 21
82.03
 31
0.0
  0
LINE
  8
0
 62
0
 10
-15.43
 20
82.03
 30
0.0
 11
-15.43
 21
88.03
 31
0.0
  0
LINE
  8
0
 62
0
 10
-15.43
 20
88.03
 30
0.0
 11
-9.43
 21
88.03
 31
0.0
  0
ENDBLK
  0
BLOCK
  8
0
  2
PAD010
 70
0
 10
0.0
 20
0.0
 30
0.0
  3
PAD010
  0
LINE
  8
0
 62
0
 10
-24.4
 20
18.27
 30
0.0
 11
-31.0
 21
18.27
 31
0.0
  0
ARC
  8
0
 62
0
 10
-24.4
 20
21.57
 30
0.0
 40
3.3
 50
-90.0
 51
90.0
  0
LINE
  8
0
 62
0
 10
-31.0
 20
18.27
 30
0.0
 11
-31.0
 21
1.0
 31
0.0
  0
LINE
  8
0
 62
0
 10
-31.0
 20
1.0
 30
0.0
 11
-30.0
 21
1.0
 31
0.0
  0
LINE
  8
0
 62
0
 10
-30.0
 20
1.0
 30
0.0
 11
-30.0
 21
0.0
 31
0.0
  0
LINE
  8
0
 62
0
 10
-30.0
 20
0.0
 30
0.0
 11
0.0
 21
0.0
 31
0.0
  0
LINE
  8
0
 62
0
 10
0.0
 20
0.0
 30
0.0
 11
30.0
 21
0.0
 31
0.0
  0
LINE
  8
0
 62
0
 10
30.0
 20
0.0
 30
0.0
 11
30.0
 21
1.0
 31
0.0
  0
LINE
  8
0
 62
0
 10
30.0
 20
1.0
 30
0.0
 11
31.0
 21
1.0
 31
0.0
  0
LINE
  8
0
 62
0
 10
31.0
 20
1.0
 30
0.0
 11
31.0
 21
18.27
 31
0.0
  0
LINE
  8
0
 62
0
 10
31.0
 20
18.27
 30
0.0
 11
24.4
 21
18.27
 31
0.0
  0
ARC
  8
0
 62
0
 10
24.4
 20
21.57
 30
0.0
 40
3.3
 50
90.0
 51
-90.0
  0
LINE
  8
0
 62
0
 10
24.4
 20
24.87
 30
0.0
 11
31.0
 21
24.87
 31
0.0
  0
LINE
  8
0
 62
0
 10
31.0
 20
24.87
 30
0.0
 11
31.0
 21
59.13
 31
0.0
  0
LINE
  8
0
 62
0
 10
31.0
 20
59.13
 30
0.0
 11
24.4
 21
59.13
 31
0.0
  0
ARC
  8
0
 62
0
 10
24.4
 20
62.43
 30
0.0
 40
3.3
 50
90.0
 51
-90.0
  0
LINE
  8
0
 62
0
 10
24.4
 20
65.73
 30
0.0
 11
31.0
 21
65.73
 31
0.0
  0
LINE
  8
0
 62
0
 10
31.0
 20
65.73
 30
0.0
 11
31.0
 21
83.0
 31
0.0
  0
LINE
  8
0
 62
0
 10
30.0
 20
83.0
 30
0.0
 11
31.0
 21
83.0
 31
0.0
  0
LINE
  8
0
 62
0
 10
30.0
 20
84.0
 30
0.0
 11
30.0
 21
83.0
 31
0.0
  0
LINE
  8
0
 62
0
 10
30.0
 20
84.0
 30
0.0
 11
3.5527136788e-15
 21
84.0
 31
0.0
  0
LINE
  8
0
 62
0
 10
6.11311850664e-15
 20
84.0
 30
0.0
 11
-18.29
 21
84.0
 31
0.0
  0
LINE
  8
0
 62
0
 10
-18.29
 20
84.0
 30
0.0
 11
-18.29
 21
73.88
 31
0.0
  0
LINE
  8
0
 62
0
 10
-27.19
 20
84.0
 30
0.0
 11
-30.0
 21
84.0
 31
0.0
  0
LINE
  8
0
 62
0
 10
-30.0
 20
84.0
 30
0.0
 11
-30.0
 21
83.0
 31
0.0
  0
LINE
  8
0
 62
0
 10
-30.0
 20
83.0
 30
0.0
 11
-31.0
 21
83.0
 31
0.0
  0
LINE
  8
0
 62
0
 10
-31.0
 20
83.0
 30
0.0
 11
-31.0
 21
65.73
 31
0.0
  0
LINE
  8
0
 62
0
 10
-31.0
 20
65.73
 30
0.0
 11
-24.4
 21
65.73
 31
0.0
  0
ARC
  8
0
 62
0
 10
-24.4
 20
62.43
 30
0.0
 40
3.3
 50
-90.0
 51
90.0
  0
LINE
  8
0
 62
0
 10
-24.4
 20
59.13
 30
0.0
 11
-31.0
 21
59.13
 31
0.0
  0
LINE
  8
0
 62
0
 10
-31.0
 20
59.13
 30
0.0
 11
-31.0
 21
24.87
 31
0.0
  0
LINE
  8
0
 62
0
 10
-31.0
 20
24.87
 30
0.0
 11
-24.4
 21
24.87
 31
0.0
  0
LINE
  8
0
 62
0
 10
-18.29
 20
88.03
 30
0.0
 11
-18.29
 21
73.88
 31
0.0
  0
LINE
  8
0
 62
0
 10
-18.29
 20
73.88
 30
0.0
 11
-27.19
 21
73.88
 31
0.0
  0
LINE
  8
0
 62
0
 10
-27.19
 20
73.88
 30
0.0
 11
-27.19
 21
88.03
 31
0.0
  0
LINE
  8
0
 62
0
 10
-27.19
 20
88.03
 30
0.0
 11
-18.29
 21
88.03
 31
0.0
  0
ENDBLK
  0
BLOCK
  8
0
  2
SKETCH011
 70
0
 10
0.0
 20
0.0
 30
0.0
  3
SKETCH011
  0
POLYLINE
  8
0
 62
7
 70
1
 66
1
 10
0.0
 20
0.0
 30
0.0
  0
VERTEX
  8
0
 10
19.3
 20
-2.7
  0
VERTEX
  8
0
 10
19.3
 20
-2.7
  0
VERTEX
  8
0
 10
20.05
 20
-2.7
  0
SEQEND
  8
0
  0
POLYLINE
  8
0
 62
7
 70
1
 66
1
 10
0.0
 20
0.0
 30
0.0
  0
VERTEX
  8
0
 10
27.07
 20
-2.7
  0
VERTEX
  8
0
 10
27.07
 20
-2.7
  0
VERTEX
  8
0
 10
26.32
 20
-2.7
  0
SEQEND
  8
0
  0
POLYLINE
  8
0
 62
7
 70
1
 66
1
 10
0.0
 20
0.0
 30
0.0
  0
VERTEX
  8
0
 10
20.3
 20
-2.7
  0
VERTEX
  8
0
 10
20.3
 20
-2.7
  0
VERTEX
  8
0
 10
20.8
 20
-2.7
  0
VERTEX
  8
0
 10
25.57
 20
-2.7
  0
VERTEX
  8
0
 10
26.07
 20
-2.7
  0
VERTEX
  8
0
 10
26.07
 20
-2.7
  0
SEQEND
  8
0
  0
POLYLINE
  8
0
 62
7
 70
1
 66
1
 10
0.0
 20
0.0
 30
0.0
  0
VERTEX
  8
0
 10
19.6
 20
-2.7
  0
VERTEX
  8
0
 10
26.77
 20
-2.7
  0
VERTEX
  8
0
 10
26.77
 20
-2.7
  0
VERTEX
  8
0
 10
26.1860714286
 20
-2.7
  0
VERTEX
  8
0
 10
20.1839285714
 20
-2.7
  0
VERTEX
  8
0
 10
19.6
 20
-2.7
  0
SEQEND
  8
0
  0
ENDBLK
  0
BLOCK
  8
0
  2
POCKET
 70
0
 10
0.0
 20
0.0
 30
0.0
  3
POCKET
  0
LINE
  8
0
 62
0
 10
-24.4
 20
18.27
 30
0.0
 11
-31.0
 21
18.27
 31
0.0
  0
ARC
  8
0
 62
0
 10
-24.4
 20
21.57
 30
0.0
 40
3.3
 50
-90.0
 51
90.0
  0
LINE
  8
0
 62
0
 10
-31.0
 20
18.27
 30
0.0
 11
-31.0
 21
1.0
 31
0.0
  0
LINE
  8
0
 62
0
 10
-31.0
 20
24.87
 30
0.0
 11
-24.4
 21
24.87
 31
0.0
  0
LINE
  8
0
 62
0
 10
-31.0
 20
1.0
 30
0.0
 11
-30.0
 21
1.0
 31
0.0
  0
LINE
  8
0
 62
0
 10
-31.0
 20
59.13
 30
0.0
 11
-31.0
 21
24.87
 31
0.0
  0
LINE
  8
0
 62
0
 10
-30.0
 20
1.0
 30
0.0
 11
-30.0
 21
0.0
 31
0.0
  0
LINE
  8
0
 62
0
 10
-24.4
 20
59.13
 30
0.0
 11
-31.0
 21
59.13
 31
0.0
  0
LINE
  8
0
 62
0
 10
-30.0
 20
0.0
 30
0.0
 11
0.0
 21
0.0
 31
0.0
  0
ARC
  8
0
 62
0
 10
-24.4
 20
62.43
 30
0.0
 40
3.3
 50
-90.0
 51
90.0
  0
LINE
  8
0
 62
0
 10
0.0
 20
0.0
 30
0.0
 11
19.3
 21
0.0
 31
0.0
  0
LINE
  8
0
 62
0
 10
-31.0
 20
65.73
 30
0.0
 11
-24.4
 21
65.73
 31
0.0
  0
LINE
  8
0
 62
0
 10
-31.0
 20
83.0
 30
0.0
 11
-31.0
 21
65.73
 31
0.0
  0
LINE
  8
0
 62
0
 10
-30.0
 20
83.0
 30
0.0
 11
-31.0
 21
83.0
 31
0.0
  0
LINE
  8
0
 62
0
 10
-30.0
 20
84.0
 30
0.0
 11
-30.0
 21
83.0
 31
0.0
  0
LINE
  8
0
 62
0
 10
27.07
 20
6.33
 30
0.0
 11
27.07
 21
0.1
 31
0.0
  0
LINE
  8
0
 62
0
 10
6.11311850664e-15
 20
84.0
 30
0.0
 11
-30.0
 21
84.0
 31
0.0
  0
LINE
  8
0
 62
0
 10
27.07
 20
1.33226762955e-15
 30
0.0
 11
27.07
 21
0.1
 31
0.0
  0
LINE
  8
0
 62
0
 10
30.0
 20
84.0
 30
0.0
 11
3.5527136788e-15
 21
84.0
 31
0.0
  0
LINE
  8
0
 62
0
 10
27.07
 20
0.0
 30
0.0
 11
30.0
 21
0.0
 31
0.0
  0
LINE
  8
0
 62
0
 10
30.0
 20
84.0
 30
0.0
 11
30.0
 21
83.0
 31
0.0
  0
LINE
  8
0
 62
0
 10
30.0
 20
0.0
 30
0.0
 11
30.0
 21
1.0
 31
0.0
  0
LINE
  8
0
 62
0
 10
30.0
 20
83.0
 30
0.0
 11
31.0
 21
83.0
 31
0.0
  0
LINE
  8
0
 62
0
 10
30.0
 20
1.0
 30
0.0
 11
31.0
 21
1.0
 31
0.0
  0
LINE
  8
0
 62
0
 10
31.0
 20
65.73
 30
0.0
 11
31.0
 21
83.0
 31
0.0
  0
LINE
  8
0
 62
0
 10
31.0
 20
1.0
 30
0.0
 11
31.0
 21
18.27
 31
0.0
  0
LINE
  8
0
 62
0
 10
24.4
 20
65.73
 30
0.0
 11
31.0
 21
65.73
 31
0.0
  0
LINE
  8
0
 62
0
 10
31.0
 20
18.27
 30
0.0
 11
24.4
 21
18.27
 31
0.0
  0
ARC
  8
0
 62
0
 10
24.4
 20
62.43
 30
0.0
 40
3.3
 50
90.0
 51
-90.0
  0
ARC
  8
0
 62
0
 10
24.4
 20
21.57
 30
0.0
 40
3.3
 50
90.0
 51
-90.0
  0
LINE
  8
0
 62
0
 10
31.0
 20
59.13
 30
0.0
 11
24.4
 21
59.13
 31
0.0
  0
LINE
  8
0
 62
0
 10
24.4
 20
24.87
 30
0.0
 11
31.0
 21
24.87
 31
0.0
  0
LINE
  8
0
 62
0
 10
31.0
 20
24.87
 30
0.0
 11
31.0
 21
59.13
 31
0.0
  0
LINE
  8
0
 62
0
 10
19.3
 20
-2.7
 30
0.0
 11
19.3
 21
6.33
 31
0.0
  0
LINE
  8
0
 62
0
 10
19.3
 20
6.33
 30
0.0
 11
27.07
 21
6.33
 31
0.0
  0
LINE
  8
0
 62
0
 10
27.07
 20
6.33
 30
0.0
 11
27.07
 21
-2.7
 31
0.0
  0
LINE
  8
0
 62
0
 10
27.07
 20
-2.7
 30
0.0
 11
19.3
 21
-2.7
 31
0.0
  0
ENDBLK
  0
BLOCK
  8
0
  2
SKETCH012
 70
0
 10
0.0
 20
0.0
 30
0.0
  3
SKETCH012
  0
POLYLINE
  8
0
 62
7
 70
1
 66
1
 10
0.0
 20
0.0
 30
0.0
  0
VERTEX
  8
0
 10
-2.05
 20
-2.7
  0
VERTEX
  8
0
 10
-2.05
 20
-2.7
 42
0.414213562373
  0
VERTEX
  8
0
 10
-0.55
 20
-2.7
  0
SEQEND
  8
0
  0
POLYLINE
  8
0
 62
7
 70
1
 66
1
 10
0.0
 20
0.0
 30
0.0
  0
VERTEX
  8
0
 10
13.0
 20
-2.7
  0
VERTEX
  8
0
 10
13.0
 20
-2.7
  0
VERTEX
  8
0
 10
11.5
 20
-2.7
 42
0.414213562373
  0
SEQEND
  8
0
  0
POLYLINE
  8
0
 62
7
 70
1
 66
1
 10
0.0
 20
0.0
 30
0.0
  0
VERTEX
  8
0
 10
-1.55
 20
-2.7
  0
VERTEX
  8
0
 10
12.5
 20
-2.7
  0
VERTEX
  8
0
 10
12.5
 20
-2.7
 42
0.414213562373
  0
VERTEX
  8
0
 10
11.0
 20
-2.7
  0
VERTEX
  8
0
 10
-0.05
 20
-2.7
 42
0.414213562373
  0
VERTEX
  8
0
 10
-1.55
 20
-2.7
  0
SEQEND
  8
0
  0
POLYLINE
  8
0
 62
7
 70
1
 66
1
 10
0.0
 20
0.0
 30
0.0
  0
VERTEX
  8
0
 10
-0.07687
 20
-2.7
  0
VERTEX
  8
0
 10
10.97313
 20
-2.7
  0
VERTEX
  8
0
 10
10.97313
 20
-2.7
  0
VERTEX
  8
0
 10
-0.07687
 20
-2.7
  0
SEQEND
  8
0
  0
ENDBLK
  0
BLOCK
  8
0
  2
POCKET001
 70
0
 10
0.0
 20
0.0
 30
0.0
  3
POCKET001
  0
LINE
  8
0
 62
0
 10
-24.4
 20
18.27
 30
0.0
 11
-31.0
 21
18.27
 31
0.0
  0
ARC
  8
0
 62
0
 10
-24.4
 20
21.57
 30
0.0
 40
3.3
 50
-90.0
 51
90.0
  0
LINE
  8
0
 62
0
 10
-31.0
 20
18.27
 30
0.0
 11
-31.0
 21
1.0
 31
0.0
  0
LINE
  8
0
 62
0
 10
-31.0
 20
24.87
 30
0.0
 11
-24.4
 21
24.87
 31
0.0
  0
LINE
  8
0
 62
0
 10
-31.0
 20
1.0
 30
0.0
 11
-30.0
 21
1.0
 31
0.0
  0
LINE
  8
0
 62
0
 10
-31.0
 20
59.13
 30
0.0
 11
-31.0
 21
24.87
 31
0.0
  0
LINE
  8
0
 62
0
 10
-30.0
 20
1.0
 30
0.0
 11
-30.0
 21
0.0
 31
0.0
  0
LINE
  8
0
 62
0
 10
-24.4
 20
59.13
 30
0.0
 11
-31.0
 21
59.13
 31
0.0
  0
LINE
  8
0
 62
0
 10
-30.0
 20
0.0
 30
0.0
 11
-2.05
 21
0.0
 31
0.0
  0
ARC
  8
0
 62
0
 10
-24.4
 20
62.43
 30
0.0
 40
3.3
 50
-90.0
 51
90.0
  0
LINE
  8
0
 62
0
 10
-31.0
 20
65.73
 30
0.0
 11
-24.4
 21
65.73
 31
0.0
  0
LINE
  8
0
 62
0
 10
-31.0
 20
83.0
 30
0.0
 11
-31.0
 21
65.73
 31
0.0
  0
LINE
  8
0
 62
0
 10
-30.0
 20
83.0
 30
0.0
 11
-31.0
 21
83.0
 31
0.0
  0
LINE
  8
0
 62
0
 10
13.0
 20
8.42
 30
0.0
 11
13.0
 21
1.0
 31
0.0
  0
LINE
  8
0
 62
0
 10
-30.0
 20
84.0
 30
0.0
 11
-30.0
 21
83.0
 31
0.0
  0
LINE
  8
0
 62
0
 10
6.11311850664e-15
 20
84.0
 30
0.0
 11
-30.0
 21
84.0
 31
0.0
  0
LINE
  8
0
 62
0
 10
13.0
 20
0.0
 30
0.0
 11
30.0
 21
0.0
 31
0.0
  0
LINE
  8
0
 62
0
 10
30.0
 20
84.0
 30
0.0
 11
3.5527136788e-15
 21
84.0
 31
0.0
  0
LINE
  8
0
 62
0
 10
30.0
 20
0.0
 30
0.0
 11
30.0
 21
1.0
 31
0.0
  0
LINE
  8
0
 62
0
 10
30.0
 20
84.0
 30
0.0
 11
30.0
 21
83.0
 31
0.0
  0
LINE
  8
0
 62
0
 10
30.0
 20
1.0
 30
0.0
 11
31.0
 21
1.0
 31
0.0
  0
LINE
  8
0
 62
0
 10
30.0
 20
83.0
 30
0.0
 11
31.0
 21
83.0
 31
0.0
  0
LINE
  8
0
 62
0
 10
31.0
 20
1.0
 30
0.0
 11
31.0
 21
18.27
 31
0.0
  0
LINE
  8
0
 62
0
 10
31.0
 20
65.73
 30
0.0
 11
31.0
 21
83.0
 31
0.0
  0
LINE
  8
0
 62
0
 10
31.0
 20
18.27
 30
0.0
 11
24.4
 21
18.27
 31
0.0
  0
LINE
  8
0
 62
0
 10
24.4
 20
65.73
 30
0.0
 11
31.0
 21
65.73
 31
0.0
  0
ARC
  8
0
 62
0
 10
24.4
 20
21.57
 30
0.0
 40
3.3
 50
90.0
 51
-90.0
  0
ARC
  8
0
 62
0
 10
24.4
 20
62.43
 30
0.0
 40
3.3
 50
90.0
 51
-90.0
  0
LINE
  8
0
 62
0
 10
24.4
 20
24.87
 30
0.0
 11
31.0
 21
24.87
 31
0.0
  0
LINE
  8
0
 62
0
 10
31.0
 20
59.13
 30
0.0
 11
24.4
 21
59.13
 31
0.0
  0
LINE
  8
0
 62
0
 10
31.0
 20
24.87
 30
0.0
 11
31.0
 21
59.13
 31
0.0
  0
LINE
  8
0
 62
0
 10
-2.05
 20
-2.7
 30
0.0
 11
-2.05
 21
8.42
 31
0.0
  0
LINE
  8
0
 62
0
 10
-2.05
 20
8.42
 30
0.0
 11
13.0
 21
8.42
 31
0.0
  0
LINE
  8
0
 62
0
 10
13.0
 20
-2.7
 30
0.0
 11
13.0
 21
1.0
 31
0.0
  0
LINE
  8
0
 62
0
 10
13.0
 20
8.42
 30
0.0
 11
13.0
 21
-2.7
 31
0.0
  0
LINE
  8
0
 62
0
 10
13.0
 20
-2.7
 30
0.0
 11
-2.05
 21
-2.7
 31
0.0
  0
ENDBLK
  0
BLOCK
  8
0
  2
SKETCH013
 70
0
 10
0.0
 20
0.0
 30
0.0
  3
SKETCH013
  0
POLYLINE
  8
0
 62
7
 70
1
 66
1
 10
0.0
 20
0.0
 30
0.0
  0
VERTEX
  8
0
 10
-23.1
 20
-3.0
  0
VERTEX
  8
0
 10
-23.1
 20
-3.0
  0
VERTEX
  8
0
 10
-21.13
 20
-3.0
  0
VERTEX
  8
0
 10
-21.13
 20
-3.0
  0
VERTEX
  8
0
 10
-7.85
 20
-3.0
  0
VERTEX
  8
0
 10
-7.85
 20
-3.0
  0
VERTEX
  8
0
 10
-6.78
 20
-3.0
  0
VERTEX
  8
0
 10
-6.78
 20
-3.0
  0
VERTEX
  8
0
 10
-7.85
 20
-3.0
  0
VERTEX
  8
0
 10
-7.85
 20
-3.0
  0
SEQEND
  8
0
  0
POLYLINE
  8
0
 62
7
 70
1
 66
1
 10
0.0
 20
0.0
 30
0.0
  0
VERTEX
  8
0
 10
-19.93
 20
-3.0
  0
VERTEX
  8
0
 10
-19.93
 20
-3.0
  0
VERTEX
  8
0
 10
-9.53
 20
-3.0
  0
VERTEX
  8
0
 10
-9.53
 20
-3.0
  0
VERTEX
  8
0
 10
-18.74
 20
-3.0
  0
VERTEX
  8
0
 10
-18.74
 20
-3.0
  0
SEQEND
  8
0
  0
ENDBLK
  0
BLOCK
  8
0
  2
POCKET002
 70
0
 10
0.0
 20
0.0
 30
0.0
  3
POCKET002
  0
LINE
  8
0
 62
0
 10
-24.4
 20
18.27
 30
0.0
 11
-31.0
 21
18.27
 31
0.0
  0
ARC
  8
0
 62
0
 10
-24.4
 20
21.57
 30
0.0
 40
3.3
 50
-90.0
 51
90.0
  0
LINE
  8
0
 62
0
 10
-31.0
 20
18.27
 30
0.0
 11
-31.0
 21
1.0
 31
0.0
  0
LINE
  8
0
 62
0
 10
-31.0
 20
24.87
 30
0.0
 11
-24.4
 21
24.87
 31
0.0
  0
LINE
  8
0
 62
0
 10
-31.0
 20
1.0
 30
0.0
 11
-30.0
 21
1.0
 31
0.0
  0
LINE
  8
0
 62
0
 10
-31.0
 20
59.13
 30
0.0
 11
-31.0
 21
24.87
 31
0.0
  0
LINE
  8
0
 62
0
 10
-30.0
 20
1.0
 30
0.0
 11
-30.0
 21
0.0
 31
0.0
  0
LINE
  8
0
 62
0
 10
-24.4
 20
59.13
 30
0.0
 11
-31.0
 21
59.13
 31
0.0
  0
LINE
  8
0
 62
0
 10
-30.0
 20
0.0
 30
0.0
 11
-23.1
 21
0.0
 31
0.0
  0
ARC
  8
0
 62
0
 10
-24.4
 20
62.43
 30
0.0
 40
3.3
 50
-90.0
 51
90.0
  0
LINE
  8
0
 62
0
 10
-31.0
 20
65.73
 30
0.0
 11
-24.4
 21
65.73
 31
0.0
  0
LINE
  8
0
 62
0
 10
-31.0
 20
83.0
 30
0.0
 11
-31.0
 21
65.73
 31
0.0
  0
LINE
  8
0
 62
0
 10
-5.73
 20
8.44
 30
0.0
 11
-5.73
 21
0.0
 31
0.0
  0
LINE
  8
0
 62
0
 10
-30.0
 20
83.0
 30
0.0
 11
-31.0
 21
83.0
 31
0.0
  0
LINE
  8
0
 62
0
 10
-5.73
 20
0.0
 30
0.0
 11
0.0
 21
0.0
 31
0.0
  0
LINE
  8
0
 62
0
 10
-30.0
 20
84.0
 30
0.0
 11
-30.0
 21
83.0
 31
0.0
  0
LINE
  8
0
 62
0
 10
0.0
 20
0.0
 30
0.0
 11
30.0
 21
0.0
 31
0.0
  0
LINE
  8
0
 62
0
 10
6.11311850664e-15
 20
84.0
 30
0.0
 11
-30.0
 21
84.0
 31
0.0
  0
LINE
  8
0
 62
0
 10
30.0
 20
0.0
 30
0.0
 11
30.0
 21
1.0
 31
0.0
  0
LINE
  8
0
 62
0
 10
30.0
 20
84.0
 30
0.0
 11
3.5527136788e-15
 21
84.0
 31
0.0
  0
LINE
  8
0
 62
0
 10
30.0
 20
1.0
 30
0.0
 11
31.0
 21
1.0
 31
0.0
  0
LINE
  8
0
 62
0
 10
30.0
 20
84.0
 30
0.0
 11
30.0
 21
83.0
 31
0.0
  0
LINE
  8
0
 62
0
 10
31.0
 20
1.0
 30
0.0
 11
31.0
 21
18.27
 31
0.0
  0
LINE
  8
0
 62
0
 10
30.0
 20
83.0
 30
0.0
 11
31.0
 21
83.0
 31
0.0
  0
LINE
  8
0
 62
0
 10
31.0
 20
18.27
 30
0.0
 11
24.4
 21
18.27
 31
0.0
  0
LINE
  8
0
 62
0
 10
31.0
 20
65.73
 30
0.0
 11
31.0
 21
83.0
 31
0.0
  0
ARC
  8
0
 62
0
 10
24.4
 20
21.57
 30
0.0
 40
3.3
 50
90.0
 51
-90.0
  0
LINE
  8
0
 62
0
 10
24.4
 20
65.73
 30
0.0
 11
31.0
 21
65.73
 31
0.0
  0
LINE
  8
0
 62
0
 10
24.4
 20
24.87
 30
0.0
 11
31.0
 21
24.87
 31
0.0
  0
ARC
  8
0
 62
0
 10
24.4
 20
62.43
 30
0.0
 40
3.3
 50
90.0
 51
-90.0
  0
LINE
  8
0
 62
0
 10
31.0
 20
24.87
 30
0.0
 11
31.0
 21
59.13
 31
0.0
  0
LINE
  8
0
 62
0
 10
31.0
 20
59.13
 30
0.0
 11
24.4
 21
59.13
 31
0.0
  0
LINE
  8
0
 62
0
 10
-21.13
 20
0.0
 30
0.0
 11
-19.93
 21
0.0
 31
0.0
  0
LINE
  8
0
 62
0
 10
-9.53
 20
0.0
 30
0.0
 11
-7.85
 21
0.0
 31
0.0
  0
LINE
  8
0
 62
0
 10
-23.1
 20
2.49
 30
0.0
 11
-23.1
 21
8.44
 31
0.0
  0
LINE
  8
0
 62
0
 10
-23.1
 20
-3.0
 30
0.0
 11
-23.1
 21
2.49
 31
0.0
  0
LINE
  8
0
 62
0
 10
-23.1
 20
8.44
 30
0.0
 11
-5.73
 21
8.44
 31
0.0
  0
LINE
  8
0
 62
0
 10
-5.73
 20
8.44
 30
0.0
 11
-5.73
 21
-3.0
 31
0.0
  0
LINE
  8
0
 62
0
 10
-7.85
 20
4.4408920985e-16
 30
0.0
 11
-7.85
 21
2.49
 31
0.0
  0
LINE
  8
0
 62
0
 10
-21.13
 20
2.49
 30
0.0
 11
-19.93
 21
2.49
 31
0.0
  0
LINE
  8
0
 62
0
 10
-9.53
 20
2.49
 30
0.0
 11
-7.85
 21
2.49
 31
0.0
  0
LINE
  8
0
 62
0
 10
-5.73
 20
-3.0
 30
0.0
 11
-7.85
 21
-3.0
 31
0.0
  0
LINE
  8
0
 62
0
 10
-7.85
 20
-3.0
 30
0.0
 11
-7.85
 21
2.49
 31
0.0
  0
LINE
  8
0
 62
0
 10
-7.85
 20
2.49
 30
0.0
 11
-23.1
 21
2.49
 31
0.0
  0
LINE
  8
0
 62
0
 10
-23.1
 20
-3.0
 30
0.0
 11
-21.13
 21
-3.0
 31
0.0
  0
LINE
  8
0
 62
0
 10
-21.13
 20
-3.0
 30
0.0
 11
-21.13
 21
2.49
 31
0.0
  0
LINE
  8
0
 62
0
 10
-7.85
 20
-3.0
 30
0.0
 11
-6.78
 21
-3.0
 31
0.0
  0
LINE
  8
0
 62
0
 10
-7.85
 20
-3.0
 30
0.0
 11
-7.85
 21
2.49
 31
0.0
  0
LINE
  8
0
 62
0
 10
-19.93
 20
-3.0
 30
0.0
 11
-19.93
 21
2.49
 31
0.0
  0
LINE
  8
0
 62
0
 10
-19.93
 20
-3.0
 30
0.0
 11
-9.53
 21
-3.0
 31
0.0
  0
LINE
  8
0
 62
0
 10
-9.53
 20
-3.0
 30
0.0
 11
-9.53
 21
2.49
 31
0.0
  0
ENDBLK
  0
BLOCK
  8
0
  2
SKETCH014
 70
0
 10
0.0
 20
0.0
 30
0.0
  3
SKETCH014
  0
POLYLINE
  8
0
 62
7
 70
1
 66
1
 10
0.0
 20
0.0
 30
0.0
  0
VERTEX
  8
0
 10
-29.4
 20
-2.8
  0
VERTEX
  8
0
 10
-24.24
 20
-2.8
  0
VERTEX
  8
0
 10
-24.24
 20
-2.8
  0
VERTEX
  8
0
 10
-29.4
 20
-2.8
  0
SEQEND
  8
0
  0
POLYLINE
  8
0
 62
7
 70
1
 66
1
 10
0.0
 20
0.0
 30
0.0
  0
VERTEX
  8
0
 10
-28.2
 20
-2.8
  0
VERTEX
  8
0
 10
-27.72
 20
-2.8
  0
VERTEX
  8
0
 10
-27.72
 20
-2.8
  0
VERTEX
  8
0
 10
-28.2
 20
-2.8
  0
SEQEND
  8
0
  0
POLYLINE
  8
0
 62
7
 70
1
 66
1
 10
0.0
 20
0.0
 30
0.0
  0
VERTEX
  8
0
 10
-26.1
 20
-2.8
  0
VERTEX
  8
0
 10
-25.62
 20
-2.8
  0
VERTEX
  8
0
 10
-25.62
 20
-2.8
  0
VERTEX
  8
0
 10
-26.1
 20
-2.8
  0
SEQEND
  8
0
  0
ENDBLK
  0
BLOCK
  8
0
  2
POCKET003
 70
0
 10
0.0
 20
0.0
 30
0.0
  3
POCKET003
  0
LINE
  8
0
 62
0
 10
-24.4
 20
18.27
 30
0.0
 11
-31.0
 21
18.27
 31
0.0
  0
ARC
  8
0
 62
0
 10
-24.4
 20
21.57
 30
0.0
 40
3.3
 50
-90.0
 51
90.0
  0
LINE
  8
0
 62
0
 10
-31.0
 20
18.27
 30
0.0
 11
-31.0
 21
1.0
 31
0.0
  0
LINE
  8
0
 62
0
 10
-31.0
 20
1.0
 30
0.0
 11
-30.0
 21
1.0
 31
0.0
  0
LINE
  8
0
 62
0
 10
-30.0
 20
1.0
 30
0.0
 11
-30.0
 21
0.0
 31
0.0
  0
LINE
  8
0
 62
0
 10
-30.0
 20
0.0
 30
0.0
 11
-29.87
 21
0.0
 31
0.0
  0
LINE
  8
0
 62
0
 10
-23.77
 20
3.3
 30
0.0
 11
-23.77
 21
0.0
 31
0.0
  0
LINE
  8
0
 62
0
 10
-23.77
 20
0.0
 30
0.0
 11
0.0
 21
0.0
 31
0.0
  0
LINE
  8
0
 62
0
 10
0.0
 20
0.0
 30
0.0
 11
30.0
 21
0.0
 31
0.0
  0
LINE
  8
0
 62
0
 10
30.0
 20
0.0
 30
0.0
 11
30.0
 21
1.0
 31
0.0
  0
LINE
  8
0
 62
0
 10
30.0
 20
1.0
 30
0.0
 11
31.0
 21
1.0
 31
0.0
  0
LINE
  8
0
 62
0
 10
31.0
 20
1.0
 30
0.0
 11
31.0
 21
18.27
 31
0.0
  0
LINE
  8
0
 62
0
 10
31.0
 20
18.27
 30
0.0
 11
24.4
 21
18.27
 31
0.0
  0
ARC
  8
0
 62
0
 10
24.4
 20
21.57
 30
0.0
 40
3.3
 50
90.0
 51
-90.0
  0
LINE
  8
0
 62
0
 10
24.4
 20
24.87
 30
0.0
 11
31.0
 21
24.87
 31
0.0
  0
LINE
  8
0
 62
0
 10
31.0
 20
24.87
 30
0.0
 11
31.0
 21
59.13
 31
0.0
  0
LINE
  8
0
 62
0
 10
31.0
 20
59.13
 30
0.0
 11
24.4
 21
59.13
 31
0.0
  0
ARC
  8
0
 62
0
 10
24.4
 20
62.43
 30
0.0
 40
3.3
 50
90.0
 51
-90.0
  0
LINE
  8
0
 62
0
 10
24.4
 20
65.73
 30
0.0
 11
31.0
 21
65.73
 31
0.0
  0
LINE
  8
0
 62
0
 10
31.0
 20
65.73
 30
0.0
 11
31.0
 21
83.0
 31
0.0
  0
LINE
  8
0
 62
0
 10
30.0
 20
83.0
 30
0.0
 11
31.0
 21
83.0
 31
0.0
  0
LINE
  8
0
 62
0
 10
30.0
 20
84.0
 30
0.0
 11
30.0
 21
83.0
 31
0.0
  0
LINE
  8
0
 62
0
 10
30.0
 20
84.0
 30
0.0
 11
3.5527136788e-15
 21
84.0
 31
0.0
  0
LINE
  8
0
 62
0
 10
6.11311850664e-15
 20
84.0
 30
0.0
 11
-30.0
 21
84.0
 31
0.0
  0
LINE
  8
0
 62
0
 10
-30.0
 20
84.0
 30
0.0
 11
-30.0
 21
83.0
 31
0.0
  0
LINE
  8
0
 62
0
 10
-30.0
 20
83.0
 30
0.0
 11
-31.0
 21
83.0
 31
0.0
  0
LINE
  8
0
 62
0
 10
-31.0
 20
83.0
 30
0.0
 11
-31.0
 21
65.73
 31
0.0
  0
LINE
  8
0
 62
0
 10
-31.0
 20
65.73
 30
0.0
 11
-24.4
 21
65.73
 31
0.0
  0
ARC
  8
0
 62
0
 10
-24.4
 20
62.43
 30
0.0
 40
3.3
 50
-90.0
 51
90.0
  0
LINE
  8
0
 62
0
 10
-24.4
 20
59.13
 30
0.0
 11
-31.0
 21
59.13
 31
0.0
  0
LINE
  8
0
 62
0
 10
-31.0
 20
59.13
 30
0.0
 11
-31.0
 21
24.87
 31
0.0
  0
LINE
  8
0
 62
0
 10
-31.0
 20
24.87
 30
0.0
 11
-24.4
 21
24.87
 31
0.0
  0
LINE
  8
0
 62
0
 10
-29.87
 20
-2.8
 30
0.0
 11
-29.87
 21
3.3
 31
0.0
  0
LINE
  8
0
 62
0
 10
-29.87
 20
3.3
 30
0.0
 11
-23.77
 21
3.3
 31
0.0
  0
LINE
  8
0
 62
0
 10
-23.77
 20
3.3
 30
0.0
 11
-23.77
 21
-2.8
 31
0.0
  0
LINE
  8
0
 62
0
 10
-23.77
 20
-2.8
 30
0.0
 11
-29.87
 21
-2.8
 31
0.0
  0
ENDBLK
  0
BLOCK
  8
0
  2
SKETCH015
 70
0
 10
0.0
 20
0.0
 30
0.0
  3
SKETCH015
  0
POLYLINE
  8
0
 62
7
 70
1
 66
1
 10
0.0
 20
0.0
 30
0.0
  0
VERTEX
  8
0
 10
-29.87
 20
-2.8
  0
VERTEX
  8
0
 10
-29.4
 20
-2.8
  0
VERTEX
  8
0
 10
-29.4
 20
-2.8
  0
VERTEX
  8
0
 10
-29.87
 20
-2.8
  0
SEQEND
  8
0
  0
POLYLINE
  8
0
 62
7
 70
1
 66
1
 10
0.0
 20
0.0
 30
0.0
  0
VERTEX
  8
0
 10
-24.24
 20
-2.8
  0
VERTEX
  8
0
 10
-23.77
 20
-2.8
  0
VERTEX
  8
0
 10
-23.77
 20
-2.8
  0
VERTEX
  8
0
 10
-24.24
 20
-2.8
  0
SEQEND
  8
0
  0
POLYLINE
  8
0
 62
7
 70
1
 66
1
 10
0.0
 20
0.0
 30
0.0
  0
VERTEX
  8
0
 10
-27.69
 20
-2.8
  0
VERTEX
  8
0
 10
-26.13
 20
-2.8
  0
VERTEX
  8
0
 10
-26.13
 20
-2.8
  0
VERTEX
  8
0
 10
-27.69
 20
-2.8
  0
SEQEND
  8
0
  0
ENDBLK
  0
BLOCK
  8
0
  2
POCKET004
 70
0
 10
0.0
 20
0.0
 30
0.0
  3
POCKET004
  0
LINE
  8
0
 62
0
 10
-24.4
 20
18.27
 30
0.0
 11
-31.0
 21
18.27
 31
0.0
  0
ARC
  8
0
 62
0
 10
-24.4
 20
21.57
 30
0.0
 40
3.3
 50
-90.0
 51
90.0
  0
LINE
  8
0
 62
0
 10
-31.0
 20
18.27
 30
0.0
 11
-31.0
 21
1.0
 31
0.0
  0
LINE
  8
0
 62
0
 10
-31.0
 20
1.0
 30
0.0
 11
-30.0
 21
1.0
 31
0.0
  0
LINE
  8
0
 62
0
 10
-30.0
 20
1.0
 30
0.0
 11
-30.0
 21
0.0
 31
0.0
  0
LINE
  8
0
 62
0
 10
-30.0
 20
0.0
 30
0.0
 11
-29.87
 21
0.0
 31
0.0
  0
LINE
  8
0
 62
0
 10
-23.77
 20
3.3
 30
0.0
 11
-23.77
 21
0.0
 31
0.0
  0
LINE
  8
0
 62
0
 10
-23.77
 20
0.0
 30
0.0
 11
0.0
 21
0.0
 31
0.0
  0
LINE
  8
0
 62
0
 10
0.0
 20
0.0
 30
0.0
 11
30.0
 21
0.0
 31
0.0
  0
LINE
  8
0
 62
0
 10
30.0
 20
0.0
 30
0.0
 11
30.0
 21
1.0
 31
0.0
  0
LINE
  8
0
 62
0
 10
30.0
 20
1.0
 30
0.0
 11
31.0
 21
1.0
 31
0.0
  0
LINE
  8
0
 62
0
 10
31.0
 20
1.0
 30
0.0
 11
31.0
 21
18.27
 31
0.0
  0
LINE
  8
0
 62
0
 10
31.0
 20
18.27
 30
0.0
 11
24.4
 21
18.27
 31
0.0
  0
ARC
  8
0
 62
0
 10
24.4
 20
21.57
 30
0.0
 40
3.3
 50
90.0
 51
-90.0
  0
LINE
  8
0
 62
0
 10
24.4
 20
24.87
 30
0.0
 11
31.0
 21
24.87
 31
0.0
  0
LINE
  8
0
 62
0
 10
31.0
 20
24.87
 30
0.0
 11
31.0
 21
59.13
 31
0.0
  0
LINE
  8
0
 62
0
 10
31.0
 20
59.13
 30
0.0
 11
24.4
 21
59.13
 31
0.0
  0
ARC
  8
0
 62
0
 10
24.4
 20
62.43
 30
0.0
 40
3.3
 50
90.0
 51
-90.0
  0
LINE
  8
0
 62
0
 10
24.4
 20
65.73
 30
0.0
 11
31.0
 21
65.73
 31
0.0
  0
LINE
  8
0
 62
0
 10
31.0
 20
65.73
 30
0.0
 11
31.0
 21
83.0
 31
0.0
  0
LINE
  8
0
 62
0
 10
30.0
 20
83.0
 30
0.0
 11
31.0
 21
83.0
 31
0.0
  0
LINE
  8
0
 62
0
 10
30.0
 20
84.0
 30
0.0
 11
30.0
 21
83.0
 31
0.0
  0
LINE
  8
0
 62
0
 10
30.0
 20
84.0
 30
0.0
 11
3.5527136788e-15
 21
84.0
 31
0.0
  0
LINE
  8
0
 62
0
 10
6.11311850664e-15
 20
84.0
 30
0.0
 11
-30.0
 21
84.0
 31
0.0
  0
LINE
  8
0
 62
0
 10
-30.0
 20
84.0
 30
0.0
 11
-30.0
 21
83.0
 31
0.0
  0
LINE
  8
0
 62
0
 10
-30.0
 20
83.0
 30
0.0
 11
-31.0
 21
83.0
 31
0.0
  0
LINE
  8
0
 62
0
 10
-31.0
 20
83.0
 30
0.0
 11
-31.0
 21
65.73
 31
0.0
  0
LINE
  8
0
 62
0
 10
-31.0
 20
65.73
 30
0.0
 11
-24.4
 21
65.73
 31
0.0
  0
ARC
  8
0
 62
0
 10
-24.4
 20
62.43
 30
0.0
 40
3.3
 50
-90.0
 51
90.0
  0
LINE
  8
0
 62
0
 10
-24.4
 20
59.13
 30
0.0
 11
-31.0
 21
59.13
 31
0.0
  0
LINE
  8
0
 62
0
 10
-31.0
 20
59.13
 30
0.0
 11
-31.0
 21
24.87
 31
0.0
  0
LINE
  8
0
 62
0
 10
-31.0
 20
24.87
 30
0.0
 11
-24.4
 21
24.87
 31
0.0
  0
LINE
  8
0
 62
0
 10
-29.87
 20
-2.8
 30
0.0
 11
-29.87
 21
3.3
 31
0.0
  0
LINE
  8
0
 62
0
 10
-29.87
 20
-2.8
 30
0.0
 11
-29.87
 21
-0.8
 31
0.0
  0
LINE
  8
0
 62
0
 10
-29.87
 20
3.3
 30
0.0
 11
-23.77
 21
3.3
 31
0.0
  0
LINE
  8
0
 62
0
 10
-23.77
 20
3.3
 30
0.0
 11
-23.77
 21
-2.8
 31
0.0
  0
LINE
  8
0
 62
0
 10
-23.77
 20
-2.8
 30
0.0
 11
-26.13
 21
-2.8
 31
0.0
  0
LINE
  8
0
 62
0
 10
-26.13
 20
-2.8
 30
0.0
 11
-26.13
 21
-0.8
 31
0.0
  0
LINE
  8
0
 62
0
 10
-27.69
 20
-0.8
 30
0.0
 11
-26.13
 21
-0.8
 31
0.0
  0
LINE
  8
0
 62
0
 10
-27.69
 20
-2.8
 30
0.0
 11
-27.69
 21
-0.8
 31
0.0
  0
LINE
  8
0
 62
0
 10
-27.69
 20
-2.8
 30
0.0
 11
-29.87
 21
-2.8
 31
0.0
  0
LINE
  8
0
 62
0
 10
-24.24
 20
-2.8
 30
0.0
 11
-27.69
 21
-2.8
 31
0.0
  0
LINE
  8
0
 62
0
 10
-26.1
 20
-2.8
 30
0.0
 11
-25.62
 21
-2.8
 31
0.0
  0
ENDBLK
  0
BLOCK
  8
0
  2
SKETCH016
 70
0
 10
0.0
 20
0.0
 30
0.0
  3
SKETCH016
  0
POLYLINE
  8
0
 62
7
 70
1
 66
1
 10
0.0
 20
0.0
 30
0.0
  0
VERTEX
  8
0
 10
-29.31
 20
1.0
  0
VERTEX
  8
0
 10
-28.71
 20
1.0
  0
VERTEX
  8
0
 10
-28.71
 20
-1.02
  0
VERTEX
  8
0
 10
-29.31
 20
-1.02
  0
SEQEND
  8
0
  0
POLYLINE
  8
0
 62
7
 70
1
 66
1
 10
0.0
 20
0.0
 30
0.0
  0
VERTEX
  8
0
 10
-24.93
 20
1.0
  0
VERTEX
  8
0
 10
-24.33
 20
1.0
  0
VERTEX
  8
0
 10
-24.33
 20
-1.02
  0
VERTEX
  8
0
 10
-24.93
 20
-1.02
  0
SEQEND
  8
0
  0
ENDBLK
  0
BLOCK
  8
0
  2
POCKET005
 70
0
 10
0.0
 20
0.0
 30
0.0
  3
POCKET005
  0
LINE
  8
0
 62
0
 10
-24.4
 20
18.27
 30
0.0
 11
-31.0
 21
18.27
 31
0.0
  0
ARC
  8
0
 62
0
 10
-24.4
 20
21.57
 30
0.0
 40
3.3
 50
-90.0
 51
90.0
  0
LINE
  8
0
 62
0
 10
-31.0
 20
18.27
 30
0.0
 11
-31.0
 21
1.0
 31
0.0
  0
LINE
  8
0
 62
0
 10
-31.0
 20
1.0
 30
0.0
 11
-30.0
 21
1.0
 31
0.0
  0
LINE
  8
0
 62
0
 10
-30.0
 20
1.0
 30
0.0
 11
-30.0
 21
0.0
 31
0.0
  0
LINE
  8
0
 62
0
 10
-30.0
 20
0.0
 30
0.0
 11
-29.87
 21
0.0
 31
0.0
  0
LINE
  8
0
 62
0
 10
-23.77
 20
3.3
 30
0.0
 11
-23.77
 21
0.0
 31
0.0
  0
LINE
  8
0
 62
0
 10
-23.77
 20
0.0
 30
0.0
 11
0.0
 21
0.0
 31
0.0
  0
LINE
  8
0
 62
0
 10
0.0
 20
0.0
 30
0.0
 11
30.0
 21
0.0
 31
0.0
  0
LINE
  8
0
 62
0
 10
30.0
 20
0.0
 30
0.0
 11
30.0
 21
1.0
 31
0.0
  0
LINE
  8
0
 62
0
 10
30.0
 20
1.0
 30
0.0
 11
31.0
 21
1.0
 31
0.0
  0
LINE
  8
0
 62
0
 10
31.0
 20
1.0
 30
0.0
 11
31.0
 21
18.27
 31
0.0
  0
LINE
  8
0
 62
0
 10
31.0
 20
18.27
 30
0.0
 11
24.4
 21
18.27
 31
0.0
  0
ARC
  8
0
 62
0
 10
24.4
 20
21.57
 30
0.0
 40
3.3
 50
90.0
 51
-90.0
  0
LINE
  8
0
 62
0
 10
24.4
 20
24.87
 30
0.0
 11
31.0
 21
24.87
 31
0.0
  0
LINE
  8
0
 62
0
 10
31.0
 20
24.87
 30
0.0
 11
31.0
 21
59.13
 31
0.0
  0
LINE
  8
0
 62
0
 10
31.0
 20
59.13
 30
0.0
 11
24.4
 21
59.13
 31
0.0
  0
ARC
  8
0
 62
0
 10
24.4
 20
62.43
 30
0.0
 40
3.3
 50
90.0
 51
-90.0
  0
LINE
  8
0
 62
0
 10
24.4
 20
65.73
 30
0.0
 11
31.0
 21
65.73
 31
0.0
  0
LINE
  8
0
 62
0
 10
31.0
 20
65.73
 30
0.0
 11
31.0
 21
83.0
 31
0.0
  0
LINE
  8
0
 62
0
 10
30.0
 20
83.0
 30
0.0
 11
31.0
 21
83.0
 31
0.0
  0
LINE
  8
0
 62
0
 10
30.0
 20
84.0
 30
0.0
 11
30.0
 21
83.0
 31
0.0
  0
LINE
  8
0
 62
0
 10
30.0
 20
84.0
 30
0.0
 11
3.5527136788e-15
 21
84.0
 31
0.0
  0
LINE
  8
0
 62
0
 10
6.11311850664e-15
 20
84.0
 30
0.0
 11
-30.0
 21
84.0
 31
0.0
  0
LINE
  8
0
 62
0
 10
-30.0
 20
84.0
 30
0.0
 11
-30.0
 21
83.0
 31
0.0
  0
LINE
  8
0
 62
0
 10
-30.0
 20
83.0
 30
0.0
 11
-31.0
 21
83.0
 31
0.0
  0
LINE
  8
0
 62
0
 10
-31.0
 20
83.0
 30
0.0
 11
-31.0
 21
65.73
 31
0.0
  0
LINE
  8
0
 62
0
 10
-31.0
 20
65.73
 30
0.0
 11
-24.4
 21
65.73
 31
0.0
  0
ARC
  8
0
 62
0
 10
-24.4
 20
62.43
 30
0.0
 40
3.3
 50
-90.0
 51
90.0
  0
LINE
  8
0
 62
0
 10
-24.4
 20
59.13
 30
0.0
 11
-31.0
 21
59.13
 31
0.0
  0
LINE
  8
0
 62
0
 10
-31.0
 20
59.13
 30
0.0
 11
-31.0
 21
24.87
 31
0.0
  0
LINE
  8
0
 62
0
 10
-31.0
 20
24.87
 30
0.0
 11
-24.4
 21
24.87
 31
0.0
  0
LINE
  8
0
 62
0
 10
-29.87
 20
-2.8
 30
0.0
 11
-29.87
 21
3.3
 31
0.0
  0
LINE
  8
0
 62
0
 10
-29.87
 20
-2.8
 30
0.0
 11
-29.87
 21
-0.8
 31
0.0
  0
LINE
  8
0
 62
0
 10
-29.87
 20
3.3
 30
0.0
 11
-23.77
 21
3.3
 31
0.0
  0
LINE
  8
0
 62
0
 10
-23.77
 20
3.3
 30
0.0
 11
-23.77
 21
-2.8
 31
0.0
  0
LINE
  8
0
 62
0
 10
-27.69
 20
-2.8
 30
0.0
 11
-29.87
 21
-2.8
 31
0.0
  0
LINE
  8
0
 62
0
 10
-23.77
 20
-2.8
 30
0.0
 11
-26.13
 21
-2.8
 31
0.0
  0
LINE
  8
0
 62
0
 10
-27.69
 20
-2.8
 30
0.0
 11
-27.69
 21
-0.8
 31
0.0
  0
LINE
  8
0
 62
0
 10
-26.13
 20
-2.8
 30
0.0
 11
-26.13
 21
-0.8
 31
0.0
  0
LINE
  8
0
 62
0
 10
-27.69
 20
-0.8
 30
0.0
 11
-26.13
 21
-0.8
 31
0.0
  0
LINE
  8
0
 62
0
 10
-29.31
 20
-1.02
 30
0.0
 11
-29.31
 21
1.0
 31
0.0
  0
LINE
  8
0
 62
0
 10
-28.71
 20
-1.02
 30
0.0
 11
-29.31
 21
-1.02
 31
0.0
  0
LINE
  8
0
 62
0
 10
-28.71
 20
1.0
 30
0.0
 11
-28.71
 21
-1.02
 31
0.0
  0
LINE
  8
0
 62
0
 10
-29.31
 20
1.0
 30
0.0
 11
-28.71
 21
1.0
 31
0.0
  0
LINE
  8
0
 62
0
 10
-24.93
 20
-1.02
 30
0.0
 11
-24.93
 21
1.0
 31
0.0
  0
LINE
  8
0
 62
0
 10
-24.33
 20
-1.02
 30
0.0
 11
-24.93
 21
-1.02
 31
0.0
  0
LINE
  8
0
 62
0
 10
-24.33
 20
1.0
 30
0.0
 11
-24.33
 21
-1.02
 31
0.0
  0
LINE
  8
0
 62
0
 10
-24.93
 20
1.0
 30
0.0
 11
-24.33
 21
1.0
 31
0.0
  0
LINE
  8
0
 62
0
 10
-24.24
 20
-2.8
 30
0.0
 11
-27.69
 21
-2.8
 31
0.0
  0
LINE
  8
0
 62
0
 10
-26.1
 20
-2.8
 30
0.0
 11
-25.62
 21
-2.8
 31
0.0
  0
ENDBLK
  0
BLOCK
  8
0
  2
POCKET006
 70
0
 10
0.0
 20
0.0
 30
0.0
  3
POCKET006
  0
LINE
  8
0
 62
0
 10
-24.4
 20
18.27
 30
0.0
 11
-31.0
 21
18.27
 31
0.0
  0
ARC
  8
0
 62
0
 10
-24.4
 20
21.57
 30
0.0
 40
3.3
 50
-90.0
 51
90.0
  0
LINE
  8
0
 62
0
 10
-31.0
 20
18.27
 30
0.0
 11
-31.0
 21
1.0
 31
0.0
  0
LINE
  8
0
 62
0
 10
-31.0
 20
1.0
 30
0.0
 11
-30.0
 21
1.0
 31
0.0
  0
LINE
  8
0
 62
0
 10
-30.0
 20
1.0
 30
0.0
 11
-30.0
 21
0.0
 31
0.0
  0
LINE
  8
0
 62
0
 10
-30.0
 20
0.0
 30
0.0
 11
0.0
 21
0.0
 31
0.0
  0
LINE
  8
0
 62
0
 10
0.0
 20
0.0
 30
0.0
 11
30.0
 21
0.0
 31
0.0
  0
LINE
  8
0
 62
0
 10
30.0
 20
0.0
 30
0.0
 11
30.0
 21
1.0
 31
0.0
  0
LINE
  8
0
 62
0
 10
30.0
 20
1.0
 30
0.0
 11
31.0
 21
1.0
 31
0.0
  0
LINE
  8
0
 62
0
 10
31.0
 20
1.0
 30
0.0
 11
31.0
 21
18.27
 31
0.0
  0
LINE
  8
0
 62
0
 10
31.0
 20
18.27
 30
0.0
 11
24.4
 21
18.27
 31
0.0
  0
ARC
  8
0
 62
0
 10
24.4
 20
21.57
 30
0.0
 40
3.3
 50
90.0
 51
-90.0
  0
LINE
  8
0
 62
0
 10
24.4
 20
24.87
 30
0.0
 11
31.0
 21
24.87
 31
0.0
  0
LINE
  8
0
 62
0
 10
31.0
 20
24.87
 30
0.0
 11
31.0
 21
59.13
 31
0.0
  0
LINE
  8
0
 62
0
 10
31.0
 20
59.13
 30
0.0
 11
24.4
 21
59.13
 31
0.0
  0
ARC
  8
0
 62
0
 10
24.4
 20
62.43
 30
0.0
 40
3.3
 50
90.0
 51
-90.0
  0
LINE
  8
0
 62
0
 10
24.4
 20
65.73
 30
0.0
 11
31.0
 21
65.73
 31
0.0
  0
LINE
  8
0
 62
0
 10
31.0
 20
65.73
 30
0.0
 11
31.0
 21
83.0
 31
0.0
  0
LINE
  8
0
 62
0
 10
30.0
 20
83.0
 30
0.0
 11
31.0
 21
83.0
 31
0.0
  0
LINE
  8
0
 62
0
 10
30.0
 20
84.0
 30
0.0
 11
30.0
 21
83.0
 31
0.0
  0
LINE
  8
0
 62
0
 10
30.0
 20
84.0
 30
0.0
 11
3.5527136788e-15
 21
84.0
 31
0.0
  0
LINE
  8
0
 62
0
 10
6.11311850664e-15
 20
84.0
 30
0.0
 11
-30.0
 21
84.0
 31
0.0
  0
LINE
  8
0
 62
0
 10
-30.0
 20
84.0
 30
0.0
 11
-30.0
 21
83.0
 31
0.0
  0
LINE
  8
0
 62
0
 10
-30.0
 20
83.0
 30
0.0
 11
-31.0
 21
83.0
 31
0.0
  0
LINE
  8
0
 62
0
 10
-31.0
 20
83.0
 30
0.0
 11
-31.0
 21
65.73
 31
0.0
  0
LINE
  8
0
 62
0
 10
-31.0
 20
65.73
 30
0.0
 11
-24.4
 21
65.73
 31
0.0
  0
ARC
  8
0
 62
0
 10
-24.4
 20
62.43
 30
0.0
 40
3.3
 50
-90.0
 51
90.0
  0
LINE
  8
0
 62
0
 10
-24.4
 20
59.13
 30
0.0
 11
-31.0
 21
59.13
 31
0.0
  0
LINE
  8
0
 62
0
 10
-31.0
 20
59.13
 30
0.0
 11
-31.0
 21
24.87
 31
0.0
  0
LINE
  8
0
 62
0
 10
-31.0
 20
24.87
 30
0.0
 11
-24.4
 21
24.87
 31
0.0
  0
LINE
  8
0
 62
0
 10
15.05
 20
1.7763568394e-15
 30
0.0
 11
15.05
 21
-2.8
 31
0.0
  0
LINE
  8
0
 62
0
 10
30.0
 20
-2.8
 30
0.0
 11
30.0
 21
8.881784197e-16
 31
0.0
  0
LINE
  8
0
 62
0
 10
15.05
 20
-2.8
 30
0.0
 11
30.0
 21
-2.8
 31
0.0
  0
LINE
  8
0
 62
0
 10
29.12
 20
-2.8
 30
0.0
 11
18.03
 21
-2.8
 31
0.0
  0
ENDBLK
  0
BLOCK
  8
0
  2
POCKET007
 70
0
 10
0.0
 20
0.0
 30
0.0
  3
POCKET007
  0
LINE
  8
0
 62
0
 10
-24.4
 20
18.27
 30
0.0
 11
-31.0
 21
18.27
 31
0.0
  0
ARC
  8
0
 62
0
 10
-24.4
 20
21.57
 30
0.0
 40
3.3
 50
-90.0
 51
90.0
  0
LINE
  8
0
 62
0
 10
-31.0
 20
18.27
 30
0.0
 11
-31.0
 21
1.0
 31
0.0
  0
LINE
  8
0
 62
0
 10
-31.0
 20
1.0
 30
0.0
 11
-30.0
 21
1.0
 31
0.0
  0
LINE
  8
0
 62
0
 10
-30.0
 20
1.0
 30
0.0
 11
-30.0
 21
0.0
 31
0.0
  0
LINE
  8
0
 62
0
 10
-30.0
 20
0.0
 30
0.0
 11
0.0
 21
0.0
 31
0.0
  0
LINE
  8
0
 62
0
 10
0.0
 20
0.0
 30
0.0
 11
30.0
 21
0.0
 31
0.0
  0
LINE
  8
0
 62
0
 10
30.0
 20
0.0
 30
0.0
 11
30.0
 21
1.0
 31
0.0
  0
LINE
  8
0
 62
0
 10
30.0
 20
1.0
 30
0.0
 11
31.0
 21
1.0
 31
0.0
  0
LINE
  8
0
 62
0
 10
31.0
 20
1.0
 30
0.0
 11
31.0
 21
18.27
 31
0.0
  0
LINE
  8
0
 62
0
 10
31.0
 20
18.27
 30
0.0
 11
24.4
 21
18.27
 31
0.0
  0
ARC
  8
0
 62
0
 10
24.4
 20
21.57
 30
0.0
 40
3.3
 50
90.0
 51
-90.0
  0
LINE
  8
0
 62
0
 10
24.4
 20
24.87
 30
0.0
 11
31.0
 21
24.87
 31
0.0
  0
LINE
  8
0
 62
0
 10
31.0
 20
24.87
 30
0.0
 11
31.0
 21
59.13
 31
0.0
  0
LINE
  8
0
 62
0
 10
31.0
 20
59.13
 30
0.0
 11
24.4
 21
59.13
 31
0.0
  0
ARC
  8
0
 62
0
 10
24.4
 20
62.43
 30
0.0
 40
3.3
 50
90.0
 51
-90.0
  0
LINE
  8
0
 62
0
 10
24.4
 20
65.73
 30
0.0
 11
31.0
 21
65.73
 31
0.0
  0
LINE
  8
0
 62
0
 10
31.0
 20
65.73
 30
0.0
 11
31.0
 21
83.0
 31
0.0
  0
LINE
  8
0
 62
0
 10
30.0
 20
83.0
 30
0.0
 11
31.0
 21
83.0
 31
0.0
  0
LINE
  8
0
 62
0
 10
30.0
 20
84.0
 30
0.0
 11
30.0
 21
83.0
 31
0.0
  0
LINE
  8
0
 62
0
 10
30.0
 20
84.0
 30
0.0
 11
3.5527136788e-15
 21
84.0
 31
0.0
  0
LINE
  8
0
 62
0
 10
6.11311850664e-15
 20
84.0
 30
0.0
 11
-30.0
 21
84.0
 31
0.0
  0
LINE
  8
0
 62
0
 10
-30.0
 20
84.0
 30
0.0
 11
-30.0
 21
83.0
 31
0.0
  0
LINE
  8
0
 62
0
 10
-30.0
 20
83.0
 30
0.0
 11
-31.0
 21
83.0
 31
0.0
  0
LINE
  8
0
 62
0
 10
-31.0
 20
83.0
 30
0.0
 11
-31.0
 21
65.73
 31
0.0
  0
LINE
  8
0
 62
0
 10
-31.0
 20
65.73
 30
0.0
 11
-24.4
 21
65.73
 31
0.0
  0
ARC
  8
0
 62
0
 10
-24.4
 20
62.43
 30
0.0
 40
3.3
 50
-90.0
 51
90.0
  0
LINE
  8
0
 62
0
 10
-24.4
 20
59.13
 30
0.0
 11
-31.0
 21
59.13
 31
0.0
  0
LINE
  8
0
 62
0
 10
-31.0
 20
59.13
 30
0.0
 11
-31.0
 21
24.87
 31
0.0
  0
LINE
  8
0
 62
0
 10
-31.0
 20
24.87
 30
0.0
 11
-24.4
 21
24.87
 31
0.0
  0
LINE
  8
0
 62
0
 10
15.05
 20
1.7763568394e-15
 30
0.0
 11
15.05
 21
-2.8
 31
0.0
  0
LINE
  8
0
 62
0
 10
30.0
 20
-2.2
 30
0.0
 11
30.0
 21
8.881784197e-16
 31
0.0
  0
LINE
  8
0
 62
0
 10
18.94
 20
-2.8
 30
0.0
 11
21.12
 21
-2.2
 31
0.0
  0
LINE
  8
0
 62
0
 10
21.12
 20
-2.2
 30
0.0
 11
30.0
 21
-2.2
 31
0.0
  0
LINE
  8
0
 62
0
 10
15.05
 20
-2.8
 30
0.0
 11
18.94
 21
-2.8
 31
0.0
  0
LINE
  8
0
 62
0
 10
18.94
 20
-2.8
 30
0.0
 11
18.03
 21
-2.8
 31
0.0
  0
LINE
  8
0
 62
0
 10
29.12
 20
-2.2
 30
0.0
 11
21.12
 21
-2.2
 31
0.0
  0
LINE
  8
0
 62
0
 10
21.12
 20
-2.2
 30
0.0
 11
18.94
 21
-2.8
 31
0.0
  0
ENDBLK
  0
BLOCK
  8
0
  2
FILLET
 70
0
 10
0.0
 20
0.0
 30
0.0
  3
FILLET
  0
LINE
  8
0
 62
0
 10
19.3
 20
6.33
 30
0.0
 11
26.87
 21
6.33
 31
0.0
  0
LINE
  8
0
 62
0
 10
27.07
 20
6.33
 30
0.0
 11
26.87
 21
6.33
 31
0.0
  0
LINE
  8
0
 62
0
 10
19.3
 20
-2.7
 30
0.0
 11
19.3
 21
6.33
 31
0.0
  0
LINE
  8
0
 62
0
 10
26.87
 20
-2.7
 30
0.0
 11
19.3
 21
-2.7
 31
0.0
  0
LINE
  8
0
 62
0
 10
27.07
 20
6.33
 30
0.0
 11
27.07
 21
-2.7
 31
0.0
  0
LINE
  8
0
 62
0
 10
27.07
 20
-2.7
 30
0.0
 11
26.87
 21
-2.7
 31
0.0
  0
LINE
  8
0
 62
0
 10
27.07
 20
6.33
 30
0.0
 11
27.07
 21
0.1
 31
0.0
  0
LINE
  8
0
 62
0
 10
-24.4
 20
18.27
 30
0.0
 11
-31.0
 21
18.27
 31
0.0
  0
ARC
  8
0
 62
0
 10
-24.4
 20
21.57
 30
0.0
 40
3.3
 50
-90.0
 51
90.0
  0
LINE
  8
0
 62
0
 10
-31.0
 20
18.27
 30
0.0
 11
-31.0
 21
1.0
 31
0.0
  0
LINE
  8
0
 62
0
 10
-31.0
 20
24.87
 30
0.0
 11
-24.4
 21
24.87
 31
0.0
  0
LINE
  8
0
 62
0
 10
-31.0
 20
1.0
 30
0.0
 11
-30.0
 21
1.0
 31
0.0
  0
LINE
  8
0
 62
0
 10
-31.0
 20
59.13
 30
0.0
 11
-31.0
 21
24.87
 31
0.0
  0
LINE
  8
0
 62
0
 10
-30.0
 20
1.0
 30
0.0
 11
-30.0
 21
0.0
 31
0.0
  0
LINE
  8
0
 62
0
 10
-24.4
 20
59.13
 30
0.0
 11
-31.0
 21
59.13
 31
0.0
  0
LINE
  8
0
 62
0
 10
-30.0
 20
0.0
 30
0.0
 11
0.0
 21
0.0
 31
0.0
  0
ARC
  8
0
 62
0
 10
-24.4
 20
62.43
 30
0.0
 40
3.3
 50
-90.0
 51
90.0
  0
LINE
  8
0
 62
0
 10
0.0
 20
0.0
 30
0.0
 11
19.3
 21
0.0
 31
0.0
  0
LINE
  8
0
 62
0
 10
-31.0
 20
65.73
 30
0.0
 11
-24.4
 21
65.73
 31
0.0
  0
LINE
  8
0
 62
0
 10
-31.0
 20
83.0
 30
0.0
 11
-31.0
 21
65.73
 31
0.0
  0
LINE
  8
0
 62
0
 10
-30.0
 20
83.0
 30
0.0
 11
-31.0
 21
83.0
 31
0.0
  0
LINE
  8
0
 62
0
 10
-30.0
 20
84.0
 30
0.0
 11
-30.0
 21
83.0
 31
0.0
  0
LINE
  8
0
 62
0
 10
6.11311850664e-15
 20
84.0
 30
0.0
 11
-30.0
 21
84.0
 31
0.0
  0
LINE
  8
0
 62
0
 10
27.07
 20
1.33226762955e-15
 30
0.0
 11
27.07
 21
0.1
 31
0.0
  0
LINE
  8
0
 62
0
 10
30.0
 20
84.0
 30
0.0
 11
3.5527136788e-15
 21
84.0
 31
0.0
  0
LINE
  8
0
 62
0
 10
27.07
 20
0.0
 30
0.0
 11
30.0
 21
0.0
 31
0.0
  0
LINE
  8
0
 62
0
 10
30.0
 20
84.0
 30
0.0
 11
30.0
 21
83.0
 31
0.0
  0
LINE
  8
0
 62
0
 10
30.0
 20
0.0
 30
0.0
 11
30.0
 21
1.0
 31
0.0
  0
LINE
  8
0
 62
0
 10
30.0
 20
83.0
 30
0.0
 11
31.0
 21
83.0
 31
0.0
  0
LINE
  8
0
 62
0
 10
30.0
 20
1.0
 30
0.0
 11
31.0
 21
1.0
 31
0.0
  0
LINE
  8
0
 62
0
 10
31.0
 20
65.73
 30
0.0
 11
31.0
 21
83.0
 31
0.0
  0
LINE
  8
0
 62
0
 10
31.0
 20
1.0
 30
0.0
 11
31.0
 21
18.27
 31
0.0
  0
LINE
  8
0
 62
0
 10
24.4
 20
65.73
 30
0.0
 11
31.0
 21
65.73
 31
0.0
  0
LINE
  8
0
 62
0
 10
31.0
 20
18.27
 30
0.0
 11
24.4
 21
18.27
 31
0.0
  0
ARC
  8
0
 62
0
 10
24.4
 20
62.43
 30
0.0
 40
3.3
 50
90.0
 51
-90.0
  0
ARC
  8
0
 62
0
 10
24.4
 20
21.57
 30
0.0
 40
3.3
 50
90.0
 51
-90.0
  0
LINE
  8
0
 62
0
 10
31.0
 20
59.13
 30
0.0
 11
24.4
 21
59.13
 31
0.0
  0
LINE
  8
0
 62
0
 10
24.4
 20
24.87
 30
0.0
 11
31.0
 21
24.87
 31
0.0
  0
LINE
  8
0
 62
0
 10
31.0
 20
24.87
 30
0.0
 11
31.0
 21
59.13
 31
0.0
  0
LINE
  8
0
 62
0
 10
26.87
 20
6.33
 30
0.0
 11
26.87
 21
-2.7
 31
0.0
  0
ENDBLK
  0
BLOCK
  8
0
  2
FILLET001
 70
0
 10
0.0
 20
0.0
 30
0.0
  3
FILLET001
  0
LINE
  8
0
 62
0
 10
19.5
 20
6.33
 30
0.0
 11
26.87
 21
6.33
 31
0.0
  0
LINE
  8
0
 62
0
 10
19.5
 20
6.33
 30
0.0
 11
19.3
 21
6.33
 31
0.0
  0
LINE
  8
0
 62
0
 10
27.07
 20
6.33
 30
0.0
 11
26.87
 21
6.33
 31
0.0
  0
LINE
  8
0
 62
0
 10
26.87
 20
-2.7
 30
0.0
 11
19.5
 21
-2.7
 31
0.0
  0
LINE
  8
0
 62
0
 10
19.5
 20
-2.7
 30
0.0
 11
19.3
 21
-2.7
 31
0.0
  0
LINE
  8
0
 62
0
 10
19.3
 20
-2.7
 30
0.0
 11
19.3
 21
6.33
 31
0.0
  0
LINE
  8
0
 62
0
 10
27.07
 20
6.33
 30
0.0
 11
27.07
 21
-2.7
 31
0.0
  0
LINE
  8
0
 62
0
 10
27.07
 20
-2.7
 30
0.0
 11
26.87
 21
-2.7
 31
0.0
  0
LINE
  8
0
 62
0
 10
27.07
 20
6.33
 30
0.0
 11
27.07
 21
0.1
 31
0.0
  0
LINE
  8
0
 62
0
 10
-24.4
 20
18.27
 30
0.0
 11
-31.0
 21
18.27
 31
0.0
  0
ARC
  8
0
 62
0
 10
-24.4
 20
21.57
 30
0.0
 40
3.3
 50
-90.0
 51
90.0
  0
LINE
  8
0
 62
0
 10
-31.0
 20
18.27
 30
0.0
 11
-31.0
 21
1.0
 31
0.0
  0
LINE
  8
0
 62
0
 10
-31.0
 20
24.87
 30
0.0
 11
-24.4
 21
24.87
 31
0.0
  0
LINE
  8
0
 62
0
 10
-31.0
 20
1.0
 30
0.0
 11
-30.0
 21
1.0
 31
0.0
  0
LINE
  8
0
 62
0
 10
-31.0
 20
59.13
 30
0.0
 11
-31.0
 21
24.87
 31
0.0
  0
LINE
  8
0
 62
0
 10
-30.0
 20
1.0
 30
0.0
 11
-30.0
 21
0.0
 31
0.0
  0
LINE
  8
0
 62
0
 10
-24.4
 20
59.13
 30
0.0
 11
-31.0
 21
59.13
 31
0.0
  0
LINE
  8
0
 62
0
 10
-30.0
 20
0.0
 30
0.0
 11
0.0
 21
0.0
 31
0.0
  0
ARC
  8
0
 62
0
 10
-24.4
 20
62.43
 30
0.0
 40
3.3
 50
-90.0
 51
90.0
  0
LINE
  8
0
 62
0
 10
0.0
 20
0.0
 30
0.0
 11
19.3
 21
0.0
 31
0.0
  0
LINE
  8
0
 62
0
 10
-31.0
 20
65.73
 30
0.0
 11
-24.4
 21
65.73
 31
0.0
  0
LINE
  8
0
 62
0
 10
-31.0
 20
83.0
 30
0.0
 11
-31.0
 21
65.73
 31
0.0
  0
LINE
  8
0
 62
0
 10
-30.0
 20
83.0
 30
0.0
 11
-31.0
 21
83.0
 31
0.0
  0
LINE
  8
0
 62
0
 10
-30.0
 20
84.0
 30
0.0
 11
-30.0
 21
83.0
 31
0.0
  0
LINE
  8
0
 62
0
 10
6.11311850664e-15
 20
84.0
 30
0.0
 11
-30.0
 21
84.0
 31
0.0
  0
LINE
  8
0
 62
0
 10
27.07
 20
1.33226762955e-15
 30
0.0
 11
27.07
 21
0.1
 31
0.0
  0
LINE
  8
0
 62
0
 10
30.0
 20
84.0
 30
0.0
 11
3.5527136788e-15
 21
84.0
 31
0.0
  0
LINE
  8
0
 62
0
 10
27.07
 20
0.0
 30
0.0
 11
30.0
 21
0.0
 31
0.0
  0
LINE
  8
0
 62
0
 10
30.0
 20
84.0
 30
0.0
 11
30.0
 21
83.0
 31
0.0
  0
LINE
  8
0
 62
0
 10
30.0
 20
0.0
 30
0.0
 11
30.0
 21
1.0
 31
0.0
  0
LINE
  8
0
 62
0
 10
30.0
 20
83.0
 30
0.0
 11
31.0
 21
83.0
 31
0.0
  0
LINE
  8
0
 62
0
 10
30.0
 20
1.0
 30
0.0
 11
31.0
 21
1.0
 31
0.0
  0
LINE
  8
0
 62
0
 10
31.0
 20
65.73
 30
0.0
 11
31.0
 21
83.0
 31
0.0
  0
LINE
  8
0
 62
0
 10
31.0
 20
1.0
 30
0.0
 11
31.0
 21
18.27
 31
0.0
  0
LINE
  8
0
 62
0
 10
24.4
 20
65.73
 30
0.0
 11
31.0
 21
65.73
 31
0.0
  0
LINE
  8
0
 62
0
 10
31.0
 20
18.27
 30
0.0
 11
24.4
 21
18.27
 31
0.0
  0
ARC
  8
0
 62
0
 10
24.4
 20
62.43
 30
0.0
 40
3.3
 50
90.0
 51
-90.0
  0
ARC
  8
0
 62
0
 10
24.4
 20
21.57
 30
0.0
 40
3.3
 50
90.0
 51
-90.0
  0
LINE
  8
0
 62
0
 10
31.0
 20
59.13
 30
0.0
 11
24.4
 21
59.13
 31
0.0
  0
LINE
  8
0
 62
0
 10
24.4
 20
24.87
 30
0.0
 11
31.0
 21
24.87
 31
0.0
  0
LINE
  8
0
 62
0
 10
31.0
 20
24.87
 30
0.0
 11
31.0
 21
59.13
 31
0.0
  0
LINE
  8
0
 62
0
 10
19.5
 20
-2.7
 30
0.0
 11
19.5
 21
6.33
 31
0.0
  0
LINE
  8
0
 62
0
 10
26.87
 20
6.33
 30
0.0
 11
26.87
 21
-2.7
 31
0.0
  0
ENDBLK
  0
BLOCK
  8
0
  2
FILLET002
 70
0
 10
0.0
 20
0.0
 30
0.0
  3
FILLET002
  0
LINE
  8
0
 62
0
 10
-2.05
 20
8.42
 30
0.0
 11
12.8
 21
8.42
 31
0.0
  0
LINE
  8
0
 62
0
 10
13.0
 20
8.42
 30
0.0
 11
12.8
 21
8.42
 31
0.0
  0
LINE
  8
0
 62
0
 10
-2.05
 20
-2.7
 30
0.0
 11
-2.05
 21
8.42
 31
0.0
  0
LINE
  8
0
 62
0
 10
12.8
 20
-2.7
 30
0.0
 11
-2.05
 21
-2.7
 31
0.0
  0
LINE
  8
0
 62
0
 10
13.0
 20
8.42
 30
0.0
 11
13.0
 21
-2.7
 31
0.0
  0
LINE
  8
0
 62
0
 10
13.0
 20
-2.7
 30
0.0
 11
12.8
 21
-2.7
 31
0.0
  0
LINE
  8
0
 62
0
 10
-24.4
 20
18.27
 30
0.0
 11
-31.0
 21
18.27
 31
0.0
  0
ARC
  8
0
 62
0
 10
-24.4
 20
21.57
 30
0.0
 40
3.3
 50
-90.0
 51
90.0
  0
LINE
  8
0
 62
0
 10
-31.0
 20
18.27
 30
0.0
 11
-31.0
 21
1.0
 31
0.0
  0
LINE
  8
0
 62
0
 10
-31.0
 20
24.87
 30
0.0
 11
-24.4
 21
24.87
 31
0.0
  0
LINE
  8
0
 62
0
 10
-31.0
 20
1.0
 30
0.0
 11
-30.0
 21
1.0
 31
0.0
  0
LINE
  8
0
 62
0
 10
-31.0
 20
59.13
 30
0.0
 11
-31.0
 21
24.87
 31
0.0
  0
LINE
  8
0
 62
0
 10
-30.0
 20
1.0
 30
0.0
 11
-30.0
 21
0.0
 31
0.0
  0
LINE
  8
0
 62
0
 10
-24.4
 20
59.13
 30
0.0
 11
-31.0
 21
59.13
 31
0.0
  0
LINE
  8
0
 62
0
 10
-30.0
 20
0.0
 30
0.0
 11
-2.05
 21
0.0
 31
0.0
  0
ARC
  8
0
 62
0
 10
-24.4
 20
62.43
 30
0.0
 40
3.3
 50
-90.0
 51
90.0
  0
LINE
  8
0
 62
0
 10
-31.0
 20
65.73
 30
0.0
 11
-24.4
 21
65.73
 31
0.0
  0
LINE
  8
0
 62
0
 10
-31.0
 20
83.0
 30
0.0
 11
-31.0
 21
65.73
 31
0.0
  0
LINE
  8
0
 62
0
 10
-30.0
 20
83.0
 30
0.0
 11
-31.0
 21
83.0
 31
0.0
  0
LINE
  8
0
 62
0
 10
-30.0
 20
84.0
 30
0.0
 11
-30.0
 21
83.0
 31
0.0
  0
LINE
  8
0
 62
0
 10
6.11311850664e-15
 20
84.0
 30
0.0
 11
-30.0
 21
84.0
 31
0.0
  0
LINE
  8
0
 62
0
 10
13.0
 20
0.0
 30
0.0
 11
30.0
 21
0.0
 31
0.0
  0
LINE
  8
0
 62
0
 10
30.0
 20
84.0
 30
0.0
 11
3.5527136788e-15
 21
84.0
 31
0.0
  0
LINE
  8
0
 62
0
 10
30.0
 20
0.0
 30
0.0
 11
30.0
 21
1.0
 31
0.0
  0
LINE
  8
0
 62
0
 10
30.0
 20
84.0
 30
0.0
 11
30.0
 21
83.0
 31
0.0
  0
LINE
  8
0
 62
0
 10
30.0
 20
1.0
 30
0.0
 11
31.0
 21
1.0
 31
0.0
  0
LINE
  8
0
 62
0
 10
30.0
 20
83.0
 30
0.0
 11
31.0
 21
83.0
 31
0.0
  0
LINE
  8
0
 62
0
 10
31.0
 20
1.0
 30
0.0
 11
31.0
 21
18.27
 31
0.0
  0
LINE
  8
0
 62
0
 10
31.0
 20
65.73
 30
0.0
 11
31.0
 21
83.0
 31
0.0
  0
LINE
  8
0
 62
0
 10
31.0
 20
18.27
 30
0.0
 11
24.4
 21
18.27
 31
0.0
  0
LINE
  8
0
 62
0
 10
24.4
 20
65.73
 30
0.0
 11
31.0
 21
65.73
 31
0.0
  0
ARC
  8
0
 62
0
 10
24.4
 20
21.57
 30
0.0
 40
3.3
 50
90.0
 51
-90.0
  0
ARC
  8
0
 62
0
 10
24.4
 20
62.43
 30
0.0
 40
3.3
 50
90.0
 51
-90.0
  0
LINE
  8
0
 62
0
 10
24.4
 20
24.87
 30
0.0
 11
31.0
 21
24.87
 31
0.0
  0
LINE
  8
0
 62
0
 10
31.0
 20
59.13
 30
0.0
 11
24.4
 21
59.13
 31
0.0
  0
LINE
  8
0
 62
0
 10
31.0
 20
24.87
 30
0.0
 11
31.0
 21
59.13
 31
0.0
  0
LINE
  8
0
 62
0
 10
12.8
 20
8.42
 30
0.0
 11
12.8
 21
-2.7
 31
0.0
  0
ENDBLK
  0
BLOCK
  8
0
  2
FILLET003
 70
0
 10
0.0
 20
0.0
 30
0.0
  3
FILLET003
  0
LINE
  8
0
 62
0
 10
-1.85
 20
8.42
 30
0.0
 11
12.8
 21
8.42
 31
0.0
  0
LINE
  8
0
 62
0
 10
-1.85
 20
8.42
 30
0.0
 11
-2.05
 21
8.42
 31
0.0
  0
LINE
  8
0
 62
0
 10
13.0
 20
8.42
 30
0.0
 11
12.8
 21
8.42
 31
0.0
  0
LINE
  8
0
 62
0
 10
12.8
 20
-2.7
 30
0.0
 11
-1.85
 21
-2.7
 31
0.0
  0
LINE
  8
0
 62
0
 10
-1.85
 20
-2.7
 30
0.0
 11
-2.05
 21
-2.7
 31
0.0
  0
LINE
  8
0
 62
0
 10
-2.05
 20
-2.7
 30
0.0
 11
-2.05
 21
8.42
 31
0.0
  0
LINE
  8
0
 62
0
 10
13.0
 20
8.42
 30
0.0
 11
13.0
 21
-2.7
 31
0.0
  0
LINE
  8
0
 62
0
 10
13.0
 20
-2.7
 30
0.0
 11
12.8
 21
-2.7
 31
0.0
  0
LINE
  8
0
 62
0
 10
-24.4
 20
18.27
 30
0.0
 11
-31.0
 21
18.27
 31
0.0
  0
ARC
  8
0
 62
0
 10
-24.4
 20
21.57
 30
0.0
 40
3.3
 50
-90.0
 51
90.0
  0
LINE
  8
0
 62
0
 10
-31.0
 20
18.27
 30
0.0
 11
-31.0
 21
1.0
 31
0.0
  0
LINE
  8
0
 62
0
 10
-31.0
 20
24.87
 30
0.0
 11
-24.4
 21
24.87
 31
0.0
  0
LINE
  8
0
 62
0
 10
-31.0
 20
1.0
 30
0.0
 11
-30.0
 21
1.0
 31
0.0
  0
LINE
  8
0
 62
0
 10
-31.0
 20
59.13
 30
0.0
 11
-31.0
 21
24.87
 31
0.0
  0
LINE
  8
0
 62
0
 10
-30.0
 20
1.0
 30
0.0
 11
-30.0
 21
0.0
 31
0.0
  0
LINE
  8
0
 62
0
 10
-24.4
 20
59.13
 30
0.0
 11
-31.0
 21
59.13
 31
0.0
  0
LINE
  8
0
 62
0
 10
-30.0
 20
0.0
 30
0.0
 11
-2.05
 21
0.0
 31
0.0
  0
ARC
  8
0
 62
0
 10
-24.4
 20
62.43
 30
0.0
 40
3.3
 50
-90.0
 51
90.0
  0
LINE
  8
0
 62
0
 10
-31.0
 20
65.73
 30
0.0
 11
-24.4
 21
65.73
 31
0.0
  0
LINE
  8
0
 62
0
 10
-31.0
 20
83.0
 30
0.0
 11
-31.0
 21
65.73
 31
0.0
  0
LINE
  8
0
 62
0
 10
-30.0
 20
83.0
 30
0.0
 11
-31.0
 21
83.0
 31
0.0
  0
LINE
  8
0
 62
0
 10
-30.0
 20
84.0
 30
0.0
 11
-30.0
 21
83.0
 31
0.0
  0
LINE
  8
0
 62
0
 10
6.11311850664e-15
 20
84.0
 30
0.0
 11
-30.0
 21
84.0
 31
0.0
  0
LINE
  8
0
 62
0
 10
13.0
 20
0.0
 30
0.0
 11
30.0
 21
0.0
 31
0.0
  0
LINE
  8
0
 62
0
 10
30.0
 20
84.0
 30
0.0
 11
3.5527136788e-15
 21
84.0
 31
0.0
  0
LINE
  8
0
 62
0
 10
30.0
 20
0.0
 30
0.0
 11
30.0
 21
1.0
 31
0.0
  0
LINE
  8
0
 62
0
 10
30.0
 20
84.0
 30
0.0
 11
30.0
 21
83.0
 31
0.0
  0
LINE
  8
0
 62
0
 10
30.0
 20
1.0
 30
0.0
 11
31.0
 21
1.0
 31
0.0
  0
LINE
  8
0
 62
0
 10
30.0
 20
83.0
 30
0.0
 11
31.0
 21
83.0
 31
0.0
  0
LINE
  8
0
 62
0
 10
31.0
 20
1.0
 30
0.0
 11
31.0
 21
18.27
 31
0.0
  0
LINE
  8
0
 62
0
 10
31.0
 20
65.73
 30
0.0
 11
31.0
 21
83.0
 31
0.0
  0
LINE
  8
0
 62
0
 10
31.0
 20
18.27
 30
0.0
 11
24.4
 21
18.27
 31
0.0
  0
LINE
  8
0
 62
0
 10
24.4
 20
65.73
 30
0.0
 11
31.0
 21
65.73
 31
0.0
  0
ARC
  8
0
 62
0
 10
24.4
 20
21.57
 30
0.0
 40
3.3
 50
90.0
 51
-90.0
  0
ARC
  8
0
 62
0
 10
24.4
 20
62.43
 30
0.0
 40
3.3
 50
90.0
 51
-90.0
  0
LINE
  8
0
 62
0
 10
24.4
 20
24.87
 30
0.0
 11
31.0
 21
24.87
 31
0.0
  0
LINE
  8
0
 62
0
 10
31.0
 20
59.13
 30
0.0
 11
24.4
 21
59.13
 31
0.0
  0
LINE
  8
0
 62
0
 10
31.0
 20
24.87
 30
0.0
 11
31.0
 21
59.13
 31
0.0
  0
LINE
  8
0
 62
0
 10
-1.85
 20
-2.7
 30
0.0
 11
-1.85
 21
8.42
 31
0.0
  0
LINE
  8
0
 62
0
 10
12.8
 20
8.42
 30
0.0
 11
12.8
 21
-2.7
 31
0.0
  0
ENDBLK
  0
BLOCK
  8
0
  2
FILLET004
 70
0
 10
0.0
 20
0.0
 30
0.0
  3
FILLET004
  0
LINE
  8
0
 62
0
 10
-23.1
 20
8.44
 30
0.0
 11
-5.93
 21
8.44
 31
0.0
  0
LINE
  8
0
 62
0
 10
-5.73
 20
8.44
 30
0.0
 11
-5.93
 21
8.44
 31
0.0
  0
LINE
  8
0
 62
0
 10
-23.1
 20
2.49
 30
0.0
 11
-23.1
 21
8.44
 31
0.0
  0
LINE
  8
0
 62
0
 10
-5.93
 20
-3.0
 30
0.0
 11
-7.85
 21
-3.0
 31
0.0
  0
LINE
  8
0
 62
0
 10
-7.85
 20
2.49
 30
0.0
 11
-23.1
 21
2.49
 31
0.0
  0
LINE
  8
0
 62
0
 10
-7.85
 20
-3.0
 30
0.0
 11
-7.85
 21
2.49
 31
0.0
  0
LINE
  8
0
 62
0
 10
-5.73
 20
8.44
 30
0.0
 11
-5.73
 21
-3.0
 31
0.0
  0
LINE
  8
0
 62
0
 10
-5.73
 20
-3.0
 30
0.0
 11
-5.93
 21
-3.0
 31
0.0
  0
LINE
  8
0
 62
0
 10
-23.1
 20
-3.0
 30
0.0
 11
-23.1
 21
2.49
 31
0.0
  0
LINE
  8
0
 62
0
 10
-24.4
 20
18.27
 30
0.0
 11
-31.0
 21
18.27
 31
0.0
  0
ARC
  8
0
 62
0
 10
-24.4
 20
21.57
 30
0.0
 40
3.3
 50
-90.0
 51
90.0
  0
LINE
  8
0
 62
0
 10
-31.0
 20
18.27
 30
0.0
 11
-31.0
 21
1.0
 31
0.0
  0
LINE
  8
0
 62
0
 10
-31.0
 20
24.87
 30
0.0
 11
-24.4
 21
24.87
 31
0.0
  0
LINE
  8
0
 62
0
 10
-31.0
 20
1.0
 30
0.0
 11
-30.0
 21
1.0
 31
0.0
  0
LINE
  8
0
 62
0
 10
-31.0
 20
59.13
 30
0.0
 11
-31.0
 21
24.87
 31
0.0
  0
LINE
  8
0
 62
0
 10
-30.0
 20
1.0
 30
0.0
 11
-30.0
 21
0.0
 31
0.0
  0
LINE
  8
0
 62
0
 10
-24.4
 20
59.13
 30
0.0
 11
-31.0
 21
59.13
 31
0.0
  0
LINE
  8
0
 62
0
 10
-30.0
 20
0.0
 30
0.0
 11
-23.1
 21
0.0
 31
0.0
  0
ARC
  8
0
 62
0
 10
-24.4
 20
62.43
 30
0.0
 40
3.3
 50
-90.0
 51
90.0
  0
LINE
  8
0
 62
0
 10
-31.0
 20
65.73
 30
0.0
 11
-24.4
 21
65.73
 31
0.0
  0
LINE
  8
0
 62
0
 10
-31.0
 20
83.0
 30
0.0
 11
-31.0
 21
65.73
 31
0.0
  0
LINE
  8
0
 62
0
 10
-30.0
 20
83.0
 30
0.0
 11
-31.0
 21
83.0
 31
0.0
  0
LINE
  8
0
 62
0
 10
-5.73
 20
0.0
 30
0.0
 11
0.0
 21
0.0
 31
0.0
  0
LINE
  8
0
 62
0
 10
-30.0
 20
84.0
 30
0.0
 11
-30.0
 21
83.0
 31
0.0
  0
LINE
  8
0
 62
0
 10
0.0
 20
0.0
 30
0.0
 11
30.0
 21
0.0
 31
0.0
  0
LINE
  8
0
 62
0
 10
6.11311850664e-15
 20
84.0
 30
0.0
 11
-30.0
 21
84.0
 31
0.0
  0
LINE
  8
0
 62
0
 10
30.0
 20
0.0
 30
0.0
 11
30.0
 21
1.0
 31
0.0
  0
LINE
  8
0
 62
0
 10
30.0
 20
84.0
 30
0.0
 11
3.5527136788e-15
 21
84.0
 31
0.0
  0
LINE
  8
0
 62
0
 10
30.0
 20
1.0
 30
0.0
 11
31.0
 21
1.0
 31
0.0
  0
LINE
  8
0
 62
0
 10
30.0
 20
84.0
 30
0.0
 11
30.0
 21
83.0
 31
0.0
  0
LINE
  8
0
 62
0
 10
31.0
 20
1.0
 30
0.0
 11
31.0
 21
18.27
 31
0.0
  0
LINE
  8
0
 62
0
 10
30.0
 20
83.0
 30
0.0
 11
31.0
 21
83.0
 31
0.0
  0
LINE
  8
0
 62
0
 10
31.0
 20
18.27
 30
0.0
 11
24.4
 21
18.27
 31
0.0
  0
LINE
  8
0
 62
0
 10
31.0
 20
65.73
 30
0.0
 11
31.0
 21
83.0
 31
0.0
  0
ARC
  8
0
 62
0
 10
24.4
 20
21.57
 30
0.0
 40
3.3
 50
90.0
 51
-90.0
  0
LINE
  8
0
 62
0
 10
24.4
 20
65.73
 30
0.0
 11
31.0
 21
65.73
 31
0.0
  0
LINE
  8
0
 62
0
 10
24.4
 20
24.87
 30
0.0
 11
31.0
 21
24.87
 31
0.0
  0
ARC
  8
0
 62
0
 10
24.4
 20
62.43
 30
0.0
 40
3.3
 50
90.0
 51
-90.0
  0
LINE
  8
0
 62
0
 10
31.0
 20
24.87
 30
0.0
 11
31.0
 21
59.13
 31
0.0
  0
LINE
  8
0
 62
0
 10
31.0
 20
59.13
 30
0.0
 11
24.4
 21
59.13
 31
0.0
  0
LINE
  8
0
 62
0
 10
-7.85
 20
-3.0
 30
0.0
 11
-6.78
 21
-3.0
 31
0.0
  0
LINE
  8
0
 62
0
 10
-21.13
 20
2.49
 30
0.0
 11
-19.93
 21
2.49
 31
0.0
  0
LINE
  8
0
 62
0
 10
-9.53
 20
2.49
 30
0.0
 11
-7.85
 21
2.49
 31
0.0
  0
LINE
  8
0
 62
0
 10
-23.1
 20
-3.0
 30
0.0
 11
-21.13
 21
-3.0
 31
0.0
  0
LINE
  8
0
 62
0
 10
-21.13
 20
-3.0
 30
0.0
 11
-21.13
 21
2.49
 31
0.0
  0
LINE
  8
0
 62
0
 10
-21.13
 20
0.0
 30
0.0
 11
-19.93
 21
0.0
 31
0.0
  0
LINE
  8
0
 62
0
 10
-9.53
 20
0.0
 30
0.0
 11
-7.85
 21
0.0
 31
0.0
  0
LINE
  8
0
 62
0
 10
-7.85
 20
4.4408920985e-16
 30
0.0
 11
-7.85
 21
2.49
 31
0.0
  0
LINE
  8
0
 62
0
 10
-7.85
 20
-3.0
 30
0.0
 11
-7.85
 21
2.49
 31
0.0
  0
LINE
  8
0
 62
0
 10
-19.93
 20
-3.0
 30
0.0
 11
-19.93
 21
2.49
 31
0.0
  0
LINE
  8
0
 62
0
 10
-19.93
 20
-3.0
 30
0.0
 11
-9.53
 21
-3.0
 31
0.0
  0
LINE
  8
0
 62
0
 10
-9.53
 20
-3.0
 30
0.0
 11
-9.53
 21
2.49
 31
0.0
  0
LINE
  8
0
 62
0
 10
-5.93
 20
8.44
 30
0.0
 11
-5.93
 21
-3.0
 31
0.0
  0
ENDBLK
  0
BLOCK
  8
0
  2
FILLET005
 70
0
 10
0.0
 20
0.0
 30
0.0
  3
FILLET005
  0
LINE
  8
0
 62
0
 10
-22.9
 20
8.44
 30
0.0
 11
-5.93
 21
8.44
 31
0.0
  0
LINE
  8
0
 62
0
 10
-22.9
 20
8.44
 30
0.0
 11
-23.1
 21
8.44
 31
0.0
  0
LINE
  8
0
 62
0
 10
-5.73
 20
8.44
 30
0.0
 11
-5.93
 21
8.44
 31
0.0
  0
LINE
  8
0
 62
0
 10
-7.85
 20
2.49
 30
0.0
 11
-22.9
 21
2.49
 31
0.0
  0
LINE
  8
0
 62
0
 10
-5.93
 20
-3.0
 30
0.0
 11
-7.85
 21
-3.0
 31
0.0
  0
LINE
  8
0
 62
0
 10
-7.85
 20
-3.0
 30
0.0
 11
-7.85
 21
2.49
 31
0.0
  0
LINE
  8
0
 62
0
 10
-22.9
 20
2.49
 30
0.0
 11
-23.1
 21
2.49
 31
0.0
  0
LINE
  8
0
 62
0
 10
-23.1
 20
2.49
 30
0.0
 11
-23.1
 21
8.44
 31
0.0
  0
LINE
  8
0
 62
0
 10
-5.73
 20
8.44
 30
0.0
 11
-5.73
 21
-3.0
 31
0.0
  0
LINE
  8
0
 62
0
 10
-5.73
 20
-3.0
 30
0.0
 11
-5.93
 21
-3.0
 31
0.0
  0
LINE
  8
0
 62
0
 10
-23.1
 20
-3.0
 30
0.0
 11
-23.1
 21
2.49
 31
0.0
  0
LINE
  8
0
 62
0
 10
-24.4
 20
18.27
 30
0.0
 11
-31.0
 21
18.27
 31
0.0
  0
ARC
  8
0
 62
0
 10
-24.4
 20
21.57
 30
0.0
 40
3.3
 50
-90.0
 51
90.0
  0
LINE
  8
0
 62
0
 10
-31.0
 20
18.27
 30
0.0
 11
-31.0
 21
1.0
 31
0.0
  0
LINE
  8
0
 62
0
 10
-31.0
 20
24.87
 30
0.0
 11
-24.4
 21
24.87
 31
0.0
  0
LINE
  8
0
 62
0
 10
-31.0
 20
1.0
 30
0.0
 11
-30.0
 21
1.0
 31
0.0
  0
LINE
  8
0
 62
0
 10
-31.0
 20
59.13
 30
0.0
 11
-31.0
 21
24.87
 31
0.0
  0
LINE
  8
0
 62
0
 10
-30.0
 20
1.0
 30
0.0
 11
-30.0
 21
0.0
 31
0.0
  0
LINE
  8
0
 62
0
 10
-24.4
 20
59.13
 30
0.0
 11
-31.0
 21
59.13
 31
0.0
  0
LINE
  8
0
 62
0
 10
-30.0
 20
0.0
 30
0.0
 11
-23.1
 21
0.0
 31
0.0
  0
ARC
  8
0
 62
0
 10
-24.4
 20
62.43
 30
0.0
 40
3.3
 50
-90.0
 51
90.0
  0
LINE
  8
0
 62
0
 10
-31.0
 20
65.73
 30
0.0
 11
-24.4
 21
65.73
 31
0.0
  0
LINE
  8
0
 62
0
 10
-31.0
 20
83.0
 30
0.0
 11
-31.0
 21
65.73
 31
0.0
  0
LINE
  8
0
 62
0
 10
-30.0
 20
83.0
 30
0.0
 11
-31.0
 21
83.0
 31
0.0
  0
LINE
  8
0
 62
0
 10
-5.73
 20
0.0
 30
0.0
 11
0.0
 21
0.0
 31
0.0
  0
LINE
  8
0
 62
0
 10
-30.0
 20
84.0
 30
0.0
 11
-30.0
 21
83.0
 31
0.0
  0
LINE
  8
0
 62
0
 10
0.0
 20
0.0
 30
0.0
 11
30.0
 21
0.0
 31
0.0
  0
LINE
  8
0
 62
0
 10
6.11311850664e-15
 20
84.0
 30
0.0
 11
-30.0
 21
84.0
 31
0.0
  0
LINE
  8
0
 62
0
 10
30.0
 20
0.0
 30
0.0
 11
30.0
 21
1.0
 31
0.0
  0
LINE
  8
0
 62
0
 10
30.0
 20
84.0
 30
0.0
 11
3.5527136788e-15
 21
84.0
 31
0.0
  0
LINE
  8
0
 62
0
 10
30.0
 20
1.0
 30
0.0
 11
31.0
 21
1.0
 31
0.0
  0
LINE
  8
0
 62
0
 10
30.0
 20
84.0
 30
0.0
 11
30.0
 21
83.0
 31
0.0
  0
LINE
  8
0
 62
0
 10
31.0
 20
1.0
 30
0.0
 11
31.0
 21
18.27
 31
0.0
  0
LINE
  8
0
 62
0
 10
30.0
 20
83.0
 30
0.0
 11
31.0
 21
83.0
 31
0.0
  0
LINE
  8
0
 62
0
 10
31.0
 20
18.27
 30
0.0
 11
24.4
 21
18.27
 31
0.0
  0
LINE
  8
0
 62
0
 10
31.0
 20
65.73
 30
0.0
 11
31.0
 21
83.0
 31
0.0
  0
ARC
  8
0
 62
0
 10
24.4
 20
21.57
 30
0.0
 40
3.3
 50
90.0
 51
-90.0
  0
LINE
  8
0
 62
0
 10
24.4
 20
65.73
 30
0.0
 11
31.0
 21
65.73
 31
0.0
  0
LINE
  8
0
 62
0
 10
24.4
 20
24.87
 30
0.0
 11
31.0
 21
24.87
 31
0.0
  0
ARC
  8
0
 62
0
 10
24.4
 20
62.43
 30
0.0
 40
3.3
 50
90.0
 51
-90.0
  0
LINE
  8
0
 62
0
 10
31.0
 20
24.87
 30
0.0
 11
31.0
 21
59.13
 31
0.0
  0
LINE
  8
0
 62
0
 10
31.0
 20
59.13
 30
0.0
 11
24.4
 21
59.13
 31
0.0
  0
LINE
  8
0
 62
0
 10
-21.13
 20
2.49
 30
0.0
 11
-19.93
 21
2.49
 31
0.0
  0
LINE
  8
0
 62
0
 10
-9.53
 20
2.49
 30
0.0
 11
-7.85
 21
2.49
 31
0.0
  0
LINE
  8
0
 62
0
 10
-19.93
 20
2.49
 30
0.0
 11
-9.53
 21
2.49
 31
0.0
  0
LINE
  8
0
 62
0
 10
-7.85
 20
-3.0
 30
0.0
 11
-6.78
 21
-3.0
 31
0.0
  0
LINE
  8
0
 62
0
 10
-23.1
 20
-3.0
 30
0.0
 11
-21.13
 21
-3.0
 31
0.0
  0
LINE
  8
0
 62
0
 10
-21.13
 20
-3.0
 30
0.0
 11
-21.13
 21
2.49
 31
0.0
  0
LINE
  8
0
 62
0
 10
-21.13
 20
0.0
 30
0.0
 11
-19.93
 21
0.0
 31
0.0
  0
LINE
  8
0
 62
0
 10
-9.53
 20
0.0
 30
0.0
 11
-7.85
 21
0.0
 31
0.0
  0
LINE
  8
0
 62
0
 10
-7.85
 20
-3.0
 30
0.0
 11
-7.85
 21
2.49
 31
0.0
  0
LINE
  8
0
 62
0
 10
-7.85
 20
4.4408920985e-16
 30
0.0
 11
-7.85
 21
2.49
 31
0.0
  0
LINE
  8
0
 62
0
 10
-19.93
 20
-3.0
 30
0.0
 11
-19.93
 21
2.49
 31
0.0
  0
LINE
  8
0
 62
0
 10
-19.93
 20
-3.0
 30
0.0
 11
-9.53
 21
-3.0
 31
0.0
  0
LINE
  8
0
 62
0
 10
-9.53
 20
-3.0
 30
0.0
 11
-9.53
 21
2.49
 31
0.0
  0
LINE
  8
0
 62
0
 10
-22.9
 20
2.49
 30
0.0
 11
-22.9
 21
8.44
 31
0.0
  0
LINE
  8
0
 62
0
 10
-5.93
 20
8.44
 30
0.0
 11
-5.93
 21
-3.0
 31
0.0
  0
ENDBLK
  0
BLOCK
  8
0
  2
FILLET006
 70
0
 10
0.0
 20
0.0
 30
0.0
  3
FILLET006
  0
LINE
  8
0
 62
0
 10
-23.1
 20
-3.0
 30
0.0
 11
-23.1
 21
2.49
 31
0.0
  0
LINE
  8
0
 62
0
 10
-23.1
 20
2.49
 30
0.0
 11
-23.1
 21
8.44
 31
0.0
  0
LINE
  8
0
 62
0
 10
-23.1
 20
-3.0
 30
0.0
 11
-22.9
 21
-3.0
 31
0.0
  0
LINE
  8
0
 62
0
 10
-22.9
 20
-3.0
 30
0.0
 11
-21.13
 21
-3.0
 31
0.0
  0
LINE
  8
0
 62
0
 10
-21.13
 20
2.49
 30
0.0
 11
-19.93
 21
2.49
 31
0.0
  0
LINE
  8
0
 62
0
 10
-9.53
 20
2.49
 30
0.0
 11
-7.85
 21
2.49
 31
0.0
  0
LINE
  8
0
 62
0
 10
-22.9
 20
2.49
 30
0.0
 11
-23.1
 21
2.49
 31
0.0
  0
LINE
  8
0
 62
0
 10
-7.85
 20
2.49
 30
0.0
 11
-22.9
 21
2.49
 31
0.0
  0
LINE
  8
0
 62
0
 10
-19.93
 20
2.49
 30
0.0
 11
-9.53
 21
2.49
 31
0.0
  0
LINE
  8
0
 62
0
 10
-24.4
 20
18.27
 30
0.0
 11
-31.0
 21
18.27
 31
0.0
  0
ARC
  8
0
 62
0
 10
-24.4
 20
21.57
 30
0.0
 40
3.3
 50
-90.0
 51
90.0
  0
LINE
  8
0
 62
0
 10
-31.0
 20
18.27
 30
0.0
 11
-31.0
 21
1.0
 31
0.0
  0
LINE
  8
0
 62
0
 10
-31.0
 20
24.87
 30
0.0
 11
-24.4
 21
24.87
 31
0.0
  0
LINE
  8
0
 62
0
 10
-31.0
 20
1.0
 30
0.0
 11
-30.0
 21
1.0
 31
0.0
  0
LINE
  8
0
 62
0
 10
-31.0
 20
59.13
 30
0.0
 11
-31.0
 21
24.87
 31
0.0
  0
LINE
  8
0
 62
0
 10
-30.0
 20
1.0
 30
0.0
 11
-30.0
 21
0.0
 31
0.0
  0
LINE
  8
0
 62
0
 10
-24.4
 20
59.13
 30
0.0
 11
-31.0
 21
59.13
 31
0.0
  0
LINE
  8
0
 62
0
 10
-30.0
 20
0.0
 30
0.0
 11
-23.1
 21
0.0
 31
0.0
  0
ARC
  8
0
 62
0
 10
-24.4
 20
62.43
 30
0.0
 40
3.3
 50
-90.0
 51
90.0
  0
LINE
  8
0
 62
0
 10
-31.0
 20
65.73
 30
0.0
 11
-24.4
 21
65.73
 31
0.0
  0
LINE
  8
0
 62
0
 10
-31.0
 20
83.0
 30
0.0
 11
-31.0
 21
65.73
 31
0.0
  0
LINE
  8
0
 62
0
 10
-30.0
 20
83.0
 30
0.0
 11
-31.0
 21
83.0
 31
0.0
  0
LINE
  8
0
 62
0
 10
-5.73
 20
0.0
 30
0.0
 11
0.0
 21
0.0
 31
0.0
  0
LINE
  8
0
 62
0
 10
-30.0
 20
84.0
 30
0.0
 11
-30.0
 21
83.0
 31
0.0
  0
LINE
  8
0
 62
0
 10
0.0
 20
0.0
 30
0.0
 11
30.0
 21
0.0
 31
0.0
  0
LINE
  8
0
 62
0
 10
6.11311850664e-15
 20
84.0
 30
0.0
 11
-30.0
 21
84.0
 31
0.0
  0
LINE
  8
0
 62
0
 10
30.0
 20
0.0
 30
0.0
 11
30.0
 21
1.0
 31
0.0
  0
LINE
  8
0
 62
0
 10
30.0
 20
84.0
 30
0.0
 11
3.5527136788e-15
 21
84.0
 31
0.0
  0
LINE
  8
0
 62
0
 10
30.0
 20
1.0
 30
0.0
 11
31.0
 21
1.0
 31
0.0
  0
LINE
  8
0
 62
0
 10
30.0
 20
84.0
 30
0.0
 11
30.0
 21
83.0
 31
0.0
  0
LINE
  8
0
 62
0
 10
31.0
 20
1.0
 30
0.0
 11
31.0
 21
18.27
 31
0.0
  0
LINE
  8
0
 62
0
 10
30.0
 20
83.0
 30
0.0
 11
31.0
 21
83.0
 31
0.0
  0
LINE
  8
0
 62
0
 10
31.0
 20
18.27
 30
0.0
 11
24.4
 21
18.27
 31
0.0
  0
LINE
  8
0
 62
0
 10
31.0
 20
65.73
 30
0.0
 11
31.0
 21
83.0
 31
0.0
  0
ARC
  8
0
 62
0
 10
24.4
 20
21.57
 30
0.0
 40
3.3
 50
90.0
 51
-90.0
  0
LINE
  8
0
 62
0
 10
24.4
 20
65.73
 30
0.0
 11
31.0
 21
65.73
 31
0.0
  0
LINE
  8
0
 62
0
 10
24.4
 20
24.87
 30
0.0
 11
31.0
 21
24.87
 31
0.0
  0
ARC
  8
0
 62
0
 10
24.4
 20
62.43
 30
0.0
 40
3.3
 50
90.0
 51
-90.0
  0
LINE
  8
0
 62
0
 10
31.0
 20
24.87
 30
0.0
 11
31.0
 21
59.13
 31
0.0
  0
LINE
  8
0
 62
0
 10
31.0
 20
59.13
 30
0.0
 11
24.4
 21
59.13
 31
0.0
  0
LINE
  8
0
 62
0
 10
-22.9
 20
8.44
 30
0.0
 11
-5.93
 21
8.44
 31
0.0
  0
LINE
  8
0
 62
0
 10
-22.9
 20
8.44
 30
0.0
 11
-23.1
 21
8.44
 31
0.0
  0
LINE
  8
0
 62
0
 10
-5.73
 20
8.44
 30
0.0
 11
-5.93
 21
8.44
 31
0.0
  0
LINE
  8
0
 62
0
 10
-21.13
 20
-3.0
 30
0.0
 11
-21.13
 21
2.49
 31
0.0
  0
LINE
  8
0
 62
0
 10
-21.13
 20
0.0
 30
0.0
 11
-19.93
 21
0.0
 31
0.0
  0
LINE
  8
0
 62
0
 10
-9.53
 20
0.0
 30
0.0
 11
-7.85
 21
0.0
 31
0.0
  0
LINE
  8
0
 62
0
 10
-7.85
 20
4.4408920985e-16
 30
0.0
 11
-7.85
 21
2.49
 31
0.0
  0
LINE
  8
0
 62
0
 10
-7.85
 20
-3.0
 30
0.0
 11
-7.85
 21
2.49
 31
0.0
  0
LINE
  8
0
 62
0
 10
-7.85
 20
-3.0
 30
0.0
 11
-6.78
 21
-3.0
 31
0.0
  0
LINE
  8
0
 62
0
 10
-5.93
 20
-3.0
 30
0.0
 11
-7.85
 21
-3.0
 31
0.0
  0
LINE
  8
0
 62
0
 10
-7.85
 20
-3.0
 30
0.0
 11
-7.85
 21
2.49
 31
0.0
  0
LINE
  8
0
 62
0
 10
-19.93
 20
-3.0
 30
0.0
 11
-19.93
 21
2.49
 31
0.0
  0
LINE
  8
0
 62
0
 10
-19.93
 20
-3.0
 30
0.0
 11
-9.53
 21
-3.0
 31
0.0
  0
LINE
  8
0
 62
0
 10
-9.53
 20
-3.0
 30
0.0
 11
-9.53
 21
2.49
 31
0.0
  0
LINE
  8
0
 62
0
 10
-5.73
 20
8.44
 30
0.0
 11
-5.73
 21
-3.0
 31
0.0
  0
LINE
  8
0
 62
0
 10
-5.73
 20
-3.0
 30
0.0
 11
-5.93
 21
-3.0
 31
0.0
  0
LINE
  8
0
 62
0
 10
-22.9
 20
-3.0
 30
0.0
 11
-22.9
 21
2.49
 31
0.0
  0
LINE
  8
0
 62
0
 10
-22.9
 20
2.49
 30
0.0
 11
-22.9
 21
8.44
 31
0.0
  0
LINE
  8
0
 62
0
 10
-5.93
 20
8.44
 30
0.0
 11
-5.93
 21
-3.0
 31
0.0
  0
ENDBLK
  0
BLOCK
  8
0
  2
FILLET007
 70
0
 10
0.0
 20
0.0
 30
0.0
  3
FILLET007
  0
LINE
  8
0
 62
0
 10
27.07
 20
-2.7
 30
0.0
 11
27.07
 21
0.1
 31
0.0
  0
LINE
  8
0
 62
0
 10
27.07
 20
6.33
 30
0.0
 11
27.07
 21
-2.7
 31
0.0
  0
LINE
  8
0
 62
0
 10
27.07
 20
6.33
 30
0.0
 11
27.07
 21
0.1
 31
0.0
  0
LINE
  8
0
 62
0
 10
27.07
 20
-2.7
 30
0.0
 11
26.87
 21
-2.7
 31
0.0
  0
LINE
  8
0
 62
0
 10
26.87
 20
-2.7
 30
0.0
 11
19.5
 21
-2.7
 31
0.0
  0
LINE
  8
0
 62
0
 10
19.5
 20
-2.7
 30
0.0
 11
19.3
 21
-2.7
 31
0.0
  0
LINE
  8
0
 62
0
 10
27.07
 20
6.33
 30
0.0
 11
26.87
 21
6.33
 31
0.0
  0
LINE
  8
0
 62
0
 10
19.5
 20
6.33
 30
0.0
 11
26.87
 21
6.33
 31
0.0
  0
LINE
  8
0
 62
0
 10
19.5
 20
6.33
 30
0.0
 11
19.3
 21
6.33
 31
0.0
  0
LINE
  8
0
 62
0
 10
-24.4
 20
18.27
 30
0.0
 11
-31.0
 21
18.27
 31
0.0
  0
ARC
  8
0
 62
0
 10
-24.4
 20
21.57
 30
0.0
 40
3.3
 50
-90.0
 51
90.0
  0
LINE
  8
0
 62
0
 10
-31.0
 20
18.27
 30
0.0
 11
-31.0
 21
1.0
 31
0.0
  0
LINE
  8
0
 62
0
 10
-31.0
 20
24.87
 30
0.0
 11
-24.4
 21
24.87
 31
0.0
  0
LINE
  8
0
 62
0
 10
-31.0
 20
1.0
 30
0.0
 11
-30.0
 21
1.0
 31
0.0
  0
LINE
  8
0
 62
0
 10
-31.0
 20
59.13
 30
0.0
 11
-31.0
 21
24.87
 31
0.0
  0
LINE
  8
0
 62
0
 10
-30.0
 20
1.0
 30
0.0
 11
-30.0
 21
0.0
 31
0.0
  0
LINE
  8
0
 62
0
 10
-24.4
 20
59.13
 30
0.0
 11
-31.0
 21
59.13
 31
0.0
  0
LINE
  8
0
 62
0
 10
-30.0
 20
0.0
 30
0.0
 11
0.0
 21
0.0
 31
0.0
  0
ARC
  8
0
 62
0
 10
-24.4
 20
62.43
 30
0.0
 40
3.3
 50
-90.0
 51
90.0
  0
LINE
  8
0
 62
0
 10
0.0
 20
0.0
 30
0.0
 11
19.3
 21
0.0
 31
0.0
  0
LINE
  8
0
 62
0
 10
-31.0
 20
65.73
 30
0.0
 11
-24.4
 21
65.73
 31
0.0
  0
LINE
  8
0
 62
0
 10
-31.0
 20
83.0
 30
0.0
 11
-31.0
 21
65.73
 31
0.0
  0
LINE
  8
0
 62
0
 10
-30.0
 20
83.0
 30
0.0
 11
-31.0
 21
83.0
 31
0.0
  0
LINE
  8
0
 62
0
 10
-30.0
 20
84.0
 30
0.0
 11
-30.0
 21
83.0
 31
0.0
  0
LINE
  8
0
 62
0
 10
6.11311850664e-15
 20
84.0
 30
0.0
 11
-30.0
 21
84.0
 31
0.0
  0
LINE
  8
0
 62
0
 10
27.07
 20
1.33226762955e-15
 30
0.0
 11
27.07
 21
0.1
 31
0.0
  0
LINE
  8
0
 62
0
 10
30.0
 20
84.0
 30
0.0
 11
3.5527136788e-15
 21
84.0
 31
0.0
  0
LINE
  8
0
 62
0
 10
27.07
 20
0.0
 30
0.0
 11
30.0
 21
0.0
 31
0.0
  0
LINE
  8
0
 62
0
 10
30.0
 20
84.0
 30
0.0
 11
30.0
 21
83.0
 31
0.0
  0
LINE
  8
0
 62
0
 10
30.0
 20
0.0
 30
0.0
 11
30.0
 21
1.0
 31
0.0
  0
LINE
  8
0
 62
0
 10
30.0
 20
83.0
 30
0.0
 11
31.0
 21
83.0
 31
0.0
  0
LINE
  8
0
 62
0
 10
30.0
 20
1.0
 30
0.0
 11
31.0
 21
1.0
 31
0.0
  0
LINE
  8
0
 62
0
 10
31.0
 20
65.73
 30
0.0
 11
31.0
 21
83.0
 31
0.0
  0
LINE
  8
0
 62
0
 10
31.0
 20
1.0
 30
0.0
 11
31.0
 21
18.27
 31
0.0
  0
LINE
  8
0
 62
0
 10
24.4
 20
65.73
 30
0.0
 11
31.0
 21
65.73
 31
0.0
  0
LINE
  8
0
 62
0
 10
31.0
 20
18.27
 30
0.0
 11
24.4
 21
18.27
 31
0.0
  0
ARC
  8
0
 62
0
 10
24.4
 20
62.43
 30
0.0
 40
3.3
 50
90.0
 51
-90.0
  0
ARC
  8
0
 62
0
 10
24.4
 20
21.57
 30
0.0
 40
3.3
 50
90.0
 51
-90.0
  0
LINE
  8
0
 62
0
 10
31.0
 20
59.13
 30
0.0
 11
24.4
 21
59.13
 31
0.0
  0
LINE
  8
0
 62
0
 10
24.4
 20
24.87
 30
0.0
 11
31.0
 21
24.87
 31
0.0
  0
LINE
  8
0
 62
0
 10
31.0
 20
24.87
 30
0.0
 11
31.0
 21
59.13
 31
0.0
  0
LINE
  8
0
 62
0
 10
19.3
 20
-2.7
 30
0.0
 11
19.3
 21
6.33
 31
0.0
  0
LINE
  8
0
 62
0
 10
26.87
 20
6.33
 30
0.0
 11
26.87
 21
-2.7
 31
0.0
  0
LINE
  8
0
 62
0
 10
19.5
 20
-2.7
 30
0.0
 11
19.5
 21
6.33
 31
0.0
  0
ENDBLK
  0
BLOCK
  8
0
  2
FILLET008
 70
0
 10
0.0
 20
0.0
 30
0.0
  3
FILLET008
  0
LINE
  8
0
 62
0
 10
27.07
 20
-2.7
 30
0.0
 11
26.87
 21
-2.7
 31
0.0
  0
LINE
  8
0
 62
0
 10
26.87
 20
-2.7
 30
0.0
 11
19.5
 21
-2.7
 31
0.0
  0
LINE
  8
0
 62
0
 10
19.5
 20
-2.7
 30
0.0
 11
19.3
 21
-2.7
 31
0.0
  0
LINE
  8
0
 62
0
 10
27.07
 20
-2.7
 30
0.0
 11
27.07
 21
0.1
 31
0.0
  0
LINE
  8
0
 62
0
 10
27.07
 20
6.33
 30
0.0
 11
27.07
 21
-2.7
 31
0.0
  0
LINE
  8
0
 62
0
 10
27.07
 20
6.33
 30
0.0
 11
27.07
 21
0.1
 31
0.0
  0
LINE
  8
0
 62
0
 10
27.07
 20
6.33
 30
0.0
 11
26.87
 21
6.33
 31
0.0
  0
LINE
  8
0
 62
0
 10
19.3
 20
-2.7
 30
0.0
 11
19.3
 21
6.33
 31
0.0
  0
LINE
  8
0
 62
0
 10
19.5
 20
6.33
 30
0.0
 11
26.87
 21
6.33
 31
0.0
  0
LINE
  8
0
 62
0
 10
19.5
 20
6.33
 30
0.0
 11
19.3
 21
6.33
 31
0.0
  0
LINE
  8
0
 62
0
 10
0.0
 20
0.0
 30
0.0
 11
19.3
 21
0.0
 31
0.0
  0
LINE
  8
0
 62
0
 10
27.07
 20
0.0
 30
0.0
 11
30.0
 21
0.0
 31
0.0
  0
LINE
  8
0
 62
0
 10
27.07
 20
1.33226762955e-15
 30
0.0
 11
27.07
 21
0.1
 31
0.0
  0
LINE
  8
0
 62
0
 10
-24.4
 20
18.27
 30
0.0
 11
-31.0
 21
18.27
 31
0.0
  0
ARC
  8
0
 62
0
 10
-24.4
 20
21.57
 30
0.0
 40
3.3
 50
-90.0
 51
90.0
  0
LINE
  8
0
 62
0
 10
-31.0
 20
18.27
 30
0.0
 11
-31.0
 21
1.0
 31
0.0
  0
LINE
  8
0
 62
0
 10
-31.0
 20
24.87
 30
0.0
 11
-24.4
 21
24.87
 31
0.0
  0
LINE
  8
0
 62
0
 10
-31.0
 20
1.0
 30
0.0
 11
-30.0
 21
1.0
 31
0.0
  0
LINE
  8
0
 62
0
 10
-31.0
 20
59.13
 30
0.0
 11
-31.0
 21
24.87
 31
0.0
  0
LINE
  8
0
 62
0
 10
-30.0
 20
1.0
 30
0.0
 11
-30.0
 21
0.0
 31
0.0
  0
LINE
  8
0
 62
0
 10
-24.4
 20
59.13
 30
0.0
 11
-31.0
 21
59.13
 31
0.0
  0
LINE
  8
0
 62
0
 10
-30.0
 20
0.0
 30
0.0
 11
0.0
 21
0.0
 31
0.0
  0
ARC
  8
0
 62
0
 10
-24.4
 20
62.43
 30
0.0
 40
3.3
 50
-90.0
 51
90.0
  0
LINE
  8
0
 62
0
 10
-31.0
 20
65.73
 30
0.0
 11
-24.4
 21
65.73
 31
0.0
  0
LINE
  8
0
 62
0
 10
-31.0
 20
83.0
 30
0.0
 11
-31.0
 21
65.73
 31
0.0
  0
LINE
  8
0
 62
0
 10
-30.0
 20
83.0
 30
0.0
 11
-31.0
 21
83.0
 31
0.0
  0
LINE
  8
0
 62
0
 10
-30.0
 20
84.0
 30
0.0
 11
-30.0
 21
83.0
 31
0.0
  0
LINE
  8
0
 62
0
 10
6.11311850664e-15
 20
84.0
 30
0.0
 11
-30.0
 21
84.0
 31
0.0
  0
LINE
  8
0
 62
0
 10
30.0
 20
84.0
 30
0.0
 11
3.5527136788e-15
 21
84.0
 31
0.0
  0
LINE
  8
0
 62
0
 10
30.0
 20
84.0
 30
0.0
 11
30.0
 21
83.0
 31
0.0
  0
LINE
  8
0
 62
0
 10
30.0
 20
0.0
 30
0.0
 11
30.0
 21
1.0
 31
0.0
  0
LINE
  8
0
 62
0
 10
30.0
 20
83.0
 30
0.0
 11
31.0
 21
83.0
 31
0.0
  0
LINE
  8
0
 62
0
 10
30.0
 20
1.0
 30
0.0
 11
31.0
 21
1.0
 31
0.0
  0
LINE
  8
0
 62
0
 10
31.0
 20
65.73
 30
0.0
 11
31.0
 21
83.0
 31
0.0
  0
LINE
  8
0
 62
0
 10
31.0
 20
1.0
 30
0.0
 11
31.0
 21
18.27
 31
0.0
  0
LINE
  8
0
 62
0
 10
24.4
 20
65.73
 30
0.0
 11
31.0
 21
65.73
 31
0.0
  0
LINE
  8
0
 62
0
 10
31.0
 20
18.27
 30
0.0
 11
24.4
 21
18.27
 31
0.0
  0
ARC
  8
0
 62
0
 10
24.4
 20
62.43
 30
0.0
 40
3.3
 50
90.0
 51
-90.0
  0
ARC
  8
0
 62
0
 10
24.4
 20
21.57
 30
0.0
 40
3.3
 50
90.0
 51
-90.0
  0
LINE
  8
0
 62
0
 10
31.0
 20
59.13
 30
0.0
 11
24.4
 21
59.13
 31
0.0
  0
LINE
  8
0
 62
0
 10
24.4
 20
24.87
 30
0.0
 11
31.0
 21
24.87
 31
0.0
  0
LINE
  8
0
 62
0
 10
31.0
 20
24.87
 30
0.0
 11
31.0
 21
59.13
 31
0.0
  0
LINE
  8
0
 62
0
 10
26.87
 20
6.33
 30
0.0
 11
26.87
 21
-2.7
 31
0.0
  0
LINE
  8
0
 62
0
 10
19.5
 20
-2.7
 30
0.0
 11
19.5
 21
6.33
 31
0.0
  0
ENDBLK
  0
BLOCK
  8
0
  2
FILLET009
 70
0
 10
0.0
 20
0.0
 30
0.0
  3
FILLET009
  0
LINE
  8
0
 62
0
 10
19.5
 20
-2.7
 30
0.0
 11
19.3
 21
-2.7
 31
0.0
  0
LINE
  8
0
 62
0
 10
27.07
 20
-2.7
 30
0.0
 11
26.87
 21
-2.7
 31
0.0
  0
LINE
  8
0
 62
0
 10
26.87
 20
-2.7
 30
0.0
 11
19.5
 21
-2.7
 31
0.0
  0
LINE
  8
0
 62
0
 10
27.07
 20
-2.7
 30
0.0
 11
27.07
 21
0.1
 31
0.0
  0
LINE
  8
0
 62
0
 10
19.3
 20
-2.7
 30
0.0
 11
19.3
 21
6.33
 31
0.0
  0
LINE
  8
0
 62
0
 10
27.07
 20
6.33
 30
0.0
 11
27.07
 21
-2.7
 31
0.0
  0
LINE
  8
0
 62
0
 10
27.07
 20
6.33
 30
0.0
 11
27.07
 21
0.1
 31
0.0
  0
LINE
  8
0
 62
0
 10
19.5
 20
6.33
 30
0.0
 11
19.3
 21
6.33
 31
0.0
  0
LINE
  8
0
 62
0
 10
27.07
 20
6.33
 30
0.0
 11
26.87
 21
6.33
 31
0.0
  0
LINE
  8
0
 62
0
 10
19.5
 20
6.33
 30
0.0
 11
26.87
 21
6.33
 31
0.0
  0
LINE
  8
0
 62
0
 10
0.0
 20
0.0
 30
0.0
 11
19.3
 21
0.0
 31
0.0
  0
LINE
  8
0
 62
0
 10
27.07
 20
0.0
 30
0.0
 11
30.0
 21
0.0
 31
0.0
  0
LINE
  8
0
 62
0
 10
27.07
 20
1.33226762955e-15
 30
0.0
 11
27.07
 21
0.1
 31
0.0
  0
LINE
  8
0
 62
0
 10
-24.4
 20
18.27
 30
0.0
 11
-31.0
 21
18.27
 31
0.0
  0
ARC
  8
0
 62
0
 10
-24.4
 20
21.57
 30
0.0
 40
3.3
 50
-90.0
 51
90.0
  0
LINE
  8
0
 62
0
 10
-31.0
 20
18.27
 30
0.0
 11
-31.0
 21
1.0
 31
0.0
  0
LINE
  8
0
 62
0
 10
-31.0
 20
24.87
 30
0.0
 11
-24.4
 21
24.87
 31
0.0
  0
LINE
  8
0
 62
0
 10
-31.0
 20
1.0
 30
0.0
 11
-30.0
 21
1.0
 31
0.0
  0
LINE
  8
0
 62
0
 10
-31.0
 20
59.13
 30
0.0
 11
-31.0
 21
24.87
 31
0.0
  0
LINE
  8
0
 62
0
 10
-30.0
 20
1.0
 30
0.0
 11
-30.0
 21
0.0
 31
0.0
  0
LINE
  8
0
 62
0
 10
-24.4
 20
59.13
 30
0.0
 11
-31.0
 21
59.13
 31
0.0
  0
LINE
  8
0
 62
0
 10
-30.0
 20
0.0
 30
0.0
 11
0.0
 21
0.0
 31
0.0
  0
ARC
  8
0
 62
0
 10
-24.4
 20
62.43
 30
0.0
 40
3.3
 50
-90.0
 51
90.0
  0
LINE
  8
0
 62
0
 10
-31.0
 20
65.73
 30
0.0
 11
-24.4
 21
65.73
 31
0.0
  0
LINE
  8
0
 62
0
 10
-31.0
 20
83.0
 30
0.0
 11
-31.0
 21
65.73
 31
0.0
  0
LINE
  8
0
 62
0
 10
-30.0
 20
83.0
 30
0.0
 11
-31.0
 21
83.0
 31
0.0
  0
LINE
  8
0
 62
0
 10
-30.0
 20
84.0
 30
0.0
 11
-30.0
 21
83.0
 31
0.0
  0
LINE
  8
0
 62
0
 10
6.11311850664e-15
 20
84.0
 30
0.0
 11
-30.0
 21
84.0
 31
0.0
  0
LINE
  8
0
 62
0
 10
30.0
 20
84.0
 30
0.0
 11
3.5527136788e-15
 21
84.0
 31
0.0
  0
LINE
  8
0
 62
0
 10
30.0
 20
84.0
 30
0.0
 11
30.0
 21
83.0
 31
0.0
  0
LINE
  8
0
 62
0
 10
30.0
 20
0.0
 30
0.0
 11
30.0
 21
1.0
 31
0.0
  0
LINE
  8
0
 62
0
 10
30.0
 20
83.0
 30
0.0
 11
31.0
 21
83.0
 31
0.0
  0
LINE
  8
0
 62
0
 10
30.0
 20
1.0
 30
0.0
 11
31.0
 21
1.0
 31
0.0
  0
LINE
  8
0
 62
0
 10
31.0
 20
65.73
 30
0.0
 11
31.0
 21
83.0
 31
0.0
  0
LINE
  8
0
 62
0
 10
31.0
 20
1.0
 30
0.0
 11
31.0
 21
18.27
 31
0.0
  0
LINE
  8
0
 62
0
 10
24.4
 20
65.73
 30
0.0
 11
31.0
 21
65.73
 31
0.0
  0
LINE
  8
0
 62
0
 10
31.0
 20
18.27
 30
0.0
 11
24.4
 21
18.27
 31
0.0
  0
ARC
  8
0
 62
0
 10
24.4
 20
62.43
 30
0.0
 40
3.3
 50
90.0
 51
-90.0
  0
ARC
  8
0
 62
0
 10
24.4
 20
21.57
 30
0.0
 40
3.3
 50
90.0
 51
-90.0
  0
LINE
  8
0
 62
0
 10
31.0
 20
59.13
 30
0.0
 11
24.4
 21
59.13
 31
0.0
  0
LINE
  8
0
 62
0
 10
24.4
 20
24.87
 30
0.0
 11
31.0
 21
24.87
 31
0.0
  0
LINE
  8
0
 62
0
 10
31.0
 20
24.87
 30
0.0
 11
31.0
 21
59.13
 31
0.0
  0
LINE
  8
0
 62
0
 10
19.5
 20
-2.7
 30
0.0
 11
19.5
 21
6.33
 31
0.0
  0
LINE
  8
0
 62
0
 10
26.87
 20
6.33
 30
0.0
 11
26.87
 21
-2.7
 31
0.0
  0
ENDBLK
  0
BLOCK
  8
0
  2
FILLET010
 70
0
 10
0.0
 20
0.0
 30
0.0
  3
FILLET010
  0
LINE
  8
0
 62
0
 10
-2.05
 20
-2.7
 30
0.0
 11
-2.05
 21
8.42
 31
0.0
  0
LINE
  8
0
 62
0
 10
-1.85
 20
-2.7
 30
0.0
 11
-2.05
 21
-2.7
 31
0.0
  0
LINE
  8
0
 62
0
 10
12.8
 20
-2.7
 30
0.0
 11
-1.85
 21
-2.7
 31
0.0
  0
LINE
  8
0
 62
0
 10
13.0
 20
-2.7
 30
0.0
 11
12.8
 21
-2.7
 31
0.0
  0
LINE
  8
0
 62
0
 10
-1.85
 20
8.42
 30
0.0
 11
-2.05
 21
8.42
 31
0.0
  0
LINE
  8
0
 62
0
 10
-1.85
 20
8.42
 30
0.0
 11
12.8
 21
8.42
 31
0.0
  0
LINE
  8
0
 62
0
 10
13.0
 20
8.42
 30
0.0
 11
12.8
 21
8.42
 31
0.0
  0
LINE
  8
0
 62
0
 10
-24.4
 20
18.27
 30
0.0
 11
-31.0
 21
18.27
 31
0.0
  0
ARC
  8
0
 62
0
 10
-24.4
 20
21.57
 30
0.0
 40
3.3
 50
-90.0
 51
90.0
  0
LINE
  8
0
 62
0
 10
-31.0
 20
18.27
 30
0.0
 11
-31.0
 21
1.0
 31
0.0
  0
LINE
  8
0
 62
0
 10
-31.0
 20
24.87
 30
0.0
 11
-24.4
 21
24.87
 31
0.0
  0
LINE
  8
0
 62
0
 10
-31.0
 20
1.0
 30
0.0
 11
-30.0
 21
1.0
 31
0.0
  0
LINE
  8
0
 62
0
 10
-31.0
 20
59.13
 30
0.0
 11
-31.0
 21
24.87
 31
0.0
  0
LINE
  8
0
 62
0
 10
-30.0
 20
1.0
 30
0.0
 11
-30.0
 21
0.0
 31
0.0
  0
LINE
  8
0
 62
0
 10
-24.4
 20
59.13
 30
0.0
 11
-31.0
 21
59.13
 31
0.0
  0
LINE
  8
0
 62
0
 10
-30.0
 20
0.0
 30
0.0
 11
-2.05
 21
0.0
 31
0.0
  0
ARC
  8
0
 62
0
 10
-24.4
 20
62.43
 30
0.0
 40
3.3
 50
-90.0
 51
90.0
  0
LINE
  8
0
 62
0
 10
-31.0
 20
65.73
 30
0.0
 11
-24.4
 21
65.73
 31
0.0
  0
LINE
  8
0
 62
0
 10
-31.0
 20
83.0
 30
0.0
 11
-31.0
 21
65.73
 31
0.0
  0
LINE
  8
0
 62
0
 10
-30.0
 20
83.0
 30
0.0
 11
-31.0
 21
83.0
 31
0.0
  0
LINE
  8
0
 62
0
 10
-30.0
 20
84.0
 30
0.0
 11
-30.0
 21
83.0
 31
0.0
  0
LINE
  8
0
 62
0
 10
6.11311850664e-15
 20
84.0
 30
0.0
 11
-30.0
 21
84.0
 31
0.0
  0
LINE
  8
0
 62
0
 10
13.0
 20
0.0
 30
0.0
 11
30.0
 21
0.0
 31
0.0
  0
LINE
  8
0
 62
0
 10
30.0
 20
84.0
 30
0.0
 11
3.5527136788e-15
 21
84.0
 31
0.0
  0
LINE
  8
0
 62
0
 10
30.0
 20
0.0
 30
0.0
 11
30.0
 21
1.0
 31
0.0
  0
LINE
  8
0
 62
0
 10
30.0
 20
84.0
 30
0.0
 11
30.0
 21
83.0
 31
0.0
  0
LINE
  8
0
 62
0
 10
30.0
 20
1.0
 30
0.0
 11
31.0
 21
1.0
 31
0.0
  0
LINE
  8
0
 62
0
 10
30.0
 20
83.0
 30
0.0
 11
31.0
 21
83.0
 31
0.0
  0
LINE
  8
0
 62
0
 10
31.0
 20
1.0
 30
0.0
 11
31.0
 21
18.27
 31
0.0
  0
LINE
  8
0
 62
0
 10
31.0
 20
65.73
 30
0.0
 11
31.0
 21
83.0
 31
0.0
  0
LINE
  8
0
 62
0
 10
31.0
 20
18.27
 30
0.0
 11
24.4
 21
18.27
 31
0.0
  0
LINE
  8
0
 62
0
 10
24.4
 20
65.73
 30
0.0
 11
31.0
 21
65.73
 31
0.0
  0
ARC
  8
0
 62
0
 10
24.4
 20
21.57
 30
0.0
 40
3.3
 50
90.0
 51
-90.0
  0
ARC
  8
0
 62
0
 10
24.4
 20
62.43
 30
0.0
 40
3.3
 50
90.0
 51
-90.0
  0
LINE
  8
0
 62
0
 10
24.4
 20
24.87
 30
0.0
 11
31.0
 21
24.87
 31
0.0
  0
LINE
  8
0
 62
0
 10
31.0
 20
59.13
 30
0.0
 11
24.4
 21
59.13
 31
0.0
  0
LINE
  8
0
 62
0
 10
31.0
 20
24.87
 30
0.0
 11
31.0
 21
59.13
 31
0.0
  0
LINE
  8
0
 62
0
 10
13.0
 20
8.42
 30
0.0
 11
13.0
 21
-2.7
 31
0.0
  0
LINE
  8
0
 62
0
 10
-1.85
 20
-2.7
 30
0.0
 11
-1.85
 21
8.42
 31
0.0
  0
LINE
  8
0
 62
0
 10
12.8
 20
8.42
 30
0.0
 11
12.8
 21
-2.7
 31
0.0
  0
ENDBLK
  0
BLOCK
  8
0
  2
FILLET011
 70
0
 10
0.0
 20
0.0
 30
0.0
  3
FILLET011
  0
LINE
  8
0
 62
0
 10
-22.9
 20
-3.0
 30
0.0
 11
-21.23
 21
-3.0
 31
0.0
  0
LINE
  8
0
 62
0
 10
-21.23
 20
-3.0
 30
0.0
 11
-21.13
 21
-3.0
 31
0.0
  0
LINE
  8
0
 62
0
 10
-23.1
 20
-3.0
 30
0.0
 11
-22.9
 21
-3.0
 31
0.0
  0
LINE
  8
0
 62
0
 10
-21.13
 20
-3.0
 30
0.0
 11
-21.13
 21
2.49
 31
0.0
  0
LINE
  8
0
 62
0
 10
-23.1
 20
-3.0
 30
0.0
 11
-23.1
 21
2.49
 31
0.0
  0
LINE
  8
0
 62
0
 10
-23.1
 20
2.49
 30
0.0
 11
-23.1
 21
8.44
 31
0.0
  0
LINE
  8
0
 62
0
 10
-21.13
 20
2.49
 30
0.0
 11
-19.93
 21
2.49
 31
0.0
  0
LINE
  8
0
 62
0
 10
-9.53
 20
2.49
 30
0.0
 11
-7.85
 21
2.49
 31
0.0
  0
LINE
  8
0
 62
0
 10
-22.9
 20
2.49
 30
0.0
 11
-23.1
 21
2.49
 31
0.0
  0
LINE
  8
0
 62
0
 10
-7.85
 20
2.49
 30
0.0
 11
-22.9
 21
2.49
 31
0.0
  0
LINE
  8
0
 62
0
 10
-19.93
 20
2.49
 30
0.0
 11
-9.53
 21
2.49
 31
0.0
  0
LINE
  8
0
 62
0
 10
-21.13
 20
0.0
 30
0.0
 11
-19.93
 21
0.0
 31
0.0
  0
LINE
  8
0
 62
0
 10
-9.53
 20
0.0
 30
0.0
 11
-7.85
 21
0.0
 31
0.0
  0
LINE
  8
0
 62
0
 10
-7.85
 20
4.4408920985e-16
 30
0.0
 11
-7.85
 21
2.49
 31
0.0
  0
LINE
  8
0
 62
0
 10
-24.4
 20
18.27
 30
0.0
 11
-31.0
 21
18.27
 31
0.0
  0
ARC
  8
0
 62
0
 10
-24.4
 20
21.57
 30
0.0
 40
3.3
 50
-90.0
 51
90.0
  0
LINE
  8
0
 62
0
 10
-31.0
 20
18.27
 30
0.0
 11
-31.0
 21
1.0
 31
0.0
  0
LINE
  8
0
 62
0
 10
-31.0
 20
24.87
 30
0.0
 11
-24.4
 21
24.87
 31
0.0
  0
LINE
  8
0
 62
0
 10
-31.0
 20
1.0
 30
0.0
 11
-30.0
 21
1.0
 31
0.0
  0
LINE
  8
0
 62
0
 10
-31.0
 20
59.13
 30
0.0
 11
-31.0
 21
24.87
 31
0.0
  0
LINE
  8
0
 62
0
 10
-30.0
 20
1.0
 30
0.0
 11
-30.0
 21
0.0
 31
0.0
  0
LINE
  8
0
 62
0
 10
-24.4
 20
59.13
 30
0.0
 11
-31.0
 21
59.13
 31
0.0
  0
LINE
  8
0
 62
0
 10
-30.0
 20
0.0
 30
0.0
 11
-23.1
 21
0.0
 31
0.0
  0
ARC
  8
0
 62
0
 10
-24.4
 20
62.43
 30
0.0
 40
3.3
 50
-90.0
 51
90.0
  0
LINE
  8
0
 62
0
 10
-31.0
 20
65.73
 30
0.0
 11
-24.4
 21
65.73
 31
0.0
  0
LINE
  8
0
 62
0
 10
-31.0
 20
83.0
 30
0.0
 11
-31.0
 21
65.73
 31
0.0
  0
LINE
  8
0
 62
0
 10
-30.0
 20
83.0
 30
0.0
 11
-31.0
 21
83.0
 31
0.0
  0
LINE
  8
0
 62
0
 10
-5.73
 20
0.0
 30
0.0
 11
0.0
 21
0.0
 31
0.0
  0
LINE
  8
0
 62
0
 10
-30.0
 20
84.0
 30
0.0
 11
-30.0
 21
83.0
 31
0.0
  0
LINE
  8
0
 62
0
 10
0.0
 20
0.0
 30
0.0
 11
30.0
 21
0.0
 31
0.0
  0
LINE
  8
0
 62
0
 10
6.11311850664e-15
 20
84.0
 30
0.0
 11
-30.0
 21
84.0
 31
0.0
  0
LINE
  8
0
 62
0
 10
30.0
 20
0.0
 30
0.0
 11
30.0
 21
1.0
 31
0.0
  0
LINE
  8
0
 62
0
 10
30.0
 20
84.0
 30
0.0
 11
3.5527136788e-15
 21
84.0
 31
0.0
  0
LINE
  8
0
 62
0
 10
30.0
 20
1.0
 30
0.0
 11
31.0
 21
1.0
 31
0.0
  0
LINE
  8
0
 62
0
 10
30.0
 20
84.0
 30
0.0
 11
30.0
 21
83.0
 31
0.0
  0
LINE
  8
0
 62
0
 10
31.0
 20
1.0
 30
0.0
 11
31.0
 21
18.27
 31
0.0
  0
LINE
  8
0
 62
0
 10
30.0
 20
83.0
 30
0.0
 11
31.0
 21
83.0
 31
0.0
  0
LINE
  8
0
 62
0
 10
31.0
 20
18.27
 30
0.0
 11
24.4
 21
18.27
 31
0.0
  0
LINE
  8
0
 62
0
 10
31.0
 20
65.73
 30
0.0
 11
31.0
 21
83.0
 31
0.0
  0
ARC
  8
0
 62
0
 10
24.4
 20
21.57
 30
0.0
 40
3.3
 50
90.0
 51
-90.0
  0
LINE
  8
0
 62
0
 10
24.4
 20
65.73
 30
0.0
 11
31.0
 21
65.73
 31
0.0
  0
LINE
  8
0
 62
0
 10
24.4
 20
24.87
 30
0.0
 11
31.0
 21
24.87
 31
0.0
  0
ARC
  8
0
 62
0
 10
24.4
 20
62.43
 30
0.0
 40
3.3
 50
90.0
 51
-90.0
  0
LINE
  8
0
 62
0
 10
31.0
 20
24.87
 30
0.0
 11
31.0
 21
59.13
 31
0.0
  0
LINE
  8
0
 62
0
 10
31.0
 20
59.13
 30
0.0
 11
24.4
 21
59.13
 31
0.0
  0
LINE
  8
0
 62
0
 10
-22.9
 20
8.44
 30
0.0
 11
-5.93
 21
8.44
 31
0.0
  0
LINE
  8
0
 62
0
 10
-22.9
 20
8.44
 30
0.0
 11
-23.1
 21
8.44
 31
0.0
  0
LINE
  8
0
 62
0
 10
-5.73
 20
8.44
 30
0.0
 11
-5.93
 21
8.44
 31
0.0
  0
LINE
  8
0
 62
0
 10
-7.85
 20
-3.0
 30
0.0
 11
-7.85
 21
2.49
 31
0.0
  0
LINE
  8
0
 62
0
 10
-7.85
 20
-3.0
 30
0.0
 11
-6.78
 21
-3.0
 31
0.0
  0
LINE
  8
0
 62
0
 10
-5.93
 20
-3.0
 30
0.0
 11
-7.85
 21
-3.0
 31
0.0
  0
LINE
  8
0
 62
0
 10
-7.85
 20
-3.0
 30
0.0
 11
-7.85
 21
2.49
 31
0.0
  0
LINE
  8
0
 62
0
 10
-19.93
 20
-2.9
 30
0.0
 11
-19.93
 21
2.49
 31
0.0
  0
LINE
  8
0
 62
0
 10
-9.53
 20
-2.9
 30
0.0
 11
-9.53
 21
2.49
 31
0.0
  0
LINE
  8
0
 62
0
 10
-5.73
 20
8.44
 30
0.0
 11
-5.73
 21
-3.0
 31
0.0
  0
LINE
  8
0
 62
0
 10
-5.73
 20
-3.0
 30
0.0
 11
-5.93
 21
-3.0
 31
0.0
  0
POLYLINE
  8
0
 62
0
 70
0
 66
1
 10
0.0
 20
0.0
 30
0.0
  0
VERTEX
  8
0
 10
-19.93
 20
-2.9
  0
VERTEX
  8
0
 10
-19.83
 20
-3.0
  0
SEQEND
  8
0
  0
LINE
  8
0
 62
0
 10
-19.83
 20
-3.0
 30
0.0
 11
-9.63
 21
-3.0
 31
0.0
  0
POLYLINE
  8
0
 62
0
 70
0
 66
1
 10
0.0
 20
0.0
 30
0.0
  0
VERTEX
  8
0
 10
-9.53
 20
-2.9
  0
VERTEX
  8
0
 10
-9.63
 20
-3.0
  0
SEQEND
  8
0
  0
LINE
  8
0
 62
0
 10
-21.23
 20
-3.0
 30
0.0
 11
-21.23
 21
2.49
 31
0.0
  0
LINE
  8
0
 62
0
 10
-22.9
 20
-3.0
 30
0.0
 11
-22.9
 21
2.49
 31
0.0
  0
LINE
  8
0
 62
0
 10
-22.9
 20
2.49
 30
0.0
 11
-22.9
 21
8.44
 31
0.0
  0
LINE
  8
0
 62
0
 10
-5.93
 20
8.44
 30
0.0
 11
-5.93
 21
-3.0
 31
0.0
  0
LINE
  8
0
 62
0
 10
-19.93
 20
-2.9
 30
0.0
 11
-9.53
 21
-2.9
 31
0.0
  0
ENDBLK
  0
BLOCK
  8
0
  2
POCKET008
 70
0
 10
0.0
 20
0.0
 30
0.0
  3
POCKET008
  0
LINE
  8
0
 62
0
 10
-24.4
 20
18.27
 30
0.0
 11
-31.0
 21
18.27
 31
0.0
  0
ARC
  8
0
 62
0
 10
-24.4
 20
21.57
 30
0.0
 40
3.3
 50
-90.0
 51
90.0
  0
LINE
  8
0
 62
0
 10
-31.0
 20
18.27
 30
0.0
 11
-31.0
 21
1.0
 31
0.0
  0
LINE
  8
0
 62
0
 10
-31.0
 20
1.0
 30
0.0
 11
-30.0
 21
1.0
 31
0.0
  0
LINE
  8
0
 62
0
 10
-30.0
 20
1.0
 30
0.0
 11
-30.0
 21
0.0
 31
0.0
  0
LINE
  8
0
 62
0
 10
-30.0
 20
0.0
 30
0.0
 11
0.0
 21
0.0
 31
0.0
  0
LINE
  8
0
 62
0
 10
0.0
 20
0.0
 30
0.0
 11
30.0
 21
0.0
 31
0.0
  0
LINE
  8
0
 62
0
 10
30.0
 20
0.0
 30
0.0
 11
30.0
 21
1.0
 31
0.0
  0
LINE
  8
0
 62
0
 10
30.0
 20
1.0
 30
0.0
 11
31.0
 21
1.0
 31
0.0
  0
LINE
  8
0
 62
0
 10
31.0
 20
1.0
 30
0.0
 11
31.0
 21
18.27
 31
0.0
  0
LINE
  8
0
 62
0
 10
31.0
 20
18.27
 30
0.0
 11
24.4
 21
18.27
 31
0.0
  0
ARC
  8
0
 62
0
 10
24.4
 20
21.57
 30
0.0
 40
3.3
 50
90.0
 51
-90.0
  0
LINE
  8
0
 62
0
 10
24.4
 20
24.87
 30
0.0
 11
31.0
 21
24.87
 31
0.0
  0
LINE
  8
0
 62
0
 10
31.0
 20
24.87
 30
0.0
 11
31.0
 21
59.13
 31
0.0
  0
LINE
  8
0
 62
0
 10
31.0
 20
59.13
 30
0.0
 11
24.4
 21
59.13
 31
0.0
  0
ARC
  8
0
 62
0
 10
24.4
 20
62.43
 30
0.0
 40
3.3
 50
90.0
 51
-90.0
  0
LINE
  8
0
 62
0
 10
24.4
 20
65.73
 30
0.0
 11
31.0
 21
65.73
 31
0.0
  0
LINE
  8
0
 62
0
 10
31.0
 20
65.73
 30
0.0
 11
31.0
 21
83.0
 31
0.0
  0
LINE
  8
0
 62
0
 10
30.0
 20
83.0
 30
0.0
 11
31.0
 21
83.0
 31
0.0
  0
LINE
  8
0
 62
0
 10
30.0
 20
84.0
 30
0.0
 11
30.0
 21
83.0
 31
0.0
  0
LINE
  8
0
 62
0
 10
30.0
 20
84.0
 30
0.0
 11
26.925
 21
84.0
 31
0.0
  0
LINE
  8
0
 62
0
 10
26.925
 20
84.0
 30
0.0
 11
26.925
 21
66.91
 31
0.0
  0
LINE
  8
0
 62
0
 10
10.945
 20
84.0
 30
0.0
 11
3.5527136788e-15
 21
84.0
 31
0.0
  0
LINE
  8
0
 62
0
 10
6.11311850664e-15
 20
84.0
 30
0.0
 11
-30.0
 21
84.0
 31
0.0
  0
LINE
  8
0
 62
0
 10
-30.0
 20
84.0
 30
0.0
 11
-30.0
 21
83.0
 31
0.0
  0
LINE
  8
0
 62
0
 10
-30.0
 20
83.0
 30
0.0
 11
-31.0
 21
83.0
 31
0.0
  0
LINE
  8
0
 62
0
 10
-31.0
 20
83.0
 30
0.0
 11
-31.0
 21
65.73
 31
0.0
  0
LINE
  8
0
 62
0
 10
-31.0
 20
65.73
 30
0.0
 11
-24.4
 21
65.73
 31
0.0
  0
ARC
  8
0
 62
0
 10
-24.4
 20
62.43
 30
0.0
 40
3.3
 50
-90.0
 51
90.0
  0
LINE
  8
0
 62
0
 10
-24.4
 20
59.13
 30
0.0
 11
-31.0
 21
59.13
 31
0.0
  0
LINE
  8
0
 62
0
 10
-31.0
 20
59.13
 30
0.0
 11
-31.0
 21
24.87
 31
0.0
  0
LINE
  8
0
 62
0
 10
-31.0
 20
24.87
 30
0.0
 11
-24.4
 21
24.87
 31
0.0
  0
LINE
  8
0
 62
0
 10
26.925
 20
88.02
 30
0.0
 11
26.925
 21
66.91
 31
0.0
  0
LINE
  8
0
 62
0
 10
26.925
 20
66.91
 30
0.0
 11
10.945
 21
66.91
 31
0.0
  0
LINE
  8
0
 62
0
 10
10.945
 20
66.91
 30
0.0
 11
10.945
 21
88.02
 31
0.0
  0
LINE
  8
0
 62
0
 10
10.945
 20
88.02
 30
0.0
 11
26.925
 21
88.02
 31
0.0
  0
ENDBLK
  0
BLOCK
  8
0
  2
SKETCH020
 70
0
 10
0.0
 20
0.0
 30
0.0
  3
SKETCH020
  0
POLYLINE
  8
0
 62
7
 70
1
 66
1
 10
0.0
 20
0.0
 30
0.0
  0
VERTEX
  8
0
 10
7.28
 20
88.02
  0
VERTEX
  8
0
 10
2.67
 20
88.02
  0
VERTEX
  8
0
 10
2.67
 20
88.02
  0
VERTEX
  8
0
 10
7.28
 20
88.02
  0
SEQEND
  8
0
  0
POLYLINE
  8
0
 62
7
 70
1
 66
1
 10
0.0
 20
0.0
 30
0.0
  0
VERTEX
  8
0
 10
-2.37
 20
88.02
  0
VERTEX
  8
0
 10
-6.98
 20
88.02
  0
VERTEX
  8
0
 10
-6.98
 20
88.02
  0
VERTEX
  8
0
 10
-2.37
 20
88.02
  0
SEQEND
  8
0
  0
POLYLINE
  8
0
 62
7
 70
1
 66
1
 10
0.0
 20
0.0
 30
0.0
  0
VERTEX
  8
0
 10
6.78
 20
88.02
  0
VERTEX
  8
0
 10
5.78
 20
88.02
  0
VERTEX
  8
0
 10
5.78
 20
88.02
  0
VERTEX
  8
0
 10
6.78
 20
88.02
  0
SEQEND
  8
0
  0
POLYLINE
  8
0
 62
7
 70
1
 66
1
 10
0.0
 20
0.0
 30
0.0
  0
VERTEX
  8
0
 10
-2.87
 20
88.02
  0
VERTEX
  8
0
 10
-3.87
 20
88.02
  0
VERTEX
  8
0
 10
-3.87
 20
88.02
  0
VERTEX
  8
0
 10
-2.87
 20
88.02
  0
SEQEND
  8
0
  0
ENDBLK
  0
BLOCK
  8
0
  2
POCKET009
 70
0
 10
0.0
 20
0.0
 30
0.0
  3
POCKET009
  0
LINE
  8
0
 62
0
 10
-24.4
 20
18.27
 30
0.0
 11
-31.0
 21
18.27
 31
0.0
  0
ARC
  8
0
 62
0
 10
-24.4
 20
21.57
 30
0.0
 40
3.3
 50
-90.0
 51
90.0
  0
LINE
  8
0
 62
0
 10
-31.0
 20
18.27
 30
0.0
 11
-31.0
 21
1.0
 31
0.0
  0
LINE
  8
0
 62
0
 10
-31.0
 20
1.0
 30
0.0
 11
-30.0
 21
1.0
 31
0.0
  0
LINE
  8
0
 62
0
 10
-30.0
 20
1.0
 30
0.0
 11
-30.0
 21
0.0
 31
0.0
  0
LINE
  8
0
 62
0
 10
-30.0
 20
0.0
 30
0.0
 11
0.0
 21
0.0
 31
0.0
  0
LINE
  8
0
 62
0
 10
0.0
 20
0.0
 30
0.0
 11
30.0
 21
0.0
 31
0.0
  0
LINE
  8
0
 62
0
 10
30.0
 20
0.0
 30
0.0
 11
30.0
 21
1.0
 31
0.0
  0
LINE
  8
0
 62
0
 10
30.0
 20
1.0
 30
0.0
 11
31.0
 21
1.0
 31
0.0
  0
LINE
  8
0
 62
0
 10
31.0
 20
1.0
 30
0.0
 11
31.0
 21
18.27
 31
0.0
  0
LINE
  8
0
 62
0
 10
31.0
 20
18.27
 30
0.0
 11
24.4
 21
18.27
 31
0.0
  0
ARC
  8
0
 62
0
 10
24.4
 20
21.57
 30
0.0
 40
3.3
 50
90.0
 51
-90.0
  0
LINE
  8
0
 62
0
 10
24.4
 20
24.87
 30
0.0
 11
31.0
 21
24.87
 31
0.0
  0
LINE
  8
0
 62
0
 10
31.0
 20
24.87
 30
0.0
 11
31.0
 21
59.13
 31
0.0
  0
LINE
  8
0
 62
0
 10
31.0
 20
59.13
 30
0.0
 11
24.4
 21
59.13
 31
0.0
  0
ARC
  8
0
 62
0
 10
24.4
 20
62.43
 30
0.0
 40
3.3
 50
90.0
 51
-90.0
  0
LINE
  8
0
 62
0
 10
24.4
 20
65.73
 30
0.0
 11
31.0
 21
65.73
 31
0.0
  0
LINE
  8
0
 62
0
 10
31.0
 20
65.73
 30
0.0
 11
31.0
 21
83.0
 31
0.0
  0
LINE
  8
0
 62
0
 10
30.0
 20
83.0
 30
0.0
 11
31.0
 21
83.0
 31
0.0
  0
LINE
  8
0
 62
0
 10
30.0
 20
84.0
 30
0.0
 11
30.0
 21
83.0
 31
0.0
  0
LINE
  8
0
 62
0
 10
30.0
 20
84.0
 30
0.0
 11
7.78
 21
84.0
 31
0.0
  0
LINE
  8
0
 62
0
 10
7.78
 20
84.0
 30
0.0
 11
7.78
 21
68.32
 31
0.0
  0
LINE
  8
0
 62
0
 10
2.17
 20
84.0
 30
0.0
 11
3.5527136788e-15
 21
84.0
 31
0.0
  0
LINE
  8
0
 62
0
 10
6.11311850664e-15
 20
84.0
 30
0.0
 11
-1.87
 21
84.0
 31
0.0
  0
LINE
  8
0
 62
0
 10
-1.87
 20
84.0
 30
0.0
 11
-1.87
 21
68.32
 31
0.0
  0
LINE
  8
0
 62
0
 10
-7.48
 20
84.0
 30
0.0
 11
-30.0
 21
84.0
 31
0.0
  0
LINE
  8
0
 62
0
 10
-30.0
 20
84.0
 30
0.0
 11
-30.0
 21
83.0
 31
0.0
  0
LINE
  8
0
 62
0
 10
-30.0
 20
83.0
 30
0.0
 11
-31.0
 21
83.0
 31
0.0
  0
LINE
  8
0
 62
0
 10
-31.0
 20
83.0
 30
0.0
 11
-31.0
 21
65.73
 31
0.0
  0
LINE
  8
0
 62
0
 10
-31.0
 20
65.73
 30
0.0
 11
-24.4
 21
65.73
 31
0.0
  0
ARC
  8
0
 62
0
 10
-24.4
 20
62.43
 30
0.0
 40
3.3
 50
-90.0
 51
90.0
  0
LINE
  8
0
 62
0
 10
-24.4
 20
59.13
 30
0.0
 11
-31.0
 21
59.13
 31
0.0
  0
LINE
  8
0
 62
0
 10
-31.0
 20
59.13
 30
0.0
 11
-31.0
 21
24.87
 31
0.0
  0
LINE
  8
0
 62
0
 10
-31.0
 20
24.87
 30
0.0
 11
-24.4
 21
24.87
 31
0.0
  0
LINE
  8
0
 62
0
 10
7.78
 20
88.02
 30
0.0
 11
7.78
 21
68.32
 31
0.0
  0
LINE
  8
0
 62
0
 10
7.78
 20
68.32
 30
0.0
 11
2.17
 21
68.32
 31
0.0
  0
LINE
  8
0
 62
0
 10
2.17
 20
68.32
 30
0.0
 11
2.17
 21
88.02
 31
0.0
  0
LINE
  8
0
 62
0
 10
-1.87
 20
88.02
 30
0.0
 11
-1.87
 21
68.32
 31
0.0
  0
LINE
  8
0
 62
0
 10
-1.87
 20
68.32
 30
0.0
 11
-7.48
 21
68.32
 31
0.0
  0
LINE
  8
0
 62
0
 10
-7.48
 20
68.32
 30
0.0
 11
-7.48
 21
88.02
 31
0.0
  0
LINE
  8
0
 62
0
 10
2.17
 20
88.02
 30
0.0
 11
7.78
 21
88.02
 31
0.0
  0
LINE
  8
0
 62
0
 10
-7.48
 20
88.02
 30
0.0
 11
-1.87
 21
88.02
 31
0.0
  0
ENDBLK
  0
BLOCK
  8
0
  2
FILLET012
 70
0
 10
0.0
 20
0.0
 30
0.0
  3
FILLET012
  0
LINE
  8
0
 62
0
 10
30.0
 20
84.0
 30
0.0
 11
7.78
 21
84.0
 31
0.0
  0
LINE
  8
0
 62
0
 10
2.17
 20
84.0
 30
0.0
 11
3.5527136788e-15
 21
84.0
 31
0.0
  0
LINE
  8
0
 62
0
 10
7.78
 20
88.02
 30
0.0
 11
7.78
 21
68.32
 31
0.0
  0
LINE
  8
0
 62
0
 10
2.17
 20
68.32
 30
0.0
 11
2.17
 21
88.02
 31
0.0
  0
LINE
  8
0
 62
0
 10
-24.4
 20
18.27
 30
0.0
 11
-31.0
 21
18.27
 31
0.0
  0
LINE
  8
0
 62
0
 10
-31.0
 20
18.27
 30
0.0
 11
-31.0
 21
1.0
 31
0.0
  0
LINE
  8
0
 62
0
 10
-31.0
 20
1.0
 30
0.0
 11
-30.0
 21
1.0
 31
0.0
  0
LINE
  8
0
 62
0
 10
-30.0
 20
1.0
 30
0.0
 11
-30.0
 21
0.0
 31
0.0
  0
LINE
  8
0
 62
0
 10
-30.0
 20
0.0
 30
0.0
 11
0.0
 21
0.0
 31
0.0
  0
LINE
  8
0
 62
0
 10
0.0
 20
0.0
 30
0.0
 11
30.0
 21
0.0
 31
0.0
  0
LINE
  8
0
 62
0
 10
30.0
 20
0.0
 30
0.0
 11
30.0
 21
1.0
 31
0.0
  0
LINE
  8
0
 62
0
 10
30.0
 20
1.0
 30
0.0
 11
31.0
 21
1.0
 31
0.0
  0
LINE
  8
0
 62
0
 10
31.0
 20
1.0
 30
0.0
 11
31.0
 21
18.27
 31
0.0
  0
LINE
  8
0
 62
0
 10
31.0
 20
18.27
 30
0.0
 11
24.4
 21
18.27
 31
0.0
  0
ARC
  8
0
 62
0
 10
24.4
 20
21.57
 30
0.0
 40
3.3
 50
90.0
 51
-90.0
  0
LINE
  8
0
 62
0
 10
24.4
 20
24.87
 30
0.0
 11
31.0
 21
24.87
 31
0.0
  0
LINE
  8
0
 62
0
 10
31.0
 20
24.87
 30
0.0
 11
31.0
 21
59.13
 31
0.0
  0
LINE
  8
0
 62
0
 10
31.0
 20
59.13
 30
0.0
 11
24.4
 21
59.13
 31
0.0
  0
ARC
  8
0
 62
0
 10
24.4
 20
62.43
 30
0.0
 40
3.3
 50
90.0
 51
-90.0
  0
LINE
  8
0
 62
0
 10
24.4
 20
65.73
 30
0.0
 11
31.0
 21
65.73
 31
0.0
  0
LINE
  8
0
 62
0
 10
31.0
 20
65.73
 30
0.0
 11
31.0
 21
83.0
 31
0.0
  0
LINE
  8
0
 62
0
 10
30.0
 20
83.0
 30
0.0
 11
31.0
 21
83.0
 31
0.0
  0
LINE
  8
0
 62
0
 10
30.0
 20
84.0
 30
0.0
 11
30.0
 21
83.0
 31
0.0
  0
LINE
  8
0
 62
0
 10
6.11311850664e-15
 20
84.0
 30
0.0
 11
-1.87
 21
84.0
 31
0.0
  0
LINE
  8
0
 62
0
 10
-7.48
 20
84.0
 30
0.0
 11
-30.0
 21
84.0
 31
0.0
  0
LINE
  8
0
 62
0
 10
-30.0
 20
84.0
 30
0.0
 11
-30.0
 21
83.0
 31
0.0
  0
LINE
  8
0
 62
0
 10
-30.0
 20
83.0
 30
0.0
 11
-31.0
 21
83.0
 31
0.0
  0
LINE
  8
0
 62
0
 10
-31.0
 20
83.0
 30
0.0
 11
-31.0
 21
65.73
 31
0.0
  0
LINE
  8
0
 62
0
 10
-31.0
 20
65.73
 30
0.0
 11
-24.4
 21
65.73
 31
0.0
  0
ARC
  8
0
 62
0
 10
-24.4
 20
62.43
 30
0.0
 40
3.3
 50
-90.0
 51
90.0
  0
LINE
  8
0
 62
0
 10
-24.4
 20
59.13
 30
0.0
 11
-31.0
 21
59.13
 31
0.0
  0
LINE
  8
0
 62
0
 10
-31.0
 20
59.13
 30
0.0
 11
-31.0
 21
24.87
 31
0.0
  0
LINE
  8
0
 62
0
 10
-31.0
 20
24.87
 30
0.0
 11
-24.4
 21
24.87
 31
0.0
  0
ARC
  8
0
 62
0
 10
-24.4
 20
21.57
 30
0.0
 40
3.3
 50
-90.0
 51
90.0
  0
LINE
  8
0
 62
0
 10
2.17
 20
88.02
 30
0.0
 11
2.67
 21
88.02
 31
0.0
  0
LINE
  8
0
 62
0
 10
2.67
 20
88.02
 30
0.0
 11
7.28
 21
88.02
 31
0.0
  0
LINE
  8
0
 62
0
 10
7.78
 20
88.02
 30
0.0
 11
7.28
 21
88.02
 31
0.0
  0
LINE
  8
0
 62
0
 10
7.78
 20
68.32
 30
0.0
 11
7.28
 21
68.32
 31
0.0
  0
LINE
  8
0
 62
0
 10
7.28
 20
68.32
 30
0.0
 11
2.67
 21
68.32
 31
0.0
  0
LINE
  8
0
 62
0
 10
2.17
 20
68.32
 30
0.0
 11
2.67
 21
68.32
 31
0.0
  0
LINE
  8
0
 62
0
 10
-1.87
 20
88.02
 30
0.0
 11
-1.87
 21
68.32
 31
0.0
  0
LINE
  8
0
 62
0
 10
-1.87
 20
68.32
 30
0.0
 11
-2.37
 21
68.32
 31
0.0
  0
LINE
  8
0
 62
0
 10
-2.37
 20
68.32
 30
0.0
 11
-6.98
 21
68.32
 31
0.0
  0
LINE
  8
0
 62
0
 10
-7.48
 20
68.32
 30
0.0
 11
-6.98
 21
68.32
 31
0.0
  0
LINE
  8
0
 62
0
 10
-7.48
 20
68.32
 30
0.0
 11
-7.48
 21
88.02
 31
0.0
  0
LINE
  8
0
 62
0
 10
-7.48
 20
88.02
 30
0.0
 11
-6.98
 21
88.02
 31
0.0
  0
LINE
  8
0
 62
0
 10
-6.98
 20
88.02
 30
0.0
 11
-2.37
 21
88.02
 31
0.0
  0
LINE
  8
0
 62
0
 10
-1.87
 20
88.02
 30
0.0
 11
-2.37
 21
88.02
 31
0.0
  0
LINE
  8
0
 62
0
 10
7.28
 20
88.02
 30
0.0
 11
7.28
 21
68.32
 31
0.0
  0
LINE
  8
0
 62
0
 10
2.67
 20
68.32
 30
0.0
 11
2.67
 21
88.02
 31
0.0
  0
LINE
  8
0
 62
0
 10
-2.37
 20
88.02
 30
0.0
 11
-2.37
 21
68.32
 31
0.0
  0
LINE
  8
0
 62
0
 10
-6.98
 20
68.32
 30
0.0
 11
-6.98
 21
88.02
 31
0.0
  0
ENDBLK
  0
BLOCK
  8
0
  2
FILLET013
 70
0
 10
0.0
 20
0.0
 30
0.0
  3
FILLET013
  0
LINE
  8
0
 62
0
 10
2.17
 20
88.02
 30
0.0
 11
2.67
 21
88.02
 31
0.0
  0
LINE
  8
0
 62
0
 10
2.67
 20
88.02
 30
0.0
 11
7.28
 21
88.02
 31
0.0
  0
LINE
  8
0
 62
0
 10
7.78
 20
88.02
 30
0.0
 11
7.28
 21
88.02
 31
0.0
  0
LINE
  8
0
 62
0
 10
7.28
 20
70.02
 30
0.0
 11
7.2738441703
 21
70.02
 31
0.0
  0
LINE
  8
0
 62
0
 10
2.17
 20
68.32
 30
0.0
 11
2.17
 21
88.02
 31
0.0
  0
LINE
  8
0
 62
0
 10
2.17
 20
68.32
 30
0.0
 11
2.67
 21
68.32
 31
0.0
  0
LINE
  8
0
 62
0
 10
7.28
 20
68.32
 30
0.0
 11
2.67
 21
68.32
 31
0.0
  0
LINE
  8
0
 62
0
 10
7.78
 20
88.02
 30
0.0
 11
7.78
 21
68.32
 31
0.0
  0
LINE
  8
0
 62
0
 10
7.78
 20
68.32
 30
0.0
 11
7.28
 21
68.32
 31
0.0
  0
LINE
  8
0
 62
0
 10
-24.4
 20
18.27
 30
0.0
 11
-31.0
 21
18.27
 31
0.0
  0
LINE
  8
0
 62
0
 10
-31.0
 20
18.27
 30
0.0
 11
-31.0
 21
1.0
 31
0.0
  0
LINE
  8
0
 62
0
 10
-31.0
 20
1.0
 30
0.0
 11
-30.0
 21
1.0
 31
0.0
  0
LINE
  8
0
 62
0
 10
-30.0
 20
1.0
 30
0.0
 11
-30.0
 21
0.0
 31
0.0
  0
LINE
  8
0
 62
0
 10
-30.0
 20
0.0
 30
0.0
 11
0.0
 21
0.0
 31
0.0
  0
LINE
  8
0
 62
0
 10
0.0
 20
0.0
 30
0.0
 11
30.0
 21
0.0
 31
0.0
  0
LINE
  8
0
 62
0
 10
30.0
 20
0.0
 30
0.0
 11
30.0
 21
1.0
 31
0.0
  0
LINE
  8
0
 62
0
 10
30.0
 20
1.0
 30
0.0
 11
31.0
 21
1.0
 31
0.0
  0
LINE
  8
0
 62
0
 10
31.0
 20
1.0
 30
0.0
 11
31.0
 21
18.27
 31
0.0
  0
LINE
  8
0
 62
0
 10
31.0
 20
18.27
 30
0.0
 11
24.4
 21
18.27
 31
0.0
  0
ARC
  8
0
 62
0
 10
24.4
 20
21.57
 30
0.0
 40
3.3
 50
90.0
 51
-90.0
  0
LINE
  8
0
 62
0
 10
24.4
 20
24.87
 30
0.0
 11
31.0
 21
24.87
 31
0.0
  0
LINE
  8
0
 62
0
 10
31.0
 20
24.87
 30
0.0
 11
31.0
 21
59.13
 31
0.0
  0
LINE
  8
0
 62
0
 10
31.0
 20
59.13
 30
0.0
 11
24.4
 21
59.13
 31
0.0
  0
ARC
  8
0
 62
0
 10
24.4
 20
62.43
 30
0.0
 40
3.3
 50
90.0
 51
-90.0
  0
LINE
  8
0
 62
0
 10
24.4
 20
65.73
 30
0.0
 11
31.0
 21
65.73
 31
0.0
  0
LINE
  8
0
 62
0
 10
31.0
 20
65.73
 30
0.0
 11
31.0
 21
83.0
 31
0.0
  0
LINE
  8
0
 62
0
 10
30.0
 20
83.0
 30
0.0
 11
31.0
 21
83.0
 31
0.0
  0
LINE
  8
0
 62
0
 10
30.0
 20
84.0
 30
0.0
 11
30.0
 21
83.0
 31
0.0
  0
LINE
  8
0
 62
0
 10
30.0
 20
84.0
 30
0.0
 11
7.78
 21
84.0
 31
0.0
  0
LINE
  8
0
 62
0
 10
2.17
 20
84.0
 30
0.0
 11
3.5527136788e-15
 21
84.0
 31
0.0
  0
LINE
  8
0
 62
0
 10
6.11311850664e-15
 20
84.0
 30
0.0
 11
-1.87
 21
84.0
 31
0.0
  0
LINE
  8
0
 62
0
 10
-7.48
 20
84.0
 30
0.0
 11
-30.0
 21
84.0
 31
0.0
  0
LINE
  8
0
 62
0
 10
-30.0
 20
84.0
 30
0.0
 11
-30.0
 21
83.0
 31
0.0
  0
LINE
  8
0
 62
0
 10
-30.0
 20
83.0
 30
0.0
 11
-31.0
 21
83.0
 31
0.0
  0
LINE
  8
0
 62
0
 10
-31.0
 20
83.0
 30
0.0
 11
-31.0
 21
65.73
 31
0.0
  0
LINE
  8
0
 62
0
 10
-31.0
 20
65.73
 30
0.0
 11
-24.4
 21
65.73
 31
0.0
  0
ARC
  8
0
 62
0
 10
-24.4
 20
62.43
 30
0.0
 40
3.3
 50
-90.0
 51
90.0
  0
LINE
  8
0
 62
0
 10
-24.4
 20
59.13
 30
0.0
 11
-31.0
 21
59.13
 31
0.0
  0
LINE
  8
0
 62
0
 10
-31.0
 20
59.13
 30
0.0
 11
-31.0
 21
24.87
 31
0.0
  0
LINE
  8
0
 62
0
 10
-31.0
 20
24.87
 30
0.0
 11
-24.4
 21
24.87
 31
0.0
  0
ARC
  8
0
 62
0
 10
-24.4
 20
21.57
 30
0.0
 40
3.3
 50
-90.0
 51
90.0
  0
LINE
  8
0
 62
0
 10
-1.87
 20
88.02
 30
0.0
 11
-1.87
 21
68.32
 31
0.0
  0
LINE
  8
0
 62
0
 10
-1.87
 20
68.32
 30
0.0
 11
-2.37
 21
68.32
 31
0.0
  0
LINE
  8
0
 62
0
 10
-2.37
 20
68.32
 30
0.0
 11
-6.98
 21
68.32
 31
0.0
  0
LINE
  8
0
 62
0
 10
-7.48
 20
68.32
 30
0.0
 11
-6.98
 21
68.32
 31
0.0
  0
LINE
  8
0
 62
0
 10
-7.48
 20
68.32
 30
0.0
 11
-7.48
 21
88.02
 31
0.0
  0
LINE
  8
0
 62
0
 10
-7.48
 20
88.02
 30
0.0
 11
-6.98
 21
88.02
 31
0.0
  0
LINE
  8
0
 62
0
 10
-6.98
 20
88.02
 30
0.0
 11
-2.37
 21
88.02
 31
0.0
  0
LINE
  8
0
 62
0
 10
-1.87
 20
88.02
 30
0.0
 11
-2.37
 21
88.02
 31
0.0
  0
LINE
  8
0
 62
0
 10
2.67
 20
68.32
 30
0.0
 11
2.67
 21
88.02
 31
0.0
  0
LINE
  8
0
 62
0
 10
7.28
 20
88.02
 30
0.0
 11
7.28
 21
68.32
 31
0.0
  0
LINE
  8
0
 62
0
 10
-2.37
 20
88.02
 30
0.0
 11
-2.37
 21
68.32
 31
0.0
  0
LINE
  8
0
 62
0
 10
-6.98
 20
68.32
 30
0.0
 11
-6.98
 21
88.02
 31
0.0
  0
ENDBLK
  0
BLOCK
  8
0
  2
CHAMFER
 70
0
 10
0.0
 20
0.0
 30
0.0
  3
CHAMFER
  0
LINE
  8
0
 62
0
 10
7.28
 20
70.02
 30
0.0
 11
7.2738441703
 21
70.02
 31
0.0
  0
LINE
  8
0
 62
0
 10
2.17
 20
88.02
 30
0.0
 11
2.67
 21
88.02
 31
0.0
  0
LINE
  8
0
 62
0
 10
2.67
 20
88.02
 30
0.0
 11
7.28
 21
88.02
 31
0.0
  0
LINE
  8
0
 62
0
 10
7.78
 20
88.02
 30
0.0
 11
7.28
 21
88.02
 31
0.0
  0
LINE
  8
0
 62
0
 10
2.17
 20
68.32
 30
0.0
 11
2.17
 21
88.02
 31
0.0
  0
LINE
  8
0
 62
0
 10
2.17
 20
68.32
 30
0.0
 11
2.67
 21
68.32
 31
0.0
  0
LINE
  8
0
 62
0
 10
7.28
 20
68.32
 30
0.0
 11
2.67
 21
68.32
 31
0.0
  0
LINE
  8
0
 62
0
 10
7.78
 20
88.02
 30
0.0
 11
7.78
 21
68.32
 31
0.0
  0
LINE
  8
0
 62
0
 10
7.78
 20
68.32
 30
0.0
 11
7.28
 21
68.32
 31
0.0
  0
LINE
  8
0
 62
0
 10
-24.4
 20
18.27
 30
0.0
 11
-31.0
 21
18.27
 31
0.0
  0
LINE
  8
0
 62
0
 10
-31.0
 20
18.27
 30
0.0
 11
-31.0
 21
1.0
 31
0.0
  0
LINE
  8
0
 62
0
 10
-31.0
 20
1.0
 30
0.0
 11
-30.0
 21
1.0
 31
0.0
  0
LINE
  8
0
 62
0
 10
-30.0
 20
1.0
 30
0.0
 11
-30.0
 21
0.0
 31
0.0
  0
LINE
  8
0
 62
0
 10
-30.0
 20
0.0
 30
0.0
 11
0.0
 21
0.0
 31
0.0
  0
LINE
  8
0
 62
0
 10
0.0
 20
0.0
 30
0.0
 11
30.0
 21
0.0
 31
0.0
  0
LINE
  8
0
 62
0
 10
30.0
 20
0.0
 30
0.0
 11
30.0
 21
1.0
 31
0.0
  0
LINE
  8
0
 62
0
 10
30.0
 20
1.0
 30
0.0
 11
31.0
 21
1.0
 31
0.0
  0
LINE
  8
0
 62
0
 10
31.0
 20
1.0
 30
0.0
 11
31.0
 21
18.27
 31
0.0
  0
LINE
  8
0
 62
0
 10
31.0
 20
18.27
 30
0.0
 11
24.4
 21
18.27
 31
0.0
  0
ARC
  8
0
 62
0
 10
24.4
 20
21.57
 30
0.0
 40
3.3
 50
90.0
 51
-90.0
  0
LINE
  8
0
 62
0
 10
24.4
 20
24.87
 30
0.0
 11
31.0
 21
24.87
 31
0.0
  0
LINE
  8
0
 62
0
 10
31.0
 20
24.87
 30
0.0
 11
31.0
 21
59.13
 31
0.0
  0
LINE
  8
0
 62
0
 10
31.0
 20
59.13
 30
0.0
 11
24.4
 21
59.13
 31
0.0
  0
ARC
  8
0
 62
0
 10
24.4
 20
62.43
 30
0.0
 40
3.3
 50
90.0
 51
-90.0
  0
LINE
  8
0
 62
0
 10
24.4
 20
65.73
 30
0.0
 11
31.0
 21
65.73
 31
0.0
  0
LINE
  8
0
 62
0
 10
31.0
 20
65.73
 30
0.0
 11
31.0
 21
83.0
 31
0.0
  0
LINE
  8
0
 62
0
 10
30.0
 20
83.0
 30
0.0
 11
31.0
 21
83.0
 31
0.0
  0
LINE
  8
0
 62
0
 10
30.0
 20
84.0
 30
0.0
 11
30.0
 21
83.0
 31
0.0
  0
LINE
  8
0
 62
0
 10
30.0
 20
84.0
 30
0.0
 11
7.78
 21
84.0
 31
0.0
  0
LINE
  8
0
 62
0
 10
2.17
 20
84.0
 30
0.0
 11
3.5527136788e-15
 21
84.0
 31
0.0
  0
LINE
  8
0
 62
0
 10
6.11311850664e-15
 20
84.0
 30
0.0
 11
-1.87
 21
84.0
 31
0.0
  0
LINE
  8
0
 62
0
 10
-7.48
 20
84.0
 30
0.0
 11
-30.0
 21
84.0
 31
0.0
  0
LINE
  8
0
 62
0
 10
-30.0
 20
84.0
 30
0.0
 11
-30.0
 21
83.0
 31
0.0
  0
LINE
  8
0
 62
0
 10
-30.0
 20
83.0
 30
0.0
 11
-31.0
 21
83.0
 31
0.0
  0
LINE
  8
0
 62
0
 10
-31.0
 20
83.0
 30
0.0
 11
-31.0
 21
65.73
 31
0.0
  0
LINE
  8
0
 62
0
 10
-31.0
 20
65.73
 30
0.0
 11
-24.4
 21
65.73
 31
0.0
  0
ARC
  8
0
 62
0
 10
-24.4
 20
62.43
 30
0.0
 40
3.3
 50
-90.0
 51
90.0
  0
LINE
  8
0
 62
0
 10
-24.4
 20
59.13
 30
0.0
 11
-31.0
 21
59.13
 31
0.0
  0
LINE
  8
0
 62
0
 10
-31.0
 20
59.13
 30
0.0
 11
-31.0
 21
24.87
 31
0.0
  0
LINE
  8
0
 62
0
 10
-31.0
 20
24.87
 30
0.0
 11
-24.4
 21
24.87
 31
0.0
  0
ARC
  8
0
 62
0
 10
-24.4
 20
21.57
 30
0.0
 40
3.3
 50
-90.0
 51
90.0
  0
LINE
  8
0
 62
0
 10
-1.87
 20
88.02
 30
0.0
 11
-1.87
 21
68.32
 31
0.0
  0
LINE
  8
0
 62
0
 10
-1.87
 20
68.32
 30
0.0
 11
-2.37
 21
68.32
 31
0.0
  0
LINE
  8
0
 62
0
 10
-2.37
 20
68.32
 30
0.0
 11
-6.98
 21
68.32
 31
0.0
  0
LINE
  8
0
 62
0
 10
-7.48
 20
68.32
 30
0.0
 11
-6.98
 21
68.32
 31
0.0
  0
LINE
  8
0
 62
0
 10
-7.48
 20
68.32
 30
0.0
 11
-7.48
 21
88.02
 31
0.0
  0
LINE
  8
0
 62
0
 10
-7.48
 20
88.02
 30
0.0
 11
-6.98
 21
88.02
 31
0.0
  0
LINE
  8
0
 62
0
 10
-6.98
 20
88.02
 30
0.0
 11
-2.37
 21
88.02
 31
0.0
  0
LINE
  8
0
 62
0
 10
-1.87
 20
88.02
 30
0.0
 11
-2.37
 21
88.02
 31
0.0
  0
LINE
  8
0
 62
0
 10
2.67
 20
68.32
 30
0.0
 11
2.67
 21
88.02
 31
0.0
  0
LINE
  8
0
 62
0
 10
7.28
 20
88.02
 30
0.0
 11
7.28
 21
68.32
 31
0.0
  0
LINE
  8
0
 62
0
 10
-2.37
 20
88.02
 30
0.0
 11
-2.37
 21
68.32
 31
0.0
  0
LINE
  8
0
 62
0
 10
-6.98
 20
68.32
 30
0.0
 11
-6.98
 21
88.02
 31
0.0
  0
ENDBLK
  0
BLOCK
  8
0
  2
SKETCH021
 70
0
 10
0.0
 20
0.0
 30
0.0
  3
SKETCH021
  0
CIRCLE
  8
0
 62
7
 10
-22.74
 20
88.03
 30
8.02
 40
3.185
  0
CIRCLE
  8
0
 62
7
 10
-22.74
 20
88.03
 30
8.02
 40
1.0
  0
ENDBLK
  0
BLOCK
  8
0
  2
POCKET010
 70
0
 10
0.0
 20
0.0
 30
0.0
  3
POCKET010
  0
LINE
  8
0
 62
0
 10
-24.4
 20
18.27
 30
0.0
 11
-31.0
 21
18.27
 31
0.0
  0
ARC
  8
0
 62
0
 10
-24.4
 20
21.57
 30
0.0
 40
3.3
 50
-90.0
 51
90.0
  0
LINE
  8
0
 62
0
 10
-31.0
 20
18.27
 30
0.0
 11
-31.0
 21
1.0
 31
0.0
  0
LINE
  8
0
 62
0
 10
-31.0
 20
1.0
 30
0.0
 11
-30.0
 21
1.0
 31
0.0
  0
LINE
  8
0
 62
0
 10
-30.0
 20
1.0
 30
0.0
 11
-30.0
 21
0.0
 31
0.0
  0
LINE
  8
0
 62
0
 10
-30.0
 20
0.0
 30
0.0
 11
0.0
 21
0.0
 31
0.0
  0
LINE
  8
0
 62
0
 10
0.0
 20
0.0
 30
0.0
 11
30.0
 21
0.0
 31
0.0
  0
LINE
  8
0
 62
0
 10
30.0
 20
0.0
 30
0.0
 11
30.0
 21
1.0
 31
0.0
  0
LINE
  8
0
 62
0
 10
30.0
 20
1.0
 30
0.0
 11
31.0
 21
1.0
 31
0.0
  0
LINE
  8
0
 62
0
 10
31.0
 20
1.0
 30
0.0
 11
31.0
 21
18.27
 31
0.0
  0
LINE
  8
0
 62
0
 10
31.0
 20
18.27
 30
0.0
 11
24.4
 21
18.27
 31
0.0
  0
ARC
  8
0
 62
0
 10
24.4
 20
21.57
 30
0.0
 40
3.3
 50
90.0
 51
-90.0
  0
LINE
  8
0
 62
0
 10
24.4
 20
24.87
 30
0.0
 11
31.0
 21
24.87
 31
0.0
  0
LINE
  8
0
 62
0
 10
31.0
 20
24.87
 30
0.0
 11
31.0
 21
59.13
 31
0.0
  0
LINE
  8
0
 62
0
 10
31.0
 20
59.13
 30
0.0
 11
24.4
 21
59.13
 31
0.0
  0
ARC
  8
0
 62
0
 10
24.4
 20
62.43
 30
0.0
 40
3.3
 50
90.0
 51
-90.0
  0
LINE
  8
0
 62
0
 10
24.4
 20
65.73
 30
0.0
 11
31.0
 21
65.73
 31
0.0
  0
LINE
  8
0
 62
0
 10
31.0
 20
65.73
 30
0.0
 11
31.0
 21
83.0
 31
0.0
  0
LINE
  8
0
 62
0
 10
30.0
 20
83.0
 30
0.0
 11
31.0
 21
83.0
 31
0.0
  0
LINE
  8
0
 62
0
 10
30.0
 20
84.0
 30
0.0
 11
30.0
 21
83.0
 31
0.0
  0
LINE
  8
0
 62
0
 10
30.0
 20
84.0
 30
0.0
 11
3.5527136788e-15
 21
84.0
 31
0.0
  0
LINE
  8
0
 62
0
 10
6.11311850664e-15
 20
84.0
 30
0.0
 11
-18.29
 21
84.0
 31
0.0
  0
LINE
  8
0
 62
0
 10
-18.29
 20
84.0
 30
0.0
 11
-18.29
 21
73.88
 31
0.0
  0
LINE
  8
0
 62
0
 10
-27.19
 20
84.0
 30
0.0
 11
-30.0
 21
84.0
 31
0.0
  0
LINE
  8
0
 62
0
 10
-30.0
 20
84.0
 30
0.0
 11
-30.0
 21
83.0
 31
0.0
  0
LINE
  8
0
 62
0
 10
-30.0
 20
83.0
 30
0.0
 11
-31.0
 21
83.0
 31
0.0
  0
LINE
  8
0
 62
0
 10
-31.0
 20
83.0
 30
0.0
 11
-31.0
 21
65.73
 31
0.0
  0
LINE
  8
0
 62
0
 10
-31.0
 20
65.73
 30
0.0
 11
-24.4
 21
65.73
 31
0.0
  0
ARC
  8
0
 62
0
 10
-24.4
 20
62.43
 30
0.0
 40
3.3
 50
-90.0
 51
90.0
  0
LINE
  8
0
 62
0
 10
-24.4
 20
59.13
 30
0.0
 11
-31.0
 21
59.13
 31
0.0
  0
LINE
  8
0
 62
0
 10
-31.0
 20
59.13
 30
0.0
 11
-31.0
 21
24.87
 31
0.0
  0
LINE
  8
0
 62
0
 10
-31.0
 20
24.87
 30
0.0
 11
-24.4
 21
24.87
 31
0.0
  0
LINE
  8
0
 62
0
 10
-18.29
 20
88.03
 30
0.0
 11
-18.29
 21
73.88
 31
0.0
  0
LINE
  8
0
 62
0
 10
-18.29
 20
73.88
 30
0.0
 11
-27.19
 21
73.88
 31
0.0
  0
LINE
  8
0
 62
0
 10
-27.19
 20
73.88
 30
0.0
 11
-27.19
 21
88.03
 31
0.0
  0
LINE
  8
0
 62
0
 10
-27.19
 20
88.03
 30
0.0
 11
-18.29
 21
88.03
 31
0.0
  0
ENDBLK
  0
BLOCK
  8
0
  2
FILLET014
 70
0
 10
0.0
 20
0.0
 30
0.0
  3
FILLET014
  0
LINE
  8
0
 62
0
 10
-27.19
 20
88.03
 30
0.0
 11
-18.29
 21
88.03
 31
0.0
  0
LINE
  8
0
 62
0
 10
-27.19
 20
73.88
 30
0.0
 11
-27.19
 21
88.03
 31
0.0
  0
LINE
  8
0
 62
0
 10
-18.29
 20
88.03
 30
0.0
 11
-18.29
 21
73.88
 31
0.0
  0
LINE
  8
0
 62
0
 10
-18.29
 20
73.88
 30
0.0
 11
-27.19
 21
73.88
 31
0.0
  0
LINE
  8
0
 62
0
 10
-18.29
 20
84.0
 30
0.0
 11
-18.29
 21
73.88
 31
0.0
  0
LINE
  8
0
 62
0
 10
-24.4
 20
18.27
 30
0.0
 11
-31.0
 21
18.27
 31
0.0
  0
LINE
  8
0
 62
0
 10
-31.0
 20
18.27
 30
0.0
 11
-31.0
 21
1.0
 31
0.0
  0
LINE
  8
0
 62
0
 10
-31.0
 20
1.0
 30
0.0
 11
-30.0
 21
1.0
 31
0.0
  0
LINE
  8
0
 62
0
 10
-30.0
 20
1.0
 30
0.0
 11
-30.0
 21
0.0
 31
0.0
  0
LINE
  8
0
 62
0
 10
-30.0
 20
0.0
 30
0.0
 11
0.0
 21
0.0
 31
0.0
  0
LINE
  8
0
 62
0
 10
0.0
 20
0.0
 30
0.0
 11
30.0
 21
0.0
 31
0.0
  0
LINE
  8
0
 62
0
 10
30.0
 20
0.0
 30
0.0
 11
30.0
 21
1.0
 31
0.0
  0
LINE
  8
0
 62
0
 10
30.0
 20
1.0
 30
0.0
 11
31.0
 21
1.0
 31
0.0
  0
LINE
  8
0
 62
0
 10
31.0
 20
1.0
 30
0.0
 11
31.0
 21
18.27
 31
0.0
  0
LINE
  8
0
 62
0
 10
31.0
 20
18.27
 30
0.0
 11
24.4
 21
18.27
 31
0.0
  0
ARC
  8
0
 62
0
 10
24.4
 20
21.57
 30
0.0
 40
3.3
 50
90.0
 51
-90.0
  0
LINE
  8
0
 62
0
 10
24.4
 20
24.87
 30
0.0
 11
31.0
 21
24.87
 31
0.0
  0
LINE
  8
0
 62
0
 10
31.0
 20
24.87
 30
0.0
 11
31.0
 21
59.13
 31
0.0
  0
LINE
  8
0
 62
0
 10
31.0
 20
59.13
 30
0.0
 11
24.4
 21
59.13
 31
0.0
  0
ARC
  8
0
 62
0
 10
24.4
 20
62.43
 30
0.0
 40
3.3
 50
90.0
 51
-90.0
  0
LINE
  8
0
 62
0
 10
24.4
 20
65.73
 30
0.0
 11
31.0
 21
65.73
 31
0.0
  0
LINE
  8
0
 62
0
 10
31.0
 20
65.73
 30
0.0
 11
31.0
 21
83.0
 31
0.0
  0
LINE
  8
0
 62
0
 10
30.0
 20
83.0
 30
0.0
 11
31.0
 21
83.0
 31
0.0
  0
LINE
  8
0
 62
0
 10
30.0
 20
84.0
 30
0.0
 11
30.0
 21
83.0
 31
0.0
  0
LINE
  8
0
 62
0
 10
30.0
 20
84.0
 30
0.0
 11
3.5527136788e-15
 21
84.0
 31
0.0
  0
LINE
  8
0
 62
0
 10
6.11311850664e-15
 20
84.0
 30
0.0
 11
-18.29
 21
84.0
 31
0.0
  0
LINE
  8
0
 62
0
 10
-27.19
 20
84.0
 30
0.0
 11
-30.0
 21
84.0
 31
0.0
  0
LINE
  8
0
 62
0
 10
-30.0
 20
84.0
 30
0.0
 11
-30.0
 21
83.0
 31
0.0
  0
LINE
  8
0
 62
0
 10
-30.0
 20
83.0
 30
0.0
 11
-31.0
 21
83.0
 31
0.0
  0
LINE
  8
0
 62
0
 10
-31.0
 20
83.0
 30
0.0
 11
-31.0
 21
65.73
 31
0.0
  0
LINE
  8
0
 62
0
 10
-31.0
 20
65.73
 30
0.0
 11
-24.4
 21
65.73
 31
0.0
  0
ARC
  8
0
 62
0
 10
-24.4
 20
62.43
 30
0.0
 40
3.3
 50
-90.0
 51
90.0
  0
LINE
  8
0
 62
0
 10
-24.4
 20
59.13
 30
0.0
 11
-31.0
 21
59.13
 31
0.0
  0
LINE
  8
0
 62
0
 10
-31.0
 20
59.13
 30
0.0
 11
-31.0
 21
24.87
 31
0.0
  0
LINE
  8
0
 62
0
 10
-31.0
 20
24.87
 30
0.0
 11
-24.4
 21
24.87
 31
0.0
  0
ARC
  8
0
 62
0
 10
-24.4
 20
21.57
 30
0.0
 40
3.3
 50
-90.0
 51
90.0
  0
ENDBLK
  0
BLOCK
  8
0
  2
SKETCH022
 70
0
 10
0.0
 20
0.0
 30
0.0
  3
SKETCH022
  0
POLYLINE
  8
0
 62
7
 70
1
 66
1
 10
0.0
 20
0.0
 30
0.0
  0
VERTEX
  8
0
 10
-9.93
 20
88.03
  0
VERTEX
  8
0
 10
-14.93
 20
88.03
  0
VERTEX
  8
0
 10
-14.93
 20
88.03
  0
VERTEX
  8
0
 10
-9.93
 20
88.03
  0
SEQEND
  8
0
  0
POLYLINE
  8
0
 62
7
 70
1
 66
1
 10
0.0
 20
0.0
 30
0.0
  0
VERTEX
  8
0
 10
-11.25
 20
88.03
  0
VERTEX
  8
0
 10
-11.75
 20
88.03
  0
VERTEX
  8
0
 10
-11.75
 20
88.03
  0
VERTEX
  8
0
 10
-11.25
 20
88.03
  0
SEQEND
  8
0
  0
POLYLINE
  8
0
 62
7
 70
1
 66
1
 10
0.0
 20
0.0
 30
0.0
  0
VERTEX
  8
0
 10
-13.25
 20
88.03
  0
VERTEX
  8
0
 10
-13.75
 20
88.03
  0
VERTEX
  8
0
 10
-13.75
 20
88.03
  0
VERTEX
  8
0
 10
-13.25
 20
88.03
  0
SEQEND
  8
0
  0
ENDBLK
  0
BLOCK
  8
0
  2
POCKET011
 70
0
 10
0.0
 20
0.0
 30
0.0
  3
POCKET011
  0
LINE
  8
0
 62
0
 10
-24.4
 20
18.27
 30
0.0
 11
-31.0
 21
18.27
 31
0.0
  0
ARC
  8
0
 62
0
 10
-24.4
 20
21.57
 30
0.0
 40
3.3
 50
-90.0
 51
90.0
  0
LINE
  8
0
 62
0
 10
-31.0
 20
18.27
 30
0.0
 11
-31.0
 21
1.0
 31
0.0
  0
LINE
  8
0
 62
0
 10
-31.0
 20
1.0
 30
0.0
 11
-30.0
 21
1.0
 31
0.0
  0
LINE
  8
0
 62
0
 10
-30.0
 20
1.0
 30
0.0
 11
-30.0
 21
0.0
 31
0.0
  0
LINE
  8
0
 62
0
 10
-30.0
 20
0.0
 30
0.0
 11
0.0
 21
0.0
 31
0.0
  0
LINE
  8
0
 62
0
 10
0.0
 20
0.0
 30
0.0
 11
30.0
 21
0.0
 31
0.0
  0
LINE
  8
0
 62
0
 10
30.0
 20
0.0
 30
0.0
 11
30.0
 21
1.0
 31
0.0
  0
LINE
  8
0
 62
0
 10
30.0
 20
1.0
 30
0.0
 11
31.0
 21
1.0
 31
0.0
  0
LINE
  8
0
 62
0
 10
31.0
 20
1.0
 30
0.0
 11
31.0
 21
18.27
 31
0.0
  0
LINE
  8
0
 62
0
 10
31.0
 20
18.27
 30
0.0
 11
24.4
 21
18.27
 31
0.0
  0
ARC
  8
0
 62
0
 10
24.4
 20
21.57
 30
0.0
 40
3.3
 50
90.0
 51
-90.0
  0
LINE
  8
0
 62
0
 10
24.4
 20
24.87
 30
0.0
 11
31.0
 21
24.87
 31
0.0
  0
LINE
  8
0
 62
0
 10
31.0
 20
24.87
 30
0.0
 11
31.0
 21
59.13
 31
0.0
  0
LINE
  8
0
 62
0
 10
31.0
 20
59.13
 30
0.0
 11
24.4
 21
59.13
 31
0.0
  0
ARC
  8
0
 62
0
 10
24.4
 20
62.43
 30
0.0
 40
3.3
 50
90.0
 51
-90.0
  0
LINE
  8
0
 62
0
 10
24.4
 20
65.73
 30
0.0
 11
31.0
 21
65.73
 31
0.0
  0
LINE
  8
0
 62
0
 10
31.0
 20
65.73
 30
0.0
 11
31.0
 21
83.0
 31
0.0
  0
LINE
  8
0
 62
0
 10
30.0
 20
83.0
 30
0.0
 11
31.0
 21
83.0
 31
0.0
  0
LINE
  8
0
 62
0
 10
30.0
 20
84.0
 30
0.0
 11
30.0
 21
83.0
 31
0.0
  0
LINE
  8
0
 62
0
 10
30.0
 20
84.0
 30
0.0
 11
3.5527136788e-15
 21
84.0
 31
0.0
  0
LINE
  8
0
 62
0
 10
6.11311850664e-15
 20
84.0
 30
0.0
 11
-9.43
 21
84.0
 31
0.0
  0
LINE
  8
0
 62
0
 10
-9.43
 20
84.0
 30
0.0
 11
-9.43
 21
82.03
 31
0.0
  0
LINE
  8
0
 62
0
 10
-15.43
 20
84.0
 30
0.0
 11
-30.0
 21
84.0
 31
0.0
  0
LINE
  8
0
 62
0
 10
-30.0
 20
84.0
 30
0.0
 11
-30.0
 21
83.0
 31
0.0
  0
LINE
  8
0
 62
0
 10
-30.0
 20
83.0
 30
0.0
 11
-31.0
 21
83.0
 31
0.0
  0
LINE
  8
0
 62
0
 10
-31.0
 20
83.0
 30
0.0
 11
-31.0
 21
65.73
 31
0.0
  0
LINE
  8
0
 62
0
 10
-31.0
 20
65.73
 30
0.0
 11
-24.4
 21
65.73
 31
0.0
  0
ARC
  8
0
 62
0
 10
-24.4
 20
62.43
 30
0.0
 40
3.3
 50
-90.0
 51
90.0
  0
LINE
  8
0
 62
0
 10
-24.4
 20
59.13
 30
0.0
 11
-31.0
 21
59.13
 31
0.0
  0
LINE
  8
0
 62
0
 10
-31.0
 20
59.13
 30
0.0
 11
-31.0
 21
24.87
 31
0.0
  0
LINE
  8
0
 62
0
 10
-31.0
 20
24.87
 30
0.0
 11
-24.4
 21
24.87
 31
0.0
  0
LINE
  8
0
 62
0
 10
-9.43
 20
88.03
 30
0.0
 11
-9.43
 21
82.03
 31
0.0
  0
LINE
  8
0
 62
0
 10
-9.43
 20
82.03
 30
0.0
 11
-15.43
 21
82.03
 31
0.0
  0
LINE
  8
0
 62
0
 10
-15.43
 20
82.03
 30
0.0
 11
-15.43
 21
88.03
 31
0.0
  0
LINE
  8
0
 62
0
 10
-15.43
 20
88.03
 30
0.0
 11
-9.43
 21
88.03
 31
0.0
  0
ENDBLK
  0
BLOCK
  8
0
  2
SKETCH023
 70
0
 10
0.0
 20
0.0
 30
0.0
  3
SKETCH023
  0
POLYLINE
  8
0
 62
7
 70
1
 66
1
 10
0.0
 20
0.0
 30
0.0
  0
VERTEX
  8
0
 10
-9.43
 20
88.03
  0
VERTEX
  8
0
 10
-9.93
 20
88.03
  0
VERTEX
  8
0
 10
-9.93
 20
88.03
  0
VERTEX
  8
0
 10
-9.43
 20
88.03
  0
SEQEND
  8
0
  0
POLYLINE
  8
0
 62
7
 70
1
 66
1
 10
0.0
 20
0.0
 30
0.0
  0
VERTEX
  8
0
 10
-14.93
 20
88.03
  0
VERTEX
  8
0
 10
-15.43
 20
88.03
  0
VERTEX
  8
0
 10
-15.43
 20
88.03
  0
VERTEX
  8
0
 10
-14.93
 20
88.03
  0
SEQEND
  8
0
  0
POLYLINE
  8
0
 62
7
 70
1
 66
1
 10
0.0
 20
0.0
 30
0.0
  0
VERTEX
  8
0
 10
-11.65003
 20
88.03
  0
VERTEX
  8
0
 10
-13.25003
 20
88.03
  0
VERTEX
  8
0
 10
-13.25003
 20
88.03
  0
VERTEX
  8
0
 10
-11.65003
 20
88.03
  0
SEQEND
  8
0
  0
ENDBLK
  0
BLOCK
  8
0
  2
POCKET012
 70
0
 10
0.0
 20
0.0
 30
0.0
  3
POCKET012
  0
LINE
  8
0
 62
0
 10
-24.4
 20
18.27
 30
0.0
 11
-31.0
 21
18.27
 31
0.0
  0
ARC
  8
0
 62
0
 10
-24.4
 20
21.57
 30
0.0
 40
3.3
 50
-90.0
 51
90.0
  0
LINE
  8
0
 62
0
 10
-31.0
 20
18.27
 30
0.0
 11
-31.0
 21
1.0
 31
0.0
  0
LINE
  8
0
 62
0
 10
-31.0
 20
1.0
 30
0.0
 11
-30.0
 21
1.0
 31
0.0
  0
LINE
  8
0
 62
0
 10
-30.0
 20
1.0
 30
0.0
 11
-30.0
 21
0.0
 31
0.0
  0
LINE
  8
0
 62
0
 10
-30.0
 20
0.0
 30
0.0
 11
0.0
 21
0.0
 31
0.0
  0
LINE
  8
0
 62
0
 10
0.0
 20
0.0
 30
0.0
 11
30.0
 21
0.0
 31
0.0
  0
LINE
  8
0
 62
0
 10
30.0
 20
0.0
 30
0.0
 11
30.0
 21
1.0
 31
0.0
  0
LINE
  8
0
 62
0
 10
30.0
 20
1.0
 30
0.0
 11
31.0
 21
1.0
 31
0.0
  0
LINE
  8
0
 62
0
 10
31.0
 20
1.0
 30
0.0
 11
31.0
 21
18.27
 31
0.0
  0
LINE
  8
0
 62
0
 10
31.0
 20
18.27
 30
0.0
 11
24.4
 21
18.27
 31
0.0
  0
ARC
  8
0
 62
0
 10
24.4
 20
21.57
 30
0.0
 40
3.3
 50
90.0
 51
-90.0
  0
LINE
  8
0
 62
0
 10
24.4
 20
24.87
 30
0.0
 11
31.0
 21
24.87
 31
0.0
  0
LINE
  8
0
 62
0
 10
31.0
 20
24.87
 30
0.0
 11
31.0
 21
59.13
 31
0.0
  0
LINE
  8
0
 62
0
 10
31.0
 20
59.13
 30
0.0
 11
24.4
 21
59.13
 31
0.0
  0
ARC
  8
0
 62
0
 10
24.4
 20
62.43
 30
0.0
 40
3.3
 50
90.0
 51
-90.0
  0
LINE
  8
0
 62
0
 10
24.4
 20
65.73
 30
0.0
 11
31.0
 21
65.73
 31
0.0
  0
LINE
  8
0
 62
0
 10
31.0
 20
65.73
 30
0.0
 11
31.0
 21
83.0
 31
0.0
  0
LINE
  8
0
 62
0
 10
30.0
 20
83.0
 30
0.0
 11
31.0
 21
83.0
 31
0.0
  0
LINE
  8
0
 62
0
 10
30.0
 20
84.0
 30
0.0
 11
30.0
 21
83.0
 31
0.0
  0
LINE
  8
0
 62
0
 10
30.0
 20
84.0
 30
0.0
 11
3.5527136788e-15
 21
84.0
 31
0.0
  0
LINE
  8
0
 62
0
 10
6.11311850664e-15
 20
84.0
 30
0.0
 11
-9.43
 21
84.0
 31
0.0
  0
LINE
  8
0
 62
0
 10
-9.43
 20
84.0
 30
0.0
 11
-9.43
 21
82.03
 31
0.0
  0
LINE
  8
0
 62
0
 10
-15.43
 20
84.0
 30
0.0
 11
-30.0
 21
84.0
 31
0.0
  0
LINE
  8
0
 62
0
 10
-30.0
 20
84.0
 30
0.0
 11
-30.0
 21
83.0
 31
0.0
  0
LINE
  8
0
 62
0
 10
-30.0
 20
83.0
 30
0.0
 11
-31.0
 21
83.0
 31
0.0
  0
LINE
  8
0
 62
0
 10
-31.0
 20
83.0
 30
0.0
 11
-31.0
 21
65.73
 31
0.0
  0
LINE
  8
0
 62
0
 10
-31.0
 20
65.73
 30
0.0
 11
-24.4
 21
65.73
 31
0.0
  0
ARC
  8
0
 62
0
 10
-24.4
 20
62.43
 30
0.0
 40
3.3
 50
-90.0
 51
90.0
  0
LINE
  8
0
 62
0
 10
-24.4
 20
59.13
 30
0.0
 11
-31.0
 21
59.13
 31
0.0
  0
LINE
  8
0
 62
0
 10
-31.0
 20
59.13
 30
0.0
 11
-31.0
 21
24.87
 31
0.0
  0
LINE
  8
0
 62
0
 10
-31.0
 20
24.87
 30
0.0
 11
-24.4
 21
24.87
 31
0.0
  0
LINE
  8
0
 62
0
 10
-9.43
 20
88.03
 30
0.0
 11
-9.43
 21
82.03
 31
0.0
  0
LINE
  8
0
 62
0
 10
-9.43
 20
82.03
 30
0.0
 11
-15.43
 21
82.03
 31
0.0
  0
LINE
  8
0
 62
0
 10
-15.43
 20
82.03
 30
0.0
 11
-15.43
 21
88.03
 31
0.0
  0
LINE
  8
0
 62
0
 10
-15.43
 20
88.03
 30
0.0
 11
-13.25003
 21
88.03
 31
0.0
  0
LINE
  8
0
 62
0
 10
-13.25003
 20
88.03
 30
0.0
 11
-13.25003
 21
86.03
 31
0.0
  0
LINE
  8
0
 62
0
 10
-11.65003
 20
86.03
 30
0.0
 11
-13.25003
 21
86.03
 31
0.0
  0
LINE
  8
0
 62
0
 10
-11.65003
 20
88.03
 30
0.0
 11
-11.65003
 21
86.03
 31
0.0
  0
LINE
  8
0
 62
0
 10
-11.65003
 20
88.03
 30
0.0
 11
-9.43
 21
88.03
 31
0.0
  0
LINE
  8
0
 62
0
 10
-13.25
 20
88.03
 30
0.0
 11
-11.75
 21
88.03
 31
0.0
  0
LINE
  8
0
 62
0
 10
-13.25
 20
88.03
 30
0.0
 11
-13.25
 21
86.03
 31
0.0
  0
LINE
  8
0
 62
0
 10
-13.25
 20
88.03
 30
0.0
 11
-13.25003
 21
88.03
 31
0.0
  0
LINE
  8
0
 62
0
 10
-11.65003
 20
88.03
 30
0.0
 11
-11.75
 21
88.03
 31
0.0
  0
LINE
  8
0
 62
0
 10
-11.75
 20
88.03
 30
0.0
 11
-11.75
 21
86.03
 31
0.0
  0
ENDBLK
  0
BLOCK
  8
0
  2
FILLET015
 70
0
 10
0.0
 20
0.0
 30
0.0
  3
FILLET015
  0
LINE
  8
0
 62
0
 10
-13.25
 20
87.83
 30
0.0
 11
-13.25
 21
86.03
 31
0.0
  0
LINE
  8
0
 62
0
 10
-13.25
 20
87.83
 30
0.0
 11
-13.25003
 21
87.8334639717
 31
0.0
  0
LINE
  8
0
 62
0
 10
-13.25003
 20
88.03
 30
0.0
 11
-11.65003
 21
88.03
 31
0.0
  0
LINE
  8
0
 62
0
 10
-11.75
 20
87.83
 30
0.0
 11
-11.75
 21
86.03
 31
0.0
  0
LINE
  8
0
 62
0
 10
-11.65003
 20
88.03
 30
0.0
 11
-9.43
 21
88.03
 31
0.0
  0
LINE
  8
0
 62
0
 10
-11.65003
 20
88.03
 30
0.0
 11
-11.65003
 21
86.03
 31
0.0
  0
LINE
  8
0
 62
0
 10
-11.65003
 20
86.03
 30
0.0
 11
-13.25003
 21
86.03
 31
0.0
  0
LINE
  8
0
 62
0
 10
-13.25003
 20
88.03
 30
0.0
 11
-13.25003
 21
86.03
 31
0.0
  0
LINE
  8
0
 62
0
 10
-15.43
 20
88.03
 30
0.0
 11
-13.25003
 21
88.03
 31
0.0
  0
POLYLINE
  8
0
 62
0
 70
0
 66
1
 10
0.0
 20
0.0
 30
0.0
  0
VERTEX
  8
0
 10
-11.75
 20
87.83
  0
VERTEX
  8
0
 10
-11.65003
 20
88.0031877568
  0
SEQEND
  8
0
  0
LINE
  8
0
 62
0
 10
-9.43
 20
84.0
 30
0.0
 11
-9.43
 21
82.03
 31
0.0
  0
LINE
  8
0
 62
0
 10
-9.43
 20
88.03
 30
0.0
 11
-9.43
 21
82.03
 31
0.0
  0
LINE
  8
0
 62
0
 10
-9.43
 20
82.03
 30
0.0
 11
-15.43
 21
82.03
 31
0.0
  0
LINE
  8
0
 62
0
 10
-15.43
 20
82.03
 30
0.0
 11
-15.43
 21
88.03
 31
0.0
  0
LINE
  8
0
 62
0
 10
-24.4
 20
18.27
 30
0.0
 11
-31.0
 21
18.27
 31
0.0
  0
LINE
  8
0
 62
0
 10
-31.0
 20
18.27
 30
0.0
 11
-31.0
 21
1.0
 31
0.0
  0
LINE
  8
0
 62
0
 10
-31.0
 20
1.0
 30
0.0
 11
-30.0
 21
1.0
 31
0.0
  0
LINE
  8
0
 62
0
 10
-30.0
 20
1.0
 30
0.0
 11
-30.0
 21
0.0
 31
0.0
  0
LINE
  8
0
 62
0
 10
-30.0
 20
0.0
 30
0.0
 11
0.0
 21
0.0
 31
0.0
  0
LINE
  8
0
 62
0
 10
0.0
 20
0.0
 30
0.0
 11
30.0
 21
0.0
 31
0.0
  0
LINE
  8
0
 62
0
 10
30.0
 20
0.0
 30
0.0
 11
30.0
 21
1.0
 31
0.0
  0
LINE
  8
0
 62
0
 10
30.0
 20
1.0
 30
0.0
 11
31.0
 21
1.0
 31
0.0
  0
LINE
  8
0
 62
0
 10
31.0
 20
1.0
 30
0.0
 11
31.0
 21
18.27
 31
0.0
  0
LINE
  8
0
 62
0
 10
31.0
 20
18.27
 30
0.0
 11
24.4
 21
18.27
 31
0.0
  0
ARC
  8
0
 62
0
 10
24.4
 20
21.57
 30
0.0
 40
3.3
 50
90.0
 51
-90.0
  0
LINE
  8
0
 62
0
 10
24.4
 20
24.87
 30
0.0
 11
31.0
 21
24.87
 31
0.0
  0
LINE
  8
0
 62
0
 10
31.0
 20
24.87
 30
0.0
 11
31.0
 21
59.13
 31
0.0
  0
LINE
  8
0
 62
0
 10
31.0
 20
59.13
 30
0.0
 11
24.4
 21
59.13
 31
0.0
  0
ARC
  8
0
 62
0
 10
24.4
 20
62.43
 30
0.0
 40
3.3
 50
90.0
 51
-90.0
  0
LINE
  8
0
 62
0
 10
24.4
 20
65.73
 30
0.0
 11
31.0
 21
65.73
 31
0.0
  0
LINE
  8
0
 62
0
 10
31.0
 20
65.73
 30
0.0
 11
31.0
 21
83.0
 31
0.0
  0
LINE
  8
0
 62
0
 10
30.0
 20
83.0
 30
0.0
 11
31.0
 21
83.0
 31
0.0
  0
LINE
  8
0
 62
0
 10
30.0
 20
84.0
 30
0.0
 11
30.0
 21
83.0
 31
0.0
  0
LINE
  8
0
 62
0
 10
30.0
 20
84.0
 30
0.0
 11
3.5527136788e-15
 21
84.0
 31
0.0
  0
LINE
  8
0
 62
0
 10
6.11311850664e-15
 20
84.0
 30
0.0
 11
-9.43
 21
84.0
 31
0.0
  0
LINE
  8
0
 62
0
 10
-15.43
 20
84.0
 30
0.0
 11
-30.0
 21
84.0
 31
0.0
  0
LINE
  8
0
 62
0
 10
-30.0
 20
84.0
 30
0.0
 11
-30.0
 21
83.0
 31
0.0
  0
LINE
  8
0
 62
0
 10
-30.0
 20
83.0
 30
0.0
 11
-31.0
 21
83.0
 31
0.0
  0
LINE
  8
0
 62
0
 10
-31.0
 20
83.0
 30
0.0
 11
-31.0
 21
65.73
 31
0.0
  0
LINE
  8
0
 62
0
 10
-31.0
 20
65.73
 30
0.0
 11
-24.4
 21
65.73
 31
0.0
  0
ARC
  8
0
 62
0
 10
-24.4
 20
62.43
 30
0.0
 40
3.3
 50
-90.0
 51
90.0
  0
LINE
  8
0
 62
0
 10
-24.4
 20
59.13
 30
0.0
 11
-31.0
 21
59.13
 31
0.0
  0
LINE
  8
0
 62
0
 10
-31.0
 20
59.13
 30
0.0
 11
-31.0
 21
24.87
 31
0.0
  0
LINE
  8
0
 62
0
 10
-31.0
 20
24.87
 30
0.0
 11
-24.4
 21
24.87
 31
0.0
  0
ARC
  8
0
 62
0
 10
-24.4
 20
21.57
 30
0.0
 40
3.3
 50
-90.0
 51
90.0
  0
LINE
  8
0
 62
0
 10
-13.25
 20
87.83
 30
0.0
 11
-13.25003
 21
87.83
 31
0.0
  0
LINE
  8
0
 62
0
 10
-11.65003
 20
87.83
 30
0.0
 11
-11.75
 21
87.83
 31
0.0
  0
ENDBLK
  0
ENDSEC
  0
SECTION
  2
ENTITIES
  0
INSERT
  2
PAD
  8
0
 10
0.0
 20
0.0
 30
0.0
  0
POLYLINE
  8
0
 62
7
 70
1
 66
1
 10
0.0
 20
0.0
 30
0.0
  0
VERTEX
  8
0
 10
-24.4
 20
18.27
  0
VERTEX
  8
0
 10
-31.0
 20
18.27
  0
VERTEX
  8
0
 10
-31.0
 20
1.0
  0
VERTEX
  8
0
 10
-30.0
 20
1.0
  0
VERTEX
  8
0
 10
-30.0
 20
0.0
  0
VERTEX
  8
0
 10
0.0
 20
0.0
  0
VERTEX
  8
0
 10
30.0
 20
0.0
  0
VERTEX
  8
0
 10
30.0
 20
1.0
  0
VERTEX
  8
0
 10
31.0
 20
1.0
  0
VERTEX
  8
0
 10
31.0
 20
18.27
  0
VERTEX
  8
0
 10
24.4
 20
18.27
 42
-1.0
  0
VERTEX
  8
0
 10
24.4
 20
24.87
  0
VERTEX
  8
0
 10
31.0
 20
24.87
  0
VERTEX
  8
0
 10
31.0
 20
59.13
  0
VERTEX
  8
0
 10
24.4
 20
59.13
 42
-1.0
  0
VERTEX
  8
0
 10
24.4
 20
65.73
  0
VERTEX
  8
0
 10
31.0
 20
65.73
  0
VERTEX
  8
0
 10
31.0
 20
83.0
  0
VERTEX
  8
0
 10
30.0
 20
83.0
  0
VERTEX
  8
0
 10
30.0
 20
84.0
  0
VERTEX
  8
0
 10
6.60927292593e-15
 20
84.0
  0
VERTEX
  8
0
 10
-30.0
 20
84.0
  0
VERTEX
  8
0
 10
-30.0
 20
83.0
  0
VERTEX
  8
0
 10
-31.0
 20
83.0
  0
VERTEX
  8
0
 10
-31.0
 20
65.73
  0
VERTEX
  8
0
 10
-24.4
 20
65.73
 42
-1.0
  0
VERTEX
  8
0
 10
-24.4
 20
59.13
  0
VERTEX
  8
0
 10
-31.0
 20
59.13
  0
VERTEX
  8
0
 10
-31.0
 20
24.87
  0
VERTEX
  8
0
 10
-24.4
 20
24.87
 42
-1.0
  0
SEQEND
  8
0
  0
POLYLINE
  8
0
 62
7
 70
1
 66
1
 10
0.0
 20
0.0
 30
0.0
  0
VERTEX
  8
0
 10
-15.43
 20
88.03
  0
VERTEX
  8
0
 10
-9.43
 20
88.03
  0
VERTEX
  8
0
 10
-9.43
 20
82.03
  0
VERTEX
  8
0
 10
-15.43
 20
82.03
  0
SEQEND
  8
0
  0
POLYLINE
  8
0
 62
7
 70
1
 66
1
 10
0.0
 20
0.0
 30
0.0
  0
VERTEX
  8
0
 10
-27.19
 20
88.03
  0
VERTEX
  8
0
 10
-18.29
 20
88.03
  0
VERTEX
  8
0
 10
-18.29
 20
73.88
  0
VERTEX
  8
0
 10
-27.19
 20
73.88
  0
SEQEND
  8
0
  0
INSERT
  2
SKETCH003
  8
0
 10
0.0
 20
0.0
 30
0.0
  0
POLYLINE
  8
0
 62
7
 70
1
 66
1
 10
0.0
 20
0.0
 30
0.0
  0
VERTEX
  8
0
 10
10.945
 20
88.02
  0
VERTEX
  8
0
 10
26.925
 20
88.02
  0
VERTEX
  8
0
 10
26.925
 20
66.91
  0
VERTEX
  8
0
 10
10.945
 20
66.91
  0
SEQEND
  8
0
  0
POLYLINE
  8
0
 62
7
 70
1
 66
1
 10
0.0
 20
0.0
 30
0.0
  0
VERTEX
  8
0
 10
19.3
 20
6.33
  0
VERTEX
  8
0
 10
27.07
 20
6.33
  0
VERTEX
  8
0
 10
27.07
 20
-2.7
  0
VERTEX
  8
0
 10
19.3
 20
-2.7
  0
SEQEND
  8
0
  0
POLYLINE
  8
0
 62
7
 70
1
 66
1
 10
0.0
 20
0.0
 30
0.0
  0
VERTEX
  8
0
 10
-2.05
 20
8.42
  0
VERTEX
  8
0
 10
13.0
 20
8.42
  0
VERTEX
  8
0
 10
13.0
 20
-2.7
  0
VERTEX
  8
0
 10
-2.05
 20
-2.7
  0
SEQEND
  8
0
  0
POLYLINE
  8
0
 62
7
 70
1
 66
1
 10
0.0
 20
0.0
 30
0.0
  0
VERTEX
  8
0
 10
-23.1
 20
8.44
  0
VERTEX
  8
0
 10
-5.73
 20
8.44
  0
VERTEX
  8
0
 10
-5.73
 20
-3.0
  0
VERTEX
  8
0
 10
-23.1
 20
-3.0
  0
SEQEND
  8
0
  0
POLYLINE
  8
0
 62
7
 70
1
 66
1
 10
0.0
 20
0.0
 30
0.0
  0
VERTEX
  8
0
 10
-29.87
 20
3.3
  0
VERTEX
  8
0
 10
-23.77
 20
3.3
  0
VERTEX
  8
0
 10
-23.77
 20
-2.8
  0
VERTEX
  8
0
 10
-29.87
 20
-2.8
  0
SEQEND
  8
0
  0
POLYLINE
  8
0
 62
7
 70
1
 66
1
 10
0.0
 20
0.0
 30
0.0
  0
VERTEX
  8
0
 10
15.05
 20
-2.8
  0
VERTEX
  8
0
 10
30.0
 20
-2.8
  0
VERTEX
  8
0
 10
30.0
 20
11.87
  0
VERTEX
  8
0
 10
15.05
 20
11.87
  0
SEQEND
  8
0
  0
INSERT
  2
SKETCH010
  8
0
 10
0.0
 20
0.0
 30
0.0
  0
INSERT
  2
PAD001
  8
0
 10
0.0
 20
0.0
 30
0.0
  0
INSERT
  2
PAD002
  8
0
 10
0.0
 20
0.0
 30
0.0
  0
INSERT
  2
PAD003
  8
0
 10
0.0
 20
0.0
 30
0.0
  0
INSERT
  2
PAD004
  8
0
 10
0.0
 20
0.0
 30
0.0
  0
INSERT
  2
PAD005
  8
0
 10
0.0
 20
0.0
 30
0.0
  0
INSERT
  2
PAD006
  8
0
 10
0.0
 20
0.0
 30
0.0
  0
INSERT
  2
PAD007
  8
0
 10
0.0
 20
0.0
 30
0.0
  0
INSERT
  2
PAD008
  8
0
 10
0.0
 20
0.0
 30
0.0
  0
INSERT
  2
PAD009
  8
0
 10
0.0
 20
0.0
 30
0.0
  0
INSERT
  2
PAD010
  8
0
 10
0.0
 20
0.0
 30
0.0
  0
INSERT
  2
SKETCH011
  8
0
 10
0.0
 20
0.0
 30
0.0
  0
INSERT
  2
POCKET
  8
0
 10
0.0
 20
0.0
 30
0.0
  0
INSERT
  2
SKETCH012
  8
0
 10
0.0
 20
0.0
 30
0.0
  0
INSERT
  2
POCKET001
  8
0
 10
0.0
 20
0.0
 30
0.0
  0
INSERT
  2
SKETCH013
  8
0
 10
0.0
 20
0.0
 30
0.0
  0
INSERT
  2
POCKET002
  8
0
 10
0.0
 20
0.0
 30
0.0
  0
INSERT
  2
SKETCH014
  8
0
 10
0.0
 20
0.0
 30
0.0
  0
INSERT
  2
POCKET003
  8
0
 10
0.0
 20
0.0
 30
0.0
  0
INSERT
  2
SKETCH015
  8
0
 10
0.0
 20
0.0
 30
0.0
  0
INSERT
  2
POCKET004
  8
0
 10
0.0
 20
0.0
 30
0.0
  0
INSERT
  2
SKETCH016
  8
0
 10
0.0
 20
0.0
 30
0.0
  0
INSERT
  2
POCKET005
  8
0
 10
0.0
 20
0.0
 30
0.0
  0
POLYLINE
  8
0
 62
7
 70
1
 66
1
 10
0.0
 20
0.0
 30
0.0
  0
VERTEX
  8
0
 10
18.03
 20
-2.8
  0
VERTEX
  8
0
 10
18.03
 20
-2.8
  0
VERTEX
  8
0
 10
29.12
 20
-2.8
  0
VERTEX
  8
0
 10
29.12
 20
-2.8
  0
SEQEND
  8
0
  0
INSERT
  2
POCKET006
  8
0
 10
0.0
 20
0.0
 30
0.0
  0
INSERT
  2
POCKET007
  8
0
 10
0.0
 20
0.0
 30
0.0
  0
INSERT
  2
FILLET
  8
0
 10
0.0
 20
0.0
 30
0.0
  0
INSERT
  2
FILLET001
  8
0
 10
0.0
 20
0.0
 30
0.0
  0
INSERT
  2
FILLET002
  8
0
 10
0.0
 20
0.0
 30
0.0
  0
INSERT
  2
FILLET003
  8
0
 10
0.0
 20
0.0
 30
0.0
  0
INSERT
  2
FILLET004
  8
0
 10
0.0
 20
0.0
 30
0.0
  0
INSERT
  2
FILLET005
  8
0
 10
0.0
 20
0.0
 30
0.0
  0
INSERT
  2
FILLET006
  8
0
 10
0.0
 20
0.0
 30
0.0
  0
INSERT
  2
FILLET007
  8
0
 10
0.0
 20
0.0
 30
0.0
  0
INSERT
  2
FILLET008
  8
0
 10
0.0
 20
0.0
 30
0.0
  0
INSERT
  2
FILLET009
  8
0
 10
0.0
 20
0.0
 30
0.0
  0
INSERT
  2
FILLET010
  8
0
 10
0.0
 20
0.0
 30
0.0
  0
INSERT
  2
FILLET011
  8
0
 10
0.0
 20
0.0
 30
0.0
  0
POLYLINE
  8
0
 62
7
 70
1
 66
1
 10
0.0
 20
0.0
 30
0.0
  0
VERTEX
  8
0
 10
24.825
 20
88.02
  0
VERTEX
  8
0
 10
24.825
 20
88.02
  0
VERTEX
  8
0
 10
21.915
 20
88.02
  0
VERTEX
  8
0
 10
21.915
 20
88.02
  0
VERTEX
  8
0
 10
20.97
 20
88.02
  0
VERTEX
  8
0
 10
20.97
 20
88.02
  0
VERTEX
  8
0
 10
16.9
 20
88.02
  0
VERTEX
  8
0
 10
16.9
 20
88.02
  0
VERTEX
  8
0
 10
15.955
 20
88.02
  0
VERTEX
  8
0
 10
15.955
 20
88.02
  0
VERTEX
  8
0
 10
13.045
 20
88.02
  0
VERTEX
  8
0
 10
13.045
 20
88.02
  0
SEQEND
  8
0
  0
INSERT
  2
POCKET008
  8
0
 10
0.0
 20
0.0
 30
0.0
  0
INSERT
  2
SKETCH020
  8
0
 10
0.0
 20
0.0
 30
0.0
  0
INSERT
  2
POCKET009
  8
0
 10
0.0
 20
0.0
 30
0.0
  0
INSERT
  2
FILLET012
  8
0
 10
0.0
 20
0.0
 30
0.0
  0
INSERT
  2
FILLET013
  8
0
 10
0.0
 20
0.0
 30
0.0
  0
INSERT
  2
CHAMFER
  8
0
 10
0.0
 20
0.0
 30
0.0
  0
INSERT
  2
SKETCH021
  8
0
 10
0.0
 20
0.0
 30
0.0
  0
INSERT
  2
POCKET010
  8
0
 10
0.0
 20
0.0
 30
0.0
  0
INSERT
  2
FILLET014
  8
0
 10
0.0
 20
0.0
 30
0.0
  0
INSERT
  2
SKETCH022
  8
0
 10
0.0
 20
0.0
 30
0.0
  0
INSERT
  2
POCKET011
  8
0
 10
0.0
 20
0.0
 30
0.0
  0
INSERT
  2
SKETCH023
  8
0
 10
0.0
 20
0.0
 30
0.0
  0
INSERT
  2
POCKET012
  8
0
 10
0.0
 20
0.0
 30
0.0
  0
INSERT
  2
FILLET015
  8
0
 10
0.0
 20
0.0
 30
0.0
  0
ENDSEC
  0
EOF
