DBRep_DrawableShape

CASCADE Topology V1, (c) Matra-Datavision
Locations 0
Curve2ds 5
1 3.1415926535897931 8.3266726846886741e-16 0 1 
1 6.2831853071795853 59.999999999939995 -1 0 
1 6.2831853071795862 0 0 1 
1 0 0 0 1 
1 0 0 1 0 
Curves 23
1 0 0 0 0 0 1 
1 0 0 35 -0 1 0 
1 0 140 0 0 0 1 
1 0 0 0 -0 1 0 
1 0 0 35 1 0 -0 
1 59.999999999940002 0 35 0 0 1 
1 59.999999999940002 0 42.5 1 0 -0 
1 119.99999999988 0 35 0 0 1 
1 180 0 0 0 0 1 
1 0 0 0 1 0 -0 
1 0 140 35 1 0 -0 
8 0 15
1 59.999999999940002 0 35 0 1 0 
1 59.999999999940002 15 35 1 0 -0 
8 0 15
1 119.99999999988 15 35 0 -1 0 
1 180 0 35 0 1 0 
1 0 140 0 1 0 -0 
1 180 140 0 0 0 1 
1 180 0 0 -0 1 0 
1 119.99999999988 15 35 0 0 1 
2 119.99999999988 7.5 42.5 -1 1.1102230246251565e-16 -1.1102230246251565e-16 1.1102230246251565e-16 1 0 1.1102230246251565e-16 -1.2325951644078309e-32 -1 7.5
1 59.999999999940002 15 35 0 0 1 
7 0 0  1 2 2  59.999999999940002 15 42.5  119.99999999988 14.999999999999993 42.500000000000007 
 0 2 59.999999999939995 2
2 59.999999999940002 7.5 42.5 1 -1.1102230246251565e-16 1.1102230246251565e-16 1.1102230246251565e-16 1 0 -1.1102230246251565e-16 1.2325951644078309e-32 1 7.5
Polygon3D 0
PolygonOnTriangulations 48
2 1 2 
p 0.7200000008 1 0 35 
2 8 1 
p 0.7200000008 1 0 35 
2 2 3 
p 0.7200000008 1 0 140 
2 3 1 
p 0.7200000008 1 0 140 
2 4 3 
p 0.7200000008 1 0 35 
2 1 4 
p 0.7200000008 1 0 35 
2 1 4 
p 0.7200000008 1 0 140 
2 1 2 
p 0.7200000008 1 0 140 
2 1 2 
p 0.7200000008 1 0 59.99999999994 
2 3 4 
p 0.7200000008 1 0 59.99999999994 
2 2 3 
p 0.7200000008 1 0 7.5 
2 21 3 
p 0.7200000008 1 0 7.5 
2 21 3 
p 0.7200000008 1 0 59.99999999994 
2 3 4 
p 0.7200000008 1 0 59.99999999994 
2 5 4 
p 0.7200000008 1 0 7.5 
2 2 4 
p 0.7200000008 1 0 7.5 
2 5 6 
p 0.7200000008 1 119.99999999988 180 
2 7 8 
p 0.7200000008 1 119.99999999988 180 
2 7 6 
p 0.7200000008 1 0 35 
2 1 2 
p 0.7200000008 1 0 35 
2 8 7 
p 0.7200000008 1 0 180 
2 1 4 
p 0.7200000008 1 0 180 
2 1 2 
p 0.7200000008 1 0 180 
2 4 3 
p 0.7200000008 1 0 180 
2 4 5 
p 0.7200000008 1 0 15 
2 21 1 
p 0.7200000008 1 0 15 
2 5 6 
p 0.7200000008 1 0 59.99999999994 
2 1 2 
p 0.7200000008 1 0 59.99999999994 
2 6 7 
p 0.7200000008 1 0 15 
2 1 2 
p 0.7200000008 1 0 15 
2 8 2 
p 0.7200000008 1 0 140 
2 2 3 
p 0.7200000008 1 0 140 
2 1 2 
p 0.7200000008 1 0 180 
2 2 3 
p 0.7200000008 1 0 180 
2 2 3 
p 0.7200000008 1 0 35 
2 4 3 
p 0.7200000008 1 0 35 
2 4 3 
p 0.7200000008 1 0 140 
2 1 4 
p 0.7200000008 1 0 140 
2 1 3 
p 0.7200000008 1 0 7.5 
2 2 3 
p 0.7200000008 1 0 7.5 
19 3 4 5 6 7 8 9 10 11 12 13 14 15 16 17 18 19 20 2 
p 0.7200000008 1 3.14159265358979 3.31612557878923 3.49065850398866 3.66519142918809 3.83972435438752 4.01425727958696 4.18879020478639 4.36332312998582 4.53785605518526 4.71238898038469 4.88692190558412 5.06145483078355 5.23598775598299 5.41052068118242 5.58505360638185 5.75958653158128 5.93411945678072 6.10865238198015 6.28318530717959 
19 4 5 6 7 8 9 10 11 12 13 14 15 16 17 18 19 20 21 3 
p 0.7200000008 1 3.14159265358979 3.31612557878923 3.49065850398866 3.66519142918809 3.83972435438752 4.01425727958696 4.18879020478639 4.36332312998582 4.53785605518526 4.71238898038469 4.88692190558412 5.06145483078355 5.23598775598299 5.41052068118242 5.58505360638185 5.75958653158128 5.93411945678072 6.10865238198015 6.28318530717959 
2 1 4 
p 0.7200000008 1 0 7.5 
2 1 2 
p 0.7200000008 1 0 7.5 
2 1 2 
p 0.7200000008 1 0 59.99999999994 
2 4 3 
p 0.7200000008 1 0 59.99999999994 
19 1 22 23 24 25 26 27 28 29 30 31 32 33 34 35 36 37 38 21 
p 0.7200000008 1 0 0.174532925199433 0.349065850398866 0.523598775598299 0.698131700797732 0.872664625997165 1.0471975511966 1.22173047639603 1.39626340159546 1.5707963267949 1.74532925199433 1.91986217719376 2.0943951023932 2.26892802759263 2.44346095279206 2.61799387799149 2.79252680319093 2.96705972839036 3.14159265358979 
19 2 4 5 6 7 8 9 10 11 12 13 14 15 16 17 18 19 20 3 
p 0.7200000008 1 0 0.174532925199433 0.349065850398866 0.523598775598299 0.698131700797732 0.872664625997165 1.0471975511966 1.22173047639603 1.39626340159546 1.5707963267949 1.74532925199433 1.91986217719376 2.0943951023932 2.26892802759263 2.44346095279206 2.61799387799149 2.79252680319093 2.96705972839036 3.14159265358979 
Surfaces 10
1 0 0 0 1 0 -0 0 0 1 0 -1 0 
1 0 0 0 -0 1 0 0 0 1 1 0 -0 
2 59.999999999940002 7.5 42.5 1 -1.1102230246251565e-16 1.1102230246251565e-16 1.1102230246251565e-16 1 0 -1.1102230246251565e-16 1.2325951644078309e-32 1 7.5
1 0 0 35 0 0 1 1 0 -0 -0 1 0 
1 0 140 0 -0 1 0 0 0 1 1 0 -0 
1 0 0 0 0 0 1 1 0 -0 -0 1 0 
1 180 0 0 1 0 -0 0 0 1 0 -1 0 
1 119.99999999988 0 35 1 0 -0 0 0 1 0 -1 0 
1 59.999999999940002 15 35 -0 1 0 0 0 1 1 0 -0 
1 59.999999999940002 0 35 1 0 -0 0 0 1 0 -1 0 
Triangulations 10
4 2 1 0
0 0 0 0 0 35 0 140 35 0 140 0 0 0 35 0 35 -140 0 -140 2 4 3 2 1 4 
8 6 1 3.5527136788005e-15
0 0 35 59.99999999994 0 35 59.99999999994 0 42.5 119.99999999988 0 42.5 119.99999999988 0 35 180 0 35 180 0 0 0 0 0 35 0 35 59.99999999994 42.5 59.99999999994 42.5 119.99999999988 35 119.99999999988 35 180 0 180 0 0 2 8 1 4 2 3 4 5 2 7 8 2 7 2 5 6 7 5 
8 6 1 0
0 140 35 180 140 35 0 0 35 59.99999999994 0 35 59.99999999994 15 35 119.99999999988 15 35 119.99999999988 0 35 180 0 35 0 140 180 140 0 0 59.99999999994 0 59.99999999994 15 119.99999999988 15 119.99999999988 0 180 0 5 3 4 1 3 5 8 6 7 2 5 6 2 1 5 2 6 8 
4 2 1 0
0 140 0 180 140 0 180 140 35 0 140 35 0 0 0 180 35 180 35 0 3 2 1 3 1 4 
4 2 1 0
0 0 0 0 140 0 180 140 0 180 0 0 0 0 0 140 180 140 180 0 3 2 1 3 1 4 
21 19 1 3.5527136788005e-15
59.99999999994 15 35 59.99999999994 15 42.5 59.99999999994 0 42.5 59.99999999994 14.8860581475916 43.802361332502 59.99999999994 14.5476946558943 45.0651510749425 59.99999999994 13.9951905283833 46.25 59.99999999994 13.2453333233923 47.320907072649 59.99999999994 12.320907072649 48.2453333233923 59.99999999994 11.25 48.9951905283833 59.99999999994 10.0651510749425 49.5476946558943 59.99999999994 8.80236133250198 49.8860581475916 59.99999999994 7.5 50 59.99999999994 6.19763866749802 49.8860581475916 59.99999999994 4.93484892505748 49.5476946558943 59.99999999994 3.75 48.9951905283833 59.99999999994 2.67909292735096 48.2453333233923 59.99999999994 1.75466667660767 47.320907072649 59.99999999994 1.00480947161671 46.25 59.99999999994 0.452305344105691 45.0651510749425 59.99999999994 0.113941852408441 43.802361332502 59.99999999994 0 35 0 -15 7.5 -15 7.5 0 8.80236133250198 -14.8860581475916 10.0651510749425 -14.5476946558943 11.25 -13.9951905283833 12.320907072649 -13.2453333233923 13.2453333233923 -12.320907072649 13.9951905283833 -11.25 14.5476946558943 -10.0651510749425 14.8860581475916 -8.80236133250198 15 -7.5 14.8860581475916 -6.19763866749802 14.5476946558943 -4.93484892505748 13.9951905283833 -3.75 13.2453333233923 -2.67909292735096 12.320907072649 -1.75466667660767 11.25 -1.00480947161671 10.0651510749425 -0.452305344105691 8.80236133250199 -0.113941852408441 0 0 17 2 4 17 4 5 17 5 6 17 6 7 17 7 8 17 8 9 17 9 10 17 10 11 17 11 12 17 12 13 17 13 14 17 14 15 17 15 16 17 18 19 17 19 20 17 20 3 17 3 2 3 1 2 3 21 1 
38 36 1 0.0285397643119183
59.99999999994 15 42.5 119.99999999988 15 42.5 119.99999999988 0 42.5 119.99999999988 0.113941852408439 43.802361332502 119.99999999988 0.452305344105686 45.0651510749425 119.99999999988 1.00480947161671 46.25 119.99999999988 1.75466667660766 47.320907072649 119.99999999988 2.67909292735095 48.2453333233923 119.99999999988 3.74999999999999 48.9951905283833 119.99999999988 4.93484892505747 49.5476946558943 119.99999999988 6.19763866749801 49.8860581475916 119.99999999988 7.49999999999998 50 119.99999999988 8.80236133250196 49.8860581475916 119.99999999988 10.0651510749425 49.5476946558943 119.99999999988 11.25 48.9951905283833 119.99999999988 12.320907072649 48.2453333233923 119.99999999988 13.2453333233923 47.3209070726491 119.99999999988 13.9951905283833 46.25 119.99999999988 14.5476946558943 45.0651510749425 119.99999999988 14.8860581475916 43.802361332502 59.99999999994 0 42.5 59.99999999994 14.8860581475916 43.802361332502 59.99999999994 14.5476946558943 45.0651510749425 59.99999999994 13.9951905283833 46.25 59.99999999994 13.2453333233923 47.320907072649 59.99999999994 12.320907072649 48.2453333233923 59.99999999994 11.25 48.9951905283833 59.99999999994 10.0651510749425 49.5476946558943 59.99999999994 8.80236133250198 49.8860581475916 59.99999999994 7.5 50 59.99999999994 6.19763866749802 49.8860581475916 59.99999999994 4.93484892505748 49.5476946558943 59.99999999994 3.75 48.9951905283833 59.99999999994 2.67909292735096 48.2453333233923 59.99999999994 1.75466667660767 47.320907072649 59.99999999994 1.00480947161671 46.25 59.99999999994 0.452305344105691 45.0651510749425 59.99999999994 0.113941852408441 43.802361332502 0 0 0 59.99999999994 3.14159265358979 59.99999999994 2.96705972839036 59.99999999994 2.79252680319093 59.99999999994 2.61799387799149 59.99999999994 2.44346095279206 59.99999999994 2.26892802759263 59.99999999994 2.0943951023932 59.99999999994 1.91986217719376 59.99999999994 1.74532925199433 59.99999999994 1.5707963267949 59.99999999994 1.39626340159546 59.99999999994 1.22173047639603 59.99999999994 1.0471975511966 59.99999999994 0.872664625997166 59.99999999994 0.698131700797734 59.99999999994 0.523598775598301 59.99999999994 0.349065850398868 59.99999999994 0.174532925199435 59.99999999994 3.14159265358979 8.32667268468867e-16 0.174532925199433 0 0.349065850398866 0 0.523598775598299 0 0.698131700797732 0 0.872664625997165 0 1.0471975511966 0 1.22173047639603 0 1.39626340159546 0 1.5707963267949 0 1.74532925199433 0 1.91986217719376 0 2.0943951023932 0 2.26892802759263 0 2.44346095279206 0 2.61799387799149 0 2.79252680319093 0 2.96705972839036 0 20 2 1 20 1 22 19 22 23 19 20 22 18 23 24 18 19 23 17 24 25 17 18 24 16 25 26 16 17 25 15 26 27 15 16 26 14 27 28 14 15 27 13 28 29 13 14 28 12 29 30 12 13 29 11 30 31 11 12 30 10 31 32 10 11 31 9 32 33 9 10 32 8 33 34 8 9 33 7 34 35 7 8 34 6 7 35 6 35 36 5 6 36 5 36 37 4 5 37 4 37 38 3 4 38 3 38 21 
21 19 1 3.60822483003176e-15
119.99999999988 15 35 119.99999999988 0 35 119.99999999988 15 42.5 119.99999999988 0 42.5 119.99999999988 0.113941852408439 43.802361332502 119.99999999988 0.452305344105686 45.0651510749425 119.99999999988 1.00480947161671 46.25 119.99999999988 1.75466667660766 47.320907072649 119.99999999988 2.67909292735095 48.2453333233923 119.99999999988 3.74999999999999 48.9951905283833 119.99999999988 4.93484892505747 49.5476946558943 119.99999999988 6.19763866749801 49.8860581475916 119.99999999988 7.49999999999998 50 119.99999999988 8.80236133250196 49.8860581475916 119.99999999988 10.0651510749425 49.5476946558943 119.99999999988 11.25 48.9951905283833 119.99999999988 12.320907072649 48.2453333233923 119.99999999988 13.2453333233923 47.3209070726491 119.99999999988 13.9951905283833 46.25 119.99999999988 14.5476946558943 45.0651510749425 119.99999999988 14.8860581475916 43.802361332502 0 -15 0 0 7.5 -15 7.5 0 8.80236133250198 -0.113941852408439 10.0651510749425 -0.452305344105685 11.25 -1.00480947161671 12.320907072649 -1.75466667660766 13.2453333233923 -2.67909292735095 13.9951905283833 -3.74999999999999 14.5476946558943 -4.93484892505747 14.8860581475916 -6.19763866749801 15 -7.49999999999998 14.8860581475916 -8.80236133250196 14.5476946558943 -10.0651510749425 13.9951905283833 -11.25 13.2453333233923 -12.320907072649 12.3209070726491 -13.2453333233923 11.25 -13.9951905283833 10.0651510749425 -14.5476946558943 8.802361332502 -14.8860581475916 9 5 4 9 6 5 9 7 6 9 8 7 9 11 10 9 12 11 9 13 12 9 14 13 9 15 14 9 16 15 9 17 16 9 18 17 9 19 18 9 20 19 9 21 20 9 3 21 9 4 3 4 2 1 4 1 3 
4 2 1 0
180 0 0 180 0 35 180 140 35 180 140 0 0 0 35 0 35 -140 0 -140 2 4 3 2 1 4 
4 2 1 4.44089209850063e-16
59.99999999994 15 35 119.99999999988 15 35 119.99999999988 15 42.5 59.99999999994 15 42.5 0 0 0 59.99999999994 7.5 59.99999999994 7.5 0 3 2 1 3 1 4 

TShapes 62
Ve
1.000400070007e-07
0 0 0
0 0

0101101
*
Ve
1.000400070007e-07
0 0 35
0 0

0101101
*
Ed
 1.000400070007e-07 1 1 0
1  1 0 0 35
6  1 1 0
6  2 2 0
0

0101000
+62 0 -61 0 *
Ve
1.000400070007e-07
0 140 35
0 0

0101101
*
Ed
 1.000400070007e-07 1 1 0
1  2 0 0 140
6  3 1 0
6  4 3 0
0

0101000
-59 0 +61 0 *
Ve
1.000400070007e-07
0 140 0
0 0

0101101
*
Ed
 1.000400070007e-07 1 1 0
1  3 0 0 35
6  5 1 0
6  6 4 0
0

0101000
-59 0 +57 0 *
Ed
 1.000400070007e-07 1 1 0
1  4 0 0 140
6  7 1 0
6  8 5 0
0

0101000
-57 0 +62 0 *
Wi

0101100
-60 0 -58 0 +56 0 +55 0 *
Fa
0  1e-07 1 0
2  1
0111000
+54 0 *
Ve
1.000400070007e-07
59.99999999994 0 35
0 0

0101101
*
Ed
 1.000400070007e-07 1 1 0
1  5 0 0 59.99999999994
6  9 2 0
6  10 3 0
0

0101000
+61 0 -52 0 *
Ve
6.74350578844158e-07
59.99999999994 0 42.5
0 0

0101101
*
Ed
 1.0002000150005e-07 1 1 0
1  6 0 0 7.5
6  11 2 0
6  12 6 0
0

0101000
-50 0 +52 0 *
Ve
7.49219756368464e-07
119.99999999988 0 42.5
0 0

0101101
*
Ed
 1.0001000025e-07 1 1 0
1  7 0 0 59.99999999994
2  1 3 0 0 59.99999999994
6  13 7 0
6  14 2 0
0

0101000
+50 0 -48 0 *
Ve
1.000400070007e-07
119.99999999988 0 35
0 0

0101101
*
Ed
 1.0002000150005e-07 1 1 0
1  8 0 0 7.5
6  15 2 0
6  16 8 0
0

0101000
-48 0 +46 0 *
Ve
1.000400070007e-07
180 0 35
0 0

0101101
*
Ed
 1.000400070007e-07 1 1 0
1  5 0 119.99999999988 180
6  17 2 0
6  18 3 0
0

0101000
+46 0 -44 0 *
Ve
1.000400070007e-07
180 0 0
0 0

0101101
*
Ed
 1.000400070007e-07 1 1 0
1  9 0 0 35
6  19 2 0
6  20 9 0
0

0101000
-44 0 +42 0 *
Ed
 1.000400070007e-07 1 1 0
1  10 0 0 180
6  21 2 0
6  22 5 0
0

0101000
-42 0 +62 0 *
Wi

0101100
+51 0 +49 0 +47 0 -45 0 +43 0 -41 0 -40 0 +60 0 *
Fa
0  1e-07 2 0
2  2
0101000
+39 0 *
Ve
1.000400070007e-07
180 140 35
0 0

0101101
*
Ed
 1.000400070007e-07 1 1 0
1  11 0 0 180
6  23 3 0
6  24 4 0
0

0101000
-37 0 +59 0 *
Ve
1.0002000150005e-07
59.99999999994 15 35
0 0

0101101
*
Ed
 1.0001000025e-07 1 1 0
1  12 0 0 15
6  25 3 0
6  26 6 0
0

0101000
+52 0 -35 0 *
Ve
1.0002000150005e-07
119.99999999988 15 35
0 0

0101101
*
Ed
 1.0002000150005e-07 1 1 0
1  13 0 0 59.99999999994
6  27 3 0
6  28 10 0
0

0101000
-33 0 +35 0 *
Ed
 1.0001000025e-07 1 1 0
1  14 0 0 15
6  29 3 0
6  30 8 0
0

0101000
+33 0 -46 0 *
Ed
 1.000400070007e-07 1 1 0
1  15 0 0 140
6  31 3 0
6  32 9 0
0

0101000
-37 0 +44 0 *
Wi

0101100
-36 0 -58 0 +51 0 +34 0 +32 0 +31 0 +43 0 +30 0 *
Fa
0  1e-07 4 0
2  3
0101000
+29 0 *
Ve
1.000400070007e-07
180 140 0
0 0

0101101
*
Ed
 1.000400070007e-07 1 1 0
1  16 0 0 180
6  33 4 0
6  34 5 0
0

0101000
-27 0 +57 0 *
Ed
 1.000400070007e-07 1 1 0
1  17 0 0 35
6  35 4 0
6  36 9 0
0

0101000
-37 0 +27 0 *
Wi

0101100
-26 0 -25 0 +36 0 +56 0 *
Fa
0  1e-07 5 0
2  4
0111000
+24 0 *
Ed
 1.000400070007e-07 1 1 0
1  18 0 0 140
6  37 5 0
6  38 9 0
0

0101000
-27 0 +42 0 *
Wi

0101100
-55 0 -26 0 +22 0 +40 0 *
Fa
0  1e-07 6 0
2  5
0111000
+21 0 *
Wi

0101100
-41 0 -30 0 +25 0 +22 0 *
Fa
0  1e-07 7 0
2  9
0111000
+19 0 *
Ve
1.0001000025e-05
119.99999999988 15 42.5
0 0

0101101
*
Ed
 1.0002000150005e-07 1 1 0
1  19 0 0 7.5
6  39 8 0
6  40 10 0
0

0101000
+33 0 -17 0 *
Ed
 1.00015000750013e-07 1 1 0
1  20 0 3.14159265358979 6.28318530717959
2  2 3 0 3.14159265358979 6.28318530717959
6  41 7 0
6  42 8 0
0

0101000
-17 0 +48 0 *
Wi

0101100
-31 0 +16 0 -15 0 -45 0 *
Fa
0  1e-07 8 0
2  8
0101000
+14 0 *
Ve
1.0001000025e-05
59.99999999994 15 42.5
0 0

0101101
*
Ed
 1.0002000150005e-07 1 1 0
1  21 0 0 7.5
6  43 10 0
6  44 6 0
0

0101000
+35 0 -12 0 *
Ed
 1.0001000025e-05 1 1 0
1  22 0 0 59.99999999994
3  3 4C0 3 0 0 59.99999999994
6  45 7 0
6  46 10 0
0

0101000
+12 0 -17 0 *
Wi

0101100
-32 0 -16 0 +11 0 +10 0 *
Fa
0  1e-07 9 0
2  10
0111000
+9 0 *
Ed
 1.00015000750013e-07 1 1 0
1  23 0 0 3.14159265358979
2  5 3 0 0 3.14159265358979
6  47 7 0
6  48 6 0
0

0101000
+12 0 -50 0 *
Wi

0101100
+11 0 +7 0 -49 0 +34 0 *
Fa
0  1e-07 10 0
2  6
0101000
+6 0 *
Wi

0101100
-10 0 +15 0 +47 0 +7 0 *
Fa
0  1e-07 3 0
2  7
0101000
+4 0 *
Sh

0101100
-53 0 -38 0 +28 0 +23 0 -20 0 +18 0 +13 0 +8 0 -5 0 +3 0 
*
So

0100000
+2 0 *

+1 0 