DBRep_DrawableShape

CASCADE Topology V1, (c) Matra-Datavision
Locations 23
1
              1               0               0               0 
              0 -0.342020143325669 -0.939692620785908 50.0020874583436 
              0 0.939692620785908 -0.342020143325669 49.9881614354466 
1
              1               0               0             -90 
              0              -1               0 73.7499999966515 
              0               0              -1              35 
1
              1               0               0               0 
              0               1               0               0 
              0               0               1               0 
2  2 1 3 1 2 -1 0
2  3 -1 2 -1 0
1
              1               0               0               0 
              0               1               0               0 
              0               0               1              -6 
1
              1               0               0               0 
              0               1               0               0 
              0               0               1              -6 
1
              1               0               0               0 
              0               1               0               0 
              0               0               1               0 
2  2 1 6 1 7 -1 8 -1 2 -1 0
2  7 -1 8 -1 2 -1 0
1
              1               0               0               0 
              0               1               0               0 
              0               0               1               0 
2  2 1 11 1 3 -1 2 -1 0
2  2 1 3 -1 2 -1 0
2  2 1 7 -1 8 -1 2 -1 0
2  6 1 7 -1 8 -1 2 -1 0
2  2 -1 0
2  2 1 3 1 0
2  2 1 8 1 7 1 0
2  2 1 8 1 7 1 2 -1 0
2  6 1 2 -1 0
2  6 -1 0
1
              1               0               0               0 
              0               1               0               0 
              0               0               1             5.7 
2  22 -1 0
Curve2ds 54
1 0 140 1 0 
1 0 0 0 1 
1 4.7123889803846897 -8.3266726846886741e-16 0 1 
1 0 7.5 1 0 
1 1.4464662948891284e-09 0 0 1 
1 0 7.5 1 0 
1 180 0 0 1 
1 4.7123889803846879 -119.99999999988 0 1 
1 0 7.5 1 0 
1 0 -54.5 1 0 
1 82 0 1 0 
1 0 -54.5 1 0 
1 82 -6 1 0 
1 0 -54.5 1 0 
1 90 128.2499999966515 1 0 
1 -82 0 0 1 
1 54.5 0 1 0 
1 -82 0 0 1 
1 54.5 -6 1 0 
1 -82 0 0 1 
1 8 73.749999996651496 0 -1 
1 0 54.5 1 0 
1 82 0 1 0 
1 0 54.5 1 0 
1 82 -6 1 0 
1 0 54.5 1 0 
1 90 19.249999996651496 1 0 
1 82 0 0 1 
1 54.5 0 1 0 
1 82 0 0 1 
1 54.5 -6 1 0 
1 82 0 0 1 
1 172 73.749999996651496 0 -1 
1 0 59.999999999940002 1 0 
1 1.5707963267948966 8.3266726846886741e-16 0 1 
1 3.1415926550362556 0 0 1 
1 1.5707963267948983 -119.99999999988 0 1 
1 0 0 1 0 
1 0 59.999999999940002 1 0 
1 3.1415926550362752 59.999999999940002 -1 0 
1 1.4464874927474105e-09 119.99999999988 1 0 
1 0 0 1 0 
1 0 0 0 -1 
1 0 0 0 -1 
1 164 0 0 -1 
1 0 0 0 -1 
1 109 0 0 -1 
1 0 0 0 -1 
1 109 0 0 -1 
1 164 0 0 -1 
1 -66.666666666499992 0 0 1 
1 0 -50 1 0 
1 66.666666666499992 0 0 1 
1 0 50 1 0 
Curves 34
1 0 140 35 1 0 -0 
1 180 140 35 0 0 1 
1 0 140 50 1 0 -0 
1 0 140 35 0 0 1 
1 0 0 35 -0 1 0 
1 0 7.5 35 1 0 -0 
1 0 7.5 35 1 0 -0 
1 180 0 35 -0 1 0 
1 90 128.2499999966515 35 1 -0 0 
1 8 73.749999996651496 35 0 -1 -0 
1 90 19.249999996651496 35 1 -0 0 
1 172 73.749999996651496 35 0 -1 -0 
1 180 0 50 0 1 0 
2 179.99999999982001 7.5 42.5 1 -1.1102230246251565e-16 1.1102230246251565e-16 1.1102230246251565e-16 1 0 -1.1102230246251565e-16 1.2325951644078309e-32 1 7.5
1 0 0 50 -0 1 0 
1 0 7.5 50 1 0 -0 
1 0 7.5 50 1 0 -0 
2 0 7.5 42.5 1 -1.1102230246251565e-16 1.1102230246251565e-16 1.1102230246251565e-16 1 0 -1.1102230246251565e-16 1.2325951644078309e-32 1 7.5
2 59.999999999940002 7.5 42.5 1 -1.1102230246251565e-16 1.1102230246251565e-16 1.1102230246251565e-16 1 0 -1.1102230246251565e-16 1.2325951644078309e-32 1 7.5
8 0 3.1415926535897905
2 59.999999999940002 7.5 42.5 -1 0 -0 -0 -1.7645144604709155e-14 1 0 1 1.7645144604709155e-14 7.5
8 0 3.1415926535897905
2 119.99999999988 7.5 42.5 1 0 -0 -0 2.0368891758456206e-14 -1 0 1 2.0368891758456206e-14 7.5
2 119.99999999988 7.5 42.5 1 -1.1102230246251565e-16 1.1102230246251565e-16 1.1102230246251565e-16 1 0 -1.1102230246251565e-16 1.2325951644078309e-32 1 7.5
1 -82 -54.5 0 0 0 -1 
1 82 -54.5 0 0 0 -1 
1 -82 54.5 0 0 0 -1 
1 82 54.5 0 0 0 -1 
1 23.333333333500008 123.7499999966515 41 0 0 1 
1 23.333333333500008 23.749999996651496 41 0 0 1 
1 23.333333333500008 73.749999996651496 41 0 -1 0 
1 156.66666666649999 123.7499999966515 41 0 0 1 
1 90 123.7499999966515 41 1 0 0 
1 156.66666666649999 23.749999996651496 41 0 0 1 
1 156.66666666649999 73.749999996651496 41 0 -1 0 
1 90 23.749999996651496 41 1 0 0 
Polygon3D 0
PolygonOnTriangulations 84
2 1 2 
p 0.7200000008 1 0 180 
2 2 4 
p 0.7200000008 1 0 180 
2 2 3 
p 0.7200000008 1 0 15 
2 2 3 
p 0.7200000008 1 0 15 
2 4 3 
p 0.7200000008 1 0 180 
2 2 3 
p 0.7200000008 1 0 180 
2 1 4 
p 0.7200000008 1 0 15 
2 2 3 
p 0.7200000008 1 0 15 
2 1 2 
p 0.7200000008 1 7.49999976292422 140 
2 1 2 
p 0.7200000008 1 7.49999976292422 140 
2 20 2 
p 0.7200000008 1 0 59.99999999994 
2 1 3 
p 0.7200000008 1 0 59.99999999994 
2 2 20 
p 0.7200000008 1 59.99999999994 119.99999999988 
2 3 5 
p 0.7200000008 1 59.99999999994 119.99999999988 
2 6 4 
p 0.7200000008 1 7.499999993303 140 
2 1 2 
p 0.7200000008 1 7.499999993303 140 
2 20 2 
p 0.7200000008 1 119.99999999988 180 
2 5 6 
p 0.7200000008 1 119.99999999988 180 
2 7 8 
p 0.7200000008 1 -82 82 
2 1 3 
p 0.7200000008 1 -82 82 
2 2 4 
p 0.7200000008 1 -82 82 
2 1 3 
p 0.7200000008 1 -82 82 
2 7 9 
p 0.7200000008 1 -54.5 54.5 
2 2 4 
p 0.7200000008 1 -54.5 54.5 
2 1 3 
p 0.7200000008 1 -54.5 54.5 
2 1 2 
p 0.7200000008 1 -54.5 54.5 
2 9 10 
p 0.7200000008 1 -82 82 
2 1 3 
p 0.7200000008 1 -82 82 
2 2 4 
p 0.7200000008 1 -82 82 
2 2 4 
p 0.7200000008 1 -82 82 
2 8 10 
p 0.7200000008 1 -54.5 54.5 
2 1 3 
p 0.7200000008 1 -54.5 54.5 
2 2 4 
p 0.7200000008 1 -54.5 54.5 
2 3 4 
p 0.7200000008 1 -54.5 54.5 
2 4 3 
p 0.7200000008 1 7.50000056025517 140 
2 5 3 
p 0.7200000008 1 7.50000056025517 140 
19 1 3 4 5 6 7 8 9 10 11 12 13 14 15 16 17 18 19 2 
p 0.7200000008 1 1.57079625209421 1.74532918141887 1.91986211074354 2.09439504006821 2.26892796939288 2.44346089871755 2.61799382804221 2.79252675736688 2.96705968669155 3.14159261601622 3.31612554534088 3.49065847466555 3.66519140399022 3.83972433331489 4.01425726263955 4.18879019196422 4.36332312128889 4.53785605061355 4.71238897993822 
19 4 5 6 7 8 9 10 11 12 13 14 15 16 17 18 19 20 21 1 
p 0.7200000008 1 1.57079625209421 1.74532918141887 1.91986211074354 2.09439504006821 2.26892796939288 2.44346089871755 2.61799382804221 2.79252675736688 2.96705968669155 3.14159261601622 3.31612554534088 3.49065847466555 3.66519140399022 3.83972433331489 4.01425726263955 4.18879019196422 4.36332312128889 4.53785605061355 4.71238897993822 
2 1 2 
p 0.7200000008 1 7.50000023707589 140 
2 4 3 
p 0.7200000008 1 7.50000023707589 140 
2 21 1 
p 0.7200000008 1 0 59.99999999994 
2 1 4 
p 0.7200000008 1 0 59.99999999994 
2 1 19 
p 0.7200000008 1 59.99999999994 119.99999999988 
2 4 6 
p 0.7200000008 1 59.99999999994 119.99999999988 
2 21 1 
p 0.7200000008 1 119.99999999988 180 
2 6 5 
p 0.7200000008 1 119.99999999988 180 
19 21 22 23 24 25 26 27 28 29 30 31 32 33 34 35 36 37 38 20 
p 0.7200000008 1 1.57079630177262 1.74532922697205 1.91986215217148 2.09439507737092 2.26892800257035 2.44346092776978 2.61799385296922 2.79252677816865 2.96705970336809 3.14159262856752 3.31612555376695 3.49065847896639 3.66519140416582 3.83972432936525 4.01425725456469 4.18879017976412 4.36332310496355 4.53785603016299 4.71238895536242 
19 4 5 6 7 8 9 10 11 12 13 14 15 16 17 18 19 20 21 1 
p 0.7200000008 1 1.57079630177262 1.74532922697205 1.91986215217148 2.09439507737092 2.26892800257035 2.44346092776978 2.61799385296922 2.79252677816865 2.96705970336809 3.14159262856752 3.31612555376695 3.49065847896639 3.66519140416582 3.83972432936525 4.01425725456469 4.18879017976412 4.36332310496355 4.53785603016299 4.71238895536242 
19 1 3 4 5 6 7 8 9 10 11 12 13 14 15 16 17 18 19 2 
p 0.7200000008 1 1.57079632679491 1.74532925199435 1.91986217719378 2.09439510239321 2.26892802759265 2.44346095279208 2.61799387799151 2.79252680319095 2.96705972839038 3.14159265358981 3.31612557878925 3.49065850398868 3.66519142918811 3.83972435438755 4.01425727958698 4.18879020478641 4.36332312998584 4.53785605518528 4.71238898038471 
19 1 19 20 21 22 23 24 25 26 27 28 29 30 31 32 33 34 35 2 
p 0.7200000008 1 1.57079632679491 1.74532925199435 1.91986217719378 2.09439510239321 2.26892802759265 2.44346095279208 2.61799387799151 2.79252680319095 2.96705972839038 3.14159265358981 3.31612557878925 3.49065850398868 3.66519142918811 3.83972435438755 4.01425727958698 4.18879020478641 4.36332312998584 4.53785605518528 4.71238898038471 
18 1 3 4 5 6 7 8 9 10 11 12 13 14 15 16 17 18 2 
p 0.7200000008 1 0 0.184799567858223 0.369599135716446 0.554398703574669 0.739198271432892 0.923997839291115 1.10879740714934 1.29359697500756 1.47839654286578 1.66319611072401 1.84799567858223 2.03279524644045 2.21759481429868 2.4023943821569 2.58719395001512 2.77199351787335 2.95679308573157 3.14159265358979 
18 1 3 4 5 6 7 8 9 10 11 12 13 14 15 16 17 18 2 
p 0.7200000008 1 0 0.184799567858223 0.369599135716446 0.554398703574669 0.739198271432892 0.923997839291115 1.10879740714934 1.29359697500756 1.47839654286578 1.66319611072401 1.84799567858223 2.03279524644045 2.21759481429868 2.4023943821569 2.58719395001512 2.77199351787335 2.95679308573157 3.14159265358979 
18 20 21 22 23 24 25 26 27 28 29 30 31 32 33 34 35 36 19 
p 0.7200000008 1 0 0.184799567858223 0.369599135716446 0.554398703574669 0.739198271432892 0.923997839291115 1.10879740714934 1.29359697500756 1.47839654286578 1.66319611072401 1.84799567858223 2.03279524644045 2.21759481429868 2.4023943821569 2.58719395001512 2.77199351787335 2.95679308573157 3.14159265358979 
18 1 3 4 5 6 7 8 9 10 11 12 13 14 15 16 17 18 2 
p 0.7200000008 1 0 0.184799567858223 0.369599135716446 0.554398703574669 0.739198271432892 0.923997839291115 1.10879740714934 1.29359697500756 1.47839654286578 1.66319611072401 1.84799567858223 2.03279524644045 2.21759481429868 2.4023943821569 2.58719395001512 2.77199351787335 2.95679308573157 3.14159265358979 
19 21 22 23 24 25 26 27 28 29 30 31 32 33 34 35 36 37 38 20 
p 0.7200000008 1 1.57079632679491 1.74532925199435 1.91986217719378 2.09439510239321 2.26892802759265 2.44346095279208 2.61799387799151 2.79252680319095 2.96705972839038 3.14159265358981 3.31612557878925 3.49065850398868 3.66519142918811 3.83972435438755 4.01425727958698 4.18879020478641 4.36332312998584 4.53785605518528 4.71238898038471 
19 2 19 20 21 22 23 24 25 26 27 28 29 30 31 32 33 34 35 1 
p 0.7200000008 1 1.57079632679491 1.74532925199435 1.91986217719378 2.09439510239321 2.26892802759265 2.44346095279208 2.61799387799151 2.79252680319095 2.96705972839038 3.14159265358981 3.31612557878925 3.49065850398868 3.66519142918811 3.83972435438755 4.01425727958698 4.18879020478641 4.36332312998584 4.53785605518528 4.71238898038471 
2 1 2 
p 0.7200000008 1 0 6 
2 1 2 
p 0.7200000008 1 0 6 
2 3 4 
p 0.7200000008 1 0 6 
2 1 2 
p 0.7200000008 1 0 6 
2 3 4 
p 0.7200000008 1 0 6 
2 1 2 
p 0.7200000008 1 0 6 
2 3 4 
p 0.7200000008 1 0 6 
2 3 4 
p 0.7200000008 1 0 6 
2 1 2 
p 0.533333334132 1 0 5.7 
2 1 2 
p 0.533333334132 1 0 5.7 
2 3 4 
p 0.533333334132 1 0 5.7 
2 1 2 
p 0.533333334132 1 0 5.7 
2 2 4 
p 0.533333334132 1 -50 50 
2 1 3 
p 0.533333334132 1 -50 50 
2 1 2 
p 0.533333334132 1 -50 50 
2 3 4 
p 0.533333334132 1 0 5.7 
2 1 2 
p 0.533333334132 1 0 5.7 
2 2 4 
p 0.533333334132 1 -66.6666666665 66.6666666665 
2 1 3 
p 0.533333334132 1 -66.6666666665 66.6666666665 
2 1 3 
p 0.533333334132 1 -66.6666666665 66.6666666665 
2 3 4 
p 0.533333334132 1 0 5.7 
2 3 4 
p 0.533333334132 1 0 5.7 
2 2 4 
p 0.533333334132 1 -50 50 
2 1 3 
p 0.533333334132 1 -50 50 
2 3 4 
p 0.533333334132 1 -50 50 
2 2 4 
p 0.533333334132 1 -66.6666666665 66.6666666665 
2 1 3 
p 0.533333334132 1 -66.6666666665 66.6666666665 
2 2 4 
p 0.533333334132 1 -66.6666666665 66.6666666665 
Surfaces 20
1 0 140 35 -0 1 0 0 0 1 1 0 -0 
1 0 0 35 0 0 1 1 0 -0 -0 1 0 
2 0 7.5 42.5 1 -1.1102230246251565e-16 1.1102230246251565e-16 1.1102230246251565e-16 1 0 -1.1102230246251565e-16 1.2325951644078309e-32 1 7.5
2 0 7.5 42.5 1 -1.1102230246251563e-16 1.1102230246251565e-16 1.1102230230192574e-16 -1.4464653919077364e-09 -1 1.1102230262310555e-16 1 -1.4464653919077364e-09 7.5
2 119.99999999988 7.5 42.5 1 -1.1102230246251565e-16 1.1102230246251565e-16 1.1102230246251565e-16 1 0 -1.1102230246251565e-16 1.2325951644078309e-32 1 7.5
1 90 73.749999996651496 35 0 0 -1 1 -0 0 0 -1 -0 
1 -82 -54.5 0 0 -1 0 1 0 0 -0 0 1 
1 -82 -54.5 0 1 -0 0 0 1 0 -0 0 1 
1 -82 54.5 0 0 -1 0 1 0 0 -0 0 1 
1 82 -54.5 0 1 -0 0 0 1 0 -0 0 1 
1 180 0 35 1 0 -0 0 0 1 0 -1 0 
1 0 0 50 0 0 1 1 0 -0 -0 1 0 
1 0 0 35 1 0 -0 0 0 1 0 -1 0 
1 59.999999999940002 7.5 42.5 1 -1.1102230246251565e-16 1.1102230246251565e-16 1.1102230246251565e-16 1 0 -1.1102230246251565e-16 1.2325951644078309e-32 1 
1 119.99999999988 7.5 42.5 1 -1.1102230246251565e-16 1.1102230246251565e-16 1.1102230246251565e-16 1 0 -1.1102230246251565e-16 1.2325951644078309e-32 1 
1 23.333333333500008 123.7499999966515 41 1 0 -0 0 -1 0 0 -0 -1 
1 90 73.749999996651496 41 0 0 -1 1 0 0 0 -1 0 
1 23.333333333500008 123.7499999966515 41 0 1 0 1 0 0 0 0 -1 
1 156.66666666649999 123.7499999966515 41 1 0 -0 0 -1 0 0 -0 -1 
1 23.333333333500008 23.749999996651496 41 0 1 0 1 0 0 0 0 -1 
Triangulations 20
4 2 1 0
0 140 35 180 140 35 180 140 50 0 140 50 0 0 0 180 15 180 15 0 3 2 1 3 1 4 
10 10 1 1.39034090906875e-08
3.29565844521939e-16 7.499999812333 35 0 140 35 59.99999999994 7.50000000000015 35 180 140 35 119.99999999988 7.50000000000015 35 180 7.49999999665149 35 8 128.249999996651 35 172 128.249999996651 35 8 19.2499999966515 35 172 19.2499999966515 35 0 7.49999976292422 0 140 59.99999999994 7.5 180 140 119.99999999988 7.5 180 7.499999993303 8 128.249999996651 172 128.249999996651 8 19.2499999966515 172 19.2499999966515 3 9 1 2 9 7 2 1 9 10 5 6 4 7 8 4 8 10 4 2 7 4 10 6 10 9 3 10 3 5 
21 19 1 1.79994685985764e-10
180 7.49999999665149 35 180 140 35 180 140 50 180 7.50000056025517 50 179.99999999982 6.19763918877244 49.8860582395063 179.99999999982 4.93484939337835 49.5476948263492 179.99999999982 3.75000040481266 48.995190762102 179.99999999982 2.67909326172793 48.2453336039679 179.99999999982 1.75466693729589 47.3209073833252 179.99999999982 1.00480965892652 46.2500003244301 179.99999999982 0.452305461651298 45.0651513978964 179.99999999982 0.113941906715367 43.8023616404918 179.99999999982 5.32907051820075e-15 42.5000002818018 179.99999999982 0.113941808846615 41.1976389145494 179.99999999982 0.452305268887486 39.9348491317178 179.99999999982 1.00480937712469 38.750000163665 179.99999999982 1.75466657501843 37.6790930484203 179.99999999982 2.67909282998247 36.7546667583095 179.99999999982 3.74999991671756 36.0048095196998 179.99999999982 4.93484886376413 35.4523053664146 179.99999999982 6.19763863373116 35.1139418583625 7.105427357601e-15 -7.4999999966515 0 -140 15 -140 15 -7.50000056025516 14.8860582395063 -6.19763918877243 14.5476948263492 -4.93484939337836 13.995190762102 -3.75000040481265 13.2453336039679 -2.67909326172793 12.3209073833252 -1.75466693729589 11.2500003244301 -1.00480965892652 10.0651513978964 -0.452305461651292 8.80236164049183 -0.113941906715354 7.50000028180183 0 6.19763891454943 -0.113941808846619 4.9348491317178 -0.4523052688875 3.75000016366499 -1.00480937712467 2.67909304842029 -1.75466657501843 1.75466675830953 -2.67909282998247 1.00480951969985 -3.74999991671757 0.452305366414643 -4.93484886376413 0.113941858362448 -6.19763863373117 9 4 5 9 5 6 9 6 7 9 7 8 9 10 11 9 11 12 9 12 13 9 13 14 9 14 15 9 15 16 9 16 17 9 17 18 9 18 19 9 19 20 9 20 21 9 21 1 9 1 4 4 1 2 4 2 3 
6 4 1 1.06581410364015e-14
-3.29565884325547e-16 7.5000001876671 50 0 140 50 180 140 50 59.99999999994 7.49999999999987 50 180 7.50000056025517 50 119.99999999988 7.49999999999987 50 -3.29565884325547e-16 7.5000001876671 0 140 180 140 59.99999999994 7.49999999999987 180 7.50000056025517 119.99999999988 7.49999999999987 2 1 4 3 4 6 3 6 5 3 2 4 
21 19 1 9.79786667183686e-15
3.29565844521939e-16 7.499999812333 35 0 140 35 0 140 50 -3.29565884325547e-16 7.5000001876671 50 -9.64608318539459e-16 6.19763885231403 49.8860581801796 -1.06724025380182e-15 4.93484910140687 49.5476947200802 -1.13744463400205e-15 3.75000016252447 48.9951906222168 -1.17308833457287e-15 2.67909307111228 48.2453334440224 -1.17308833970904e-15 1.75466679723774 47.3209072164104 -1.13744464925449e-15 1.00480956545025 46.2500001625245 -1.06724027870711e-15 0.452305408291606 45.0651512512919 -9.64608352340853e-16 0.113941884996485 43.802361517318 -8.32667289304096e-16 2.66453525910038e-15 42.5000001876671 -6.75426052031812e-16 0.113941819820401 41.197638852314 -4.97662335950615e-16 0.45230527991978 39.9348491014068 -3.04777401620852e-16 1.00480937778319 38.7500001625244 -1.02631960167646e-16 1.75466655597762 37.6790930711122 1.02631901460977e-16 2.67909278358967 36.7546667972377 3.04777344697956e-16 3.74999983747559 36.0048095654502 4.97662282541065e-16 4.93484874870817 35.4523054082916 6.7542600375843e-16 6.19763848268209 35.1139418849965 0 -7.49999981233302 0 -140 15 -140 15 -7.5000001876671 14.8860581801796 -6.19763885231404 14.5476947200802 -4.93484910140685 13.9951906222168 -3.75000016252446 13.2453334440224 -2.67909307111228 12.3209072164104 -1.75466679723775 11.2500001625245 -1.00480956545024 10.0651512512919 -0.452305408291608 8.80236151731796 -0.113941884996478 7.50000018766706 0 6.19763885231399 -0.113941819820411 4.93484910140682 -0.452305279919784 3.75000016252443 -1.0048093777832 2.67909307111225 -1.75466655597762 1.75466679723771 -2.67909278358968 1.00480956545023 -3.7499998374756 0.452305408291591 -4.93484874870816 0.113941884996478 -6.19763848268209 9 4 5 9 5 6 9 6 7 9 7 8 9 10 11 9 11 12 9 12 13 9 13 14 9 14 15 9 15 16 9 16 17 9 17 18 9 18 19 9 19 20 9 20 21 9 21 1 9 1 4 4 1 2 4 2 3 
38 36 1 0.028539756133922
59.99999999994 7.49999999999987 50 59.99999999994 7.50000000000015 35 59.99999999994 6.19763866749789 49.8860581475915 59.99999999994 4.93484892505736 49.5476946558943 59.99999999994 3.74999999999988 48.9951905283832 59.99999999994 2.67909292735085 48.2453333233922 59.99999999994 1.75466667660757 47.3209070726489 59.99999999994 1.00480947161664 46.2499999999999 59.99999999994 0.452305344105637 45.0651510749424 59.99999999994 0.113941852408414 43.8023613325018 59.99999999994 0 42.4999999999999 59.99999999994 0.113941852408466 41.1976386674979 59.99999999994 0.452305344105739 39.9348489250573 59.99999999994 1.00480947161679 38.7499999999999 59.99999999994 1.75466667660776 37.6790929273508 59.99999999994 2.67909292735108 36.7546666766076 59.99999999994 3.75000000000014 36.0048094716166 59.99999999994 4.93484892505763 35.4523053441056 59.99999999994 6.19763866749817 35.1139418524084 3.29565844521939e-16 7.499999812333 35 -3.29565884325547e-16 7.5000001876671 50 -9.64608318539459e-16 6.19763885231403 49.8860581801796 -1.06724025380182e-15 4.93484910140687 49.5476947200802 -1.13744463400205e-15 3.75000016252447 48.9951906222168 -1.17308833457287e-15 2.67909307111228 48.2453334440224 -1.17308833970904e-15 1.75466679723774 47.3209072164104 -1.13744464925449e-15 1.00480956545025 46.2500001625245 -1.06724027870711e-15 0.452305408291606 45.0651512512919 -9.64608352340853e-16 0.113941884996485 43.802361517318 -8.32667289304096e-16 2.66453525910038e-15 42.5000001876671 -6.75426052031812e-16 0.113941819820401 41.197638852314 -4.97662335950615e-16 0.45230527991978 39.9348491014068 -3.04777401620852e-16 1.00480937778319 38.7500001625244 -1.02631960167646e-16 1.75466655597762 37.6790930711122 1.02631901460977e-16 2.67909278358967 36.7546667972377 3.04777344697956e-16 3.74999983747559 36.0048095654502 4.97662282541065e-16 4.93484874870817 35.4523054082916 6.7542600375843e-16 6.19763848268209 35.1139418849965 1.57079632679491 59.99999999994 4.71238898038471 59.99999999994 1.74532925199435 59.99999999994 1.91986217719378 59.99999999994 2.09439510239321 59.99999999994 2.26892802759265 59.99999999994 2.44346095279208 59.99999999994 2.61799387799151 59.99999999994 2.79252680319095 59.99999999994 2.96705972839038 59.99999999994 3.14159265358981 59.99999999994 3.31612557878925 59.99999999994 3.49065850398868 59.99999999994 3.66519142918811 59.99999999994 3.83972435438755 59.99999999994 4.01425727958698 59.99999999994 4.18879020478641 59.99999999994 4.36332312998584 59.99999999994 4.53785605518528 59.99999999994 4.71238898038469 -8.32667268468867e-16 1.57079630177262 0 1.74532922697205 0 1.91986215217148 0 2.09439507737092 0 2.26892800257035 0 2.44346092776978 0 2.61799385296922 0 2.79252677816865 0 2.96705970336809 0 3.14159262856752 0 3.31612555376695 0 3.49065847896639 0 3.66519140416582 0 3.83972432936525 0 4.01425725456469 0 4.18879017976412 0 4.36332310496355 0 4.53785603016299 0 1 21 22 3 22 23 3 1 22 4 23 24 4 3 23 5 24 25 5 4 24 6 25 26 6 5 25 7 26 27 7 6 26 8 27 28 8 7 27 9 28 29 9 8 28 10 29 30 10 9 29 11 30 31 11 10 30 12 31 32 12 11 31 13 32 33 13 12 32 14 33 34 14 13 33 15 34 35 15 14 34 16 35 36 16 15 35 17 16 36 17 36 37 18 17 37 18 37 38 19 18 38 19 38 20 2 19 20 
36 34 1 0.031993677787249
59.99999999994 7.49999999999987 50 59.99999999994 7.50000000000015 35 59.99999999994 8.87812138362415 49.8722982476293 59.99999999994 10.2093124964035 49.4935417205327 59.99999999994 11.4482412215801 48.8766285179722 59.99999999994 12.5527173273491 48.042566879155 59.99999999994 13.4851292046017 47.0197597728445 59.99999999994 14.2137246851629 45.8430376683242 59.99999999994 14.7136923237961 44.5524724255408 59.99999999994 14.9680063222127 43.1920126959749 59.99999999994 14.9680063222128 41.8079873040254 59.99999999994 14.7136923237962 40.4475275744595 59.99999999994 14.213724685163 39.1569623316761 59.99999999994 13.4851292046019 37.9802402271557 59.99999999994 12.5527173273493 36.9574331208452 59.99999999994 11.4482412215803 36.123371482028 59.99999999994 10.2093124964038 35.5064582794674 59.99999999994 8.87812138362442 35.1277017523708 119.99999999988 7.49999999999987 50 119.99999999988 7.50000000000015 35 119.99999999988 8.87812138362443 35.1277017523708 119.99999999988 10.2093124964038 35.5064582794674 119.99999999988 11.4482412215803 36.123371482028 119.99999999988 12.5527173273493 36.9574331208452 119.99999999988 13.4851292046019 37.9802402271557 119.99999999988 14.213724685163 39.1569623316761 119.99999999988 14.7136923237962 40.4475275744595 119.99999999988 14.9680063222128 41.8079873040254 119.99999999988 14.9680063222127 43.1920126959749 119.99999999988 14.7136923237961 44.5524724255408 119.99999999988 14.2137246851629 45.8430376683242 119.99999999988 13.4851292046017 47.0197597728445 119.99999999988 12.5527173273491 48.042566879155 119.99999999988 11.44824122158 48.8766285179722 119.99999999988 10.2093124964035 49.4935417205327 119.99999999988 8.87812138362414 49.8722982476293 3.14159265503628 59.99999999994 1.44648470978836e-09 59.99999999994 2.95679308717805 59.99999999994 2.77199351931983 59.99999999994 2.58719395146161 59.99999999994 2.40239438360338 59.99999999994 2.21759481574516 59.99999999994 2.03279524788694 59.99999999994 1.84799568002871 59.99999999994 1.66319611217049 59.99999999994 1.47839654431227 59.99999999994 1.29359697645405 59.99999999994 1.10879740859582 59.99999999994 0.923997840737599 59.99999999994 0.739198272879376 59.99999999994 0.554398705021153 59.99999999994 0.36959913716293 59.99999999994 0.184799569304707 59.99999999994 3.14159265503626 119.99999999988 1.44648749274741e-09 119.99999999988 0.18479956930471 119.99999999988 0.369599137162933 119.99999999988 0.554398705021156 119.99999999988 0.739198272879379 119.99999999988 0.923997840737602 119.99999999988 1.10879740859583 119.99999999988 1.29359697645405 119.99999999988 1.47839654431227 119.99999999988 1.66319611217049 119.99999999988 1.84799568002872 119.99999999988 2.03279524788694 119.99999999988 2.21759481574516 119.99999999988 2.40239438360339 119.99999999988 2.58719395146161 119.99999999988 2.77199351931983 119.99999999988 2.95679308717806 119.99999999988 21 2 18 21 20 2 22 18 17 22 21 18 23 17 16 23 22 17 24 16 15 24 23 16 25 15 14 25 24 15 26 14 13 26 25 14 27 13 12 27 26 13 28 12 11 28 27 12 29 11 10 29 28 11 30 10 9 30 29 10 31 9 8 31 30 9 32 8 7 32 31 8 33 7 6 33 32 7 34 6 5 34 33 6 35 5 4 35 34 5 36 4 3 36 35 4 19 3 1 19 36 3 
38 36 1 0.0285397641659836
180 7.50000056025517 50 180 7.49999999665149 35 179.99999999982 6.19763918877244 49.8860582395063 179.99999999982 4.93484939337835 49.5476948263492 179.99999999982 3.75000040481266 48.995190762102 179.99999999982 2.67909326172793 48.2453336039679 179.99999999982 1.75466693729589 47.3209073833252 179.99999999982 1.00480965892652 46.2500003244301 179.99999999982 0.452305461651298 45.0651513978964 179.99999999982 0.113941906715367 43.8023616404918 179.99999999982 5.32907051820075e-15 42.5000002818018 179.99999999982 0.113941808846615 41.1976389145494 179.99999999982 0.452305268887486 39.9348491317178 179.99999999982 1.00480937712469 38.750000163665 179.99999999982 1.75466657501843 37.6790930484203 179.99999999982 2.67909282998247 36.7546667583095 179.99999999982 3.74999991671756 36.0048095196998 179.99999999982 4.93484886376413 35.4523053664146 179.99999999982 6.19763863373116 35.1139418583625 119.99999999988 7.50000000000015 35 119.99999999988 7.49999999999987 50 119.99999999988 6.19763866749789 49.8860581475915 119.99999999988 4.93484892505736 49.5476946558943 119.99999999988 3.74999999999988 48.9951905283832 119.99999999988 2.67909292735085 48.2453333233922 119.99999999988 1.75466667660757 47.3209070726489 119.99999999988 1.00480947161664 46.2499999999999 119.99999999988 0.452305344105637 45.0651510749424 119.99999999988 0.113941852408414 43.8023613325018 119.99999999988 0 42.4999999999999 119.99999999988 0.113941852408466 41.1976386674979 119.99999999988 0.452305344105739 39.9348489250573 119.99999999988 1.00480947161679 38.7499999999999 119.99999999988 1.75466667660776 37.6790929273508 119.99999999988 2.67909292735108 36.7546666766076 119.99999999988 3.75000000000014 36.0048094716166 119.99999999988 4.93484892505763 35.4523053441056 119.99999999988 6.19763866749817 35.1139418524084 1.57079625209421 59.99999999994 4.71238897993822 59.99999999994 1.74532918141887 59.99999999994 1.91986211074354 59.99999999994 2.09439504006821 59.99999999994 2.26892796939288 59.99999999994 2.44346089871755 59.99999999994 2.61799382804221 59.99999999994 2.79252675736688 59.99999999994 2.96705968669155 59.99999999994 3.14159261601622 59.99999999994 3.31612554534088 59.99999999994 3.49065847466555 59.99999999994 3.66519140399022 59.99999999994 3.83972433331489 59.99999999994 4.01425726263955 59.99999999994 4.18879019196422 59.99999999994 4.36332312128889 59.99999999994 4.53785605061355 59.99999999994 4.71238898038469 0 1.57079632679491 0 1.74532925199435 0 1.91986217719378 0 2.09439510239321 0 2.26892802759265 0 2.44346095279208 0 2.61799387799151 0 2.79252680319095 0 2.96705972839038 0 3.14159265358981 0 3.31612557878925 0 3.49065850398868 0 3.66519142918811 0 3.83972435438755 0 4.01425727958698 0 4.18879020478641 0 4.36332312998584 0 4.53785605518528 0 3 21 22 3 1 21 4 22 23 4 3 22 5 23 24 5 4 23 6 24 25 6 5 24 7 25 26 7 6 25 8 26 27 8 7 26 9 27 28 9 8 27 10 28 29 10 9 28 11 29 30 11 10 29 12 30 31 12 11 30 13 31 32 13 12 31 14 32 33 14 13 32 15 33 34 15 14 33 16 34 35 16 15 34 17 16 35 17 35 36 18 17 36 18 36 37 19 18 37 19 37 38 2 19 38 2 38 20 
4 2 1 0
8 128.249999996651 35 8 128.249999996651 41 172 128.249999996651 35 172 128.249999996651 41 0 0 0 -6 164 0 164 -6 3 1 2 3 2 4 
4 2 1 0
-82 -54.5 0 -82 54.5 0 82 -54.5 0 82 54.5 0 -82 -54.5 -82 54.5 82 -54.5 82 54.5 4 2 1 4 1 3 
4 2 1 4.44089209850063e-16
8 128.249999996651 35 8 128.249999996651 41 8 19.2499999966515 35 8 19.2499999966515 41 0 0 0 -6 109 0 109 -6 3 1 2 3 2 4 
4 2 1 0
8 19.2499999966515 35 8 19.2499999966515 41 172 19.2499999966515 35 172 19.2499999966515 41 0 0 0 -6 164 0 164 -6 3 1 2 3 2 4 
4 2 1 4.44089209850063e-16
172 128.249999996651 35 172 128.249999996651 41 172 19.2499999966515 35 172 19.2499999966515 41 0 0 0 -6 109 0 109 -6 3 1 2 3 2 4 
35 33 1 6.99440505513849e-15
59.99999999994 7.49999999999987 50 59.99999999994 7.50000000000015 35 59.99999999994 8.87812138362415 49.8722982476293 59.99999999994 10.2093124964035 49.4935417205327 59.99999999994 11.4482412215801 48.8766285179722 59.99999999994 12.5527173273491 48.042566879155 59.99999999994 13.4851292046017 47.0197597728445 59.99999999994 14.2137246851629 45.8430376683242 59.99999999994 14.7136923237961 44.5524724255408 59.99999999994 14.9680063222127 43.1920126959749 59.99999999994 14.9680063222128 41.8079873040254 59.99999999994 14.7136923237962 40.4475275744595 59.99999999994 14.213724685163 39.1569623316761 59.99999999994 13.4851292046019 37.9802402271557 59.99999999994 12.5527173273493 36.9574331208452 59.99999999994 11.4482412215803 36.123371482028 59.99999999994 10.2093124964038 35.5064582794674 59.99999999994 8.87812138362442 35.1277017523708 59.99999999994 6.19763866749789 49.8860581475915 59.99999999994 4.93484892505736 49.5476946558943 59.99999999994 3.74999999999988 48.9951905283832 59.99999999994 2.67909292735085 48.2453333233922 59.99999999994 1.75466667660757 47.3209070726489 59.99999999994 1.00480947161664 46.2499999999999 59.99999999994 0.452305344105637 45.0651510749424 59.99999999994 0.113941852408414 43.8023613325018 59.99999999994 0 42.4999999999999 59.99999999994 0.113941852408466 41.1976386674979 59.99999999994 0.452305344105739 39.9348489250573 59.99999999994 1.00480947161679 38.7499999999999 59.99999999994 1.75466667660776 37.6790929273508 59.99999999994 2.67909292735108 36.7546666766076 59.99999999994 3.75000000000014 36.0048094716166 59.99999999994 4.93484892505763 35.4523053441056 59.99999999994 6.19763866749817 35.1139418524084 -1.32338584535319e-13 7.5 1.52766688188422e-13 -7.5 1.37812138362415 7.37229824762929 2.70931249640352 6.99354172053272 3.94824122158005 6.37662851797218 5.05271732734908 5.54256687915504 5.98512920460171 4.51975977284453 6.71372468516291 3.34303766832416 7.2136923237961 2.05247242554076 7.46800632221275 0.692012695974904 7.46800632221277 -0.692012695974624 7.21369232379618 -2.05247242554048 6.71372468516303 -3.34303766832391 5.98512920460188 -4.51975977284431 5.05271732734928 -5.54256687915485 3.94824122158029 -6.37662851797203 2.70931249640378 -6.99354172053262 1.37812138362442 -7.37229824762924 -1.30236133250211 7.38605814759154 -2.56515107494264 7.04769465589427 -3.75000000000012 6.49519052838322 -4.82090707264915 5.74533332339225 -5.74533332339243 4.82090707264894 -6.49519052838336 3.74999999999988 -7.04769465589436 2.56515107494238 -7.38605814759159 1.30236133250183 -7.5 -1.49213974509621e-13 -7.38605814759153 -1.30236133250213 -7.04769465589426 -2.56515107494266 -6.49519052838321 -3.75000000000013 -5.74533332339224 -4.82090707264916 -4.82090707264892 -5.74533332339244 -3.74999999999986 -6.49519052838337 -2.56515107494237 -7.04769465589437 -1.30236133250183 -7.38605814759159 6 3 1 6 4 3 6 5 4 6 8 7 6 9 8 6 10 9 6 11 10 6 12 11 6 13 12 6 14 13 6 15 14 6 16 15 6 17 16 6 18 17 6 2 18 6 1 19 6 19 20 6 20 21 6 21 22 6 22 23 6 23 24 6 24 25 6 25 26 6 26 27 6 27 28 6 28 29 6 29 30 6 30 31 6 31 32 6 32 33 6 33 34 6 34 35 6 35 2 
35 33 1 3.99680288865056e-15
119.99999999988 7.50000000000015 35 119.99999999988 7.49999999999987 50 119.99999999988 8.87812138362443 35.1277017523708 119.99999999988 10.2093124964038 35.5064582794674 119.99999999988 11.4482412215803 36.123371482028 119.99999999988 12.5527173273493 36.9574331208452 119.99999999988 13.4851292046019 37.9802402271557 119.99999999988 14.213724685163 39.1569623316761 119.99999999988 14.7136923237962 40.4475275744595 119.99999999988 14.9680063222128 41.8079873040254 119.99999999988 14.9680063222127 43.1920126959749 119.99999999988 14.7136923237961 44.5524724255408 119.99999999988 14.2137246851629 45.8430376683242 119.99999999988 13.4851292046017 47.0197597728445 119.99999999988 12.5527173273491 48.042566879155 119.99999999988 11.44824122158 48.8766285179722 119.99999999988 10.2093124964035 49.4935417205327 119.99999999988 8.87812138362414 49.8722982476293 119.99999999988 6.19763866749789 49.8860581475915 119.99999999988 4.93484892505736 49.5476946558943 119.99999999988 3.74999999999988 48.9951905283832 119.99999999988 2.67909292735085 48.2453333233922 119.99999999988 1.75466667660757 47.3209070726489 119.99999999988 1.00480947161664 46.2499999999999 119.99999999988 0.452305344105637 45.0651510749424 119.99999999988 0.113941852408414 43.8023613325018 119.99999999988 0 42.4999999999999 119.99999999988 0.113941852408466 41.1976386674979 119.99999999988 0.452305344105739 39.9348489250573 119.99999999988 1.00480947161679 38.7499999999999 119.99999999988 1.75466667660776 37.6790929273508 119.99999999988 2.67909292735108 36.7546666766076 119.99999999988 3.75000000000014 36.0048094716166 119.99999999988 4.93484892505763 35.4523053441056 119.99999999988 6.19763866749817 35.1139418524084 1.52766688188422e-13 -7.5 -1.33226762955019e-13 7.5 1.37812138362443 -7.37229824762924 2.70931249640379 -6.99354172053261 3.94824122158029 -6.37662851797203 5.05271732734929 -5.54256687915484 5.98512920460188 -4.51975977284431 6.71372468516303 -3.34303766832391 7.21369232379618 -2.05247242554048 7.46800632221277 -0.692012695974621 7.46800632221274 0.692012695974908 7.2136923237961 2.05247242554076 6.7137246851629 3.34303766832416 5.98512920460171 4.51975977284454 5.05271732734908 5.54256687915504 3.94824122158005 6.37662851797218 2.70931249640352 6.99354172053272 1.37812138362414 7.37229824762929 -1.30236133250211 7.38605814759154 -2.56515107494264 7.04769465589427 -3.75000000000012 6.49519052838322 -4.82090707264915 5.74533332339225 -5.74533332339243 4.82090707264894 -6.49519052838336 3.74999999999988 -7.04769465589436 2.56515107494238 -7.38605814759159 1.30236133250183 -7.5 -1.49213974509621e-13 -7.38605814759153 -1.30236133250213 -7.04769465589426 -2.56515107494266 -6.49519052838321 -3.75000000000013 -5.74533332339224 -4.82090707264916 -4.82090707264892 -5.74533332339244 -3.74999999999986 -6.49519052838337 -2.56515107494237 -7.04769465589437 -1.30236133250183 -7.38605814759159 15 1 3 15 3 4 15 4 5 15 5 6 15 6 7 15 7 8 15 8 9 15 9 10 15 10 11 15 11 12 15 12 13 15 13 14 15 16 17 15 17 18 15 18 2 15 2 19 15 19 20 15 20 21 15 21 22 15 22 23 15 23 24 15 24 25 15 25 26 15 26 27 15 27 28 15 28 29 15 29 30 15 30 31 15 31 32 15 32 33 15 33 34 15 34 35 15 35 1 
4 2 1 4.44089209850063e-16
23.3333333335 123.749999996651 41 23.3333333335 123.749999996651 46.7 23.3333333335 23.7499999966515 41 23.3333333335 23.7499999966515 46.7 0 0 0 -5.7 100 0 100 -5.7 3 1 2 3 2 4 
4 2 1 0
23.3333333335 123.749999996651 41 23.3333333335 123.749999996651 46.7 156.6666666665 123.749999996651 41 156.6666666665 123.749999996651 46.7 0 0 0 -5.7 133.333333333 0 133.333333333 -5.7 3 1 2 3 2 4 
4 2 1 0
23.3333333335 23.7499999966515 41 23.3333333335 23.7499999966515 46.7 156.6666666665 23.7499999966515 41 156.6666666665 23.7499999966515 46.7 0 0 0 -5.7 133.333333333 0 133.333333333 -5.7 3 1 2 3 2 4 
4 2 1 0
23.3333333335 123.749999996651 41 23.3333333335 23.7499999966515 41 156.6666666665 123.749999996651 41 156.6666666665 23.7499999966515 41 -66.6666666665 -50 -66.6666666665 50 66.6666666665 -50 66.6666666665 50 4 2 1 4 1 3 
4 2 1 4.44089209850063e-16
156.6666666665 123.749999996651 41 156.6666666665 123.749999996651 46.7 156.6666666665 23.7499999966515 41 156.6666666665 23.7499999966515 46.7 0 0 0 -5.7 100 0 100 -5.7 3 1 2 3 2 4 

TShapes 102
Ve
1.000400070007e-07
180 140 35
0 0

0101101
*
Ve
1.000400070007e-07
0 140 35
0 0

0101101
*
Ed
 1.000400070007e-07 1 1 0
1  1 0 0 180
2  1 2 0 0 180
6  1 1 0
6  2 2 0
0

0101000
-102 0 +101 0 *
Ve
1.000400070007e-07
180 140 50
0 0

0101101
*
Ed
 1.000400070007e-07 1 1 0
1  2 0 0 15
6  3 1 0
6  4 3 0
0

0101000
+102 0 -99 0 *
Ve
1.000400070007e-07
0 140 50
0 0

0101101
*
Ed
 1.000400070007e-07 1 1 0
1  3 0 0 180
6  5 1 0
6  6 4 0
0

0101000
-99 0 +97 0 *
Ed
 1.000400070007e-07 1 1 0
1  4 0 0 15
6  7 1 0
6  8 5 0
0

0101000
+101 0 -97 0 *
Wi

0101100
-100 0 -98 0 +96 0 +95 0 *
Fa
0  1e-07 1 0
2  1
0111000
+94 0 *
Ve
2.8766699543035e-07
3.29565844521939e-16 7.499999812333 35
0 0

0101101
*
Ed
 1.000400070007e-07 1 1 0
1  5 0 7.49999976292422 140
2  2 2 0 7.49999976292422 140
6  9 2 0
6  10 5 0
0

0101000
+92 0 -101 0 *
Ve
1.0002000150005e-07
59.99999999994 7.50000000000015 35
0 0

0101101
*
Ed
 1.0002000150005e-07 1 1 0
1  6 0 0 59.99999999994
2  3 3 0 0 59.99999999994
2  4 2 0 0 59.99999999994
6  11 6 0
6  12 2 0
0

0101000
+92 0 -90 0 *
Ve
1.0002000150005e-07
119.99999999988 7.50000000000015 35
0 0

0101101
*
Ed
 1.0002000150005e-07 1 1 0
1  7 0 59.99999999994 119.99999999988
2  5 4 0 59.99999999994 119.99999999988
2  6 2 0 59.99999999994 119.99999999988
6  13 7 0
6  14 2 0
0

0101000
+90 0 -88 0 *
Ve
1.03348507249264e-07
180 7.49999999665149 35
0 0

0101101
*
Ed
 1.000400070007e-07 1 1 0
1  8 0 7.499999993303 140
2  7 2 0 7.499999993303 140
6  15 2 0
6  16 3 0
0

0101000
+86 0 -102 0 *
Ed
 1.0002000150005e-07 1 1 0
1  7 0 119.99999999988 180
2  8 5 0 119.99999999988 180
2  9 2 0 119.99999999988 180
6  17 8 0
6  18 2 0
0

0101000
+88 0 -86 0 *
Wi

0101000
-91 0 +89 0 -100 0 +87 0 +85 0 +84 0 *
Ve
1e-07
8 128.249999996651 35
0 0

0101101
*
Ve
1e-07
172 128.249999996651 35
0 0

0101101
*
Ed
 1e-07 1 1 0
1  9 0 -82 82
2  10 6 0 -82 82
2  11 7 5 -82 82
2  12 6 9 -82 82
2  13 7 10 -82 82
2  14 6 12 -82 82
2  15 2 13 -82 82
6  19 2 13
6  20 9 13
6  21 9 14
6  22 10 15
0

0101000
+82 0 -81 0 *
Ve
1e-07
8 19.2499999966515 35
0 0

0101101
*
Ed
 1e-07 1 1 0
1  10 0 -54.5 54.5
2  16 6 0 -54.5 54.5
2  17 8 5 -54.5 54.5
2  18 6 9 -54.5 54.5
2  19 8 10 -54.5 54.5
2  20 6 12 -54.5 54.5
2  21 2 13 -54.5 54.5
6  23 2 13
6  24 11 14
6  25 11 13
6  26 10 15
0

0101000
+82 0 -79 0 *
Ve
1e-07
172 19.2499999966515 35
0 0

0101101
*
Ed
 1e-07 1 1 0
1  11 0 -82 82
2  22 6 0 -82 82
2  23 9 5 -82 82
2  24 6 9 -82 82
2  25 9 10 -82 82
2  26 6 12 -82 82
2  27 2 13 -82 82
6  27 2 13
6  28 12 13
6  29 12 14
6  30 10 15
0

0101000
+79 0 -77 0 *
Ed
 1e-07 1 1 0
1  12 0 -54.5 54.5
2  28 6 0 -54.5 54.5
2  29 10 5 -54.5 54.5
2  30 6 9 -54.5 54.5
2  31 10 10 -54.5 54.5
2  32 6 12 -54.5 54.5
2  33 2 13 -54.5 54.5
6  31 2 13
6  32 13 13
6  33 13 14
6  34 10 15
0

0101000
+81 0 -77 0 *
Wi

0101000
+80 4 -78 4 -76 4 +75 4 *
Fa
0  1e-07 2 0
2  2
0111000
+83 0 +74 0 *
Ve
1.12571549850662e-06
180 7.50000056025517 50
0 0

0101101
*
Ed
 1.000400070007e-07 1 1 0
1  13 0 7.50000056025517 140
6  35 3 0
6  36 4 0
0

0101000
-99 0 +72 0 *
Ed
 1.0001000025e-07 1 1 0
1  14 0 1.57079625209421 4.71238897993822
2  34 5 0 1.57079625209421 4.71238897993822
6  37 8 0
6  38 3 0
0

0101000
+72 0 -86 0 *
Wi

0101100
+85 0 +98 0 -71 0 +70 0 *
Fa
0  1e-07 11 0
2  3
0111000
+69 0 *
Ve
6.00120016013363e-07
-3.29565884325547e-16 7.5000001876671 50
0 0

0101101
*
Ed
 1.000400070007e-07 1 1 0
1  15 0 7.50000023707589 140
6  39 4 0
6  40 5 0
0

0101000
-97 0 +67 0 *
Ve
6.00120016013363e-07
59.99999999994 7.49999999999987 50
0 0

0101101
*
Ed
 6.00120016013363e-07 1 1 0
1  16 0 0 59.99999999994
2  35 3 0 0 59.99999999994
6  41 6 0
6  42 4 0
0

0101000
+67 0 -65 0 *
Ve
6.00120016013363e-07
119.99999999988 7.49999999999987 50
0 0

0101101
*
Ed
 6.00120016013363e-07 1 1 0
1  17 0 59.99999999994 119.99999999988
2  36 4 0 59.99999999994 119.99999999988
6  43 7 0
6  44 4 0
0

0101000
+65 0 -63 0 *
Ed
 6.00120016013363e-07 1 1 0
1  17 0 119.99999999988 180
2  37 5 0 119.99999999988 180
6  45 8 0
6  46 4 0
0

0101000
+63 0 -72 0 *
Wi

0101100
-66 0 -96 0 +64 0 +71 0 +62 0 +61 0 *
Fa
0  1e-07 12 0
2  4
0111000
+60 0 *
Ed
 1.0002000150005e-07 1 1 0
1  18 0 1.57079630177262 4.71238895536242
2  38 3 0 1.57079630177262 4.71238895536242
6  47 6 0
6  48 5 0
0

0101000
+67 0 -92 0 *
Wi

0101100
+91 0 +95 0 -66 0 +58 0 *
Fa
0  1e-07 13 0
2  5
0111000
+57 0 *
Ed
 1.0002000150005e-07 1 1 0
1  19 0 1.57079632679491 4.71238898038471
2  39 3 0 1.57079632679491 4.71238898038471
6  49 6 0
6  50 14 0
0

0101000
+65 0 -90 0 *
Wi

0101100
-55 0 +89 0 +58 0 -64 0 *
Fa
0  1e-07 3 0
2  6
0111000
+54 0 *
Ed
 1.00015000750013e-07 1 1 0
1  20 0 0 3.14159265358979
2  40 4 0 0 3.14159265358979
6  51 7 0
6  52 14 0
0

0101000
+65 0 -90 0 *
Ed
 1.00005e-07 1 1 0
1  21 0 0 3.14159265358979
2  41 4 0 0 3.14159265358979
6  53 7 0
6  54 15 0
0

0101000
+88 0 -63 0 *
Wi

0101100
-52 0 +62 0 -51 0 -87 0 *
Fa
0  1e-07 4 0
2  7
0111000
+50 0 *
Ed
 1.0001000025e-07 1 1 0
1  22 0 1.57079632679491 4.71238898038471
2  42 5 0 1.57079632679491 4.71238898038471
6  55 8 0
6  56 15 0
0

0101000
+63 0 -88 0 *
Wi

0101100
-70 0 +84 0 +48 0 -61 0 *
Fa
0  1e-07 5 0
2  8
0111000
+47 0 *
Ed
 1e-07 1 1 0
1  23 0 0 6
2  43 8 0 0 6
2  44 7 0 0 6
6  57 9 2
6  58 11 2
0

0101000
+82 17 -82 18 *
Ed
 1e-07 1 1 0
1  24 0 0 6
2  45 7 0 0 6
2  46 10 0 0 6
6  59 9 2
6  60 13 2
0

0101000
+81 17 -81 18 *
Wi

0101000
+45 16 -80 4 +80 19 -44 16 *
Fa
0  1e-07 7 16
2  9
0111000
+43 0 *
Ed
 1e-07 1 1 0
1  25 0 0 6
2  47 8 0 0 6
2  48 9 0 0 6
6  61 11 2
6  62 12 2
0

0101000
+79 17 -79 18 *
Wi

0101000
+45 16 -78 4 +78 19 -41 16 *
Fa
0  1e-07 8 16
2  11
0111000
+40 0 *
Ed
 1e-07 1 1 0
1  26 0 0 6
2  49 10 0 0 6
2  50 9 0 0 6
6  63 12 2
6  64 13 2
0

0101000
+77 17 -77 18 *
Wi

0101000
+41 16 -76 4 +76 19 -38 16 *
Fa
0  1e-07 9 16
2  12
0111000
+37 0 *
Wi

0101000
+44 16 -75 4 +75 19 -38 16 *
Fa
0  1e-07 10 16
2  13
0111000
+35 0 *
Wi

0101100
-52 0 +55 0 *
Fa
0  1e-07 14 0
2  14
0111000
+33 0 *
Wi

0101100
+51 0 +48 0 *
Fa
0  1e-07 15 0
2  15
0111000
+31 0 *
Wi

0101000
-78 18 +80 18 +75 18 -76 18 *
Fa
0  1e-07 6 2
2  10
0111000
+29 21 *
Sh

0101100
+93 0 -73 0 +68 0 +59 0 -56 0 +53 0 -49 0 +46 0 -42 0 +39 0 
+36 0 -34 0 +32 0 -30 0 +28 20 *
So

0100000
+27 0 *
Ve
1e-07
23.3333333335 123.749999996651 41
0 0

0101101
*
Ed
 1e-07 1 1 0
1  27 0 0 5.7
6  65 16 0
6  66 17 0
0

0101000
+25 0 -25 22 *
Ve
1e-07
23.3333333335 23.7499999966515 41
0 0

0101101
*
Ed
 1e-07 1 1 0
1  28 0 0 5.7
6  67 16 0
6  68 18 0
0

0101000
+23 0 -23 22 *
Ed
 1e-07 1 1 0
1  29 0 -50 50
2  51 17 0 -50 50
6  69 16 23
6  70 16 0
6  71 19 0
0

0101000
+25 0 -23 0 *
Wi

0101100
+24 0 -22 0 -21 0 +21 22 *
Fa
0  1e-07 16 0
2  16
0111000
+20 0 *
Ve
1e-07
156.6666666665 123.749999996651 41
0 0

0101101
*
Ed
 1e-07 1 1 0
1  30 0 0 5.7
6  72 17 0
6  73 20 0
0

0101000
+18 0 -18 22 *
Ed
 1e-07 1 1 0
1  31 0 -66.6666666665 66.6666666665
2  52 17 0 -66.6666666665 66.6666666665
6  74 17 23
6  75 17 0
6  76 19 0
0

0101000
+25 0 -18 0 *
Wi

0101100
+24 0 -17 0 -16 0 +16 22 *
Fa
0  1e-07 18 0
2  17
0111000
+15 0 *
Ve
1e-07
156.6666666665 23.7499999966515 41
0 0

0101101
*
Ed
 1e-07 1 1 0
1  32 0 0 5.7
6  77 20 0
6  78 18 0
0

0101000
+13 0 -13 22 *
Ed
 1e-07 1 1 0
1  33 0 -50 50
2  53 17 0 -50 50
6  79 20 23
6  80 20 0
6  81 19 0
0

0101000
+18 0 -13 0 *
Wi

0101100
+17 0 -12 0 -11 0 +11 22 *
Fa
0  1e-07 19 0
2  20
0111000
+10 0 *
Ed
 1e-07 1 1 0
1  34 0 -66.6666666665 66.6666666665
2  54 17 0 -66.6666666665 66.6666666665
6  82 18 23
6  83 18 0
6  84 19 0
0

0101000
+23 0 -13 0 *
Wi

0101100
+22 0 -12 0 -8 0 +8 22 *
Fa
0  1e-07 20 0
2  18
0111000
+7 0 *
Wi

0101100
-21 0 +16 0 +11 0 -8 0 *
Fa
0  1e-07 17 0
2  19
0111000
+5 0 *
Sh

0101100
-19 0 +14 0 +9 0 -6 0 +4 0 -4 22 *
So

0100000
+3 0 *
Co

1100000
+26 0 +2 0 *

+1 1 