DBRep_DrawableShape

CASCADE Topology V1, (c) Matra-Datavision
Locations 3
1
              1               0               0               0 
              0 -0.342020143325669 -0.939692620785908 50.9417800791295 
              0 0.939692620785908 -0.342020143325669 50.3301815787723 
1
              1               0               0               0 
              0               1               0               0 
              0               0               1             5.7 
2  2 -1 0
Curve2ds 4
1 -66.666666666499992 0 0 1 
1 0 -50 1 0 
1 66.666666666499992 0 0 1 
1 0 50 1 0 
Curves 8
1 23.333333333500008 123.7499999966515 41 0 0 1 
1 23.333333333500008 23.749999996651496 41 0 0 1 
1 23.333333333500008 73.749999996651496 41 0 -1 0 
1 156.66666666649999 123.7499999966515 41 0 0 1 
1 90 123.7499999966515 41 1 0 0 
1 156.66666666649999 23.749999996651496 41 0 0 1 
1 156.66666666649999 73.749999996651496 41 0 -1 0 
1 90 23.749999996651496 41 1 0 0 
Polygon3D 0
PolygonOnTriangulations 20
2 1 2 
p 0.533333334132 1 0 5.7 
2 1 2 
p 0.533333334132 1 0 5.7 
2 3 4 
p 0.533333334132 1 0 5.7 
2 1 2 
p 0.533333334132 1 0 5.7 
2 2 4 
p 0.533333334132 1 -50 50 
2 1 3 
p 0.533333334132 1 -50 50 
2 1 2 
p 0.533333334132 1 -50 50 
2 3 4 
p 0.533333334132 1 0 5.7 
2 1 2 
p 0.533333334132 1 0 5.7 
2 2 4 
p 0.533333334132 1 -66.6666666665 66.6666666665 
2 1 3 
p 0.533333334132 1 -66.6666666665 66.6666666665 
2 1 3 
p 0.533333334132 1 -66.6666666665 66.6666666665 
2 3 4 
p 0.533333334132 1 0 5.7 
2 3 4 
p 0.533333334132 1 0 5.7 
2 2 4 
p 0.533333334132 1 -50 50 
2 1 3 
p 0.533333334132 1 -50 50 
2 3 4 
p 0.533333334132 1 -50 50 
2 2 4 
p 0.533333334132 1 -66.6666666665 66.6666666665 
2 1 3 
p 0.533333334132 1 -66.6666666665 66.6666666665 
2 2 4 
p 0.533333334132 1 -66.6666666665 66.6666666665 
Surfaces 5
1 23.333333333500008 123.7499999966515 41 1 0 -0 0 -1 0 0 -0 -1 
1 90 73.749999996651496 41 0 0 -1 1 0 0 0 -1 0 
1 23.333333333500008 123.7499999966515 41 0 1 0 1 0 0 0 0 -1 
1 156.66666666649999 123.7499999966515 41 1 0 -0 0 -1 0 0 -0 -1 
1 23.333333333500008 23.749999996651496 41 0 1 0 1 0 0 0 0 -1 
Triangulations 5
4 2 1 4.44089209850063e-16
23.3333333335 123.749999996651 41 23.3333333335 123.749999996651 46.7 23.3333333335 23.7499999966515 41 23.3333333335 23.7499999966515 46.7 0 0 0 -5.7 100 0 100 -5.7 3 1 2 3 2 4 
4 2 1 0
23.3333333335 123.749999996651 41 23.3333333335 123.749999996651 46.7 156.6666666665 123.749999996651 41 156.6666666665 123.749999996651 46.7 0 0 0 -5.7 133.333333333 0 133.333333333 -5.7 3 1 2 3 2 4 
4 2 1 0
23.3333333335 23.7499999966515 41 23.3333333335 23.7499999966515 46.7 156.6666666665 23.7499999966515 41 156.6666666665 23.7499999966515 46.7 0 0 0 -5.7 133.333333333 0 133.333333333 -5.7 3 1 2 3 2 4 
4 2 1 0
23.3333333335 123.749999996651 41 23.3333333335 23.7499999966515 41 156.6666666665 123.749999996651 41 156.6666666665 23.7499999966515 41 -66.6666666665 -50 -66.6666666665 50 66.6666666665 -50 66.6666666665 50 4 2 1 4 1 3 
4 2 1 4.44089209850063e-16
156.6666666665 123.749999996651 41 156.6666666665 123.749999996651 46.7 156.6666666665 23.7499999966515 41 156.6666666665 23.7499999966515 46.7 0 0 0 -5.7 100 0 100 -5.7 3 1 2 3 2 4 

TShapes 24
Ve
1e-07
23.3333333335 123.749999996651 41
0 0

0101101
*
Ed
 1e-07 1 1 0
1  1 0 0 5.7
6  1 1 0
6  2 2 0
0

0101000
+24 0 -24 2 *
Ve
1e-07
23.3333333335 23.7499999966515 41
0 0

0101101
*
Ed
 1e-07 1 1 0
1  2 0 0 5.7
6  3 1 0
6  4 3 0
0

0101000
+22 0 -22 2 *
Ed
 1e-07 1 1 0
1  3 0 -50 50
2  1 2 0 -50 50
6  5 1 3
6  6 1 0
6  7 4 0
0

0101000
+24 0 -22 0 *
Wi

0101100
+23 0 -21 0 -20 0 +20 2 *
Fa
0  1e-07 1 0
2  1
0111000
+19 0 *
Ve
1e-07
156.6666666665 123.749999996651 41
0 0

0101101
*
Ed
 1e-07 1 1 0
1  4 0 0 5.7
6  8 2 0
6  9 5 0
0

0101000
+17 0 -17 2 *
Ed
 1e-07 1 1 0
1  5 0 -66.6666666665 66.6666666665
2  2 2 0 -66.6666666665 66.6666666665
6  10 2 3
6  11 2 0
6  12 4 0
0

0101000
+24 0 -17 0 *
Wi

0101100
+23 0 -16 0 -15 0 +15 2 *
Fa
0  1e-07 3 0
2  2
0111000
+14 0 *
Ve
1e-07
156.6666666665 23.7499999966515 41
0 0

0101101
*
Ed
 1e-07 1 1 0
1  6 0 0 5.7
6  13 5 0
6  14 3 0
0

0101000
+12 0 -12 2 *
Ed
 1e-07 1 1 0
1  7 0 -50 50
2  3 2 0 -50 50
6  15 5 3
6  16 5 0
6  17 4 0
0

0101000
+17 0 -12 0 *
Wi

0101100
+16 0 -11 0 -10 0 +10 2 *
Fa
0  1e-07 4 0
2  5
0111000
+9 0 *
Ed
 1e-07 1 1 0
1  8 0 -66.6666666665 66.6666666665
2  4 2 0 -66.6666666665 66.6666666665
6  18 3 3
6  19 3 0
6  20 4 0
0

0101000
+22 0 -12 0 *
Wi

0101100
+21 0 -11 0 -7 0 +7 2 *
Fa
0  1e-07 5 0
2  3
0111000
+6 0 *
Wi

0101100
-20 0 +15 0 +10 0 -7 0 *
Fa
0  1e-07 2 0
2  4
0111000
+4 0 *
Sh

0101100
-18 0 +13 0 +8 0 -5 0 +3 0 -3 2 *
So

0100000
+2 0 *

+1 1 