<?xml version="1.0" encoding="UTF-8"?><svg xmlns="http://www.w3.org/2000/svg" xmlns:xlink="http://www.w3.org/1999/xlink" fill-opacity="1" color-rendering="auto" color-interpolation="auto" stroke="black" text-rendering="auto" stroke-linecap="square" width="627" stroke-miterlimit="10" stroke-opacity="1" shape-rendering="auto" fill="black" stroke-dasharray="none" font-weight="normal" stroke-width="1" height="905" font-family="'Dialog'" font-style="normal" stroke-linejoin="miter" font-size="12px" stroke-dashoffset="0" image-rendering="auto">
  <!--Generated by ySVG 2.5-->
  <defs id="genericDefs"/>
  <g>
    <defs id="defs1">
      <clipPath clipPathUnits="userSpaceOnUse" id="clipPath1">
        <path d="M0 0 L627 0 L627 905 L0 905 L0 0 Z"/>
      </clipPath>
      <clipPath clipPathUnits="userSpaceOnUse" id="clipPath2">
        <path d="M-3 -15 L624 -15 L624 890 L-3 890 L-3 -15 Z"/>
      </clipPath>
    </defs>
    <g fill="white" text-rendering="geometricPrecision" shape-rendering="geometricPrecision" transform="translate(3,15)" stroke="white">
      <rect x="-3" width="627" height="905" y="-15" clip-path="url(#clipPath2)" stroke="none"/>
    </g>
    <g id="y.node.0">
      <a target="_blank" xlink:type="simple" xlink:href="index.html" xlink:show="new">
        <g fill="rgb(153,204,0)" text-rendering="geometricPrecision" shape-rendering="geometricPrecision" transform="matrix(1,0,0,1,3,15)" stroke="rgb(153,204,0)">
          <path d="M351.8785 38.7757 L387.7762 0 L438.5433 0 L474.441 38.7757 L474.441 93.6129 L438.5433 132.3886 L387.7762 132.3886 L351.8785 93.6129 Z" stroke="none" fill-rule="evenodd"/>
        </g>
        <g>
          <g font-size="16px" stroke-linecap="butt" transform="matrix(1,0,0,1,3,15)" text-rendering="geometricPrecision" font-family="sans-serif" shape-rendering="geometricPrecision" stroke-miterlimit="1.45">
            <text x="358.8785" xml:space="preserve" y="71.7334" stroke="none">APC iniziative</text>
          </g>
        </g>
        <g text-rendering="geometricPrecision" stroke-miterlimit="1.45" shape-rendering="geometricPrecision" transform="matrix(1,0,0,1,3,15)" stroke-linecap="butt">
          <path fill="none" d="M351.8785 38.7757 L387.7762 0 L438.5433 0 L474.441 38.7757 L474.441 93.6129 L438.5433 132.3886 L387.7762 132.3886 L351.8785 93.6129 Z" fill-rule="evenodd"/>
        </g>
      </a>
    </g>
    <g id="y.node.1">
      <g fill="rgb(245,245,245)" text-rendering="geometricPrecision" shape-rendering="geometricPrecision" transform="matrix(1,0,0,1,3,15)" stroke="rgb(245,245,245)">
        <rect x="457.4166" y="462.7993" width="115.5898" rx="4" ry="4" height="128.8337" stroke="none"/>
      </g>
      <g>
        <g fill="rgb(235,235,235)" text-rendering="geometricPrecision" shape-rendering="geometricPrecision" transform="matrix(1,0,0,1,3,15)" stroke="rgb(235,235,235)">
          <rect x="457.4166" width="115.5898" height="21.4609" y="462.7993" stroke="none"/>
        </g>
        <g font-size="15px" stroke-linecap="butt" transform="matrix(1,0,0,1,3,15)" text-rendering="geometricPrecision" font-family="sans-serif" shape-rendering="geometricPrecision" stroke-miterlimit="1.45">
          <text x="529.0313" xml:space="preserve" y="478.7226" stroke="none">Goals</text>
        </g>
      </g>
      <g text-rendering="geometricPrecision" stroke-dasharray="6,2" stroke-miterlimit="1.45" shape-rendering="geometricPrecision" transform="matrix(1,0,0,1,3,15)" stroke-linecap="butt">
        <rect x="457.4166" y="462.7993" fill="none" width="115.5898" rx="4" ry="4" height="128.8337"/>
      </g>
    </g>
    <g id="y.node.2">
      <g fill="rgb(204,153,255)" text-rendering="geometricPrecision" shape-rendering="geometricPrecision" transform="matrix(1,0,0,1,3,15)" stroke="rgb(204,153,255)">
        <path d="M297.5754 189.4038 C278.8928 174.075 297.5754 160.3886 328.215 170.2428 C328.215 160.3886 379.0318 160.3886 379.0318 170.2428 C409.6714 160.3886 428.354 174.075 409.6714 186.119 C428.354 201.4478 409.6714 215.1342 386.5049 205.28 C379.0318 215.1342 328.215 215.1342 335.6881 205.28 C297.5754 215.1342 278.8928 201.4478 297.5754 189.4038 Z" stroke="none"/>
      </g>
      <g text-rendering="geometricPrecision" stroke-miterlimit="1.45" shape-rendering="geometricPrecision" transform="matrix(1,0,0,1,3,15)" stroke-linecap="butt">
        <path fill="none" d="M297.5754 189.4038 C278.8928 174.075 297.5754 160.3886 328.215 170.2428 C328.215 160.3886 379.0318 160.3886 379.0318 170.2428 C409.6714 160.3886 428.354 174.075 409.6714 186.119 C428.354 201.4478 409.6714 215.1342 386.5049 205.28 C379.0318 215.1342 328.215 215.1342 335.6881 205.28 C297.5754 215.1342 278.8928 201.4478 297.5754 189.4038 Z"/>
      </g>
      <g>
        <g text-rendering="geometricPrecision" stroke-miterlimit="1.45" shape-rendering="geometricPrecision" font-family="sans-serif" transform="matrix(1,0,0,1,3,15)" stroke-linecap="butt">
          <text x="318.3119" xml:space="preserve" y="184.9313" stroke="none">The people </text>
          <text x="298.4252" xml:space="preserve" y="198.9001" stroke="none">behind the project</text>
        </g>
      </g>
    </g>
    <g id="y.node.3">
      <g fill="rgb(245,245,245)" text-rendering="geometricPrecision" shape-rendering="geometricPrecision" transform="matrix(1,0,0,1,3,15)" stroke="rgb(245,245,245)">
        <rect x="160.0146" y="605.633" width="149.4612" rx="4" ry="4" height="86.5163" stroke="none"/>
      </g>
      <g>
        <g fill="rgb(235,235,235)" text-rendering="geometricPrecision" shape-rendering="geometricPrecision" transform="matrix(1,0,0,1,3,15)" stroke="rgb(235,235,235)">
          <rect x="160.0146" width="149.4612" height="21.4609" y="605.633" stroke="none"/>
        </g>
        <g font-size="15px" stroke-linecap="butt" transform="matrix(1,0,0,1,3,15)" text-rendering="geometricPrecision" font-family="sans-serif" shape-rendering="geometricPrecision" stroke-miterlimit="1.45">
          <text x="238.782" xml:space="preserve" y="621.5563" stroke="none">Activities</text>
        </g>
      </g>
      <g text-rendering="geometricPrecision" stroke-dasharray="6,2" stroke-miterlimit="1.45" shape-rendering="geometricPrecision" transform="matrix(1,0,0,1,3,15)" stroke-linecap="butt">
        <rect x="160.0146" y="605.633" fill="none" width="149.4612" rx="4" ry="4" height="86.5163"/>
      </g>
    </g>
    <g id="y.node.4">
      <g fill="rgb(245,245,245)" text-rendering="geometricPrecision" shape-rendering="geometricPrecision" transform="matrix(1,0,0,1,3,15)" stroke="rgb(245,245,245)">
        <rect x="350.1353" y="269.1342" width="163.4143" rx="4" ry="4" height="107.2088" stroke="none"/>
      </g>
      <g>
        <g fill="rgb(235,235,235)" text-rendering="geometricPrecision" shape-rendering="geometricPrecision" transform="matrix(1,0,0,1,3,15)" stroke="rgb(235,235,235)">
          <rect x="350.1353" width="163.4143" height="21.4609" y="269.1342" stroke="none"/>
        </g>
        <g font-size="15px" stroke-linecap="butt" transform="matrix(1,0,0,1,3,15)" text-rendering="geometricPrecision" font-family="sans-serif" shape-rendering="geometricPrecision" stroke-miterlimit="1.45">
          <text x="433.9422" xml:space="preserve" y="285.0575" stroke="none">Resources</text>
        </g>
      </g>
      <g text-rendering="geometricPrecision" stroke-dasharray="6,2" stroke-miterlimit="1.45" shape-rendering="geometricPrecision" transform="matrix(1,0,0,1,3,15)" stroke-linecap="butt">
        <rect x="350.1353" y="269.1342" fill="none" width="163.4143" rx="4" ry="4" height="107.2088"/>
      </g>
    </g>
    <g id="y.node.5">
      <g fill="rgb(255,255,153)" text-rendering="geometricPrecision" shape-rendering="geometricPrecision" transform="matrix(1,0,0,1,3,15)" stroke="rgb(255,255,153)">
        <path d="M94.447 229.1342 L141.9626 229.1342 L141.9626 259.1342 L94.447 259.1342 L101.947 244.1342 Z" stroke="none"/>
      </g>
      <g text-rendering="geometricPrecision" stroke-miterlimit="1.45" shape-rendering="geometricPrecision" transform="matrix(1,0,0,1,3,15)" stroke-linecap="butt">
        <path fill="none" d="M94.447 229.1342 L141.9626 229.1342 L141.9626 259.1342 L94.447 259.1342 L101.947 244.1342 Z"/>
      </g>
      <g>
        <g text-rendering="geometricPrecision" stroke-miterlimit="1.45" shape-rendering="geometricPrecision" font-family="sans-serif" transform="matrix(1,0,0,1,3,15)" stroke-linecap="butt">
          <text x="101.447" xml:space="preserve" y="248.2885" stroke="none">doing</text>
        </g>
      </g>
    </g>
    <g id="y.node.6">
      <g fill="rgb(255,255,153)" text-rendering="geometricPrecision" shape-rendering="geometricPrecision" transform="matrix(1,0,0,1,3,15)" stroke="rgb(255,255,153)">
        <path d="M367.7819 229.1342 L414.1959 229.1342 L414.1959 259.1342 L367.7819 259.1342 L375.2819 244.1342 Z" stroke="none"/>
      </g>
      <g text-rendering="geometricPrecision" stroke-miterlimit="1.45" shape-rendering="geometricPrecision" transform="matrix(1,0,0,1,3,15)" stroke-linecap="butt">
        <path fill="none" d="M367.7819 229.1342 L414.1959 229.1342 L414.1959 259.1342 L367.7819 259.1342 L375.2819 244.1342 Z"/>
      </g>
      <g>
        <g text-rendering="geometricPrecision" stroke-miterlimit="1.45" shape-rendering="geometricPrecision" font-family="sans-serif" transform="matrix(1,0,0,1,3,15)" stroke-linecap="butt">
          <text x="374.7819" xml:space="preserve" y="248.2885" stroke="none">using</text>
        </g>
      </g>
    </g>
    <g id="y.node.7">
      <g fill="rgb(153,204,255)" text-rendering="geometricPrecision" shape-rendering="geometricPrecision" transform="matrix(1,0,0,1,3,15)" stroke="rgb(153,204,255)">
        <rect x="522.7482" width="85.4434" height="30" y="633.8912" stroke="none"/>
      </g>
      <g text-rendering="geometricPrecision" stroke-miterlimit="1.45" shape-rendering="geometricPrecision" transform="matrix(1,0,0,1,3,15)" stroke-linecap="butt">
        <path fill="none" d="M533.4286 633.8912 L522.7482 633.8912 L522.7482 663.8912 L533.4286 663.8912"/>
      </g>
      <g>
        <g text-rendering="geometricPrecision" stroke-miterlimit="1.45" shape-rendering="geometricPrecision" font-family="sans-serif" transform="matrix(1,0,0,1,3,15)" stroke-linecap="butt">
          <text x="544.754" xml:space="preserve" y="646.0611" stroke="none">Design</text>
          <text x="529.7482" xml:space="preserve" y="660.0298" stroke="none">alternatives</text>
        </g>
      </g>
    </g>
    <g id="y.node.8">
      <g fill="rgb(153,204,255)" text-rendering="geometricPrecision" shape-rendering="geometricPrecision" transform="matrix(1,0,0,1,3,15)" stroke="rgb(153,204,255)">
        <rect x="443.9174" width="84.793" height="42" y="403.0712" stroke="none"/>
      </g>
      <g text-rendering="geometricPrecision" stroke-miterlimit="1.45" shape-rendering="geometricPrecision" transform="matrix(1,0,0,1,3,15)" stroke-linecap="butt">
        <path fill="none" d="M454.5165 403.0711 L443.9174 403.0711 L443.9174 445.0711 L454.5165 445.0711"/>
      </g>
      <g>
        <g text-rendering="geometricPrecision" stroke-miterlimit="1.45" shape-rendering="geometricPrecision" font-family="sans-serif" transform="matrix(1,0,0,1,3,15)" stroke-linecap="butt">
          <text x="454.6352" xml:space="preserve" y="414.2567" stroke="none">Openness </text>
          <text x="461.3266" xml:space="preserve" y="428.2254" stroke="none">(Source </text>
          <text x="450.9174" xml:space="preserve" y="442.1942" stroke="none">Avalaibility)</text>
        </g>
      </g>
    </g>
    <g id="y.node.9">
      <g fill="rgb(255,255,153)" text-rendering="geometricPrecision" shape-rendering="geometricPrecision" transform="matrix(1,0,0,1,3,15)" stroke="rgb(255,255,153)">
        <path d="M115.4756 706.1493 L174.0244 706.1493 L174.0244 736.1493 L115.4756 736.1493 L122.9756 721.1493 Z" stroke="none"/>
      </g>
      <g text-rendering="geometricPrecision" stroke-miterlimit="1.45" shape-rendering="geometricPrecision" transform="matrix(1,0,0,1,3,15)" stroke-linecap="butt">
        <path fill="none" d="M115.4756 706.1493 L174.0244 706.1493 L174.0244 736.1493 L115.4756 736.1493 L122.9756 721.1493 Z"/>
      </g>
      <g>
        <g text-rendering="geometricPrecision" stroke-miterlimit="1.45" shape-rendering="geometricPrecision" font-family="sans-serif" transform="matrix(1,0,0,1,3,15)" stroke-linecap="butt">
          <text x="122.4756" xml:space="preserve" y="725.3036" stroke="none">making</text>
        </g>
      </g>
    </g>
    <g id="y.node.10">
      <g fill="rgb(255,255,153)" text-rendering="geometricPrecision" shape-rendering="geometricPrecision" transform="matrix(1,0,0,1,3,15)" stroke="rgb(255,255,153)">
        <path d="M189.0246 706.1493 L290.4992 706.1493 L290.4992 732.3993 Q265.1306 724.8993 239.7619 732.3993 Q214.3932 739.8993 189.0246 732.3993 Z" stroke="none"/>
      </g>
      <g text-rendering="geometricPrecision" stroke-miterlimit="1.45" shape-rendering="geometricPrecision" transform="matrix(1,0,0,1,3,15)" stroke-linecap="butt">
        <path fill="none" d="M189.0246 706.1493 L290.4992 706.1493 L290.4992 732.3993 Q265.1306 724.8993 239.7619 732.3993 Q214.3932 739.8993 189.0246 732.3993 Z"/>
      </g>
      <g>
        <g text-rendering="geometricPrecision" stroke-miterlimit="1.45" shape-rendering="geometricPrecision" font-family="sans-serif" transform="matrix(1,0,0,1,3,15)" stroke-linecap="butt">
          <text x="196.0246" xml:space="preserve" y="725.3036" stroke="none">Laboratory log</text>
        </g>
      </g>
    </g>
    <g id="y.node.11">
      <g fill="rgb(153,204,255)" text-rendering="geometricPrecision" shape-rendering="geometricPrecision" transform="matrix(1,0,0,1,3,15)" stroke="rgb(153,204,255)">
        <rect x="390.2712" width="117.4766" height="30" y="633.8912" stroke="none"/>
      </g>
      <g text-rendering="geometricPrecision" stroke-miterlimit="1.45" shape-rendering="geometricPrecision" transform="matrix(1,0,0,1,3,15)" stroke-linecap="butt">
        <path fill="none" d="M404.9558 633.8912 L390.2712 633.8912 L390.2712 663.8912 L404.9558 663.8912"/>
      </g>
      <g>
        <g text-rendering="geometricPrecision" stroke-miterlimit="1.45" shape-rendering="geometricPrecision" font-family="sans-serif" transform="matrix(1,0,0,1,3,15)" stroke-linecap="butt">
          <text x="397.2712" xml:space="preserve" y="653.0455" stroke="none">Do we need this?</text>
        </g>
      </g>
    </g>
    <g id="y.node.12">
      <g fill="rgb(245,245,245)" text-rendering="geometricPrecision" shape-rendering="geometricPrecision" transform="matrix(1,0,0,1,3,15)" stroke="rgb(245,245,245)">
        <rect x="12" y="746.1493" width="177" rx="4" ry="4" height="128.8337" stroke="none"/>
      </g>
      <g>
        <g fill="rgb(235,235,235)" text-rendering="geometricPrecision" shape-rendering="geometricPrecision" transform="matrix(1,0,0,1,3,15)" stroke="rgb(235,235,235)">
          <rect x="12" width="177" height="21.4609" y="746.1493" stroke="none"/>
        </g>
        <g font-size="15px" stroke-linecap="butt" transform="matrix(1,0,0,1,3,15)" text-rendering="geometricPrecision" font-family="sans-serif" shape-rendering="geometricPrecision" stroke-miterlimit="1.45">
          <text x="121.6387" xml:space="preserve" y="762.0726" stroke="none">Products</text>
        </g>
      </g>
      <g text-rendering="geometricPrecision" stroke-dasharray="6,2" stroke-miterlimit="1.45" shape-rendering="geometricPrecision" transform="matrix(1,0,0,1,3,15)" stroke-linecap="butt">
        <rect x="12" y="746.1493" fill="none" width="177" rx="4" ry="4" height="128.8337"/>
      </g>
    </g>
    <g id="y.node.13">
      <g fill="rgb(255,255,153)" text-rendering="geometricPrecision" shape-rendering="geometricPrecision" transform="matrix(1,0,0,1,3,15)" stroke="rgb(255,255,153)">
        <path d="M305.4996 706.1493 L409.1949 706.1493 L409.1949 736.1493 L305.4996 736.1493 L312.9996 721.1493 Z" stroke="none"/>
      </g>
      <g text-rendering="geometricPrecision" stroke-miterlimit="1.45" shape-rendering="geometricPrecision" transform="matrix(1,0,0,1,3,15)" stroke-linecap="butt">
        <path fill="none" d="M305.4996 706.1493 L409.1949 706.1493 L409.1949 736.1493 L305.4996 736.1493 L312.9996 721.1493 Z"/>
      </g>
      <g>
        <g text-rendering="geometricPrecision" stroke-miterlimit="1.45" shape-rendering="geometricPrecision" font-family="sans-serif" transform="matrix(1,0,0,1,3,15)" stroke-linecap="butt">
          <text x="312.4996" xml:space="preserve" y="725.3036" stroke="none">empowered by</text>
        </g>
      </g>
    </g>
    <g id="y.node.14">
      <g fill="rgb(204,153,255)" text-rendering="geometricPrecision" shape-rendering="geometricPrecision" transform="matrix(1,0,0,1,3,15)" stroke="rgb(204,153,255)">
        <path d="M192.1474 323.9986 C171.7206 312.2386 192.1474 301.7386 225.6474 309.2986 C225.6474 301.7386 281.2082 301.7386 281.2082 309.2986 C314.7081 301.7386 335.1349 312.2386 314.7081 321.4786 C335.1349 333.2386 314.7081 343.7386 289.3789 336.1786 C281.2082 343.7386 225.6474 343.7386 233.8181 336.1786 C192.1474 343.7386 171.7206 333.2386 192.1474 323.9986 Z" stroke="none"/>
      </g>
      <g text-rendering="geometricPrecision" stroke-miterlimit="1.45" shape-rendering="geometricPrecision" transform="matrix(1,0,0,1,3,15)" stroke-linecap="butt">
        <path fill="none" d="M192.1474 323.9986 C171.7206 312.2386 192.1474 301.7386 225.6474 309.2986 C225.6474 301.7386 281.2082 301.7386 281.2082 309.2986 C314.7081 301.7386 335.1349 312.2386 314.7081 321.4786 C335.1349 333.2386 314.7081 343.7386 289.3789 336.1786 C281.2082 343.7386 225.6474 343.7386 233.8181 336.1786 C192.1474 343.7386 171.7206 333.2386 192.1474 323.9986 Z"/>
      </g>
      <g>
        <g text-rendering="geometricPrecision" stroke-miterlimit="1.45" shape-rendering="geometricPrecision" font-family="sans-serif" transform="matrix(1,0,0,1,3,15)" stroke-linecap="butt">
          <text x="196.8379" xml:space="preserve" y="326.8929" stroke="none">Other open Project</text>
        </g>
      </g>
    </g>
    <g id="y.node.15">
      <g fill="rgb(153,204,255)" text-rendering="geometricPrecision" shape-rendering="geometricPrecision" transform="matrix(1,0,0,1,3,15)" stroke="rgb(153,204,255)">
        <rect x="216.9141" width="73.0273" height="67.4563" y="390.343" stroke="none"/>
      </g>
      <g text-rendering="geometricPrecision" stroke-miterlimit="1.45" shape-rendering="geometricPrecision" transform="matrix(1,0,0,1,3,15)" stroke-linecap="butt">
        <path fill="none" d="M226.0425 390.343 L216.9141 390.343 L216.9141 457.7993 L226.0425 457.7993"/>
      </g>
      <g>
        <g text-rendering="geometricPrecision" stroke-miterlimit="1.45" shape-rendering="geometricPrecision" font-family="sans-serif" transform="matrix(1,0,0,1,3,15)" stroke-linecap="butt">
          <text x="231.4961" xml:space="preserve" y="414.2567" stroke="none">Do not </text>
          <text x="226.4952" xml:space="preserve" y="428.2254" stroke="none">reinvent </text>
          <text x="223.9141" xml:space="preserve" y="442.1942" stroke="none">the wheel</text>
        </g>
      </g>
    </g>
    <g id="y.node.16">
      <g fill="rgb(204,153,255)" text-rendering="geometricPrecision" shape-rendering="geometricPrecision" transform="matrix(1,0,0,1,3,15)" stroke="rgb(204,153,255)">
        <path d="M108.3562 323.6386 C101.447 315.2386 108.3562 307.7386 119.6872 313.1386 C119.6872 307.7386 138.4802 307.7386 138.4802 313.1386 C149.8113 307.7386 156.7204 315.2386 149.8113 321.8386 C156.7204 330.2386 149.8113 337.7386 141.2439 332.3386 C138.4802 337.7386 119.6872 337.7386 122.4509 332.3386 C108.3562 337.7386 101.447 330.2386 108.3562 323.6386 Z" stroke="none"/>
      </g>
      <g text-rendering="geometricPrecision" stroke-miterlimit="1.45" shape-rendering="geometricPrecision" transform="matrix(1,0,0,1,3,15)" stroke-linecap="butt">
        <path fill="none" d="M108.3562 323.6386 C101.447 315.2386 108.3562 307.7386 119.6872 313.1386 C119.6872 307.7386 138.4802 307.7386 138.4802 313.1386 C149.8113 307.7386 156.7204 315.2386 149.8113 321.8386 C156.7204 330.2386 149.8113 337.7386 141.2439 332.3386 C138.4802 337.7386 119.6872 337.7386 122.4509 332.3386 C108.3562 337.7386 101.447 330.2386 108.3562 323.6386 Z"/>
      </g>
      <g>
        <g text-rendering="geometricPrecision" stroke-miterlimit="1.45" shape-rendering="geometricPrecision" font-family="sans-serif" transform="matrix(1,0,0,1,3,15)" stroke-linecap="butt">
          <text x="108.447" xml:space="preserve" y="326.8929" stroke="none">history</text>
        </g>
      </g>
    </g>
    <g id="y.node.17">
      <g fill="rgb(255,255,153)" text-rendering="geometricPrecision" shape-rendering="geometricPrecision" transform="matrix(1,0,0,1,3,15)" stroke="rgb(255,255,153)">
        <rect x="424.1951" width="110.709" height="30" y="706.1493" stroke="none"/>
      </g>
      <g>
        <g text-rendering="geometricPrecision" stroke-miterlimit="1.45" shape-rendering="geometricPrecision" font-family="sans-serif" transform="matrix(1,0,0,1,3,15)" stroke-linecap="butt">
          <text x="432.3787" xml:space="preserve" y="718.3192" stroke="none">Common Touch</text>
          <text x="431.1951" xml:space="preserve" y="732.288" stroke="none">user experience</text>
        </g>
      </g>
      <g text-rendering="geometricPrecision" stroke-miterlimit="1.45" shape-rendering="geometricPrecision" transform="matrix(1,0,0,1,3,15)" stroke-linecap="butt">
        <rect fill="none" x="424.1951" width="110.709" height="30" y="706.1493"/>
      </g>
    </g>
    <g id="y.node.18">
      <g fill="rgb(255,255,153)" text-rendering="geometricPrecision" shape-rendering="geometricPrecision" transform="matrix(1,0,0,1,3,15)" stroke="rgb(255,255,153)">
        <rect x="421.7547" width="115.5898" height="30" y="795.5662" stroke="none"/>
      </g>
      <g>
        <g text-rendering="geometricPrecision" stroke-miterlimit="1.45" shape-rendering="geometricPrecision" font-family="sans-serif" transform="matrix(1,0,0,1,3,15)" stroke-linecap="butt">
          <text x="428.7547" xml:space="preserve" y="814.7205" stroke="none">User Satisfaction</text>
        </g>
      </g>
      <g text-rendering="geometricPrecision" stroke-miterlimit="1.45" shape-rendering="geometricPrecision" transform="matrix(1,0,0,1,3,15)" stroke-linecap="butt">
        <rect fill="none" x="421.7547" width="115.5898" height="30" y="795.5662"/>
      </g>
    </g>
    <g id="y.edge.1">
      <g text-rendering="geometricPrecision" stroke-miterlimit="1.45" shape-rendering="geometricPrecision" transform="matrix(1,0,0,1,3,15)" stroke-linecap="butt">
        <path fill="none" d="M443.8004 126.7324 L443.8004 146.3886 L544.1091 146.3886 L544.1089 454.7607"/>
        <path d="M544.1089 462.7607 L549.1089 450.7607 L544.1089 453.7607 L539.1089 450.7607 Z" stroke="none"/>
      </g>
    </g>
    <g id="y.edge.11">
      <g text-rendering="geometricPrecision" stroke-miterlimit="1.45" shape-rendering="geometricPrecision" transform="matrix(1,0,0,1,3,15)" stroke-linecap="butt">
        <path fill="none" d="M402.9462 132.3886 L402.9462 153.3886 L353.6234 153.3886 L353.6234 154.8204"/>
        <path d="M353.6234 162.8204 L358.6234 150.8204 L353.6234 153.8204 L348.6234 150.8204 Z" stroke="none"/>
      </g>
    </g>
    <g id="y.edge.3">
      <g text-rendering="geometricPrecision" stroke-miterlimit="1.45" shape-rendering="geometricPrecision" transform="matrix(1,0,0,1,3,15)" stroke-linecap="butt">
        <path fill="none" d="M382.5191 126.7324 L382.5191 146.3886 L87.4468 146.3886 L87.4468 541.2162 L178.6973 541.2162 L178.6973 597.6016"/>
        <path d="M178.6973 605.6016 L183.6973 593.6016 L178.6973 596.6016 L173.6973 593.6016 Z" stroke="none"/>
      </g>
    </g>
    <g id="y.edge.10">
      <g text-rendering="geometricPrecision" stroke-miterlimit="1.45" shape-rendering="geometricPrecision" transform="matrix(1,0,0,1,3,15)" stroke-linecap="butt">
        <path fill="none" d="M486.3141 591.633 L486.3141 598.633 L290.7932 598.633 L290.7932 605.6057"/>
        <path d="M290.7932 605.6057 L295.7932 593.6057 L290.7932 596.6057 L285.7932 593.6057 Z" stroke="none"/>
      </g>
    </g>
    <g id="y.edge.2">
      <g text-rendering="geometricPrecision" stroke-miterlimit="1.45" shape-rendering="geometricPrecision" transform="matrix(1,0,0,1,3,15)" stroke-linecap="butt">
        <path fill="none" d="M423.3733 132.3886 L423.3733 153.3886 L472.696 153.3886 L472.696 261.1059"/>
        <path d="M472.696 269.1059 L477.696 257.1059 L472.696 260.1059 L467.696 257.1059 Z" stroke="none"/>
      </g>
    </g>
    <g id="y.edge.4">
      <g text-rendering="geometricPrecision" stroke-miterlimit="1.45" shape-rendering="geometricPrecision" transform="matrix(1,0,0,1,3,15)" stroke-linecap="butt">
        <path fill="none" d="M316.2581 208.5404 L316.2581 222.1342 L118.2048 222.1342 L118.2048 229.1068"/>
        <path d="M118.2048 229.1068 L123.2048 217.1068 L118.2048 220.1068 L113.2048 217.1068 Z" stroke="none"/>
      </g>
    </g>
    <g id="y.edge.5">
      <g text-rendering="geometricPrecision" stroke-miterlimit="1.45" shape-rendering="geometricPrecision" transform="matrix(1,0,0,1,3,15)" stroke-linecap="butt">
        <path fill="none" d="M118.2048 259.1342 L118.2048 266.1342 L94.4468 266.1342 L94.4468 534.2162 L216.0626 534.2162 L216.0626 597.5981"/>
        <path d="M216.0626 605.5981 L221.0626 593.5981 L216.0626 596.5981 L211.0626 593.5981 Z" stroke="none"/>
      </g>
    </g>
    <g id="y.edge.7">
      <g text-rendering="geometricPrecision" stroke-miterlimit="1.45" shape-rendering="geometricPrecision" transform="matrix(1,0,0,1,3,15)" stroke-linecap="butt">
        <path fill="none" d="M390.9886 206.9588 L390.9888 221.0909"/>
        <path d="M390.9889 229.0909 L395.9887 217.0908 L390.9888 220.0909 L385.9888 217.0909 Z" stroke="none"/>
      </g>
    </g>
    <g id="y.edge.6">
      <g text-rendering="geometricPrecision" stroke-miterlimit="1.45" shape-rendering="geometricPrecision" transform="matrix(1,0,0,1,3,15)" stroke-linecap="butt">
        <path fill="none" d="M390.9889 259.1342 L390.9889 261.0951"/>
        <path d="M390.9889 269.0951 L395.9889 257.0951 L390.9889 260.0951 L385.9889 257.0951 Z" stroke="none"/>
      </g>
    </g>
    <g id="y.edge.0">
      <g text-rendering="geometricPrecision" stroke-miterlimit="1.45" shape-rendering="geometricPrecision" transform="matrix(1,0,0,1,3,15)" stroke-linecap="butt">
        <path fill="none" d="M464.2274 104.6699 L464.2274 139.3886 L586.8306 139.3886 L586.8307 625.861"/>
        <path d="M586.8307 633.861 L591.8307 621.861 L586.8307 624.861 L581.8307 621.861 Z" stroke="none"/>
      </g>
    </g>
    <g id="y.edge.21">
      <g text-rendering="geometricPrecision" stroke-miterlimit="1.45" shape-rendering="geometricPrecision" transform="matrix(1,0,0,1,3,15)" stroke-linecap="butt">
        <path fill="none" d="M544.1089 591.633 L544.109 625.8499"/>
        <path d="M544.109 633.8499 L549.109 621.8499 L544.109 624.8499 L539.109 621.8499 Z" stroke="none"/>
      </g>
    </g>
    <g id="y.edge.25">
      <g text-rendering="geometricPrecision" stroke-miterlimit="1.45" shape-rendering="geometricPrecision" transform="matrix(1,0,0,1,3,15)" stroke-linecap="butt">
        <path fill="none" d="M486.3139 376.343 L486.3139 395.045"/>
        <path d="M486.3139 403.045 L491.3139 391.045 L486.3139 394.045 L481.3139 391.045 Z" stroke="none"/>
      </g>
    </g>
    <g id="y.edge.24">
      <g text-rendering="geometricPrecision" stroke-miterlimit="1.45" shape-rendering="geometricPrecision" transform="matrix(1,0,0,1,3,15)" stroke-linecap="butt">
        <path fill="none" d="M486.3139 445.0711 L486.314 454.7647"/>
        <path d="M486.3141 462.7647 L491.3139 450.7646 L486.314 453.7647 L481.3139 450.7647 Z" stroke="none"/>
      </g>
    </g>
    <g id="y.edge.9">
      <g text-rendering="geometricPrecision" stroke-miterlimit="1.45" shape-rendering="geometricPrecision" transform="matrix(1,0,0,1,3,15)" stroke-linecap="butt">
        <path fill="none" d="M184.9248 692.1493 L184.9248 699.1493 L144.75 699.1493 L144.75 706.1493"/>
        <path d="M144.75 706.1493 L149.75 694.1493 L144.75 697.1493 L139.75 694.1493 Z" stroke="none"/>
      </g>
    </g>
    <g id="y.edge.22">
      <g text-rendering="geometricPrecision" stroke-miterlimit="1.45" shape-rendering="geometricPrecision" transform="matrix(1,0,0,1,3,15)" stroke-linecap="butt">
        <path fill="none" d="M234.7452 692.1493 L234.7452 699.1493 L239.7619 699.1493 L239.7619 706.1493"/>
        <path d="M239.7619 706.1493 L244.7619 694.1493 L239.7619 697.1493 L234.7619 694.1493 Z" stroke="none"/>
      </g>
    </g>
    <g id="y.edge.8">
      <g text-rendering="geometricPrecision" stroke-miterlimit="1.45" shape-rendering="geometricPrecision" transform="matrix(1,0,0,1,3,15)" stroke-linecap="butt">
        <path fill="none" d="M144.75 736.1884 L144.75 738.1104"/>
        <path d="M144.75 746.1104 L149.75 734.1104 L144.75 737.1104 L139.75 734.1104 Z" stroke="none"/>
      </g>
    </g>
    <g id="y.edge.23">
      <g text-rendering="geometricPrecision" stroke-miterlimit="1.45" shape-rendering="geometricPrecision" transform="matrix(1,0,0,1,3,15)" stroke-linecap="butt">
        <path fill="none" d="M362.092 104.6699 L362.092 139.3886 L56.25 139.3886 L56.25 738.1122"/>
        <path d="M56.25 746.1122 L61.25 734.1122 L56.25 737.1122 L51.25 734.1122 Z" stroke="none"/>
      </g>
    </g>
    <g id="y.edge.12">
      <g text-rendering="geometricPrecision" stroke-miterlimit="1.45" shape-rendering="geometricPrecision" transform="matrix(1,0,0,1,3,15)" stroke-linecap="butt">
        <path fill="none" d="M284.5656 692.1493 L284.5656 699.1493 L331.4234 699.1493 L331.4234 706.1493"/>
        <path d="M331.4234 706.1493 L336.4234 694.1493 L331.4234 697.1493 L326.4234 694.1493 Z" stroke="none"/>
      </g>
    </g>
    <g id="y.edge.13">
      <g text-rendering="geometricPrecision" stroke-miterlimit="1.45" shape-rendering="geometricPrecision" transform="matrix(1,0,0,1,3,15)" stroke-linecap="butt">
        <path fill="none" d="M383.2711 706.1493 L383.271 390.343 L431.8425 390.343 L431.8425 384.343"/>
        <path d="M431.8425 376.343 L426.8425 388.343 L431.8425 385.343 L436.8425 388.343 Z" stroke="none"/>
      </g>
    </g>
    <g id="y.edge.17">
      <g text-rendering="geometricPrecision" stroke-miterlimit="1.45" shape-rendering="geometricPrecision" transform="matrix(1,0,0,1,3,15)" stroke-linecap="butt">
        <path fill="none" d="M253.4278 341.8797 L253.4278 382.2957"/>
        <path d="M253.4278 390.2957 L258.4278 378.2957 L253.4278 381.2957 L248.4278 378.2957 Z" stroke="none"/>
      </g>
    </g>
    <g id="y.edge.14">
      <g text-rendering="geometricPrecision" stroke-miterlimit="1.45" shape-rendering="geometricPrecision" transform="matrix(1,0,0,1,3,15)" stroke-linecap="butt">
        <path fill="none" d="M377.371 376.343 L377.371 383.343 L277.7702 383.343 L277.7702 390.3157"/>
        <path d="M277.7702 390.3157 L282.7702 378.3157 L277.7702 381.3157 L272.7702 378.3157 Z" stroke="none"/>
      </g>
    </g>
    <g id="y.edge.15">
      <g text-rendering="geometricPrecision" stroke-miterlimit="1.45" shape-rendering="geometricPrecision" transform="matrix(1,0,0,1,3,15)" stroke-linecap="butt">
        <path fill="none" d="M253.4278 457.7993 L253.4279 597.5969"/>
        <path d="M253.4279 605.5969 L258.4279 593.5969 L253.4279 596.5969 L248.4279 593.5969 Z" stroke="none"/>
      </g>
    </g>
    <g id="y.edge.16">
      <g text-rendering="geometricPrecision" stroke-miterlimit="1.45" shape-rendering="geometricPrecision" transform="matrix(1,0,0,1,3,15)" stroke-linecap="butt">
        <path fill="none" d="M129.0837 336.3948 L129.0837 350.7386 L229.0853 350.7386 L229.0853 382.3043"/>
        <path d="M229.0853 390.3043 L234.0853 378.3043 L229.0853 381.3043 L224.0853 378.3043 Z" stroke="none"/>
      </g>
    </g>
    <g id="y.edge.19">
      <g text-rendering="geometricPrecision" stroke-miterlimit="1.45" shape-rendering="geometricPrecision" transform="matrix(1,0,0,1,3,15)" stroke-linecap="butt">
        <path fill="none" d="M565.4698 663.8912 L565.4698 670.8912 L507.2268 670.8912 L507.2268 698.1149"/>
        <path d="M507.2268 706.1149 L512.2268 694.1149 L507.2268 697.1149 L502.2268 694.1149 Z" stroke="none"/>
      </g>
    </g>
    <g id="y.edge.20">
      <g text-rendering="geometricPrecision" stroke-miterlimit="1.45" shape-rendering="geometricPrecision" transform="matrix(1,0,0,1,3,15)" stroke-linecap="butt">
        <path fill="none" d="M449.0095 663.8912 L449.0095 670.8912 L451.8723 670.8912 L451.8723 698.1149"/>
        <path d="M451.8723 706.1149 L456.8723 694.1149 L451.8723 697.1149 L446.8723 694.1149 Z" stroke="none"/>
      </g>
    </g>
    <g id="y.edge.18">
      <g text-rendering="geometricPrecision" stroke-miterlimit="1.45" shape-rendering="geometricPrecision" transform="matrix(1,0,0,1,3,15)" stroke-linecap="butt">
        <path fill="none" d="M479.5496 736.1493 L479.5496 787.5371"/>
        <path d="M479.5496 795.5371 L484.5496 783.5371 L479.5496 786.5371 L474.5496 783.5371 Z" stroke="none"/>
      </g>
    </g>
  </g>
</svg>
