<?xml version="1.0" encoding="UTF-8" standalone="no"?>
<!-- Created with Inkscape (http://www.inkscape.org/) -->

<svg
   xmlns:dc="http://purl.org/dc/elements/1.1/"
   xmlns:cc="http://creativecommons.org/ns#"
   xmlns:rdf="http://www.w3.org/1999/02/22-rdf-syntax-ns#"
   xmlns:svg="http://www.w3.org/2000/svg"
   xmlns="http://www.w3.org/2000/svg"
   xmlns:sodipodi="http://sodipodi.sourceforge.net/DTD/sodipodi-0.dtd"
   xmlns:inkscape="http://www.inkscape.org/namespaces/inkscape"
   width="88.716248"
   height="26.501158"
   viewBox="0 0 88.716248 26.501158"
   id="svg4283"
   version="1.1"
   inkscape:version="0.91 r"
   sodipodi:docname="handwritten.svg">
  <defs
     id="defs4285" />
  <sodipodi:namedview
     id="base"
     pagecolor="#ffffff"
     bordercolor="#666666"
     borderopacity="1.0"
     inkscape:pageopacity="0.0"
     inkscape:pageshadow="2"
     inkscape:zoom="2.8"
     inkscape:cx="4.063627"
     inkscape:cy="-2.2740931"
     inkscape:document-units="px"
     inkscape:current-layer="layer1"
     showgrid="false"
     units="px"
     width="100px"
     inkscape:snap-page="true"
     inkscape:window-width="1908"
     inkscape:window-height="1022"
     inkscape:window-x="0"
     inkscape:window-y="25"
     inkscape:window-maximized="1"
     fit-margin-top="0"
     fit-margin-left="0"
     fit-margin-right="0"
     fit-margin-bottom="0" />
  <metadata
     id="metadata4288">
    <rdf:RDF>
      <cc:Work
         rdf:about="">
        <dc:format>image/svg+xml</dc:format>
        <dc:type
           rdf:resource="http://purl.org/dc/dcmitype/StillImage" />
        <dc:title></dc:title>
      </cc:Work>
    </rdf:RDF>
  </metadata>
  <g
     inkscape:label="Layer 1"
     inkscape:groupmode="layer"
     id="layer1"
     transform="translate(-6.195063,-995.23764)">
    <g
       id="g4876"
       transform="matrix(0.9219299,0,0,1.0004953,74.480198,-68.354238)">
      <g
         id="g4883"
         transform="matrix(0.32762807,0,0,0.32762807,-49.800975,714.60982)">
        <path
           style="opacity:1;fill:#8d3031;fill-opacity:1;stroke:#8d3031;stroke-width:1;stroke-linecap:round;stroke-linejoin:round;stroke-miterlimit:4;stroke-dasharray:none;stroke-dashoffset:0;stroke-opacity:1"
           id="path4864"
           d="m -46.715833,1079.474 c 1.455896,-0.9549 2.85633,-1.9779 4.176509,-3.1133 0.984586,-0.8518 1.657952,-1.954 2.30276,-3.0672 0.680669,-1.0111 1.075024,-2.1358 1.403315,-3.2978 0.225392,-0.9515 0.481406,-1.8928 0.627976,-2.8606 0.261009,-1.89 1.548748,-1.0411 4.76938,-2.4444 0.06051,-0.026 -0.06589,0.1156 -0.08547,0.1786 -0.08391,0.2702 -0.12324,0.5522 -0.186406,0.8279 -0.397147,1.1093 -0.740077,2.223 -0.923064,3.3879 -0.184073,1.244 -0.364459,2.4665 -0.785509,3.6546 -0.420336,0.9757 -0.634146,1.9962 -0.739547,3.0473 -0.0292,1.2073 -0.159609,2.4064 -0.275022,3.6074 -0.163957,1.3356 -0.47961,2.6454 -0.959704,3.9014 -0.511455,1.1491 -0.886394,2.3455 -1.229737,3.553 -0.349611,1.2661 -0.72765,2.5242 -1.082282,3.79 -0.496823,1.7765 -1.25594,3.4594 -1.908181,5.1811 -0.482308,1.5936 -1.039092,3.1604 -1.59344,4.7303 -0.654042,2.0057 -1.675293,3.8553 -2.662057,5.71 -1.332204,2.3388 -2.580047,4.7206 -4.057293,6.9729 -1.132015,1.6962 -2.344002,3.3307 -3.768186,4.7917 -2.33558,2.1352 -5.244416,3.5024 -7.964555,5.0628 -1.059044,0.6075 -1.175421,0.6443 -2.259277,1.1796 -1.792022,0.855 -3.597874,1.7059 -5.453477,2.4169 -0.992356,0.2633 -2.051282,0.089 -2.77766,-0.6931 -0.150138,-0.1615 -0.258979,-0.357 -0.388469,-0.5356 -0.748552,-1.2655 -1.063306,-2.6995 -1.03,-4.1565 0.130935,-1.2084 0.630368,-2.3111 1.30918,-3.3045 1.876627,-2.5095 3.543977,-2.8735 6.748594,-4.6553 1.103092,0.026 2.167138,0.4244 3.158135,0.8832 1.097926,0.5406 1.997385,1.368 2.883386,2.1947 0.983016,0.9513 1.957645,1.913 2.879206,2.9243 1.001791,1.0577 2.05119,2.0665 3.14876,3.0237 1.297453,1.2357 2.512947,2.5527 3.710954,3.8838 1.134197,1.4179 2.182224,2.9003 3.371991,4.2727 0.883438,1.0599 1.896207,1.9679 3.001047,2.7872 1.318126,0.865 2.780869,1.4482 4.309244,1.8098 2.433848,0.2798 4.831428,0.7705 7.267697,1.0468 3.469065,0.3258 6.956071,0.3664 10.437654,0.3976 3.06891,0.018 6.137954,0.015 9.206833,-0.01 1.320507,0.035 2.6660322,-0.097 3.9195119,-0.5392 0.5136193,-0.1813 1.0614236,-0.472 1.5475344,-0.7137 -7.1098223,4.2005 -3.8674383,2.3381 -2.4549412,1.134 0.6216136,-0.5298 1.1708706,-1.1013 1.7084676,-1.7142 0.8922814,-1.1403 1.6741555,-2.3581 2.3268121,-3.6495 0.8076364,-1.3396 1.3137022,-2.8626 2.320168,-4.0727 2.96357025,-1.8467 5.2595898,-4.711 5.7829763,-1.0664 0.089742,0.9171 0.072823,1.8399 0.070352,2.7601 0.065287,1.1112 0.1720753,2.2208 0.3553827,3.319 0.1054903,1.0547 0.3607908,2.0442 0.784938,3.0127 0.4341494,1.0008 1.0435199,1.8498 1.7860619,2.6387 0.5943639,0.6913 1.3106391,1.1214 2.200816,1.2812 1.2240519,0.1322 2.4605673,0.1017 3.6901333,0.1029 1.618854,-0.01 3.23772,-0.01 4.856563,-0.015 0.489148,-0.039 0.888962,-0.046 1.362395,-0.182 1.498942,-0.4318 6.494343,-3.4926 -2.247387,1.4601 0.953033,-0.6651 1.556005,-1.5727 1.89627,-2.6667 0.258838,-1.2259 0.248296,-2.4879 0.251064,-3.735 -0.03669,-1.3217 -0.283555,-2.6195 -0.592848,-3.9006 -0.293864,-1.3266 -0.791572,-2.5981 -1.293843,-3.8573 -0.393005,-1.2374 -0.945781,-2.3563 -1.718414,-3.3963 -0.948467,-1.0992 -1.814158,-2.2997 -3.051954,-3.0865 -1.289587,-0.845 -2.7294868,-1.1257 -4.2169681,-1.3912 -1.5248918,-0.2617 -3.0702262,-0.3672 -4.6146444,-0.4206 -1.54080161,-0.1621 -2.82634933,0.5142 -4.1447816,1.2071 -1.5821026,0.865 -3.3767236,1.8541 2.8091024,-1.6376 0.2467811,-0.1393 -0.48541567,0.2927 -0.72412676,0.4454 -0.60141465,0.3848 -1.16087537,0.8004 -1.70832454,1.2572 -1.1173826,0.8797 -1.4576776,2.0767 -1.6588753,3.4238 -0.1664647,1.5635 -0.1446954,3.1384 -0.1439863,4.7084 -0.048216,1.2883 0.023349,2.5345 0.5013898,3.739 0.397176,1.0651 1.1300849,1.9209 1.87752515,2.7552 0.88528677,0.8588 1.94829925,1.4245 3.11263905,1.7988 1.7032891,0.4562 2.5971708,0 4.1025283,-0.7792 0,0 -4.0764391,3.2549 -4.0764391,3.2549 l 0,0 c -1.62367722,0.7465 -2.66380558,1.0513 -4.4040326,0.4837 -1.2090211,-0.4627 -2.3308442,-1.0962 -3.2450744,-2.0287 -0.7869103,-0.8815 -1.5667278,-1.7823 -1.9773363,-2.9103 -0.50932,-1.2651 -0.6553648,-2.5653 -0.5742222,-3.9262 -0.00561,-1.5905 -0.010595,-3.1837 0.1121303,-4.7706 0.1611797,-1.3988 0.374405,-2.7846 1.4941788,-3.7608 0.7349326,-0.6955 1.5502455,-1.3027 2.4258629,-1.814 4.731041,-2.7629 3.62741328,-2.1639 6.1590316,-3.5087 1.47493,-0.7253 2.6739839,-1.1868 4.3439682,-1.0195 1.5494131,0.081 3.0973085,0.2278 4.6260171,0.4987 1.551615,0.2784 3.032079,0.6636 4.35983,1.5577 1.242505,0.8773 2.158739,2.0919 3.143356,3.2387 0.807055,1.0742 1.398459,2.2243 1.78562,3.5156 0.516168,1.2787 1.032394,2.5748 1.340871,3.9205 0.30895,1.3203 0.582266,2.6514 0.654863,4.0093 -0.0068,1.2845 0.0012,2.5767 -0.187621,3.8504 -0.253681,1.1986 -0.816223,2.2075 -1.750746,3.019 -1.215107,0.7159 -4.60235,3.1973 -6.879303,3.6288 -0.484959,0.092 -0.907884,0.09 -1.400378,0.1106 -1.617894,0 -3.2357481,0.01 -4.8536336,0.012 -1.2659016,10e-4 -2.5532095,0.063 -3.8018906,-0.1762 -0.9409831,-0.2772 -1.7121489,-0.8034 -2.3560563,-1.5495 -0.77390847,-0.8384 -1.40899311,-1.7414 -1.87041348,-2.7918 -0.45501844,-1.0034 -0.76227562,-2.0255 -0.85145812,-3.1297 -0.1865533,-1.1253 -0.2976393,-2.2574 -0.4088155,-3.3926 0.00693,-0.8983 0.02056,-1.7984 -0.041786,-2.6952 -0.032551,-0.2899 -0.037642,-0.6638 -0.1975582,-0.9244 -0.020627,-0.034 -0.054543,-0.075 -0.0939,-0.072 -0.049929,0 -0.1661208,0.1114 -0.1231452,0.086 1.40397371,-0.8368 2.8043034,-1.6798 4.2064551,-2.5197 -1.21344279,1.0576 -1.57053578,2.5902 -2.4120197,3.9269 -0.61923445,1.3418 -1.4126566,2.5798 -2.2822869,3.7736 -2.2082607,2.7255 -4.9750827,4.3156 -8.1924025,5.898 -1.829441,0.8132 -3.548804,1.1501 -5.564272,1.0393 -3.053597,-0.015 -6.107279,-0.01 -9.160814,-0.034 -3.497678,-0.046 -7.000583,-0.097 -10.485378,-0.4277 -2.473265,-0.2791 -4.923323,-0.7225 -7.38927,-1.0483 -1.570014,-0.426 -3.076666,-1.0535 -4.423678,-1.9787 -1.137308,-0.8406 -2.173001,-1.785 -3.064494,-2.8886 -1.162608,-1.3873 -2.206576,-2.8658 -3.342469,-4.2747 -1.183014,-1.3209 -2.408316,-2.6038 -3.706995,-3.8122 -1.107708,-0.9732 -2.161151,-2.0015 -3.171197,-3.0764 -0.92422,-0.993 -1.901801,-1.9349 -2.877267,-2.8774 -0.84967,-0.7862 -1.725101,-1.56 -2.788736,-2.0468 -0.904862,-0.3795 -1.950915,-0.8123 -2.935325,-0.5283 1.395432,-0.8161 2.798406,-1.6195 4.186296,-2.4484 0.125289,-0.075 -0.274309,0.1057 -0.396722,0.1852 -0.605759,0.3931 -1.017973,1.0429 -1.518547,1.5467 -0.705563,0.8953 -1.230917,1.9022 -1.450921,3.0316 -0.107594,1.3391 0.163674,2.6705 0.864379,3.8307 0.816949,1.0478 1.549152,1.0616 2.766381,0.6708 1.81866,-0.7322 3.612838,-1.5345 5.366879,-2.4097 1.553155,-0.7965 5.799762,-3.1801 -1.130006,0.7618 -0.323209,0.1839 0.641557,-0.3771 0.949503,-0.5855 0.279358,-0.1891 0.543884,-0.3993 0.810665,-0.6057 0.236141,-0.1828 0.465241,-0.3744 0.697861,-0.5616 1.456285,-1.4314 2.724014,-3.0197 3.858177,-4.72 1.511784,-2.221 2.743523,-4.5945 4.077051,-6.9235 0.96214,-1.8297 1.98399,-3.6425 2.637344,-5.6126 0.548793,-1.5802 1.155354,-3.1384 1.603096,-4.7516 0.658905,-1.702 1.389594,-3.3782 1.906741,-5.13 0.201108,-0.6873 0.349887,-1.3864 0.551816,-2.0729 0.112452,-0.3823 0.274119,-0.7491 0.385382,-1.1317 0.05453,-0.1876 0.08624,-0.381 0.129361,-0.5715 0.324979,-1.228 0.69413,-2.4467 1.20994,-3.6102 0.508814,-1.2062 0.843609,-2.4588 1.015308,-3.7589 0.108365,-1.2001 0.284674,-2.3941 0.279949,-3.6019 0.06532,-1.0944 0.231816,-2.1688 0.68013,-3.1804 0.06577,-0.1694 0.381763,-0.9713 0.43053,-1.1462 0.218413,-0.7837 0.191941,-1.6191 0.398092,-2.4064 0.161917,-1.1807 0.434227,-2.3266 0.886935,-3.4334 0.04253,-0.1454 0.100071,-0.2872 0.127578,-0.4361 0.02908,-0.1575 0.01368,-0.622 0.06189,-0.6491 1.174389,-0.6617 5.262735,-4.3724 4.856175,-2.0922 -0.173473,0.9835 -0.376276,1.9536 -0.629917,2.9196 -0.303456,1.1999 -0.652449,2.3885 -1.357627,3.4238 -0.637391,1.1544 -1.283917,2.3185 -2.25014,3.2358 -1.284124,1.1569 -2.651799,2.2201 -4.125247,3.1273 0,0 -4.91492,1.9646 -4.91492,1.9646 z"
           inkscape:connector-curvature="0" />
        <path
           style="opacity:1;fill:#8d3031;fill-opacity:1;stroke:#8d3031;stroke-width:1;stroke-linecap:round;stroke-linejoin:round;stroke-miterlimit:4;stroke-dasharray:none;stroke-dashoffset:0;stroke-opacity:1"
           id="path4866"
           d="m 21.647283,1128.3718 c -0.03422,1.6064 -0.07768,3.2129 0.105761,4.8112 0.1587,1.4374 0.410617,2.8431 1.002357,4.1675 0.485931,0.9514 1.430121,1.2592 2.409521,1.4729 1.964615,0.3934 3.883883,0.038 5.809892,-0.3716 3.152105,-0.7981 6.1046,-2.1004 8.956381,-3.6374 -0.936706,0.5294 -1.826183,1.1528 -2.810118,1.5882 -0.577638,0.2555 1.065255,-0.68 1.581189,-1.0444 1.605789,-1.1343 3.107993,-2.4229 4.45623,-3.8547 0.500939,-0.532 0.964488,-1.098 1.446731,-1.647 3.636954,-4.5806 6.253202,-9.8402 8.876946,-15.0357 3.309559,-6.3807 5.419246,-13.2511 7.253804,-20.1705 1.639444,-5.6223 2.751761,-11.3749 4.046096,-17.0808 0.584657,-2.5591 1.1739,-5.1167 1.717809,-7.6849 0.04565,-0.2349 0.09386,-0.4693 0.136943,-0.7047 0.07676,-0.4194 0.126062,-0.7338 0.177464,-1.1542 0.01097,-0.09 -0.05786,-0.2341 0.02507,-0.2701 5.047286,-2.1925 4.759534,-3.4709 4.783795,-0.9341 -0.0094,2.974 -0.03436,5.9479 -0.04466,8.922 -0.01599,3.7222 -0.01573,7.4444 -0.01334,11.1667 -0.0027,3.6718 -0.0036,7.3437 0.003,11.0156 0.0501,3.0753 -0.279589,6.1393 -0.47807,9.2048 -0.123079,1.8758 -0.157362,3.7555 -0.1787,5.6347 -0.07188,1.5268 0.147058,3.034 0.406807,4.5324 0.166247,1.2595 0.691451,2.3995 1.179881,3.5568 0.508764,1.2043 1.126771,2.3529 1.733383,3.5096 0.538413,1.0148 1.238637,1.9271 2.061599,2.7252 0.869984,0.7224 1.907242,1.192 2.897166,1.7237 0.839112,0.3783 1.409133,1.117 2.12564,1.6649 0.365804,0.2797 0.59205,0.4047 0.983549,0.6449 1.010395,0.5523 2.128857,0.6737 3.256257,0.7422 1.259393,0 2.537624,0.147 3.781117,-0.083 2.182834,-0.3729 6.481182,-3.1075 -1.357187,1.3578 1.179424,-0.7532 2.306234,-1.5851 3.463335,-2.3717 1.239728,-0.782 2.503736,-1.5104 3.663858,-2.4094 1.053378,-0.8056 1.691437,-1.9897 2.423996,-3.0679 0.670212,-0.8994 1.089811,-1.8958 1.324534,-2.9849 0.211847,-1.3148 0.219259,-2.6499 0.231112,-3.9781 -0.02286,-0.4453 0.16064,-2.0264 -0.633447,-1.9164 -0.822824,0.2112 -1.633419,0.4506 -2.467223,0.6352 -0.803801,0.2048 -1.642166,0.2133 -2.431801,0.4742 -0.385136,0.1272 -0.757517,0.2902 -1.136354,0.4351 -0.170299,0.08 -0.339642,0.1623 -0.510899,0.2403 -0.159421,0.073 -0.323088,0.1359 -0.481055,0.2117 -0.148699,0.071 -0.581347,0.3114 -0.438425,0.2292 7.339162,-4.2246 4.910071,-3.0395 3.489899,-1.8604 -0.878746,0.8001 -1.376425,1.888 -1.800773,2.9753 -0.448085,1.464 -0.624017,2.9995 -0.818225,4.5146 -0.15389,1.2709 -0.199092,2.551 -0.218903,3.8299 -0.01273,1.0855 8.1e-5,2.171 9.21e-4,3.2566 0.124513,1.1393 0.650862,2.1923 1.411119,3.036 0.923609,0.9008 2.117268,1.1925 3.353764,1.3557 1.393584,0.115 2.794153,0.095 4.191251,0.092 1.94981,0 3.89964,0 5.84945,-0.01 0.96804,-0.029 1.96298,0.022 2.9252,-0.1203 0.91826,-0.1358 1.78892,-0.4893 2.65511,-0.8046 0.92543,-0.4849 6.96184,-3.6576 -3.14702,1.8097 -0.21602,0.1168 0.41147,-0.2695 0.60368,-0.4224 0.63447,-0.5046 1.01632,-1.066 1.42058,-1.7576 0.88677,-2.0261 1.42078,-4.1831 1.88093,-6.3395 0.38975,-1.9759 0.51083,-3.9868 0.57645,-5.9951 0.10343,-1.4278 -0.0238,-2.8205 -0.28645,-4.2215 -0.32172,-1.1213 -0.42019,-2.3508 -0.96643,-3.3951 -0.0379,-0.028 -0.0813,-0.1179 -0.11372,-0.084 -0.0448,0.047 -0.0499,0.2245 0.008,0.1948 1.52895,-0.7833 2.97907,-1.7139 4.50339,-2.5061 0.069,-0.036 -0.0722,0.139 -0.0933,0.2139 -0.0527,0.1876 -0.0709,0.4831 -0.0886,0.671 -0.0353,1.0344 0.45713,1.9455 0.95759,2.8153 0.71628,1.2061 1.74972,2.0945 3.00959,2.6856 0.94854,0.4965 1.97058,0.6952 3.02561,0.7774 1.59127,0.069 3.18486,0.059 4.77723,0.049 1.34557,0.054 2.69244,-0.1193 3.95329,-0.5987 1.68472,-0.845 2.34377,-1.1871 -3.42904,1.984 -0.20803,0.1143 0.39591,-0.262 0.58999,-0.3986 0.62105,-0.4373 1.20937,-0.9147 1.79496,-1.3975 1.06677,-0.7483 2.02558,-1.6384 3.0679,-2.4164 1.61626,-0.8502 3.17026,-1.8311 4.84878,-2.5506 0.14054,-0.06 0.42989,0.6655 0.44112,0.7179 0.0337,0.1572 0.0391,0.3213 0.0264,0.4815 -0.0297,0.3729 -0.19515,0.7944 -0.30876,1.1396 -0.52556,1.3133 -0.89059,2.676 -1.2925,4.0294 -0.41351,1.3082 -0.80782,2.6208 -1.17509,3.9428 -0.32879,1.3806 -0.72049,2.7457 -1.04862,4.1265 -0.29687,1.0818 -0.24972,2.1856 -0.11036,3.2858 0.13757,1.2618 0.57938,2.4248 1.14033,3.5509 0.43324,1.0324 1.20714,1.7908 2.01267,2.5334 0.73869,0.7015 1.68096,0.9786 2.63786,1.239 0.79999,0.1331 1.67731,0.3767 2.49062,0.1664 0.18275,-0.047 0.34911,-0.1437 0.52367,-0.2155 1.55601,-0.9179 4.56235,-2.1209 -2.7213,1.5212 -0.25331,0.1267 0.44388,-0.3522 0.65753,-0.5381 0.51257,-0.4461 0.78219,-0.7349 1.26324,-1.2184 1.16342,-1.2563 1.84605,-2.8568 2.58605,-4.3806 0.73791,-1.7028 1.58726,-3.3516 2.39156,-5.0226 0.73358,-1.4511 1.35937,-2.9512 1.93317,-4.4714 0.79886,-1.8859 0.29954,-0.8861 5.00659,-2.4489 0.1638,-0.054 0.1007,0.3312 0.12916,0.5014 0.10937,0.654 0.0867,1.3426 0.0935,2.0024 0.005,1.5373 -0.0223,3.0743 -0.0325,4.6114 0.0111,1.5828 -0.052,3.1673 0.0299,4.7486 -0.007,1.2628 0.46569,2.2839 1.2049,3.2701 1.00575,1.0003 1.62049,0.8668 2.92929,0.6263 0.66356,-0.2025 1.33585,-0.3494 1.96334,-0.6554 0.22647,-0.1104 0.4422,-0.2417 0.66074,-0.3671 0.22823,-0.131 0.90879,-0.5308 0.67943,-0.4018 -1.26625,0.7118 -2.52682,1.4338 -3.79024,2.1507 1.55589,-1.1443 3.12499,-2.2698 4.69447,-3.3955 1.64431,-1.1241 3.07091,-2.4807 4.28725,-4.051 0.86708,-1.2219 1.4671,-2.5948 1.89895,-4.0228 0.3818,-1.488 0.94858,-2.9182 1.34439,-4.402 0.46226,-1.662 0.6498,-3.378 0.76238,-5.0939 0.0679,-1.3945 0.0876,-2.7916 0.0647,-4.1876 -0.0725,-2.1314 -0.59812,-0.4637 4.74659,-2.6741 0.085,-0.035 0.0361,0.1804 0.0518,0.2711 0.1,0.576 0.006,0.1778 0.17446,0.7854 0.34219,0.8768 0.52336,1.7963 0.73832,2.7078 0.15739,0.9227 0.48659,1.7326 1.20563,2.3447 1.10175,0.7773 2.34046,1.103 3.65352,1.2918 1.54865,0.1762 3.11065,0.1619 4.66692,0.1705 2.15777,0.095 4.29872,-0.1749 6.39704,-0.6612 1.40979,-0.4053 2.83268,-0.8213 4.1748,-1.423 0.24294,-0.1089 1.55873,-0.7962 1.81656,-0.93 -6.96899,3.9769 -3.72565,2.2399 -2.27572,1.1904 0.63599,-0.4604 1.22167,-0.974 1.80626,-1.4966 0.91064,-0.7648 1.64281,-1.6956 2.38675,-2.6137 3.6976,-2.2766 5.4476,-4.4859 5.03626,-0.7615 -0.0959,1.1717 -0.22487,2.3376 -0.36705,3.5045 -0.29264,1.6827 -0.38901,3.388 -0.69762,5.0672 -0.55321,2.1907 -1.14981,4.3704 -1.77435,6.5421 -0.65565,2.0719 -1.12381,4.1964 -1.8604,6.2417 -0.65002,1.6221 -1.28629,3.2491 -2.13336,4.78 -0.5073,0.9571 -1.07912,1.863 -1.86181,2.616 -1.27133,0.5303 -4.26543,3.36 -6.61555,3.1624 -0.17717,-0.015 -0.34805,-0.073 -0.52207,-0.1093 -1.32813,-0.3994 -2.06338,-1.637 -2.73711,-2.7605 -0.64834,-1.1232 -0.86032,-2.4009 -0.97817,-3.673 -0.13482,-1.0897 -0.012,-2.1208 0.45337,-3.1149 1.17204,-1.7333 3.99512,-4.0543 6.08221,-3.1109 0.32465,0.1467 0.50681,0.3 0.79424,0.507 0.78833,0.7067 1.26449,1.6718 1.90578,2.5004 0.74096,0.7938 1.87138,0.9954 2.89992,1.1602 1.41218,0.1627 2.8363,0.1537 4.2556,0.164 1.99246,-0.3233 3.96766,-0.7433 5.95829,-1.0773 1.61457,-0.2293 3.15841,-0.7126 4.68877,-1.2571 1.14164,-0.322 2.3185,-0.6474 3.35431,-1.2379 -9.36333,5.0004 -4.34006,3.2025 -3.6417,1.7569 0.2475,-0.5123 0.27279,-1.1019 0.32759,-1.6559 0.12674,-1.2015 -0.0249,-2.3599 -0.66937,-3.3903 -0.69324,-0.8907 -1.75205,-1.4107 -2.78673,-1.8054 -0.54869,-0.1848 -1.12268,-0.25 -1.69377,-0.3199 0,0 4.31616,-3.0422 4.31616,-3.0422 l 0,0 c 0.59863,0.099 1.19922,0.1975 1.76571,0.4268 1.11744,0.4851 2.23829,1.0821 2.97411,2.0842 0.67632,1.1318 0.92835,2.3738 0.80811,3.6917 -0.22848,3.7562 -1.13506,3.0834 -5.52983,5.5595 -1.09347,0.4822 -2.2382,0.8304 -3.38215,1.1711 -1.53615,0.5217 -3.10219,0.9274 -4.7097,1.1631 -2.00718,0.3457 -3.99898,0.8062 -6.02642,1.0149 -1.44575,0 -2.89869,0 -4.33148,-0.2226 -1.14722,-0.2312 -2.3437,-0.5428 -3.12207,-1.4826 -0.59212,-0.791 -1.05967,-1.7008 -1.82369,-2.3444 -0.31318,-0.1903 -0.62972,-0.4087 -1.02011,-0.3497 -0.11499,0.017 -0.42862,0.1748 -0.33014,0.1129 4.56685,-2.8687 5.25161,-3.5499 3.76737,-2.1679 -0.62134,0.8728 -0.67711,1.7873 -0.59608,2.8294 0.0834,1.1989 0.24342,2.4066 0.84414,3.4712 0.5981,1.0032 1.25788,2.127 2.50162,2.3407 2.28053,0.05 5.50197,-2.5018 -2.09562,1.9916 0.87407,-0.6375 1.46461,-1.5166 1.97205,-2.4634 0.90055,-1.4936 1.53694,-3.1056 2.1988,-4.7154 0.79522,-2.0223 1.22851,-4.1489 1.89806,-6.2139 0.62451,-2.1556 1.19721,-4.3223 1.77712,-6.4898 0.3276,-1.6586 0.38278,-3.3458 0.67014,-5.0116 0.13015,-1.1635 0.2908,-2.3212 0.3493,-3.4917 0.0319,-0.2913 0.0569,-0.5833 0.0935,-0.874 0.0103,-0.082 0.0277,-0.1621 0.0395,-0.2434 0.004,-0.025 -0.0106,-0.092 0.007,-0.075 0.0455,0.047 0.0325,0.205 0.0897,0.1738 1.49483,-0.8144 2.92509,-1.7421 4.38763,-2.6131 -0.36449,0.3108 -0.59896,0.6834 -0.90156,1.0532 -0.46924,0.5733 -0.98987,1.1085 -1.53055,1.6138 -2.52794,2.3337 -5.32543,4.0283 -8.47445,5.5625 -1.93108,0.9685 -3.93968,1.7535 -6.05316,2.2315 -2.14007,0.4409 -4.30802,0.6758 -6.49641,0.5925 -1.57785,0 -3.16458,0 -4.72935,-0.2263 -1.38973,-0.2464 -2.70476,-0.6637 -3.84594,-1.5288 -0.75257,-0.7161 -1.20369,-1.5797 -1.37561,-2.6112 -0.22464,-0.8975 -0.34995,-1.8221 -0.71695,-2.6812 -0.0142,-0.042 -0.32136,-1.0663 -0.28288,-1.0909 5.26581,-3.3594 4.72509,-4.3999 4.66951,-2.2395 -0.0246,1.4128 -0.0184,2.8264 -0.0922,4.2379 -0.10309,1.7408 -0.27362,3.4848 -0.71053,5.1781 -0.36443,1.4946 -0.9423,2.9183 -1.32807,4.4065 -0.38019,1.4946 -1.01585,2.9112 -1.84311,4.2127 -1.18574,1.6288 -2.58443,3.0553 -4.24975,4.2045 -1.54951,1.1387 -3.148,2.211 -4.65525,3.4076 -1.72736,1.0203 -3.45119,2.0465 -5.18209,3.0607 -1.06888,0.6263 -2.21057,1.075 -3.43697,1.2773 -1.45858,0.1542 -2.23587,0.034 -3.25678,-1.09 -0.78015,-1.0677 -1.3361,-2.1911 -1.33357,-3.5479 -0.10088,-1.5917 -0.0164,-3.1895 -0.0344,-4.7837 0.007,-1.5322 0.0172,-3.0644 0.0246,-4.5966 -0.0539,-3.6866 -1.09683,-1.7486 4.45359,-4.8544 0.081,-0.045 -0.13774,0.1245 -0.20662,0.1867 -0.62595,1.5163 -1.19829,3.0574 -1.95151,4.5182 -0.78509,1.6814 -1.69342,3.304 -2.3949,5.0256 -0.73255,1.5616 -1.43094,3.1877 -2.51686,4.5377 -0.34063,0.356 -0.87547,0.9256 -1.2384,1.2633 -1.99351,1.8551 -4.47793,3.1601 -6.97742,4.2099 -1.08225,0.2244 -2.13634,0.1143 -3.19888,-0.1912 -1.0226,-0.3107 -1.99639,-0.68 -2.77792,-1.4439 -0.84325,-0.7918 -1.62068,-1.6291 -2.09042,-2.7067 -0.58828,-1.1705 -1.06778,-2.3872 -1.22905,-3.6982 -0.17328,-1.1498 -0.26953,-2.3236 0.0264,-3.4627 0.32892,-1.3893 0.74335,-2.7561 1.0496,-4.1501 0.37227,-1.3244 0.72571,-2.6525 1.17253,-3.954 0.41586,-1.3504 0.73265,-2.7295 1.27134,-4.0402 0.12783,-0.3597 0.39769,-0.8742 0.41094,-1.273 0.008,-0.2494 -0.0233,-0.2024 -0.0832,-0.146 1.4643,-0.8405 2.9286,-1.681 4.3929,-2.5215 -0.493,0.2397 -0.84179,0.5701 -1.25959,0.9242 -0.61495,0.5212 -0.55313,0.4534 -1.22549,0.9476 -0.22191,0.1631 -0.44316,0.3272 -0.66474,0.4907 -2.39627,2.0421 -5.01236,3.9035 -7.99382,5.0133 -1.31866,0.3642 -2.66313,0.5284 -4.03299,0.4521 -1.61336,0 -3.22929,0.024 -4.8405,-0.07 -1.0952,-0.1335 -2.14325,-0.4184 -3.11944,-0.9492 -1.29855,-0.7038 -2.40159,-1.6698 -3.1776,-2.9407 -0.55236,-0.956 -1.07667,-1.951 -1.13164,-3.0781 0.004,-0.077 0.0542,-1.0545 0.0695,-1.0649 2.38019,-1.606 3.71211,-4.2655 5.07598,-2.4205 0.50383,1.1213 0.6908,2.354 1.00171,3.5367 0.26949,1.4851 0.45768,2.8128 0.31729,4.3325 -0.0641,2.0412 -0.21277,4.0814 -0.57243,6.0944 -0.44701,2.1896 -1.00141,4.3556 -1.77932,6.4537 -0.30429,0.6375 -0.36281,0.857 -0.79506,1.403 -0.28457,0.3595 -0.71915,0.7904 -1.1165,1.0293 -4.73842,2.8495 -3.42299,2.247 -5.88886,3.313 -0.59944,0.1986 -1.11777,0.3869 -1.73965,0.5213 -1.28867,0.2785 -2.61771,0.24 -3.92776,0.251 -1.95835,10e-4 -3.916663,0.012 -5.874961,0.026 -1.420071,0 -2.847123,0.033 -4.259057,-0.1454 -1.331494,-0.241 -2.581735,-0.669 -3.549481,-1.6662 -0.820575,-0.961 -1.409989,-2.0989 -1.613399,-3.3571 -0.0029,-1.0911 0.0031,-2.1823 0.01295,-3.2733 0.01778,-1.2979 0.04087,-2.5976 0.204534,-3.8872 0.187924,-1.5479 0.395419,-3.1053 0.768182,-4.6195 0.378384,-1.1456 0.865835,-2.2728 1.658734,-3.1979 1.952774,-1.8911 4.516015,-3.0358 7.006245,-4.0746 1.174194,-0.4186 2.379961,-0.6206 3.601333,-0.8539 0.86589,-0.2179 1.77387,-0.6224 2.67454,-0.4336 0.95101,0.5535 0.95767,1.5138 0.93718,2.5203 -0.0113,1.3552 -0.0286,2.7143 -0.19257,4.0612 -0.17895,1.1563 -0.53193,2.2312 -1.23042,3.1876 -0.7663,1.0848 -1.38444,2.3041 -2.36132,3.2159 -0.351138,0.273 -0.684175,0.5696 -1.043743,0.8314 -0.831825,0.6058 -1.773705,1.0443 -2.625224,1.6195 -1.163449,0.7678 -2.291669,1.5869 -3.427894,2.394 -2.59992,1.4872 -4.846116,3.2476 -7.793096,3.691 -1.280394,0.1144 -2.570582,0.056 -3.853357,0 -1.193311,-0.1095 -2.357921,-0.3217 -3.399181,-0.9556 -1.082257,-0.7012 -1.952329,-1.6595 -3.082616,-2.2816 -1.035171,-0.5499 -2.123789,-1.0386 -2.989325,-1.8481 -0.839637,-0.8569 -1.588033,-1.7961 -2.136501,-2.8692 -0.607308,-1.1719 -1.237838,-2.33 -1.751079,-3.5474 -0.509162,-1.1918 -1.060505,-2.3677 -1.24254,-3.6647 -0.244528,-1.5313 -0.492069,-3.0686 -0.425745,-4.6262 0.01561,-1.8974 0.07518,-3.7939 0.212033,-5.6869 0.233518,-3.064 0.599342,-6.1273 0.556996,-9.204 0.0065,-3.6731 0.0055,-7.3463 0.0042,-11.0194 0.0044,-3.7208 0.0078,-7.4417 0.0035,-11.1625 -6.73e-4,-2.9522 0.0056,-5.9049 -0.05398,-8.8567 -0.103907,-2.6561 -0.280246,-0.9196 4.667418,-3.7865 0.07847,-0.045 -0.05788,0.1726 -0.07325,0.262 -0.109696,0.6378 -0.150039,1.29 -0.328254,1.9165 -0.588638,2.5997 -1.243264,5.1828 -1.878232,7.7714 -1.404374,5.7185 -2.537119,11.5052 -4.18589,17.1626 -1.836733,6.9428 -3.939694,13.8397 -7.212762,20.2631 -2.59288,5.1863 -5.1244,10.4593 -8.672316,15.0799 -1.239725,1.4658 -1.481549,1.8333 -2.848515,3.1392 -3.069845,2.9327 -6.78168,4.9836 -10.489714,7.0053 -2.895934,1.5135 -5.896009,2.7964 -9.087431,3.5535 -1.997048,0.3983 -4.011885,0.7068 -6.030548,0.2416 -1.117841,-0.3143 -2.122938,-0.7833 -2.656727,-1.8823 -0.610187,-1.3756 -0.896631,-2.8235 -1.053371,-4.3175 -0.209595,-1.6099 -0.15314,-3.2231 -0.183061,-4.8436 0,0 4.723137,-2.4066 4.723137,-2.4066 z"
           inkscape:connector-curvature="0" />
        <path
           style="opacity:1;fill:#8d3031;fill-opacity:1;stroke:#8d3031;stroke-width:1;stroke-linecap:round;stroke-linejoin:round;stroke-miterlimit:4;stroke-dasharray:none;stroke-dashoffset:0;stroke-opacity:1"
           id="path4868"
           d="m 192.15493,1124.8934 c 1.58601,-0.9827 3.14984,-2.0007 4.75719,-2.9484 3.51444,-1.8963 6.85401,-4.1848 10.56364,-5.7076 0.86633,-0.3838 1.75546,-0.7068 2.61466,-1.1064 0,0 -4.13336,3.2762 -4.13336,3.2762 l 0,0 c -0.86134,0.3672 -1.73513,0.7037 -2.59398,1.077 -0.75631,0.3286 -0.909,0.3831 -1.65888,0.7586 -1.62634,0.8144 -7.05459,3.9211 0.065,-0.1636 -1.59094,0.9093 -3.12164,1.9171 -4.66914,2.8961 0,0 -4.9451,1.9181 -4.9451,1.9181 z"
           inkscape:connector-curvature="0" />
        <path
           style="opacity:1;fill:#8d3031;fill-opacity:1;stroke:#8d3031;stroke-width:1;stroke-linecap:round;stroke-linejoin:round;stroke-miterlimit:4;stroke-dasharray:none;stroke-dashoffset:0;stroke-opacity:1"
           id="path4870"
           d="m 158.73242,1087.6658 c -0.40352,1.3048 -0.69604,2.6343 -0.86904,3.9882 -0.10792,1.1527 -0.19586,2.3167 -0.12161,3.4741 0.0304,0.1328 0.0639,0.4674 0.2151,0.5774 0.0296,0.022 0.13583,-0.054 0.10327,-0.037 -1.51759,0.779 -3.03161,1.5651 -4.55915,2.3244 -0.0776,0.039 0.15969,-0.086 0.20494,-0.1601 0.0701,-0.1146 0.0848,-0.255 0.12717,-0.3825 0.15382,-0.6504 0.18374,-1.3196 0.21598,-1.9844 0,0 4.72383,-2.3805 4.72383,-2.3805 l 0,0 c -0.0281,0.6924 -0.0528,1.3873 -0.16066,2.0729 -0.0262,0.152 -0.0556,0.3035 -0.0786,0.456 -0.0228,0.1513 0.0723,0.3764 -0.0588,0.4554 -2.46277,1.4838 -4.73857,4.2536 -5.42932,1.4982 -0.10968,-1.1888 0.01,-2.3923 0.0956,-3.5796 0.15974,-1.3608 0.41477,-2.7043 0.81275,-4.0176 0,0 4.77858,-2.3046 4.77858,-2.3046 z"
           inkscape:connector-curvature="0" />
        <path
           style="opacity:1;fill:#8d3031;fill-opacity:1;stroke:#8d3031;stroke-width:1;stroke-linecap:round;stroke-linejoin:round;stroke-miterlimit:4;stroke-dasharray:none;stroke-dashoffset:0;stroke-opacity:1"
           id="path4872"
           d="m 61.857178,1079.0186 c 3.456057,0.054 6.912724,0.069 10.369118,0.092 4.983228,0.029 9.966543,0.022 14.949704,-0.013 0,0 -4.072607,2.9589 -4.072607,2.9589 l 0,0 c -4.970879,-0.035 -9.941913,-0.043 -14.912862,-0.013 -3.540647,0.023 -7.081543,0.038 -10.621872,0.092 0,0 4.288519,-3.1158 4.288519,-3.1158 z"
           inkscape:connector-curvature="0" />
      </g>
    </g>
  </g>
</svg>
